<svg xmlns="http://www.w3.org/2000/svg" viewBox="0 0 512 512" >
	<path fill="#423e2f" d="M510.33,237.93c-3.75-11.5-11.73-18.9-23.79-21.45c-2.71-0.57-4.92-1.43-6.14-4.33
		c-3.2-7.67-6.63-15.25-10.02-22.85c-6.76-15.13-13.55-30.24-20.33-45.35c-4.38-9.75-8.72-19.52-13.21-29.23
		c-0.78-1.68-0.72-3.04,0.28-4.41c5.62-7.7,6.6-16.43,4.84-25.36c-2.36-11.98-9.97-19.98-21.35-23.79
		c-9.91-3.32-19.76-2.29-28.54,3.88c-2.67,1.88-4.85,2.33-7.98,1.07c-10.52-4.26-21.18-8.19-31.79-12.22
		c-5.59-2.12-11.2-4.2-16.99-6.37c0,1.97,0.49,3.89-0.1,5.38c-1.35,3.42-0.88,6.11,1.93,8.45c0.68,0.57,1.19,1.5,1.96,1.8
		c9.16,3.56,18.36,7.03,27.55,10.52c3.7,1.41,7.41,2.81,11.11,4.21c1.54,0.58,2.41,1.33,1.66,3.27c-0.73,1.9-1.12,3.96-1.46,5.98
		c-0.32,1.91-1.27,1.91-2.58,1.08c-1.42-0.9-2.77-1.9-4.16-2.84c-9.77-6.61-19.96-12.48-30.74-17.29c-2.51-1.12-4.97-3.15-7.6-0.31
		c-0.37-0.45-0.76-0.72-0.72-0.92c0.37-2.35-1.17-2.99-2.97-3.48c-0.8-0.22-1.55-0.65-2.35-0.88c-9.57-2.79-19.08-5.85-28.76-8.24
		c-6.14-1.52-12.52-2.08-18.8-3.01c-2.02-0.3-2.45-0.93-1.58-2.7c0.81-1.64,1.69-3.25,2.37-4.93c0.82-2.02,2.16-2.09,3.9-1.4
		c2.13,0.85,4.28,1.63,6.42,2.44c12.96,4.93,25.91,9.87,38.88,14.78c0.98,0.37,2.04,0.52,2.98,0.75c-0.78-2.06-1.26-3.86-2.12-5.47
		c-1.34-2.51-1.31-4.64,0.7-6.8c0.88-0.95,0.85-1.8-0.85-2.43c-9.79-3.61-19.52-7.39-29.26-11.13c-5.55-2.13-11.11-4.22-16.6-6.5
		c-1.05-0.44-2.35-1.57-2.53-2.56c-1.39-7.59-5.36-13.58-11.11-18.45c-2.07-1.76-4.55-3.04-6.84-4.54
		c-0.13,0.18-0.26,0.36-0.39,0.54c0.67,1.42,1.52,2.8,1.95,4.29c0.52,1.8-0.92,2.6-2.21,3.45c-1.4,0.93-2.01-0.02-2.56-0.97
		c-1.15-2.03-2.34-4.05-3.27-6.18c-0.82-1.86-2.08-2.79-3.97-2.22c-1.73,0.52-2.6,1.79-2.71,3.8c-0.06,1.15-0.84,2.71-1.79,3.29
		c-4.23,2.6-8.63,4.92-12.97,7.34c-2.74,1.53-4.99,3.42-4.82,6.95c0.12,2.55,0.41,5.1,0.48,7.65c0.03,1.13,0.1,2.67-0.55,3.27
		c-0.6,0.56-2.31,0.5-3.21,0.06c-1.56-0.77-2.72-0.43-4.09,0.31c-1.86,1-3.43,0.3-3.76-1.77c-0.34-2.14-0.21-4.2,1.38-6.07
		c1.04-1.22,1.93-2.83,2.2-4.38c0.55-3.22,1.97-5.76,4.45-7.8c0.48-0.39,0.92-0.85,1.31-1.33c1.22-1.51,1.23-4.13-0.11-5.9
		c-5.87,5.5-10.26,11.58-11.25,19.68c-0.24,1.95-1.39,3.17-3.43,4.05c-10.59,4.56-21.08,9.34-31.59,14.09
		c-8.63,3.9-17.22,7.89-25.86,11.76c-13.8,6.17-27.63,12.26-41.43,18.43c-1.5,0.67-2.73,0.57-4.08-0.35
		c-7.17-4.86-14.97-6.34-23.62-5.34C76.5,70.19,62.32,82.25,61.43,94.61c-0.66,9.15,0.16,17.34,5.46,24.91
		c0.41,0.58,0.28,1.89-0.1,2.6c-1.62,3.08-3.43,6.07-5.15,9.1c-0.72,1.26-0.83,2.34,0.48,3.47c0.61,0.53,1.01,1.76,0.89,2.58
		c-0.19,1.33-0.89,2.58-1.38,3.86c-5.69,14.87-11.4,29.74-17.07,44.62c-5.07,13.31-10.08,26.65-15.16,39.96
		c-0.7,1.84-1.82,3.02-4.06,3.55c-6.89,1.64-12.69,4.98-17.38,10.64c-10.32,12.46-9.58,25.38-3.62,36.82
		c4.68,8.97,12.47,14.25,22.52,16.17c1.24,0.24,2.71,1.23,3.33,2.31c1.68,2.89,3.01,5.98,4.39,9.04
		c5.28,11.77,10.52,23.56,15.78,35.34c5.42,12.13,10.85,24.25,16.28,36.38c2.81,6.27,5.61,12.55,8.48,18.79
		c0.91,1.99,0.94,3.58-0.46,5.52c-4.25,5.91-5.62,12.83-5.18,19.86c0.43,6.93,2.82,13.3,7.52,18.82
		c6.21,7.29,14.03,11.01,23.35,11.58c6.21,0.38,12.29-0.54,17.43-4.63c0.66-0.52,1.55-0.74,2.27-1.19c4.01-2.54,7.51-5.45,7.88-10.7
		c0.04-0.56,0.59-1.09,0.91-1.63c0.46,0.42,0.96,0.8,1.37,1.26c0.99,1.15,1.71,2.8,2.95,3.44c4.18,2.17,7.1,5.47,9.58,9.33
		c1.64,2.56,3.66,4.58,6.74,5.69c9.96,3.6,19.81,7.49,29.71,11.25c15.6,5.93,31.2,11.84,46.79,17.8c1.84,0.7,3.99,1.33,4.41,3.62
		c1.45,7.84,5.63,13.97,11.71,18.87c2.27,1.83,4.68,3.6,7.29,4.84c6.59,3.13,13.51,3.05,20.48,1.31c6.56-1.64,12.07-4.86,16.58-10
		c3.99-4.56,6.73-9.6,7.72-15.6c0.3-1.8,0.94-3.34,2.99-4.21c9.4-4.03,18.72-8.25,28.06-12.41c12.06-5.38,24.13-10.76,36.16-16.2
		c0.51-0.23,0.84-1.07,1.08-1.69c0.54-1.46,0.74-3.1,1.52-4.41c0.85-1.43,2.4-2.45,3.27-3.87c2-3.24,3.58-3.37,5.73-0.22
		c0.34,0.5,0.59,1.21,1.07,1.46c1.12,0.58,2.63,1.62,3.49,1.27c6.08-2.47,12.09-5.13,18-7.97c2.14-1.03,3.99-1.06,5.85,0.16
		c8.29,5.47,17.32,6.52,26.72,4.14c9.71-2.46,16.61-8.68,20.89-17.59c2.58-5.38,3.14-11.22,2.55-17.23
		c-0.53-5.47-2.02-10.57-5.34-14.86c-1.94-2.51-2.2-4.58-1.08-7.47c6.52-16.67,12.9-33.41,19.28-50.13
		c6.33-16.58,12.63-33.18,18.89-49.79c0.7-1.87,1.74-3.02,3.75-3.5C506.01,275.1,516.23,256,510.33,237.93z M443.65,162.51
		c3.55,7.95,7.14,15.87,10.71,23.81c4.53,10.08,9.06,20.17,13.77,30.64c-2.76,1.58-5.37,3.13-8.07,4.51
		c-0.25,0.13-1.42-0.74-1.55-1.29c-0.88-3.7-1.55-7.45-2.38-11.17c-2.91-12.98-7.25-25.49-12.67-37.63
		c-6.92-15.51-15.71-29.89-26.24-43.22c-2.84-3.59-2.76-3.76,1.82-4.88c6.19-1.51,6.34-1.59,8.93,4.09
		C433.3,139.05,438.42,150.8,443.65,162.51z M411.84,76.88c7.3,0.2,14.6,6.96,14.41,15.21c-0.17,7.42-7,14.83-14.91,14.38
		c-7.67,0.41-14.9-6.96-14.77-15C396.69,84.01,403.57,76.64,411.84,76.88z M367.05,85.57c0.62-0.15,1.56,1.04,3.01,2.1
		c-1.34,0.97-2.14,1.97-2.62,1.83c-1.2-0.35-2.24-1.21-3.35-1.87C365.06,86.91,365.96,85.83,367.05,85.57z M249.87,15.16
		c7.73-0.45,14.94,6.96,14.85,14.93c-0.09,7.53-7.01,14.85-15.2,14.66c-7.36-0.17-14.77-6.98-14.48-15.37
		C235.29,22.08,242.01,14.76,249.87,15.16z M144.7,66.54c0.11-1.23,0.13-2.65,1.81-2.12c1.39,0.44,3.67,0.24,3.79,3.09
		c-0.91,1.35-1.68,2.82-2.78,3.99c-0.45,0.48-1.95,0.69-2.33,0.34c-0.67-0.62-1.07-1.75-1.15-2.71
		C143.95,68.29,144.62,67.42,144.7,66.54z M124.7,85.15c5.8-2.74,11.63-5.43,17.47-8.07c5.28-2.39,10.61-4.68,15.9-7.05
		c10.94-4.88,21.87-9.79,32.82-14.67c8.43-3.76,16.88-7.49,25.31-11.25c1.74-0.77,3.06-0.66,3.93,1.31
		c0.65,1.46,1.51,2.83,2.32,4.22c1.21,2.09,0.82,2.98-1.48,3.44c-4.64,0.93-9.3,1.75-13.89,2.85c-11.29,2.71-22.23,6.44-32.83,11.2
		c-12.24,5.49-24,11.81-34.92,19.64c-3.97,2.85-7.92,5.74-11.82,8.69c-1.43,1.08-2.04,0.99-2.51-0.86c-0.62-2.42-1.55-4.76-2.5-7.62
		C123.17,86.39,123.83,85.56,124.7,85.15z M91.15,83.99c7.72-0.44,14.93,6.96,14.83,14.94c-0.09,7.51-7,14.85-15.21,14.65
		c-7.38-0.18-14.63-6.99-14.47-15.15C76.44,90.94,83.31,83.56,91.15,83.99z M43.75,206.16c-0.25-1.64-0.5-3.28-0.75-4.91
		C45.9,202.54,44.63,204.36,43.75,206.16z M42.92,227.23c3.57-9.32,7.13-18.64,10.7-27.96c3.56-9.32,7.2-18.62,10.61-27.99
		c0.51-1.41,0-3.19-0.02-4.8c-0.02-1.25-0.03-2.5,0-3.74c0.09-2.91,1.29-3.55,4.05-1.82c2.75-7.23,5.43-14.27,8.1-21.32
		c0.81-2.14,1.58-4.29,2.39-6.43c0.56-1.49,1.82-1.59,3.09-1.36c2.25,0.4,4.5,0.84,6.71,1.42c1.55,0.41,1.78,1.25,0.81,2.71
		c-3.38,5.09-6.68,10.23-9.88,15.42c-5.76,9.32-10.35,19.22-14.37,29.4c-3.79,9.59-6.87,19.4-8.96,29.49
		c-1.26,6.05-2.15,12.18-3.18,18.28c-0.21,1.21-0.3,2.43-0.49,3.64c-0.26,1.67-1.41,1.6-2.52,1.09c-2.01-0.91-3.96-1.96-5.93-2.97
		C42.74,229.61,42.4,228.59,42.92,227.23z M29.38,275.02c-7.8,0.47-14.96-6.97-14.9-14.87c0.06-7.61,7.04-14.88,15.14-14.72
		c7.42,0.14,14.8,7,14.54,15.32C43.93,268.09,37.2,275.4,29.38,275.02z M78.77,370.6c-2.22-4.94-4.36-9.91-6.56-14.86
		c-5.37-12.06-10.74-24.12-16.14-36.16c-3.75-8.35-7.53-16.7-11.39-25c-0.86-1.85-0.7-2.97,1.23-3.88c1.86-0.88,3.61-2,5.41-3
		c0.39-0.22,0.79-0.4,1.54-0.78c0.39,0.64,0.93,1.16,1.04,1.77c2.15,12.18,5.16,24.14,9.42,35.76c4.03,10.98,8.93,21.56,14.75,31.73
		c5.45,9.51,11.64,18.48,18.37,27.1c1.24,1.59,0.98,2.31-0.95,2.78c-2.06,0.51-4.14,1.05-6.07,1.89c-1.73,0.75-2.6,0.2-3.29-1.31
		C83.67,381.29,81.18,375.96,78.77,370.6z M99.49,432.34c-7.67,0.41-14.9-6.96-14.77-15c0.12-7.45,7-14.82,15.27-14.59
		c7.3,0.2,14.6,6.96,14.41,15.21C114.23,425.38,107.41,432.8,99.49,432.34z M234.23,461.55c-0.75,1.33-1.52,2.66-2.15,4.05
		c-1.55,3.45-1.72,3-4.76,1.86c-13.83-5.19-27.62-10.47-41.42-15.72c-13.09-4.98-26.18-9.96-39.27-14.95c-2.63-1-5.2-2.23-7.91-2.95
		c-2.68-0.72-3.82-2.59-4.19-4.91c-0.34-2.13-0.12-4.36-0.04-6.54c0.02-0.49,0.49-0.96,0.81-1.55c1.38,0.82,2.53,1.42,3.59,2.15
		c9.39,6.48,19.15,12.35,29.48,17.17c13.77,6.42,27.93,11.8,42.92,14.66c7.12,1.36,14.28,2.52,21.43,3.72
		C234.63,458.87,235.18,459.86,234.23,461.55z M248.16,501.34c-0.94,0.23-2.36-0.27-3.12-0.95c-0.57-0.51-0.67-1.84-0.54-2.75
		c0.21-1.4,1.17-1.33,2.24-0.7c1.18,0.69,2.41,1.27,4.22,2.2C250.01,499.93,249.19,501.09,248.16,501.34z M263.74,492.84
		c-7.53-0.09-14.85-7.01-14.66-15.2c0.17-7.35,6.98-14.77,15.37-14.48c7.3,0.25,14.62,6.97,14.22,14.84
		C279.12,485.73,271.71,492.93,263.74,492.84z M312.34,471.4c-0.06,0.19-0.68,0.2-1.35,0.38c0-0.78-0.13-1.29,0.03-1.69
		c0.34-0.88,0.81-1.71,1.23-2.56c0.31,0.19,0.91,0.42,0.89,0.55C312.95,469.21,312.69,470.32,312.34,471.4z M387.72,424.89
		c-5.37,2.39-10.69,4.91-16.05,7.32c-5.7,2.57-11.44,5.08-17.15,7.63c-7.11,3.16-14.22,6.34-21.41,9.54
		c1.79,2.25,3.36,4.41,6.38,4.77c0.55,0.07,1.51,1.44,1.37,1.68c-0.76,1.31-1.59,2.84-2.82,3.51c-0.87,0.47-2.59-0.01-3.63-0.6
		c-2.98-1.7-4.01-3.7-4.4-7.78c-1.37,0.52-2.7,0.95-3.97,1.52c-9.82,4.4-19.63,8.85-29.45,13.25c-3.08,1.38-3.3,1.26-4.83-1.69
		c-0.77-1.49-1.67-2.92-2.42-4.43c-0.7-1.39-0.5-2.17,1.34-2.5c15.5-2.77,30.58-6.99,45.08-13.23c12.82-5.51,25.06-12.08,36.54-20
		c4.22-2.91,8.22-6.12,12.31-9.22c1.37-1.04,2.24-0.8,2.71,0.77c0.59,1.96,1.15,3.95,1.89,5.86
		C389.89,423.06,389.49,424.1,387.72,424.89z M383.22,394.43c-9.94,9.13-20.8,17.08-32.56,23.79c-12.78,7.29-26.13,13.2-40.22,17.42
		c-9.22,2.77-18.59,4.76-28.14,6.18c-11.95,1.78-23.94,2.1-35.92,1.64c-7.4-0.28-14.77-1.67-22.14-2.68
		c-10.24-1.4-20.15-4.15-29.91-7.49c-2.38-0.82-4.74-1.68-7.04-2.7c-0.73-0.32-5.96-2.5-7.06-3.01c-4.46-2.03-8.93-4.06-13.2-6.45
		c-5.86-3.28-11.78-6.55-17.22-10.45c-6.73-4.82-13.09-10.18-19.44-15.51c-3.5-2.94-6.74-6.21-9.97-9.46
		c-7.28-7.34-13.96-15.24-19.52-23.93c-5.43-8.48-10.55-17.21-15.1-26.18c-6.34-12.48-10.96-25.67-13.57-39.46
		c-1.52-8.03-2.87-16.13-3.68-24.26c-0.76-7.62-1.06-15.32-0.92-22.98c0.11-6.36,1.1-12.71,1.76-19.06
		c1.34-12.98,4.61-25.52,8.93-37.79c4.37-12.43,9.84-24.39,17.08-35.41c5.07-7.73,10.17-15.55,16.17-22.55
		c6.58-7.68,13.88-14.82,21.45-21.54c6.7-5.94,13.98-11.29,21.41-16.3c9.97-6.73,20.74-12.05,31.92-16.57
		c9.51-3.84,19.26-6.84,29.24-9.02c6.27-1.37,12.66-2.38,19.05-2.99c8.23-0.79,16.51-1.41,24.77-1.36
		c7.3,0.05,14.65,0.73,21.88,1.83c8.6,1.3,17.23,2.85,25.6,5.19c8.66,2.41,17.17,5.52,25.47,8.99
		c13.27,5.55,25.49,13.03,36.99,21.68c11.08,8.33,21.09,17.76,30.16,28.28c11.48,13.31,20.85,27.93,28.24,43.83
		c5.83,12.54,10.18,25.58,13.01,39.14c1.87,8.97,3.44,17.96,3.69,27.14c0.21,7.46,0.81,14.96,0.34,22.39
		c-0.52,8.33-1.98,16.6-3.12,24.89c-1.29,9.34-3.98,18.35-7.08,27.22c-4.09,11.7-9.3,22.89-15.59,33.58
		c-0.52,0.88-0.64,2.2-0.47,3.23c0.39,2.3-0.02,2.96-2.22,3.32c-0.8,0.13-1.79,0.64-2.2,1.29
		C405.43,371.74,394.95,383.65,383.22,394.43z M428.96,419.49c-1.26,1.22-2.7,2.26-2.43,4.47c0.08,0.67-0.96,1.9-1.72,2.13
		c-0.72,0.23-1.76-0.47-2.64-0.82c-1.05-0.42-2.1-1.35-3.11-1.29c-7.2,0.41-13.59-4.8-15.19-11.86c-0.22-0.97-0.18-2-0.26-3.01
		c-0.18-7.74,6.24-13.98,12.98-14.67c8.88-0.91,15.27,4.98,16.5,12.39C433.89,411.59,432.57,416,428.96,419.49z M434.8,395.71
		c-1.18-0.15-2.3-0.81-3.44-1.27c0.52-1.28,1.04-2.56,1.56-3.85c0.42-0.08,0.84-0.15,1.26-0.23c0.76,1.26,1.64,2.48,2.18,3.83
		C436.48,394.48,435.28,395.77,434.8,395.71z M467.28,309.73c-0.07,0.36-1.13,0.92-1.37,0.78c-1.7-1.02-1.38-2.62-1.23-4.27
		c0.48-0.09,0.56-0.14,0.61-0.12C466.92,306.79,467.61,308.06,467.28,309.73z M466.74,289.41c-4.65,12.16-9.34,24.31-13.99,36.47
		c-3.72,9.74-7.41,19.5-11.11,29.24c-2.62,6.9-5.19,13.82-7.88,20.7c-1.15,2.96-1.59,3.04-4.49,2.18c-1.38-0.41-2.81-0.67-4.23-0.91
		c-2.78-0.47-3.16-1.26-1.64-3.55c2.4-3.63,4.84-7.23,7.17-10.9c5.61-8.86,10.28-18.2,14.44-27.84c4.29-9.96,7.88-20.16,10.33-30.7
		c1.69-7.27,2.75-14.69,4.08-22.05c0.33-1.8,0.59-3.61,0.95-5.4c0.25-1.25,0.94-1.38,2.05-0.8c2.02,1.06,4.13,1.95,6.14,3.03
		c0.61,0.33,0.99,1.07,1.45,1.58C468.83,283.71,467.82,286.58,466.74,289.41z M481.57,262.48c-7.66-0.04-14.9-7.06-14.76-15.11
		c0.13-7.44,7-14.82,15.29-14.57c7.38,0.22,14.67,6.96,14.31,14.75C496.89,255.39,489.42,262.52,481.57,262.48z M504.78,263.66
		c-0.84-0.52-1.73-1.19-2.16-2.03c-0.15-0.29,0.93-1.23,1.9-2.44c0.8,1.38,1.5,2.15,1.62,3.01
		C506.2,262.63,504.91,263.74,504.78,263.66z"/>
</svg>
