<svg xmlns="http://www.w3.org/2000/svg" viewBox="0 0 512 512" >
	<path fill="#423e2f" d="M187.27,426.53c3.24-2.14,6.73-2.59,10.51-1.52c5.71,1.61,11.43,3.28,17.24,4.49
		c4.19,0.87,8.54,0.98,12.8,1.53c1.27,0.16,2.56,0.52,3.71,1.07c3.45,1.67,7.11,1.14,10.71,1.39c1.34,0.1,2.71,1.13,3.87,2
		c0.96,0.72,1.49,2.04,2.48,2.69c0.74,0.48,1.9,0.3,2.87,0.41c-0.16-0.73-0.24-1.48-0.5-2.17c-0.23-0.62-0.66-1.18-1.22-2.13
		c4.73-1.56,9.19-0.72,14.01-0.4c-1.19,1.55-2.19,2.84-3.18,4.14c0.09,0.26,0.18,0.52,0.27,0.79c1.08-0.12,2.38,0.1,3.19-0.43
		c1.29-0.86,2.47-2.14,1.22-4.59c2.49,0,4.63,0.18,6.74-0.04c3.19-0.33,6.35-0.89,9.51-1.43c4.13-0.71,8.27-1.45,12.38-2.28
		c7.63-1.54,15.32-2.88,22.37-6.48c8.79-4.49,17.71-8.73,26.38-13.44c9.56-5.19,18.68-11.12,26.85-18.36
		c5.27-4.67,10.72-9.18,15.57-14.26c9.23-9.68,17.32-20.25,24.19-31.8c7.26-12.21,13.22-25,17.15-38.61
		c2.59-8.99,4.34-18.23,6.15-27.43c2.25-11.39,2.3-22.97,1.8-34.49c-0.32-7.25-1.71-14.46-2.68-21.67
		c-1.35-10.03-4.17-19.69-7.54-29.19c-3.54-9.94-7.8-19.57-13.23-28.65c-0.33-0.55-0.9-0.96-1.39-1.4
		c-0.38-0.35-1.11-0.61-1.16-0.99c-0.75-5.38-4.53-9.11-7.48-13.17c-4.11-5.64-8.64-11.01-13.33-16.2
		c-4.3-4.77-8.71-9.55-13.67-13.59c-7.59-6.17-15.48-12.04-23.64-17.44c-9.89-6.54-20.63-11.53-31.8-15.62
		c-10.4-3.81-20.96-7.06-31.81-9.19c-8.7-1.7-17.49-2.94-26.25-4.33c-8.37-1.32-16.56-0.18-24.71,1.76
		c-7.12,1.69-14.39,2.84-21.4,4.87c-9,2.6-17.89,5.62-26.67,8.9c-4.63,1.73-9.02,4.2-13.32,6.67c-6.62,3.81-13.3,7.59-19.52,12
		c-6.56,4.65-12.62,10.01-18.89,15.07c-1.58,1.28-3.14,2.38-3.25,4.91c-0.05,1.11-1.89,2.25-3.06,3.19c-2,1.61-4.12,3.08-6.18,4.61
		c0.32,0.13,0.63,0.26,0.95,0.38c0.3,1.21,1.15,2.66,0.75,3.58c-0.55,1.28-1.96,2.26-3.19,3.11c-0.2,0.14-1.32-1.04-2.16-1.73
		c-0.47,0.57-1.21,1.43-1.9,2.33c-4.39,5.62-8.88,11.16-13.09,16.91c-1.93,2.63-3.5,5.59-4.77,8.6c-0.52,1.22,0.02,3,0.4,4.45
		c0.38,1.46,0.56,2.33-1.43,2.15c-0.46-0.04-1.05,0.5-1.46,0.89c-3.27,3.18-5.15,7.23-6.57,11.42c-2.71,8-5.24,16.07-7.6,24.18
		c-1.21,4.16-2,8.46-2.73,12.74c-0.18,1.04,0.4,2.42,1.05,3.34c1.07,1.51,1.1,2.5-0.7,3.24c-1.65,0.68-1.83,2.12-1.84,3.61
		c-0.03,3.12,0,6.24-0.01,9.36c-0.01,3.38-0.54,6.67-1.08,10.02c-0.76,4.67-1.03,9.6,1.24,14.32c1.29,2.67,2.15,5.88,2.07,8.82
		c-0.42,14.78,3.93,28.45,9.14,41.95c5,12.96,11.42,25.2,19.55,36.47c4.44,6.15,9.21,12.08,14.18,17.82
		c4.27,4.93,8.94,9.53,13.59,14.11c4.39,4.32,9.32,8.12,13.38,12.7c3.14,3.54,6.74,6.31,10.71,8.55c4.86,2.76,9.4,6.16,15.05,7.49
		c3,0.71,5.84,2.16,8.69,3.42c0.28,0.12,0.31,1.42,0.05,1.98c-0.58,1.23-1.86,2.27-2.05,3.51c-0.08,0.52-0.21,0.93-0.38,1.24
		c0.94,0.4,1.88,0.79,2.82,1.18C186.23,427.4,186.81,426.83,187.27,426.53z M257.96,396.79c-2.34-1.31-4.49-1.77-6.53,0.46
		c-0.19,0.21-0.55,0.41-0.81,0.38c-0.7-0.06-1.64-0.03-1.99-0.45c-0.35-0.41-0.27-1.39-0.08-2.02c0.28-0.94,0.72-1.87,1.28-2.68
		c0.84-1.2,1.76-2.21,3.57-1.47c2.31,0.94,4.73,1.6,7.07,2.47c0.54,0.2,0.94,0.79,1.18,1C261.66,396.64,259.66,397.75,257.96,396.79
		z M265.69,404.67c-0.93-2.97,0.97-5.05,4.56-4.96C270.94,402.85,269.12,404.82,265.69,404.67z M119.01,155.29
		c0.61,0.06,1.58,0.96,1.61,1.52c0.1,1.76-1.33,2.65-3.45,2.42C116.77,156.18,117.21,155.12,119.01,155.29z M179.59,399.6
		c-0.82-0.01-1.71-0.14-2.44-0.48c-0.64-0.3-1.39-0.91-1.54-1.52c-0.12-0.48,0.56-1.2,0.97-1.75c0.32-0.42,0.79-0.72,1.38-1.24
		c-0.41-0.58-1.05-1.13-0.95-1.42c0.29-0.81,0.89-1.52,1.36-2.27c0.6,0.51,1.78,1.14,1.7,1.51c-0.36,1.72,0.66,2.8,1.36,4.08
		C182.45,398.37,181.68,399.64,179.59,399.6z M174.86,381.77c-1.54-0.91-1.98-2.16-1.33-4.13c1.49-4.47,2.44-9.11,3.92-13.58
		c1.12-3.39,2.89-6.57,4.08-9.94c1.85-5.24,3.38-10.59,5.22-15.83c0.88-2.5,2.3-4.81,3.19-7.3c0.32-0.89,0.17-2.42-0.42-3.02
		c-0.5-0.5-2.03-0.35-2.94-0.02c-2.7,0.98-5.24,2.56-8,3.23c-3.48,0.84-7.13,0.94-10.68,1.51c-4.98,0.79-10.04,1.36-14.87,2.69
		c-3.45,0.95-6.67,2.87-9.84,4.63c-4.63,2.57-6.55,1.74-8.5-1.79c-3.91-7.08-8.44-13.84-12.2-20.99c-2.58-4.9-4.23-10.29-6.45-15.39
		c-0.98-2.24,0.01-3.56,1.65-4.65c8.6-5.67,17.21-11.34,25.87-16.91c5.2-3.35,10.54-6.48,15.73-9.83c0.91-0.59,1.44-1.77,2.15-2.67
		c-1.02-0.68-1.95-1.61-3.06-1.99c-2.37-0.79-4.84-1.26-7.25-1.94c-0.79-0.22-1.49-0.72-2.24-1.08c-1.76-0.86-3.29-2.65-5.59-0.89
		c-0.81,0.62-4.07-1.75-4.23-3.26c-0.19-1.86-1.36-2.61-2.73-3.31c-3.35-1.7-6.62-3.64-10.11-4.97c-2.45-0.93-5.23-0.98-7.84-1.48
		c-1.56-0.3-3.11-0.67-4.63-1.14c-1.64-0.5-3.22-1.22-4.87-1.71c-2-0.6-2.34-2.25-2.65-3.91c-0.24-1.3,0.35-2.07,1.61-2.7
		c0.63-0.31,0.95-1.57,1.12-2.45c1.14-6,1.9-12.09,3.37-18c1.61-6.49,3.72-12.87,5.85-19.22c1.14-3.39,2.78-6.6,4.2-9.9
		c1.48-3.44,2.6-3.71,7.53-2.66c10.35,2.23,20.76,4.23,31.11,6.48c4.38,0.95,8.66,2.36,13.02,3.37c1.04,0.24,2.5,0.05,3.3-0.56
		c0.41-0.32,0.17-2.28-0.4-2.98c-4.6-5.58-5.27-12.53-7.09-19.11c-1.42-5.13-2.9-10.29-4.9-15.21c-1.06-2.61-3.15-4.88-5.05-7.06
		c-2.09-2.41-2.5-5.36-3.02-8.24c-0.16-0.89,0.64-2.26,1.42-2.94c3.12-2.72,6.41-5.26,9.64-7.86c3.95-3.18,7.75-6.55,11.89-9.46
		c4.23-2.98,8.62-5.84,13.25-8.14c6.21-3.08,12.58-5.95,19.13-8.2c5.45-1.87,11.23-2.79,16.91-3.92c0.72-0.14,1.99,0.84,2.51,1.63
		c6.58,10.02,13.09,20.07,19.55,30.17c1.19,1.85,2.01,3.93,3.03,5.9c0.35,0.67,0.66,1.4,1.16,1.95c1.5,1.69,3.19,1.42,3.85-0.71
		c0.59-1.88,0.51-4.03,1.35-5.76c1.91-3.96,4.2-7.73,6.33-11.59c2.91-5.28,5.86-10.53,8.68-15.85c0.48-0.9,0.56-2.08,0.59-3.13
		c0.07-1.9,1.18-2.55,2.77-2.22c9.82,2.06,20.13,2.47,29.1,7.53c10.25,5.78,21.25,10.24,30.72,17.38c2.26,1.71,3.21,3.56,2.74,6.89
		c-1.08,7.75-4.02,15.01-5.14,22.74c-0.74,5.08-2.63,9.98-3.81,15.01c-0.27,1.15,0.27,2.49,0.43,3.74c1.15-0.24,2.59-0.12,3.41-0.77
		c5.9-4.72,13.29-5.02,20.11-7.01c4.53-1.32,9.04-2.71,13.51-4.24c1.86-0.64,3.22-0.48,4.46,1.11c4.82,6.14,10.18,11.92,13.2,19.27
		c3.21,7.82,6.41,15.66,9.25,23.62c1.89,5.29,3.18,10.8,4.66,16.23c0.76,2.81-0.26,4.81-2.87,6.34
		c-8.43,4.92-16.83,9.91-25.29,14.78c-1.77,1.02-3.85,1.5-5.62,2.5c-0.89,0.5-1.84,1.59-1.95,2.51c-0.07,0.57,1.35,1.81,2.19,1.9
		c7.23,0.81,12.43,5.5,18.23,9.12c5.04,3.14,10.31,5.92,15.54,8.75c2.36,1.28,1.46,3.43,1.14,4.93c-1.98,9.31-3.86,18.68-6.57,27.79
		c-1.61,5.44-4.52,10.53-7.12,15.63c-2.54,4.96-5.42,9.75-8.18,14.6c-0.79,1.39-1.55,2.83-2.53,4.08c-1.54,1.97-3.76,1.08-5.64,0.86
		c-1.85-0.22-3.59-1.23-5.43-1.63c-5.81-1.28-11.58-3.02-17.64-1.11c-2.03,0.64-4.11,0.4-5.26-2c-0.33-0.69-1.03-1.4-1.72-1.68
		c-3.02-1.22-6.09-2.29-9.15-3.42c-0.2,0.15-0.41,0.31-0.61,0.46c0.46,1.3,0.61,2.84,1.42,3.85c3.23,4.01,3.9,8.85,4.93,13.62
		c1.19,5.51,2.58,10.97,3.97,16.43c0.67,2.65,1.4,5.26,3.39,7.39c1.02,1.09,0.78,2.4-0.6,3.51c-9.42,7.59-19.86,13.51-30.78,18.59
		c-6.29,2.92-12.72,5.52-19.12,8.21c-0.97,0.41-2.08,0.66-3.13,0.66c-4.58-0.01-4.7,0.8-6.72-3.71c-1.37-3.06-3.08-5.96-4.65-8.92
		c-0.62-1.16-1.42-1.62-2.85-1.16c-2.19,0.71-3.17-1.27-4.26-2.5c-2.12-2.42-2.56-5.88,0.11-8.11c0.48-0.4,0.61-1.84,0.28-2.5
		c-2.39-4.89-5-9.66-7.38-14.55c-1.06-2.17-1.62-4.59-2.64-6.78c-0.35-0.76-1.39-1.6-2.16-1.65c-0.61-0.04-1.72,0.99-1.87,1.7
		c-1.52,7.35-6.71,12.39-11.01,18.03c-3.15,4.13-6.24,8.35-8.83,12.84c-1.4,2.43-1.62,5.51-2.5,8.26c-0.48,1.5-1.14,2.96-1.87,4.36
		c-0.84,1.61-1.96,3.07-2.75,4.7c-0.75,1.55-2,1.62-3.32,1.42c-4.84-0.72-9.65-1.68-14.51-2.24c-7.36-0.85-14.08-3.45-20.43-7.08
		C188.79,390.01,181.82,385.9,174.86,381.77z M381.68,248.95c-0.91,1.43-1.55,2.78-2.54,3.8c-0.44,0.45-1.82,0.57-2.34,0.22
		c-0.68-0.46-1.41-1.66-1.25-2.34c0.33-1.41,1.1-2.79,1.98-3.96c0.36-0.48,1.74-0.76,2.22-0.45
		C380.51,246.69,380.9,247.76,381.68,248.95z"/>
</svg>
