<svg xmlns="http://www.w3.org/2000/svg" viewBox="0 0 512 512" >
	<path fill="#423e2f" d="M328.17,242.42c1.43,8.22,1.84,16.55,0.2,24.88c-0.56,2.85-0.48,5.83-1.08,8.67
		c-0.41,1.96-1.42,3.82-2.29,5.65c-1.89,3.98-4.07,7.85-5.75,11.92c-1.05,2.55-2.72,2.53-4.94,2.16c1.73-3.32,3.49-6.58,5.14-9.89
		c2.91-5.85,4.77-12.07,5.52-18.53c0.64-5.51,1.2-11.13,0.88-16.64c-0.46-7.86-2.32-15.56-5.56-22.79
		c-2.92-6.5-6.43-12.7-11.02-18.21c-1.11-1.33-0.65-2.22,0.93-3.42c1.06,1.61,2.11,3.19,3.15,4.77c0.16,0.25,0.24,0.67,0.46,0.76
		c3.74,1.57,4.55,5.42,6.33,8.4C324.22,227.02,326.81,234.58,328.17,242.42z M186.92,223.38c2.72-3.01,5.64-5.85,8.11-9.05
		c5.6-7.25,11.68-13.86,19.63-18.68c8.1-4.92,16.48-8.92,25.95-10.38c2.08-0.32,4.82-0.29,4.89-3.6
		C219.68,182.08,192.82,204.83,186.92,223.38z M225.76,322.39c-4.8-2.82-10.05-4.97-14.49-8.25c-4.54-3.37-8.51-7.6-12.39-11.77
		c-6.23-6.69-10.58-14.56-13.42-23.25c-0.61-1.88-1.29-3.74-1.94-5.6c-0.32,0.05-0.64,0.1-0.96,0.15c0.17,2.63-0.28,5.5,0.62,7.85
		c2.44,6.41,5.19,12.74,9.38,18.28c2.64,3.48,4.93,7.33,8.05,10.31c5.7,5.46,12.33,9.79,19.35,13.43c2.12,1.1,4.42,1.84,6.63,2.74
		c0.33-0.36,0.65-0.73,0.98-1.09C226.99,324.23,226.62,322.9,225.76,322.39z M282.81,322.05c-8.54,3.77-17.56,5.58-26.86,6.17
		c-1.41,0.09-2.77,1.17-4.15,1.8c0.13,0.37,0.27,0.75,0.4,1.12c15.13,1.31,28.76-3.07,41.55-11.08c-0.46-1.23-0.83-2.22-1.16-3.11
		C289.15,318.77,286.07,320.62,282.81,322.05z M284.99,187.15c-1.22-0.41-2.43-0.88-3.62-1.37c-7.05-2.85-14.42-4.32-22.68-5.16
		c-0.39,0.34-1.63,0.91-1.85,1.74c-0.35,1.37,0.89,1.58,2.08,1.62c1.53,0.05,3.05,0.23,4.57,0.45c7.04,1.02,13.78,3.14,20.33,5.86
		c1.05,0.44,2.17,1.03,2.71-0.24C287.05,188.8,286.45,187.65,284.99,187.15z M297.69,194.82c-1.74-1.34-3.68-2.42-5.75-3.76
		c-0.5,0.65-1.13,1.11-1.12,1.54c0.03,0.72,0.27,1.66,0.78,2.09c1.34,1.12,2.94,1.92,4.3,3.03c3.05,2.47,6.06,4.98,8.97,7.6
		c1.27,1.15,2.2,0.45,2.95-0.35c0.32-0.34,0.21-1.65-0.17-1.98C304.41,200.17,301.09,197.44,297.69,194.82z M296.05,318.07
		c0.16,0.12,0.33,0.24,0.49,0.36c1.83-2.58,6.71-2.88,4.96-8.09C299.68,312.92,297.87,315.5,296.05,318.07z"/>
</svg>
