<?xml version="1.0" encoding="utf-8"?>
<!-- Generator: Adobe Illustrator 28.2.0, SVG Export Plug-In . SVG Version: 6.00 Build 0)  -->
<svg version="1.1" id="icon" xmlns="http://www.w3.org/2000/svg" xmlns:xlink="http://www.w3.org/1999/xlink" x="0px" y="0px"
	 viewBox="0 0 512 512" style="enable-background:new 0 0 512 512;" xml:space="preserve">
<style type="text/css">
	.st0{fill:url(#SVGID_1_);}
	.st1{fill:#460E0E;}
</style>
<g transform="">
	<linearGradient id="SVGID_1_" gradientUnits="userSpaceOnUse" x1="91.983" y1="88.6497" x2="412.8311" y2="409.4977">
		<stop  offset="0" style="stop-color:#F03232"/>
		<stop  offset="1" style="stop-color:#460E0E"/>
	</linearGradient>
	<path class="st0" d="M27.5,326.8V226.5L256,378.8l228.5-152.3v100.4L256,479.2L27.5,326.8z M107.5,250.9v-84.3L256,266.9
		l148.5-100.2v84.3L256,351.1L107.5,250.9z M171.5,182.1v-61.6l84.5,56.3l84.5-56.3v61.6l-84.5,57L171.5,182.1z M171.5,92.8V34.5
		L256,90.8l84.5-56.3v58.4L256,149.2L171.5,92.8z"/>
	<path class="st1" d="M338,39.2v52.3l-82,54.7l-82-54.7V39.2L253.2,92l2.8,1.8l2.8-1.8L338,39.2 M338,125.2v55.6l-82,55.4l-82-55.4
		v-55.6l79.2,52.8l2.8,1.8l2.8-1.8L338,125.2 M402,171.3v78.2l-146,98.5l-146-98.5v-78.2L253.2,268l2.8,1.9l2.8-1.9L402,171.3
		 M482,231.2v94.3L256,476.2L30,325.5v-94.3L253.2,380l2.8,1.8l2.8-1.8L482,231.2 M343,29.8l-87,58l-87-58v64.4l87,58l87-58V29.8
		L343,29.8z M343,115.8l-87,58l-87-58v67.6l87,58.7l87-58.7V115.8L343,115.8z M407,161.9L256,263.9L105,161.9v90.3l151,101.9
		l151-101.9V161.9L407,161.9z M487,221.8l-231,154l-231-154v106.4l231,154l231-154V221.8L487,221.8z"/>
</g>
</svg>
