<?xml version="1.0" encoding="utf-8"?>
<!-- Generator: Adobe Illustrator 28.2.0, SVG Export Plug-In . SVG Version: 6.00 Build 0)  -->
<svg version="1.1" id="icon" xmlns="http://www.w3.org/2000/svg" xmlns:xlink="http://www.w3.org/1999/xlink" x="0px" y="0px"
	 viewBox="0 0 512 512" style="enable-background:new 0 0 512 512;" xml:space="preserve">
<style type="text/css">
	.st0{fill:url(#SVGID_1_);}
	.st1{fill:#413D2E;}
</style>
<g>
	<linearGradient id="SVGID_1_" gradientUnits="userSpaceOnUse" x1="101.8323" y1="105.7402" x2="410.1677" y2="414.0756">
		<stop  offset="0" style="stop-color:#EBDBA6"/>
		<stop  offset="1" style="stop-color:#413D2E"/>
	</linearGradient>
	<path class="st0" d="M48,360.3v-90.9L256,408l208-138.6v90.9L256,498.9L48,360.3z M192.5,319.8v-45.3l63.5,42.3l63.5-42.3v45.3
		L256,362.7L192.5,319.8z M256,111.8L48,250.4v-90.9L256,20.9l208,138.6v90.9L256,111.8z M256,202.9l-63.5,42.3V200l63.5-42.9
		l63.5,42.9v45.3L256,202.9z"/>
	<path class="st1" d="M256,23.9l205.5,137v84.9L258.8,110.6l-2.8-1.8l-2.8,1.8L50.5,245.8v-84.9L256,23.9 M256,160.1l61,41.2v39.3
		l-58.2-38.8l-2.8-1.8l-2.8,1.8L195,240.6v-39.3L256,160.1 M461.5,274v84.9L256,495.9l-205.5-137V274l202.7,135.1l2.8,1.8l2.8-1.8
		L461.5,274 M317,279.2v39.3l-61,41.2l-61-41.2v-39.3l58.2,38.8l2.8,1.8l2.8-1.8L317,279.2 M256,17.9L45.5,158.2v96.9L256,114.8
		l210.5,140.3v-96.9L256,17.9L256,17.9z M256,154.1l-66,44.6V250l66-44l66,44v-51.3L256,154.1L256,154.1z M466.5,264.7L256,405
		L45.5,264.7v96.9L256,501.9l210.5-140.3V264.7L466.5,264.7z M322,269.9l-66,44l-66-44v51.3l66,44.6l66-44.6V269.9L322,269.9z"/>
</g>
</svg>
