<?xml version="1.0" encoding="utf-8"?>
<!-- Generator: Adobe Illustrator 23.0.1, SVG Export Plug-In . SVG Version: 6.00 Build 0)  -->
<svg version="1.1" id="Layer_1" xmlns="http://www.w3.org/2000/svg" xmlns:xlink="http://www.w3.org/1999/xlink" x="0px" y="0px"
	 viewBox="0 0 512 512" style="enable-background:new 0 0 512 512;" xml:space="preserve">
<style type="text/css">
	.st0{display:none;}
	.st1{display:none;opacity:0.5;fill:#FF0000;}
	.st2{fill:#FF0000;}
</style>
<g id="INSIGHT_4_2_" transform="translate(0,0)">
	<path class="st0" d="M245.9,27.3c-89.2,0-175,44.3-222.7,133c21.2,38.8,45.1,64.1,54.4,100v50c-4.8,10.1-12.1,17.2-12.1,28.4
		c0,9.1,11.6,18.1,21,18.1c9.2,0,21.6-9.7,21.6-19.3c0-11.4-7.3-17.8-11.9-27v-32.3c16-32.2,81.4-9.4,105.8,45.6v80.6
		c-6.4,10.5-13.6,17-13.6,28.9c0,17.9,11.8,24.5,23.9,24.5c11.9,0,21.6-5.7,21.6-24.5c0-9.3-7.4-16.6-13.2-31.1v-78.2
		c15.7-36.5,54.9-20.1,71.7,31.3v74.8c-5.4,10.5-11.7,19.5-11.7,32.3c0,12.9,10,22.2,21,22.2c10.7,0,22.2-9.7,22.2-23.3
		c0-14.4-7.1-23.4-12.8-34.6v-84.6H311c15.3-66,52.3-101.4,68.8-52.6v59.8c-4.5,9-9.6,17.4-9.6,29.6c0,13.9,9.6,23.9,18.7,23.9
		c9.3,0,18.1-9.5,18.1-22.8c0-10.8-4.3-19-8.5-27.6v-69.9c20-69.8,66.4-87.3,90.3-122.4C427.6,71.7,335.1,27.3,245.9,27.3
		L245.9,27.3z M246.4,49.3c81.7-0.6,166.1,37.8,216.1,115.9c-149.8,108.4-280.2,108.6-413-4.9C90.4,87.1,167.1,49.9,246.4,49.3
		L246.4,49.3z M251.1,65.3c-45,0-81.4,36.5-81.4,81.4s36.4,81.4,81.4,81.4c45,0,81.4-36.4,81.4-81.4
		C332.5,101.8,296,65.3,251.1,65.3L251.1,65.3z M250.5,114.4c16.1,0,29.2,13.1,29.2,29.2s-13.1,29.2-29.2,29.2
		c-16.1,0-29.2-13.1-29.2-29.2S234.4,114.4,250.5,114.4L250.5,114.4z"/>
	<path class="st1" d="M458.2,158.4c-67.8,57.5-140.8,87.7-212.8,87.5c-0.1,0-0.2,0-0.2,0c-48-0.2-95.6-14-140.8-42.3
		c-18.7-11.7-36.9-25.8-54.7-42.5c0.2-0.1,0.3-0.3,0.5-0.4c-0.2-0.1-0.3-0.3-0.5-0.4C132.9,12.1,366.3,11.9,458.2,158.4z"/>
	<path id="Pupil_4_" class="st2" d="M326.5,67.7c-19.6-18.6-46.1-30.1-75.3-30.1v0c-26.3,0-50.4,9.3-69.3,24.8
		c-24.4,20-39.9,50.4-39.9,84.4c0,60.3,48.9,109.2,109.2,109.2c60.3,0,109.2-48.9,109.2-109.2C360.4,115.7,347.4,87.6,326.5,67.7z
		 M250.5,181.7c-21.6,0-39.2-17.6-39.2-39.2s17.6-39.1,39.2-39.1s39.1,17.5,39.1,39.1S272.1,181.7,250.5,181.7z M326.5,67.7
		c-19.6-18.6-46.1-30.1-75.3-30.1v0c-26.3,0-50.4,9.3-69.3,24.8c-24.4,20-39.9,50.4-39.9,84.4c0,60.3,48.9,109.2,109.2,109.2
		c60.3,0,109.2-48.9,109.2-109.2C360.4,115.7,347.4,87.6,326.5,67.7z M250.5,181.7c-21.6,0-39.2-17.6-39.2-39.2s17.6-39.1,39.2-39.1
		s39.1,17.5,39.1,39.1S272.1,181.7,250.5,181.7z M326.5,67.7c-19.6-18.6-46.1-30.1-75.3-30.1v0c-26.3,0-50.4,9.3-69.3,24.8
		c-24.4,20-39.9,50.4-39.9,84.4c0,60.3,48.9,109.2,109.2,109.2c60.3,0,109.2-48.9,109.2-109.2C360.4,115.7,347.4,87.6,326.5,67.7z
		 M250.5,181.7c-21.6,0-39.2-17.6-39.2-39.2s17.6-39.1,39.2-39.1s39.1,17.5,39.1,39.1S272.1,181.7,250.5,181.7z"/>
	<path class="st2" d="M244,27.4c-46.9,0-93.5,12.3-134.7,39.1c-36,22.9-64.5,54.6-84.7,92.3c4.1,14.7,14.2,28.7,25.7,41.2
		c8.1,8.8,16.9,16.8,24.8,23.9c18.3,17.1,38.3,30.6,59.5,40.8c8.3,4,16.8,7.5,25.4,10.5c28.6,10,58.8,14.5,88.9,14
		c4.8-0.1,9.6-0.3,14.4-0.6c30.6-2.1,61.1-9.3,90-21.1c27.5-11.2,53.5-26.6,76.8-45.7c21.8-17.9,41.2-39.1,57.2-63.2
		C434.8,77.7,339,27.4,244,27.4z M245.4,245.9c-0.1,0-0.2,0-0.2,0c-48-0.2-95.6-14-140.8-42.3c-18.7-11.7-36.9-25.8-54.7-42.5
		c0.2-0.1,0.3-0.3,0.5-0.4c-0.2-0.1-0.3-0.3-0.5-0.4c83.2-148.2,316.6-148.4,408.5-1.8C390.3,215.9,317.3,246.1,245.4,245.9z
		 M263.3,288.7c7.2,3,14.1,11.6,20,28.1c3.5,9.8,6.7,22.5,9.3,38.6v74.8c-5.4,10.5-11.7,19.5-11.7,32.3c0,12.9,10,22.2,21,22.2
		c10.7,0,22.2-9.7,22.2-23.3c0-14.4-7.1-23.4-12.8-34.6v-84.6h-0.2c2.1-9.1,4.7-17.6,7.5-25.4c9.6-26.4,22.6-44.5,34.7-48.9v-0.3
		C324.5,279.4,294,286.6,263.3,288.7z M224.5,316.8c6.4-12.2,15.1-23.2,24.4-27.5c-30.2,0.5-60.3-4-88.9-14
		c14.9,9.1,29.2,23.3,38.9,41.5c1.2,2.3,2.4,4.7,3.5,7.1v80.6c-6.4,10.5-13.6,17-13.6,28.9c0,17.9,11.8,24.5,23.9,24.5
		c11.9,0,21.6-5.7,21.6-24.5c0-9.3-7.4-16.6-13.2-31.1v-78.2C222.1,321.6,223.3,319.2,224.5,316.8z M134.6,264.8
		c-21.2-10.2-41.2-23.8-59.5-40.8c-7.9-7.1-16.7-15.1-24.8-23.9c11.8,18.3,22,39.5,27.4,60.3v50c-1.1,2.3-2.3,4.4-3.5,6.5
		c-4.2,7.1-8.5,13.3-8.5,21.9c0,9.1,11.6,18.1,21,18.1c9.2,0,21.6-9.7,21.6-19.3c0-8.6-4.2-14.4-8.3-20.8c-1.3-2-2.5-4.1-3.6-6.3
		v-32.3C103,265.1,117.8,261.1,134.6,264.8z M401.6,204c-16.3,8.8-32.3,16.2-48.2,22.3v41.7c10.3-3.7,20,2.4,26.5,21.7v59.8
		c-4.5,9-9.6,17.4-9.6,29.6c0,13.9,9.6,23.9,18.7,23.9c9.3,0,18.1-9.5,18.1-22.8c0-10.8-4.3-19-8.5-27.6v-69.9
		c7.6-26.5,19-45.5,31.5-60.7c5.4-6.6,11-12.5,16.7-18H401.6z"/>
</g>
</svg>
