<?xml version="1.0" encoding="utf-8"?>
<!-- Generator: Adobe Illustrator 23.0.1, SVG Export Plug-In . SVG Version: 6.00 Build 0)  -->
<svg version="1.1" id="Layer_1" xmlns="http://www.w3.org/2000/svg" xmlns:xlink="http://www.w3.org/1999/xlink" x="0px" y="0px"
	 viewBox="0 0 512 512" style="enable-background:new 0 0 512 512;" xml:space="preserve">
<style type="text/css">
	.st0{fill:#F03232;}
	.st1{fill:#FF0000;}
	.st2{fill:#9B2020;}
</style>
<g id="INSIGHT_3_1_" transform="translate(0,0)">
	<path id="Pupil_2_" class="st0" d="M314.5,80c-16.5-15.7-38.9-25.4-63.5-25.4v0c-22.2,0-42.6,7.9-58.5,20.9
		c-20.6,16.9-33.7,42.5-33.7,71.2c0,50.9,41.2,92.1,92.1,92.1c50.9,0,92.2-41.2,92.2-92.1C343.1,120.5,332.1,96.8,314.5,80z
		 M250.3,176.3c-18.3,0-33.1-14.8-33.1-33.1s14.8-33,33.1-33s33,14.8,33,33S268.6,176.3,250.3,176.3z M314.5,80
		c-16.5-15.7-38.9-25.4-63.5-25.4v0c-22.2,0-42.6,7.9-58.5,20.9c-20.6,16.9-33.7,42.5-33.7,71.2c0,50.9,41.2,92.1,92.1,92.1
		c50.9,0,92.2-41.2,92.2-92.1C343.1,120.5,332.1,96.8,314.5,80z M250.3,176.3c-18.3,0-33.1-14.8-33.1-33.1s14.8-33,33.1-33
		s33,14.8,33,33S268.6,176.3,250.3,176.3z M314.5,80c-16.5-15.7-38.9-25.4-63.5-25.4v0c-22.2,0-42.6,7.9-58.5,20.9
		c-20.6,16.9-33.7,42.5-33.7,71.2c0,50.9,41.2,92.1,92.1,92.1c50.9,0,92.2-41.2,92.2-92.1C343.1,120.5,332.1,96.8,314.5,80z
		 M250.3,176.3c-18.3,0-33.1-14.8-33.1-33.1s14.8-33,33.1-33s33,14.8,33,33S268.6,176.3,250.3,176.3z"/>
	<path class="st1" d="M398.3,282.7v69.9c4.2,8.5,8.5,16.7,8.5,27.6c0,13.2-8.8,22.8-18.1,22.8c-9.1,0-18.7-10-18.7-23.9
		c0-12.2,5.1-20.6,9.6-29.6v-59.8c-6.5-19.3-16.2-25.5-26.5-21.7v-41.7c15.9-6,31.9-13.5,48.2-22.3h45.2
		C427.9,222.2,409.2,244.7,398.3,282.7z M134.3,264.8c-21.2-10.2-41.2-23.8-59.5-40.8c-7.9-7.1-16.7-15.1-24.7-23.9
		c11.8,18.3,22,39.5,27.4,60.3v50c-4.8,10.1-12.1,17.2-12.1,28.4c0,9.1,11.6,18.1,21,18.1c9.2,0,21.6-9.7,21.6-19.3
		c0-11.4-7.3-17.8-11.9-27v-32.3C102.7,265.1,117.5,261.1,134.3,264.8z M248.6,289.3c-30.2,0.5-60.3-4-88.9-14
		c16.8,10.3,32.8,26.9,42.4,48.6v80.6c-6.4,10.5-13.6,17-13.6,28.9c0,17.9,11.8,24.5,23.9,24.5c11.9,0,21.6-5.7,21.6-24.5
		c0-9.3-7.4-16.6-13.2-31.1v-78.2C227.2,309.2,237.5,294.5,248.6,289.3z"/>
	<path class="st2" d="M487,158.8c-33,49.8-80.8,87.1-134,108.8c-28.9,11.8-59.4,19-90,21.1c-4.8,0.3-9.6,0.5-14.4,0.6
		c-30.2,0.5-60.3-4-88.9-14c-8.6-3-17.1-6.5-25.4-10.5c-21.2-10.2-41.2-23.8-59.5-40.8c-7.9-7.1-16.7-15.1-24.7-23.9
		c-11.5-12.5-21.7-26.5-25.7-41.2c20.2-37.7,48.7-69.4,84.7-92.3C233.6-14.7,408.5,37.7,487,158.8z M457.9,158.4
		C366,11.9,132.6,12.1,49.4,160.3c0.2,0.1,0.3,0.3,0.5,0.4c-0.2,0.1-0.3,0.3-0.5,0.4c17.7,16.7,36,30.9,54.7,42.5
		c45.2,28.3,92.8,42.1,140.8,42.3c0.1,0,0.2,0,0.2,0C317,246.1,390,215.9,457.9,158.4z"/>
</g>
</svg>
