<?xml version="1.0" encoding="utf-8"?>
<!-- Generator: Adobe Illustrator 23.0.1, SVG Export Plug-In . SVG Version: 6.00 Build 0)  -->
<svg version="1.1" id="Layer_1" xmlns="http://www.w3.org/2000/svg" xmlns:xlink="http://www.w3.org/1999/xlink" x="0px" y="0px"
	 viewBox="0 0 512 512" style="enable-background:new 0 0 512 512;" xml:space="preserve">
<style type="text/css">
	.st0{fill:#9B2020;}
	.st1{fill:#F03232;}
</style>
<g id="INSIGHT_2_1_" transform="translate(0,0)">
	<path id="Pupil_1_" class="st0" d="M305.5,89.7C291.4,76.3,272.3,68,251.2,68v0c-19,0-36.4,6.7-50,17.9
		c-17.6,14.4-28.8,36.4-28.8,60.9c0,43.5,35.2,78.7,78.7,78.7c43.5,0,78.8-35.2,78.8-78.7C330,124.3,320.6,104.1,305.5,89.7z
		 M250.7,172c-15.6,0-28.3-12.7-28.3-28.3s12.7-28.2,28.3-28.2s28.2,12.6,28.2,28.2S266.3,172,250.7,172z M305.5,89.7
		C291.4,76.3,272.3,68,251.2,68v0c-19,0-36.4,6.7-50,17.9c-17.6,14.4-28.8,36.4-28.8,60.9c0,43.5,35.2,78.7,78.7,78.7
		c43.5,0,78.8-35.2,78.8-78.7C330,124.3,320.6,104.1,305.5,89.7z M250.7,172c-15.6,0-28.3-12.7-28.3-28.3s12.7-28.2,28.3-28.2
		s28.2,12.6,28.2,28.2S266.3,172,250.7,172z M305.5,89.7C291.4,76.3,272.3,68,251.2,68v0c-19,0-36.4,6.7-50,17.9
		c-17.6,14.4-28.8,36.4-28.8,60.9c0,43.5,35.2,78.7,78.7,78.7c43.5,0,78.8-35.2,78.8-78.7C330,124.3,320.6,104.1,305.5,89.7z
		 M250.7,172c-15.6,0-28.3-12.7-28.3-28.3s12.7-28.2,28.3-28.2s28.2,12.6,28.2,28.2S266.3,172,250.7,172z"/>
	<path class="st1" d="M398.6,282.7v69.9c4.2,8.5,8.5,16.7,8.5,27.6c0,13.2-8.8,22.8-18.1,22.8c-9.1,0-18.7-10-18.7-23.9
		c0-12.2,5.1-20.6,9.6-29.6v-59.8c-6.5-19.3-16.2-25.5-26.5-21.7v-41.7c15.9-6,31.9-13.5,48.2-22.3h45.2
		C428.1,222.2,409.5,244.7,398.6,282.7z M134.6,264.8c-21.2-10.2-41.2-23.8-59.5-40.8c-7.9-7.1-16.7-15.1-24.8-23.9
		c11.8,18.3,22,39.5,27.4,60.3v50c-4.8,10.1-12.1,17.2-12.1,28.4c0,9.1,11.6,18.1,21,18.1c9.2,0,21.6-9.7,21.6-19.3
		c0-11.4-7.3-17.8-11.9-27v-32.3C103,265.1,117.8,261.1,134.6,264.8z"/>
	<path class="st0" d="M487.3,158.8c-33,49.8-80.8,87.1-134,108.8c-28.9,11.8-59.4,19-90,21.1c-4.8,0.3-9.6,0.5-14.4,0.6
		c-30.2,0.5-60.3-4-88.9-14c-8.6-3-17.1-6.5-25.4-10.5c-21.2-10.2-41.2-23.8-59.5-40.8c-7.9-7.1-16.7-15.1-24.8-23.9
		c-11.5-12.5-21.7-26.5-25.7-41.2c20.2-37.7,48.7-69.4,84.7-92.3C233.9-14.7,408.8,37.7,487.3,158.8z M458.2,158.4
		C366.3,11.9,132.9,12.1,49.7,160.3c0.2,0.1,0.3,0.3,0.5,0.4c-0.2,0.1-0.3,0.3-0.5,0.4c17.7,16.7,36,30.9,54.7,42.5
		c45.2,28.3,92.8,42.1,140.8,42.3c0.1,0,0.2,0,0.2,0C317.3,246.1,390.3,215.9,458.2,158.4z"/>
</g>
</svg>
