<?xml version="1.0" encoding="utf-8"?>
<!-- Generator: Adobe Illustrator 23.0.1, SVG Export Plug-In . SVG Version: 6.00 Build 0)  -->
<svg version="1.1" id="Layer_1" xmlns="http://www.w3.org/2000/svg" xmlns:xlink="http://www.w3.org/1999/xlink" x="0px" y="0px"
	 viewBox="0 0 512 512" style="enable-background:new 0 0 512 512;" xml:space="preserve">
<style type="text/css">
	.st0{fill:#9B2020;}
</style>
<g id="INSIGHT_1_1_" transform="translate(0,0)">
	<path id="Pupil" class="st0" d="M296,99.5c-11.7-11.1-27.5-18-45-18v0c-15.7,0-30.1,5.6-41.4,14.8c-14.6,12-23.8,30.1-23.8,50.4
		c0,36,29.2,65.2,65.2,65.2c36,0,65.3-29.2,65.3-65.2C316.3,128.2,308.5,111.4,296,99.5z M250.6,167.6c-12.9,0-23.4-10.5-23.4-23.4
		s10.5-23.4,23.4-23.4c12.9,0,23.4,10.5,23.4,23.4S263.5,167.6,250.6,167.6z M296,99.5c-11.7-11.1-27.5-18-45-18v0
		c-15.7,0-30.1,5.6-41.4,14.8c-14.6,12-23.8,30.1-23.8,50.4c0,36,29.2,65.2,65.2,65.2c36,0,65.3-29.2,65.3-65.2
		C316.3,128.2,308.5,111.4,296,99.5z M250.6,167.6c-12.9,0-23.4-10.5-23.4-23.4s10.5-23.4,23.4-23.4c12.9,0,23.4,10.5,23.4,23.4
		S263.5,167.6,250.6,167.6z M296,99.5c-11.7-11.1-27.5-18-45-18v0c-15.7,0-30.1,5.6-41.4,14.8c-14.6,12-23.8,30.1-23.8,50.4
		c0,36,29.2,65.2,65.2,65.2c36,0,65.3-29.2,65.3-65.2C316.3,128.2,308.5,111.4,296,99.5z M250.6,167.6c-12.9,0-23.4-10.5-23.4-23.4
		s10.5-23.4,23.4-23.4c12.9,0,23.4,10.5,23.4,23.4S263.5,167.6,250.6,167.6z"/>
	<path class="st0" d="M487.1,158.8c-33,49.8-80.8,87.1-134,108.8c-28.9,11.8-59.4,19-90,21.1c-4.8,0.3-9.6,0.5-14.4,0.6
		c-30.2,0.5-60.3-4-88.9-14c-8.6-3-17.1-6.5-25.4-10.5c-21.2-10.2-41.2-23.8-59.5-40.8c-7.9-7.1-16.7-15.1-24.8-23.9
		c-11.5-12.5-21.7-26.5-25.7-41.2c20.2-37.7,48.7-69.4,84.7-92.3C233.7-14.7,408.6,37.7,487.1,158.8z M457.9,158.4
		C366.1,11.9,132.7,12.1,49.5,160.3c0.2,0.1,0.3,0.3,0.5,0.4c-0.2,0.1-0.3,0.3-0.5,0.4c17.7,16.7,36,30.9,54.7,42.5
		c45.2,28.3,92.8,42.1,140.8,42.3c0.1,0,0.2,0,0.2,0C317.1,246.1,390.1,215.9,457.9,158.4z"/>
</g>
</svg>
