<svg id="actor-name-bookend-right"
	xmlns="http://www.w3.org/2000/svg" viewBox="0 0 50 50">
	<path fill="#958f6b" d="M0,2c0,0,5.31,8.94,7.47,13.19c4.71,0,9.23-0.02,13.74,0.01c4.93,0.02,9.87,0.12,14.8,0.12
		c3.06-0.01,6.11-0.15,9.17-0.22C45.78,15.09,50,15,50,15v19c0,0-7.83-0.12-9.8-0.1c-2,0.02-3.99,0.28-5.99,0.28
		c-4.26,0.02-8.53-0.04-12.8-0.11c-2.77-0.05-5.55-0.02-8.31-0.31c-4.36-0.46-5.97,0.26-7.99,4.2c-0.66,1.3-1.08,2.71-1.75,4
		C2.62,43.43,0,47,0,47V2z M43.55,20.66c-0.32-2.16-1.4-2.92-3.9-2.87C40.5,19.76,41.45,20.71,43.55,20.66z M21.83,31.08
		c0.1-0.89,0.2-1.78,0.33-2.9C20.27,28.93,20.03,29.82,21.83,31.08z"/>
</svg>