<?xml version="1.0" encoding="utf-8"?>
<!-- Generator: Adobe Illustrator 24.3.0, SVG Export Plug-In . SVG Version: 6.00 Build 0)  -->
<svg version="1.0" xmlns="http://www.w3.org/2000/svg" xmlns:xlink="http://www.w3.org/1999/xlink" x="0px" y="0px"
	 viewBox="0 0 2000 324" width="2000" height="324" enable-background="new 0 0 2000 324" xml:space="preserve">
	<g id="BOTTOM">
		<path fill="#968C6A" d="M1681,281c-1.63,0.09-2.92,1.44-3.38,3.17c-0.35,1.34-0.81,2.76-3,3.31c0.26-1.25,0.52-2.08,0.59-2.92
			c0.17-2.01-0.71-3.02-2.72-3.03c-9.51-0.01-19.03-0.01-28.54,0.04c-8.03,0.04-16.07,0.15-24.11,0.22c-0.4,0.01-0.8-0.09-1.2-0.09
			c-7.77-0.13-15.53-0.31-23.3-0.34c-6-0.03-11.99,0.21-17.99,0.21c-5.63,0-11.26-0.25-16.89-0.22c-8.59,0.05-17.18,0.25-25.77,0.36
			c-3.06,0.04-6.11,0.01-9.07,0.01c-1.36,3.54-1.4,3.55-4.87,1.61c-0.9,0.5-1.8,1.01-2.96,1.67c-0.61-1.21-1.11-2.19-1.77-3.49
			h-27.18c-6.43,0-12.86,0.03-19.29-0.01c-4.96-0.03-9.91-0.23-14.86-0.22c-4.42,0.01-8.84,0.31-13.26,0.31
			c-10.87,0-21.74-0.16-32.62-0.14c-12.46,0.02-24.93,0.21-37.4,0.24c-8.16,0.02-16.33-0.15-24.5-0.16
			c-7.76-0.01-15.53,0.15-23.29,0.12c-6.29-0.02-12.59-0.24-18.88-0.29c-6.03-0.05-12.06-0.03-18.09,0.06
			c-1.11,0.01-2.2,0.47-3.39,0.74c1.73,4.12,2.53,4.82,5.76,6.14c1.03,0.42,2.02,1.23,2.73,2.1c1.06,1.32,1.87,2.85,2.93,4.51
			c-0.33,0.9-0.73,2.02-1.15,3.2c-0.94-0.61-1.91-1.09-2.67-1.79c-0.73-0.67-1.19-1.62-1.86-2.35c-0.41-0.45-0.99-1.01-1.51-1.02
			c-2.11-0.07-3.43-1.32-4.74-2.72c-0.61-0.67-1.41-8.27-2.12-8.81c-3.64,0-3.64,0.04-7.31,0c-5.21-0.06-10.42-0.22-15.63-0.22
			c-4.8,0.01-9.6,0.27-14.4,0.26c-5.74-0.02-11.48-0.3-17.22-0.33c-6.95-0.03-13.91-0.08-20.85,0.17
			c-10.57,0.38-21.14-0.54-31.7,0.16c-2.24,0.15-4.52-0.41-6.78-0.39c-6.7,0.05-13.4,0.31-20.1,0.35
			c-6.95,0.03-13.89-0.08-20.83-0.15c-6.69-0.08-13.38,0.18-20.07,0.15c-1.15-0.01-2.31-0.23-3.55,0c-0.07,2.03-0.2,4.7-2.6,4.55
			c-2.35-0.15-2.32-2.73-2.54-4.55c-9.79,0-19.41,0.09-29.02-0.08c-1.83-0.04-11.49,0.08-11.49,0.08s-1.36,2.34-2.25,3.89
			c-0.86-1.63-1.46-2.75-2.12-3.99h-22.67v0.08c-2.32,0.04-4.66,0.04-6.99-0.12c-4.15-0.28-8.04-0.35-10.78,3.49
			c-0.13,0.18-0.48,0.2-0.83,0.34c-0.41-0.2-0.92-0.39-1.36-0.68c-3.81-2.59-7.97-3.49-12.53-2.72c-1.04,0.18-2.18,0.21-3.21,0
			c-6.14-1.31-12.28,0.13-18.42-0.04c-5.99-0.17-11.99-0.27-17.99-0.36c-5.19-0.08-10.39-0.15-15.59-0.14
			c-3.73,0.01-7.46,0.21-11.19,0.21c-5.5,0-10.99-0.16-16.49-0.14c-7.59,0.04-15.18,0.23-22.77,0.26
			c-9.77,0.04-19.54-0.03-29.31-0.01c-3.62,0.01-7.23,0.27-10.84,0.23c-6.94-0.09-13.87-0.39-20.81-0.44
			c-4.9-0.03-9.81,0.35-14.72,0.33c-6.55-0.03-13.11-0.27-19.66-0.39c-1.07-0.01-2.14,0.23-3.21,0.24c-2.76,0.04-8,0.01-8,0.01
			s-3.26,3.05-4.79,0.02c-7.64,0-15.1,0.04-22.57-0.02c-4.79-0.03-9.58-0.33-14.37-0.31c-7.21,0.04-14.42,0.32-21.64,0.37
			c-4.52,0.04-9.04-0.18-13.56-0.2c-10.41-0.06-20.82-0.1-31.23-0.04c-0.74,0-1.47,0.83-2.2,1.27c0.01,0.02,0.02,0.04,0.03,0.05
			c-0.92-0.44-1.8-1.15-2.75-1.23c-2.79-0.23-5.6-0.25-8.4-0.26c-4.8-0.02-9.59,0.06-14.38,0.06c-3.86,0-7.72-0.1-11.58-0.08
			c-4.81,0.01-9.62,0.09-14.43,0.17c-6.11,0.1-12.22,0.23-17.96,0.34c-1.03,1.65-1.8,2.87-2.73,4.34c-0.79-0.73-1.27-1.53-1.92-1.7
			c-0.81-0.21-2.54,0.1-2.54,0.16c0.03,2.11-3.07,3.23-1.81,5.68c0.04,0.08-0.29,0.34-0.52,0.61c-0.68-0.19-1.41-0.41-3.06-0.89
			c3.13-1.87,1.65-3.79,0.46-6.01c1.8-0.72,3.19-1.29,4.58-1.85c-4.72-0.62-9.39-0.6-14.06-0.63c-3.09-0.02-6.17-0.16-9.25-0.14
			c-5.07,0.03-10.14,0.16-15.21,0.2c-2.66,0.02-5.36-0.34-7.98-0.01l-18.24,0.22c-1.73-0.1-3.45-0.33-5.18-0.31
			c-5.62,0.06-11.24,0.31-16.86,0.27c-6.53-0.04-13.06-0.44-19.59-0.44c-5.89-0.01-11.77,0.38-17.66,0.46
			c-7.19,0.08-14.39,0.01-21.58,0.02c-3.22,0.01-6.44,0.16-9.65,0.07c-4.67-0.12-9.35-0.37-14.02-0.62
			c-1.93-0.11-3.61,0.18-5.11,1.65c-0.96,0.93-2.13,2.2-4.07,1.12c0.71-0.72,1.34-1.36,2.64-2.67c-10.95,0-20.93-0.01-30.91,0.03
			c-0.43,0-0.86,0.48-1.51,0.87c1.67,0.54,3.05,0.99,4.26,1.39c0.18,1.15,0.02,2.38,0.55,2.91c0.57,0.57,1.97,0.46,1.55,1.79
			c-0.26,0.8-0.95,1.48-1.3,2c-2.24-0.86-4.16-1.59-6.42-2.46c2.45-2.64-1.23-3.75-1.1-5.98c-1.19-0.15-2.38-0.45-3.57-0.43
			c-7.09,0.07-14.19,0.29-21.28,0.32c-6.44,0.02-12.88-0.2-19.32-0.22c-7.36-0.01-29.2-0.4-36.56-0.36c-1.32,0-29.68,0-31,0v29
			c2.54,0.03,46.61,0.16,49.15,0.18c5.21,0.03,10.42,0.05,15.64,0c4.81-0.05,9.62-0.31,14.43-0.29c7.23,0.05,14.46,0.47,21.67,0.3
			c2.97-0.07,6.57,0.83,8.76-3.48c0.75,3.46,2.79,3.46,5.03,3.4c5.62-0.13,11.24-0.14,16.87-0.15c15.4-0.02,30.81-0.01,46.21-0.01
			c10.05-0.01,20.09-0.05,30.14,0c4.96,0.03,9.92,0.32,14.87,0.3c11.13-0.03,33.38-0.29,33.38-0.29l17.95,0.02h163.69
			c-0.08-1.43-0.13-2.52-0.19-3.62c3.28-0.27,1.29,2.95,3.36,3.84c2.45,0,5.37,0.02,8.29,0c10.46-0.08,20.91-0.21,31.37-0.22
			c8.43-0.01,16.86,0.14,25.29,0.2c3.48,0.03,6.96,0.06,10.44,0.02c0.78,0,2.2-0.15,2.24-0.43c0.47-2.71,3.66-2.84,4.32-4.97
			c1.24,0.22,2.37,0.77,3.18,0.47c1.87-0.69,2.53,0.71,3.21,1.68c0.53,0.77,0.46,1.96,0.64,2.9c0.21,0.11,0.32,0.24,0.44,0.24
			c4.95,0,9.92,0.24,14.85-0.08c4.86-0.31,9.64-0.97,14.51,0.22c1.87,0.45,3.99-0.24,6-0.28c2-0.05,4.3,0.67,5.95-0.08
			c2.11-0.96,3.73,0.25,5.58,0.2c9.1-0.26,18.21-0.15,27.32-0.16c15.02-0.02,30.03-0.03,45.05-0.03c9.36,0.01,18.72,0.05,28.08,0.09
			c9.63,0.03,19.27,0.1,28.9,0.14c6.84,0.02,13.67,0.04,20.5,0c6.7-0.03,13.39-0.16,20.08-0.22c2.67-0.03,5.35-0.03,8.06-0.01
			c0.01,0.13,0.01,0.25,0.02,0.37c6.48,0.78,12.76-0.31,19.07-0.09c6.55,0.22,13.12-0.17,19.68-0.17c6.69,0,13.38,0.15,20.06,0.23
			c6.55,0.07,13.1,0.15,19.65,0.2c6.69,0.05,13.38,0.14,20.07,0.09c6.66-0.04,13.32-0.25,19.97-0.33c6.55-0.07,13.1-0.11,19.65-0.09
			c6.66,0.02,13.32,0.12,19.98,0.21c6.55,0.09,13.1,0.32,19.64,0.28c6.7-0.04,13.4-0.38,20.1-0.48c6.68-0.1,13.37-0.09,20.05-0.07
			c6.54,0.02,13.09,0.12,19.63,0.19c6.69,0.07,13.38,0.22,20.07,0.21s13.37-0.27,20.06-0.26c6.55,0,13.11,0.25,19.67,0.31
			c6.67,0.05,13.34-0.02,20.01-0.03l19.65-0.03h20.09c-0.44-1.01-0.62-1.43-0.87-2c1.52-0.21,2.93-0.41,4.55-0.63
			c0.31,2.1,1.44,2.45,3.38,2.35c3.19-0.18,6.42,0.14,9.62,0.39c2.31,0.18,4.49,0.3,5.8-2.87c0.97,2.32,2.1,2.56,3.93,2.7
			c3.47,0.26,6.82-0.82,10.39-0.09c3.59,0.73,7.46,0.09,11.21,0.06c11.5-0.11,23-0.23,34.5-0.3c6.94-0.03,13.87,0.04,20.81,0.05
			c7.88,0.01,15.76,0.01,23.75,0.01l14.9,0.07c6.37,0,12.39-0.03,18.4,0.01c3.2,0.02,6.41,0.23,9.61,0.25
			c2.26,0.01,4.53-0.19,6.79-0.2c2,0,4.01,0.19,6.01,0.16c3.35-0.04,6.7-0.27,10.06-0.28c11.78-0.04,23.56,0.07,35.33-0.04
			c9.9-0.1,19.8,0.69,29.69-0.08c0.53-0.04,1.08,0.05,1.61,0.07c5.22,0.16,10.44,0.42,15.66,0.44c7.74,0.03,15.49-0.13,23.24-0.15
			c4.14-0.01,8.28,0.18,12.41,0.15c4.79-0.04,9.58-0.29,14.37-0.34c6.81-0.07,12.47-0.15,12.47-0.15v-29
			C1725,281,1681.93,280.95,1681,281z M332.4,302.84c-0.19-0.33-0.38-0.65-0.56-0.98c1.15-0.63,2.31-1.26,3.47-1.89l0.51,0.96
			C334.68,301.57,333.54,302.21,332.4,302.84z M386.9,306.64v-3.62c2.7-0.95,5.72-1.32,7.76-3.7c0.14-0.17,1.01,0.29,2.34,0.72
			C392.68,301.72,392.39,307.6,386.9,306.64z M597.86,294.15c-0.11-2.03,0.32-2.66,2.44-2.02
			C599.38,292.89,598.82,293.35,597.86,294.15z M670.15,298.09c-0.93-0.14-1.87-0.29-3.01-0.47c0.29-0.58,0.52-1.17,0.58-1.17
			c0.9,0.27,1.77,0.61,2.65,0.93C670.3,297.62,670.23,297.86,670.15,298.09z M674.6,286.49c-0.83-0.64-1.61-1.24-2.84-2.19
			c1.16-0.69,1.95-1.15,2.74-1.63C675.4,284.46,675.38,284.5,674.6,286.49z M714.67,299.57c0.68-0.68,1.36-1.35,2.03-2.03
			C717.44,299.55,716.78,300.27,714.67,299.57z M720.11,303.04c-0.61,0.06-1.23,0.03-1.84,0.03c0.01-0.35,0.02-0.7,0.03-1.05
			c0.66,0.12,1.31,0.23,1.97,0.34C720.22,302.6,720.18,303.03,720.11,303.04z M749.72,288.19c-2.18-2.01-2.18-2.01-6.42-0.34
			c0.19-2.01,0.34-3.48,0.46-4.73c2.95,0.48,5.45,0.89,8.1,1.32C752.7,286.56,751.5,287.53,749.72,288.19z M755.66,303.22
			c-0.66,1.13-2.32,1.74-4.07,0.27c1.74-1.96,1.42-5.03,4.21-6.7C757.11,299.13,756.73,301.36,755.66,303.22z M782.59,295.71
			c-0.17,0.5-0.67,0.89-1.29,1.62c-0.41-0.72-0.91-1.27-0.79-1.46c0.29-0.47,0.85-0.79,1.3-1.17
			C782.09,295.05,782.67,295.49,782.59,295.71z M841.33,307.61c-0.55-0.37-1.11-0.74-1.62-1.17c0-0.06,0.38-0.58,0.57-0.87
			c0.56,0.42,1.12,0.83,1.68,1.25C841.75,307.08,841.54,307.35,841.33,307.61z M1070.33,299.01c-2.67-0.28-2.14-2.4-2.35-3.93
			c-0.17-1.18,0.37-2.09,2.35-1.73V299.01z M1073.94,302.81c-0.89-0.24-1.78-0.49-2.67-0.74c0.19-0.4,0.38-0.8,0.56-1.2
			c0.81,0.37,1.61,0.74,2.41,1.11L1073.94,302.81z M1098.56,299.39c0.37-1.02,0.75-2.04,1.15-3.15
			C1101.49,297.63,1101.49,297.63,1098.56,299.39z M1307.06,302.39c-1.05,1.51-2.18,2.61-0.61,4.45c0.41,0.48,0.14,1.56-0.18,2.52
			c-2.73-4.16-7.57-5.63-10.73-9.15c2.19,0,4.25-0.03,5.87,1.72c0.95,1.02,2.51,1.18,3.03-0.19c1.23-3.23,4.28-3.15,6.83-4.43
			c0.46,1.05,0.87,1.96,1.36,3.06C1310.57,301.1,1308.43,300.41,1307.06,302.39z M1327.12,309.25c0.16-2.6,0.16-2.6,3.7-1.86
			c0.07,0.3,0.15,0.6,0.22,0.9C1329.78,308.6,1328.51,308.91,1327.12,309.25z M1389.21,294.27c-0.06-1.74,0.95-2.45,2.33-2.79
			c1.27-0.32,2.06,0.23,2.37,1.64C1392.21,293.54,1390.79,293.88,1389.21,294.27z M1404.79,301c2.38,0.94,3.26,2.39,3.7,4.94
			C1405.62,305.22,1405.27,303.4,1404.79,301z M1483.82,295.22c-0.56-0.82-1.03-1.49-1.66-2.39c1.48-0.9,2.39-2.73,4.41-1.06
			C1485.65,292.93,1484.85,293.93,1483.82,295.22z M1715.75,294.43c2.08-1.16,3.46-1.92,5.26-2.92c0.58,1.13,1.11,2.16,1.81,3.53
			C1720.23,295.54,1718.27,296.01,1715.75,294.43z"/>
	</g>
	<g id="LEFT">
		<path fill="#605A44" d="M24.01,170.99c-0.62,0-1.18,0.25-1.59,0.67c-0.41,0.41-0.66,0.98-0.66,1.61v9.46
			c0,0.62,0.25,1.2,0.66,1.61s0.97,0.67,1.59,0.67c1.24,0,2.25-1.02,2.25-2.27v-9.46C26.26,172.01,25.24,170.99,24.01,170.99z
			 M30.93,167.9v-1.75c0-3.25-2.16-3.25-3.51-3.25c-0.03,0-0.03,14.38,0.01,14.38c1.25,0,3.51,0.04,3.51-3.21v-1.98
			c0-1.21,1.3-2.18,1.3-2.18S30.93,169,30.93,167.9z M20.6,162.89c-1.35,0-3.51,0-3.51,3.25v1.75c0,1.1-1.31,2.01-1.31,2.01
			s1.31,0.97,1.31,2.18v1.98c0,3.24,2.26,3.21,3.51,3.21C20.63,177.28,20.63,162.89,20.6,162.89z M25.59,188.68
			c-0.41-0.41-0.97-0.67-1.59-0.67c-1.24,0-2.25,1.02-2.25,2.27V194h4.51v-3.72C26.26,189.66,26.01,189.09,25.59,188.68z
			 M30.93,183.91v-1.99c0-3.24-2.26-3.2-3.51-3.2c-0.04,0-0.04,14.38-0.01,14.38c1.35,0,3.51,0,3.51-3.26v-1.75
			c0-1.1,1.3-2.02,1.3-2.02S30.93,185.11,30.93,183.91z M20.59,178.72c-1.25,0-3.51-0.04-3.51,3.2v1.99c0,1.2-1.31,2.17-1.31,2.17
			s1.31,0.92,1.31,2.02v1.75c0,3.26,2.17,3.26,3.51,3.26C20.63,193.11,20.63,178.72,20.59,178.72z M26.26,158.28V162v3.71
			c0,0.63-0.25,1.2-0.66,1.61s-0.97,0.67-1.59,0.67c-1.24,0-2.25-1.02-2.25-2.28V162l0.01-3.72c0-1.25,1.02-2.27,2.25-2.27
			c0.62,0,1.18,0.25,1.59,0.67C26.01,157.09,26.26,157.66,26.26,158.28z M24.01,138.99c-0.62,0-1.18,0.25-1.59,0.67
			c-0.41,0.41-0.66,0.98-0.66,1.61v9.47c0,0.62,0.25,1.19,0.66,1.6s0.97,0.67,1.59,0.67c1.24,0,2.25-1.02,2.25-2.27v-9.47
			C26.26,140.01,25.25,138.99,24.01,138.99z M21.76,130v3.71c0,1.25,1.02,2.27,2.25,2.27c0.62,0,1.18-0.25,1.59-0.67
			c0.41-0.41,0.66-0.98,0.66-1.61V130H21.76z M30.94,135.9v-1.75c0-3.25-2.16-3.25-3.51-3.25c-0.03,0-0.03,14.38,0.01,14.38
			c1.25,0,3.51,0.04,3.51-3.2v-1.99c0-1.21,1.3-2.18,1.3-2.18S30.94,137,30.94,135.9z M20.6,130.89c-1.35,0-3.51,0-3.51,3.25v1.75
			c0,1.1-1.31,2.01-1.31,2.01s1.31,0.97,1.31,2.18v1.99c0,3.24,2.26,3.2,3.51,3.2C20.63,145.28,20.63,130.89,20.6,130.89z
			 M30.94,151.91v-1.99c0-3.24-2.26-3.2-3.51-3.2c-0.04,0-0.04,14.38-0.01,14.38c1.35,0,3.51,0,3.51-3.26v-1.75
			c0-1.1,1.3-2.02,1.3-2.02S30.94,153.11,30.94,151.91z M20.6,146.72c-1.25,0-3.51-0.04-3.51,3.2v1.99c0,1.2-1.31,2.17-1.31,2.17
			s1.31,0.92,1.31,2.02v1.75c0,3.26,2.17,3.26,3.51,3.26C20.63,161.11,20.63,146.72,20.6,146.72z"/>
	</g>
	<g id="RIGHT">
		<path fill="#605A44" d="M1976,170.99c-0.62,0-1.18,0.25-1.59,0.67c-0.41,0.41-0.66,0.98-0.66,1.61v9.46c0,0.62,0.25,1.2,0.66,1.61
			s0.97,0.67,1.59,0.67c1.24,0,2.25-1.02,2.25-2.27v-9.46C1978.25,172.01,1977.24,170.99,1976,170.99z M1982.92,167.9v-1.75
			c0-3.25-2.16-3.25-3.51-3.25c-0.03,0-0.03,14.38,0.01,14.38c1.25,0,3.51,0.04,3.51-3.21v-1.98c0-1.21,1.3-2.18,1.3-2.18
			S1982.92,169,1982.92,167.9z M1972.59,162.89c-1.35,0-3.51,0-3.51,3.25v1.75c0,1.1-1.31,2.01-1.31,2.01s1.31,0.97,1.31,2.18v1.98
			c0,3.24,2.26,3.21,3.51,3.21C1972.62,177.28,1972.62,162.89,1972.59,162.89z M1977.59,188.68c-0.41-0.41-0.97-0.67-1.59-0.67
			c-1.24,0-2.25,1.02-2.25,2.27l-0.01,3.72h4.51v-3.72C1978.25,189.66,1978,189.09,1977.59,188.68z M1982.92,183.91v-1.99
			c0-3.24-2.26-3.2-3.51-3.2c-0.04,0-0.04,14.38-0.01,14.38c1.35,0,3.51,0,3.51-3.26v-1.75c0-1.1,1.3-2.02,1.3-2.02
			S1982.92,185.11,1982.92,183.91z M1972.58,178.72c-1.25,0-3.51-0.04-3.51,3.2v1.99c0,1.2-1.31,2.17-1.31,2.17s1.31,0.92,1.31,2.02
			v1.75c0,3.26,2.17,3.26,3.51,3.26C1972.62,193.11,1972.62,178.72,1972.58,178.72z M1978.26,158.28l-0.01,3.72v3.71
			c0,0.63-0.25,1.2-0.66,1.61s-0.97,0.67-1.59,0.67c-1.24,0-2.25-1.02-2.25-2.28V162l0.01-3.72c0-1.25,1.02-2.27,2.25-2.27
			c0.62,0,1.18,0.25,1.59,0.67C1978.01,157.09,1978.26,157.66,1978.26,158.28z M1976,138.99c-0.62,0-1.18,0.25-1.59,0.67
			c-0.41,0.41-0.66,0.98-0.66,1.61v9.47c0,0.62,0.25,1.19,0.66,1.6s0.97,0.67,1.59,0.67c1.24,0,2.25-1.02,2.25-2.27v-9.47
			C1978.26,140.01,1977.24,138.99,1976,138.99z M1973.75,130v3.71c0,1.25,1.02,2.27,2.25,2.27c0.62,0,1.18-0.25,1.59-0.67
			c0.41-0.41,0.66-0.98,0.66-1.61V130H1973.75z M1982.93,135.9v-1.75c0-3.25-2.16-3.25-3.51-3.25c-0.03,0-0.03,14.38,0.01,14.38
			c1.25,0,3.51,0.04,3.51-3.2v-1.99c0-1.21,1.3-2.18,1.3-2.18S1982.93,137,1982.93,135.9z M1972.6,130.89c-1.35,0-3.51,0-3.51,3.25
			v1.75c0,1.1-1.31,2.01-1.31,2.01s1.31,0.97,1.31,2.18v1.99c0,3.24,2.26,3.2,3.51,3.2C1972.63,145.28,1972.63,130.89,1972.6,130.89
			z M1982.93,151.91v-1.99c0-3.24-2.26-3.2-3.51-3.2c-0.04,0-0.04,14.38-0.01,14.38c1.35,0,3.51,0,3.51-3.26v-1.75
			c0-1.1,1.3-2.02,1.3-2.02S1982.93,153.11,1982.93,151.91z M1972.59,146.72c-1.25,0-3.51-0.04-3.51,3.2v1.99
			c0,1.2-1.31,2.17-1.31,2.17s1.31,0.92,1.31,2.02v1.75c0,3.26,2.17,3.26,3.51,3.26C1972.63,161.11,1972.63,146.72,1972.59,146.72z"
			/>
	</g>
	<g id="CORNER_BR">
		<path fill="#968C6A" d="M1922.26,309.63c0,0-21.14-0.67-27.02-0.74c-2.68-0.02-5.66,0.7-8.34,0.73
			c-7.63,0.07-15.26,0.21-22.89,0.24c-2.67,0.01-5.34-0.35-8.01-0.33c-7.46,0.04-14.93,0.23-22.4,0.26
			c-3.6,0.02-7.21-0.29-10.81-0.26c-5.58,0.05-11.16,0.35-16.74,0.37c-3.74,0.02-7.48-0.41-11.22-0.37
			c-6.43,0.06-12.85,0.48-19.28,0.47c-7.35-0.01-14.7-0.39-22.06-0.47c-5.74-0.06-24.73,0.5-28.48,0.47v-29h13
			c1.6,3.3,3.31,6.2,4.72,9.1c5.54,0,10.6-0.04,15.65,0.01c4.67,0.05,9.33,0.29,13.99,0.3c4.55,0,9.1-0.19,13.66-0.28
			c2.28-0.04,4.59-0.29,6.84-0.03c4.16,0.47,8.25,0.62,12.43,0.01c2.33-0.34,4.8,0.37,7.2,0.38c6.44,0.02,12.88-0.1,19.32-0.15
			c3.87-0.03,7.73-0.05,11.6-0.03c10.03,0.04,20.06,0.11,30.09,0.14c5.88,0.02,11.76-0.02,17.64-0.02
			c11.77,0.01,23.54,0.02,35.31,0.05c1.56,0,2.71-0.56,3.85-1.75c4.28-4.45,8.72-8.75,13.1-13.11c1.89-1.88,3.79-3.77,5.68-5.66
			c5.12-5.14,10.2-10.31,15.37-15.39c2.61-2.57,2.29-5.75,2.26-8.95c-0.05-6.24-0.1-18.7-0.1-18.7l-0.09-2.59
			c-0.03-1.78,0.02-1.62-0.12-2.05c-0.16-0.49-0.24-7.02-0.32-7.33c-4.58-2.26-8.95-4.42-14-6.91L1976,194l23.12,14.26l-13.14,6.29
			l-0.61,0.34l0.22,9.43l-0.23,21.08L1922.26,309.63z"/>
		<path fill="#28251B" stroke="#605A44" stroke-miterlimit="10" d="M1950.23,276.87c-1.38,0-2.51-1.13-2.51-2.51
			s1.13-2.51,2.51-2.51s2.51,1.13,2.51,2.51C1952.74,275.75,1951.61,276.87,1950.23,276.87z"/>
		<path fill="#605A44" d="M1942.85,292.91c-0.06,0.7-0.11,1.32,0,1.95c0.05,0.3,0.13,0.6,0.26,0.91c1.7,4.13,7.69,4.87,10.62,1.45
			c0.06-0.08,0.13-0.2,0.19-0.28c0.2-0.31,0.84-0.96,0.9-1.38c-0.28,1.73-0.63,3.65-1.65,5.14c-2.98,4.35-9.08,1.9-12.91,0.44
			c-1.28-0.49-2.59-0.93-3.92-1.29c-0.37-0.08-2.99-0.5-3.05-0.89l-0.18-0.96L1942.85,292.91z M1892.91,290.62l-30.95-0.18
			l13.73-2.38l16.23-0.12h21.99v-0.02c0.06,0,0.16,0.02,0.22,0.02h44.35c-0.22-0.39-0.46-0.78-0.67-1.2
			c-0.38-0.71-5.16-6.11-5.16-6.11l-2.4-6.27l5.8,2.76c0,0,6.28,5.19,7.77,5.79v-60.05l1.61-8.24l0.67,0.33l0.5,7.99l0.13,5.35
			c2.37,4.04,4.12,5.79,6.03,7.52l12.75-15.91l-0.13-5.02l1.5-0.76l1.07,7.94l-0.2,87.35v1.45l-111.94,0.9l-14.02-1.96l28.91-1.34
			l16.06-12.6C1905.09,293.91,1901.33,291.65,1892.91,290.62z M1939.85,308.46l-8.83-1.71h-32.74l9.81-7.57
			c0-0.43-0.07-0.93-0.25-1.46l-13.9,10.73H1939.85z M1905.88,304.36h12.68l-10.16-1.96L1905.88,304.36z M1985.02,277.76l-0.42,0.24
			c-0.28,0.55-0.56,1.06-0.89,1.55v27.38h-27.33c-0.68,0.42-1.4,0.79-2.17,1.14l-0.1,0.17h9.74l21.16-0.2V277.76z M1974.86,274.06
			c0,0-0.11-1.44-1.22-2.73c-1.11-1.29-3.51-0.68-4.97,0.83c-0.46,0.47-0.79,1.29-0.98,2.18v9.55l2.68,4.04
			c0.16-0.42,0.34-0.85,0.53-1.29c1.01-2.23,2.66-3.89,4.25-5.48c0.66-0.65,1.33-1.33,1.96-2.03l0.3-0.33
			c1.89-2.13,3.38-3.82,3.62-6.73c0.5-6.39-3.2-16.1-4.05-17.58c-1.33-0.15-2.26-0.28-2.92-0.39c-0.08,2.24-1.11,4.28-2.05,6.16
			c-0.08,0.18-0.18,0.34-0.26,0.52c-0.93,1.86-1.92,3.71-2.87,5.53c1.44,0,3.48,0.83,4.87,2.16
			C1975.75,270.37,1974.86,274.06,1974.86,274.06z M1977.81,250.8c-1.07-0.17-3.05-0.63-5.16-1.74c0.31,0.63,0.63,1.3,0.9,2
			c0.23,0.57,0.36,1.11,0.42,1.66c0.87,0.13,2.18,0.31,3.38,0.46h0.08l0.06,0.02c0.22,0.12,0.41,0.18,1.26,2.25
			c0.55,1.38,1.14,3.01,1.62,4.63c1.01,3.3,2.11,8.05,1.81,11.94c-0.26,3.3-1.95,5.22-3.92,7.45l-0.3,0.33
			c-0.65,0.75-1.33,1.42-2,2.1c-1.59,1.6-3.1,3.11-4.01,5.11c-0.26,0.59-0.57,1.34-0.77,2.1l1.72,2.6
			c-0.24-2.27,0.91-4.91,3.46-7.82c0.48-0.55,0.96-1.07,1.44-1.59c2.61-2.86,5.09-5.56,5.7-10.11
			C1984.19,267.02,1982.32,260.03,1977.81,250.8z M1981.4,234.68l-2.02,2.65l2.02,10.75V234.68z M1981.1,293.52v-10.6
			c-0.43,0.5-0.87,0.97-1.31,1.45c-0.46,0.51-0.93,1.03-1.39,1.55c-2.49,2.85-2.9,4.65-2.81,5.68c0.07,0.78,0.47,1.19,0.56,1.27
			l-0.89,1.28L1981.1,293.52z M1973.8,296.97l-0.78,7.34h8.08v-8.12L1973.8,296.97z M1962.95,301.46c-0.53,0.46-1.04,0.94-1.54,1.4
			c-0.53,0.49-1.05,0.97-1.59,1.45h10.59l0.62-5.89l-1.14,0.79c-0.08-0.09-0.48-0.49-1.26-0.57
			C1967.63,298.54,1965.82,298.96,1962.95,301.46z M1974.55,236.95c0.52,0.2,0.99,0.3,1.41,0.32l7.84-10.21v27.13l0.91,9.27
			l0.78-40.61L1974.55,236.95z M1971.48,244.85c2.19,3.22,8.6,4.55,8.69,4.73l-3.05-9.54c-1.17,0.13-2.87,0.01-4.68-1.03
			c-1.92-1.11-4.01-2.66-5.26-5.41C1967.17,233.59,1966.85,238.71,1971.48,244.85z M1966.72,262.26c1.3-1.12,5.08-3.75,4.96-8.9
			c0-3.36-3.9-8.34-4.96-9.85V262.26z M1965.66,294.31c-0.54,0.18-1.07,0.38-1.5,0.58c-2,0.93-3.5,2.43-5.09,4.02
			c-0.68,0.68-1.35,1.35-2.1,2l-0.32,0.31c-2.22,1.96-4.13,3.67-7.42,3.93c-3.88,0.31-8.62-0.81-11.92-1.81
			c-1.63-0.47-3.26-1.07-4.61-1.61c-2.06-0.83-2.16-1.06-2.24-1.27l-0.02-0.07v-0.08c-0.13-1.2-0.3-2.49-0.46-3.38
			c-0.56-0.08-1.11-0.21-1.65-0.42c-0.69-0.26-1.37-0.58-2-0.91c1.1,2.11,1.56,4.1,1.74,5.17c9.16,4.55,16.13,6.42,21.32,5.72
			c4.53-0.6,7.23-3.1,10.08-5.72c0.53-0.49,1.05-0.96,1.59-1.45c2.55-2.25,4.9-3.43,6.97-3.5
			C1967.23,295.32,1966.43,294.81,1965.66,294.31z M1943.46,291.75c-1.81,0.96-3.65,1.95-5.51,2.88c-0.18,0.08-0.35,0.18-0.53,0.26
			c-1.94,0.98-3.93,1.98-6.14,2.05c0.1,0.66,0.22,1.6,0.4,2.93c1.48,0.84,11.15,4.55,17.53,4.06c2.9-0.23,4.6-1.73,6.73-3.63
			l0.32-0.31c0.69-0.64,1.37-1.32,2.02-1.97c1.6-1.61,3.25-3.27,5.46-4.28c0.24-0.11,0.46-0.23,0.69-0.31
			c-2.22-1.44-3.89-2.53-3.92-2.55l-0.26-0.18l-0.11-0.15h-8.68c-0.9,0.23-1.7,0.52-2.18,0.98c-1.5,1.47-2.11,3.87-0.83,4.98
			c1.26,1.11,2.72,1.22,2.72,1.22s-3.68,0.89-5.57-1.11C1944.29,295.24,1943.46,293.2,1943.46,291.75z M1922.4,290.56
			c1.44,1.02,2.85,2.03,2.85,2.03c0.3,0.21,0.67,0.39,1.02,0.52c0.13,0.07,0.26,0.11,0.37,0.18c0.19,0.11,0.37,0.2,0.56,0.28
			c0.63,0.33,1.28,0.64,1.92,0.88c0.61,0.24,1.23,0.34,1.89,0.34c1.83,0,3.59-0.9,5.45-1.84c0.19-0.08,0.36-0.18,0.54-0.26
			c1.37-0.68,2.75-1.41,4.13-2.14H1922.4z M1903.92,290.56c2.72,1.25,4.63,2.83,5.77,4.74c1.04,1.81,1.15,3.52,1.02,4.7l16.02,3.06
			c-0.18-0.06-0.32-0.15-0.5-0.24l-0.67-0.34l-0.06-0.76c-0.02-0.38-0.79-8.43-8.51-10.62c1.51,3.01,0.05,8.62,0.05,8.62
			s-0.31-3.4-2.57-5.89c-1.31-1.44-4.89-2.55-7.82-3.27H1903.92z M1973.87,276.87c-0.3,0.24-0.9,0.78-1.28,0.83
			c1.74-0.26,3.64-0.62,5.11-1.66c4.34-2.99,1.92-9.11,0.43-12.93c-0.5-1.29-0.91-2.6-1.28-3.93c-0.11-0.37-0.5-2.97-0.9-3.06
			l-0.96-0.18l-5.05,9.76c0.71-0.07,1.32-0.12,1.95,0c0.3,0.05,0.59,0.13,0.91,0.26c3.77,1.55,4.71,6.7,2.22,9.81
			C1974.69,276.2,1974.28,276.54,1973.87,276.87z"/>
	</g>
	<g id="CORNER_BL">
		<path fill="#968C6A" d="M84.01,309.32l11.07-0.37l17.63,0.43c0,0,19.23-0.03,28.88,0.03c8.58,0.04,17.16,0.31,25.74,0.31
			c7.64,0,15.28-0.27,22.91-0.33c9.51-0.06,19.03,0.14,28.53-0.09c5.17-0.13,10.39,1.25,15.52-0.43c6.79,1.33,13.63,0.27,20.45,0.48
			c1.43,0.05,2.86,0.01,4.13,0.01c1.15-4.41,1.15-4.41,3.65-4.14L262,310c0.6,0.05,9.39-0.03,13,0v-29c-3.47,0.01-6.54,0.01-10,0
			c-1.88-0.01-3.28,0.58-3.99,2.31c-1.02,2.47-2.31,4.82-3.5,7.23c-1.11,0-1.91,0.02-2.7,0c-8.69-0.18-17.38-0.45-26.07-0.51
			c-4.4-0.03-8.82,0.49-13.22,0.46c-5.48-0.04-10.96-0.54-16.44-0.57c-11.23-0.06-22.46,0.03-33.69,0.1
			c-2.8,0.02-5.6,0.19-8.39,0.33c-0.35,0.02-0.68,0.34-1.02,0.52c0.49,1.02,0.95,1.97,1.55,3.21c-6.64-1.78-9-2.34-12.21,5.47
			c-2.01-4.76-2.01-4.76-1.38-8.03c3.04,0.36,6.18,1.37,9.59-0.8c-1.2-0.08-1.93-0.17-2.66-0.18c-4.96-0.09-9.91-0.18-14.86-0.26
			c-6.14-0.1-12.28-0.24-18.42-0.27c-7.5-0.04-15.01,0.57-22.52-0.09c-0.13-0.01-0.26-0.03-0.4-0.03
			c-6.69,0.04-13.39-0.02-20.09,0.15c-2.22,0.05-3.78-0.68-5.28-2.25c-4.24-4.47,2.41,2.38-1.91-2.02
			c-1.75-1.78-3.54-3.54-5.63-5.63c-0.31,2.42-0.55,4.3-0.89,6.99c-2.09-1.97-3.51-3.32-4.93-4.66c-0.2,0.21-0.39,0.42-0.59,0.63
			c9.07,9.26,7.15,7.28,16.34,16.64l-0.01,0.01c0.04,0.04,0.09,0.08,0.13,0.12c0.87,0.85,1.75,1.66,2.65,2.43
			c0.24-0.49,0.52-1.04,0.86-1.72c0.35,1.17,0.38,1.97,0.09,2.51L84.01,309.32z M129.98,308.14c-1.92-1.12-4.3-1.85-5.61-3.48
			c-1.29-1.59-1.48-4.08-2.15-6.18c0.3-0.14,0.6-0.27,0.9-0.41c1.09,1.67,2.04,3.46,3.31,4.97c1.26,1.5,2.84,2.71,4.28,4.04
			C130.46,307.44,130.22,307.79,129.98,308.14z M48.35,276.07c3.68,3.6,5.22,3.75,10.95,0.97c-2.04-0.51-3.38-0.86-5.5-1.39
			c2.71-1.79,0.81-2.84-0.22-3.93c-2.22-2.33-15.64-15.7-17.82-18.07c-0.83-0.91-1.59-2.18-1.74-3.37
			c-0.36-2.79-0.47-5.64-0.44-8.46c0.09-9.85,0.28-15.7,0.45-25.54c0.01-0.51,0.24-1.02,0.32-1.33c4.58-2.26,8.95-4.42,14-6.91
			l-2.21-1.18c-1.39-0.74-2.64-1.39-3.82-2.05l-0.08-0.04l-3.17-1.7c-1.69-0.63-3.28-0.47-4.81,1.2c-0.07,0.08-0.47-0.13-0.71-0.2
			c0.37-0.99,1.09-1.97,1.06-2.95c0-0.15-0.01-0.29-0.02-0.44L24,194L1.27,207.56c0.02,0.39,0.05,0.79,0.07,1.18
			c4.68,0.51,8.03,5.26,13.24,4.17c-0.01,0.19-0.01,0.48-0.01,0.93c0.04,7.94,0.13,21.2,0.17,29.67c0.62,0.24,1.51,0.68,1.92,1.21
			L48.35,276.07z"/>
		<path fill="#28251B" stroke="#605A44" stroke-miterlimit="10" d="M51.32,276.87c-1.38,0-2.51-1.13-2.51-2.51s1.13-2.51,2.51-2.51
			c1.38,0,2.51,1.13,2.51,2.51C53.83,275.75,52.7,276.87,51.32,276.87z"/>
		<path fill="#605A44" d="M57.39,292.91c0.06,0.7,0.11,1.32,0,1.95c-0.05,0.3-0.13,0.6-0.26,0.91c-1.7,4.13-7.69,4.87-10.62,1.45
			c-0.06-0.08-0.13-0.2-0.19-0.28c-0.2-0.31-0.84-0.96-0.9-1.38c0.28,1.73,0.63,3.65,1.65,5.14c2.98,4.35,9.08,1.9,12.91,0.44
			c1.28-0.49,2.59-0.93,3.92-1.29c0.37-0.08,2.99-0.5,3.05-0.89l0.18-0.96L57.39,292.91z M107.33,290.62l31.14-0.33l-13.91-2.22
			l-16.23-0.12H86.34v-0.02c-0.06,0-0.16,0.02-0.22,0.02H41.78c0.22-0.39,0.46-0.78,0.67-1.2c0.38-0.71,5.16-6.11,5.16-6.11
			l3.71-6.27l-7.11,2.76c0,0-6.28,5.19-7.77,5.79v-60.05l-1.6-8.15l-0.49,0.24l-0.36,1.07l-0.2,11.95
			c-2.37,4.04-4.39,6.12-6.31,7.85l-12.75-15.91l-0.16-7l-1.06,0.15l-1.22,9.01l0.2,87.35v1.45l111.94,0.9l13.79-2.36l-28.69-0.93
			l-16.06-12.6C95.15,293.91,98.91,291.65,107.33,290.62z M60.4,308.46l8.83-1.71h32.74l-9.81-7.57c0-0.43,0.07-0.93,0.25-1.46
			l13.9,10.73H60.4z M94.36,304.36H81.68l10.16-1.96L94.36,304.36z M15.23,277.76l0.42,0.24c0.28,0.55,0.56,1.06,0.89,1.55v27.38
			h27.33c0.68,0.42,1.4,0.79,2.17,1.14l0.1,0.17h-9.74l-21.16-0.2V277.76z M25.38,274.06c0,0,0.11-1.44,1.22-2.73
			c1.11-1.29,3.51-0.68,4.97,0.83c0.46,0.47,0.79,1.29,0.98,2.18v9.55l-2.68,4.04c-0.16-0.42-0.34-0.85-0.53-1.29
			c-1.01-2.23-2.66-3.89-4.25-5.48c-0.66-0.65-1.33-1.33-1.96-2.03l-0.3-0.33c-1.89-2.13-3.38-3.82-3.62-6.73
			c-0.5-6.39,3.2-16.1,4.05-17.58c1.33-0.15,2.26-0.28,2.92-0.39c0.08,2.24,1.11,4.28,2.05,6.16c0.08,0.18,0.18,0.34,0.26,0.52
			c0.93,1.86,1.92,3.71,2.87,5.53c-1.44,0-3.48,0.83-4.87,2.16C24.5,270.37,25.38,274.06,25.38,274.06z M22.44,250.8
			c1.07-0.17,3.05-0.63,5.16-1.74c-0.31,0.63-0.63,1.3-0.9,2c-0.23,0.57-0.36,1.11-0.42,1.66c-0.87,0.13-2.18,0.31-3.38,0.46h-0.08
			l-0.06,0.02c-0.22,0.12-0.41,0.18-1.26,2.25c-0.55,1.38-1.14,3.01-1.62,4.63c-1.01,3.3-2.11,8.05-1.81,11.94
			c0.26,3.3,1.95,5.22,3.92,7.45l0.3,0.33c0.65,0.75,1.33,1.42,2,2.1c1.59,1.6,3.1,3.11,4.01,5.11c0.26,0.59,0.57,1.34,0.77,2.1
			l-1.72,2.6c0.24-2.27-0.91-4.91-3.46-7.82c-0.48-0.55-0.96-1.07-1.44-1.59c-2.61-2.86-5.09-5.56-5.7-10.11
			C16.05,267.02,17.92,260.03,22.44,250.8z M18.84,234.68l2.02,2.65l-2.02,10.75V234.68z M19.14,293.52v-10.6
			c0.43,0.5,0.87,0.97,1.31,1.45c0.46,0.51,0.93,1.03,1.39,1.55c2.49,2.85,2.9,4.65,2.81,5.68c-0.07,0.78-0.47,1.19-0.56,1.27
			l0.89,1.28L19.14,293.52z M26.45,296.97l0.78,7.34h-8.08v-8.12L26.45,296.97z M37.3,301.46c0.53,0.46,1.04,0.94,1.54,1.4
			c0.53,0.49,1.05,0.97,1.59,1.45H29.85l-0.62-5.89l1.14,0.79c0.08-0.09,0.48-0.49,1.26-0.57C32.62,298.54,34.43,298.96,37.3,301.46
			z M25.69,236.95c-0.51,0.2-0.99,0.3-1.41,0.32l-7.84-10.21v27.13l-1.53,9.22l-0.16-40.55L25.69,236.95z M28.76,244.85
			c-2.19,3.22-8.6,4.55-8.69,4.73l3.05-9.54c1.17,0.13,2.87,0.01,4.68-1.03c1.92-1.11,4.01-2.66,5.26-5.41
			C33.07,233.59,33.4,238.71,28.76,244.85z M33.53,262.26c-1.3-1.12-5.08-3.75-4.96-8.9c0-3.36,3.9-8.34,4.96-9.85V262.26z
			 M34.58,294.31c0.54,0.18,1.07,0.38,1.5,0.58c2,0.93,3.5,2.43,5.09,4.02c0.68,0.68,1.35,1.35,2.1,2l0.32,0.31
			c2.22,1.96,4.13,3.67,7.42,3.93c3.88,0.31,8.62-0.81,11.92-1.81c1.63-0.47,3.26-1.07,4.61-1.61c2.06-0.83,2.16-1.06,2.24-1.27
			l0.02-0.07v-0.08c0.13-1.2,0.3-2.49,0.46-3.38c0.56-0.08,1.11-0.21,1.65-0.42c0.69-0.26,1.37-0.58,2-0.91
			c-1.1,2.11-1.56,4.1-1.74,5.17c-9.16,4.55-16.13,6.42-21.32,5.72c-4.53-0.6-7.23-3.1-10.08-5.72c-0.53-0.49-1.05-0.96-1.59-1.45
			c-2.55-2.25-4.9-3.43-6.97-3.5C33.01,295.32,33.81,294.81,34.58,294.31z M56.78,291.75c1.81,0.96,3.65,1.95,5.51,2.88
			c0.18,0.08,0.35,0.18,0.53,0.26c1.94,0.98,3.93,1.98,6.14,2.05c-0.1,0.66-0.22,1.6-0.4,2.93c-1.48,0.84-11.15,4.55-17.53,4.06
			c-2.9-0.23-4.6-1.73-6.73-3.63l-0.32-0.31c-0.69-0.64-1.37-1.32-2.02-1.97c-1.6-1.61-3.25-3.27-5.46-4.28
			c-0.24-0.11-0.46-0.23-0.69-0.31c2.22-1.44,3.89-2.53,3.92-2.55l0.26-0.18l0.11-0.15h8.68c0.9,0.23,1.7,0.52,2.18,0.98
			c1.5,1.47,2.11,3.87,0.83,4.98c-1.26,1.11-2.72,1.22-2.72,1.22s3.68,0.89,5.57-1.11C55.96,295.24,56.78,293.2,56.78,291.75z
			 M77.85,290.56c-1.44,1.02-2.85,2.03-2.85,2.03c-0.3,0.21-0.67,0.39-1.02,0.52c-0.13,0.07-0.26,0.11-0.37,0.18
			c-0.19,0.11-0.37,0.2-0.56,0.28c-0.63,0.33-1.28,0.64-1.92,0.88c-0.61,0.24-1.23,0.34-1.89,0.34c-1.83,0-3.59-0.9-5.45-1.84
			c-0.19-0.08-0.36-0.18-0.54-0.26c-1.37-0.68-2.75-1.41-4.13-2.14H77.85z M96.33,290.56c-2.72,1.25-4.63,2.83-5.77,4.74
			c-1.04,1.81-1.15,3.52-1.02,4.7l-16.02,3.06c0.18-0.06,0.32-0.15,0.5-0.24l0.67-0.34l0.06-0.76c0.02-0.38,0.79-8.43,8.51-10.62
			c-1.51,3.01-0.05,8.62-0.05,8.62s0.31-3.4,2.57-5.89c1.31-1.44,4.89-2.55,7.82-3.27H96.33z M26.38,276.87
			c0.3,0.24,0.9,0.78,1.28,0.83c-1.74-0.26-3.64-0.62-5.11-1.66c-4.34-2.99-1.92-9.11-0.43-12.93c0.5-1.29,0.91-2.6,1.28-3.93
			c0.11-0.37,0.5-2.97,0.9-3.06l0.96-0.18l5.05,9.76c-0.71-0.07-1.32-0.12-1.95,0c-0.3,0.05-0.59,0.13-0.91,0.26
			c-3.77,1.55-4.71,6.7-2.22,9.81C25.55,276.2,25.97,276.54,26.38,276.87z"/>
	</g>
	<g id="TOP">
		<path fill="#968C6A" d="M1402.36,30.9c1.83,0.97,2.67,0.28,2.77-1.65C1404.21,29.8,1403.29,30.35,1402.36,30.9z M1359.76,27.48
			c0.89-1.83,1.59-3.27,2.34-4.81C1358.67,22.32,1358.09,23.51,1359.76,27.48z M1346.19,25.81c-0.63,0.9-1.06,1.49-1.46,2.08
			c0.51,0.35,1.06,1.02,1.52,0.96c0.45-0.06,1.04-0.84,1.1-1.36C1347.39,27.08,1346.76,26.58,1346.19,25.81z M1331.99,19.25
			c-0.31-0.03-0.61-0.06-0.91-0.09c-0.15,0.93-0.29,1.86-0.52,3.33C1332.83,21.45,1332.39,20.35,1331.99,19.25z M1220.92,28.04
			c-1.31,0.43-2.63,0.86-3.94,1.29c0.09,0.3,0.16,0.61,0.26,0.91c1.29-0.35,2.57-0.7,3.85-1.05
			C1221.04,28.8,1220.98,28.42,1220.92,28.04z M1182.08,21.34c2.05,0.94,3.15,1.07,4.14-1.45
			C1184.59,20.46,1183.63,20.79,1182.08,21.34z M1176.79,23.6c0.88,0.05,1.82,0.1,2.75,0.16
			C1177.45,22.1,1176.61,22.18,1176.79,23.6z M1149.6,26.16c1.34,1.2,2.12,1.89,3.09,2.76c0.56-1.08,0.9-1.75,1.42-2.76H1149.6z
			 M1108.86,26.54c0.9,0.95,1.77,1.88,2.9,3.07c1.29-2.07,2.42-3.9,3.73-5.99C1112.01,22.66,1110.21,23.94,1108.86,26.54z
			 M1402.36,30.9c1.83,0.97,2.67,0.28,2.77-1.65C1404.21,29.8,1403.29,30.35,1402.36,30.9z M1359.76,27.48
			c0.89-1.83,1.59-3.27,2.34-4.81C1358.67,22.32,1358.09,23.51,1359.76,27.48z M1344.73,27.89c0.51,0.35,1.06,1.02,1.52,0.96
			c0.45-0.06,1.04-0.84,1.1-1.36c0.04-0.41-0.59-0.91-1.16-1.68C1345.56,26.71,1345.13,27.3,1344.73,27.89z M1331.08,19.16
			c-0.15,0.93-0.29,1.86-0.52,3.33c2.27-1.04,1.83-2.14,1.43-3.24C1331.68,19.22,1331.38,19.19,1331.08,19.16z M1216.98,29.33
			c0.09,0.3,0.16,0.61,0.26,0.91c1.29-0.35,2.57-0.7,3.85-1.05c-0.05-0.39-0.11-0.77-0.17-1.15
			C1219.61,28.47,1218.29,28.9,1216.98,29.33z M1186.22,19.89c-1.63,0.57-2.59,0.9-4.14,1.45
			C1184.13,22.28,1185.23,22.41,1186.22,19.89z M1176.79,23.6c0.88,0.05,1.82,0.1,2.75,0.16
			C1177.45,22.1,1176.61,22.18,1176.79,23.6z M1152.69,28.92c0.56-1.08,0.9-1.75,1.42-2.76h-4.51
			C1150.94,27.36,1151.72,28.05,1152.69,28.92z M1108.86,26.54c0.9,0.95,1.77,1.88,2.9,3.07c1.29-2.07,2.42-3.9,3.73-5.99
			C1112.01,22.66,1110.21,23.94,1108.86,26.54z M1002,34c0,0,0.01,0,0.06-0.01L1002,34L1002,34z M541.2,15.18
			c4.26,1.92,4.26,1.92,4.62-0.5C544.23,14.85,542.71,15.02,541.2,15.18z M1002.08,33.99C1003.98,34,1005,34,1005,34v-0.07
			C1002.93,33.91,1002.27,33.96,1002.08,33.99z M1515.38,14.74c-2.67-0.2-5.35-0.31-8.02-0.58c-5.68-0.56-11.27,1.22-16.98,0.42
			c-2.75-0.39-5.58,0.02-8.37-0.01c-8.44-0.1-16.88-0.34-25.31-0.33c-8.53,0-17.07,0.29-25.58,0.33
			c-7.51,0.03-15.02-0.11-22.52-0.18c-1.88-0.01-3.76,0.08-5.63-0.07c-1.7-0.13-3.18,2.28-5.03,0.41c-0.12-0.13-0.87,0.08-1.07,0.34
			c-1.62,2.06-3.58,1.11-5.42,0.48c-1.76,1.62-3.16,3.86-5.92,2.05c-0.3-0.19-1.17,0.71-1.73,0.66c-2.03-0.17-3.62,2.51-5.78,1.02
			v-4.5c-1.89-0.15-3.72-0.42-5.54-0.42c-12.48,0-24.97,0.32-37.44-0.07c-4.19-0.13-7.25,0.68-9.62,4.03
			c-0.33,0.47-0.63,0.98-1.12,1.73c-0.6-0.74-1.06-1.08-1.22-1.53c-0.96-2.7-3.41-3.63-5.71-3.81c-6.11-0.46-12.25-0.59-18.38-0.57
			c-9.11,0.03-18.2,0.41-27.3,0.43c-7.35,0.02-14.7-0.38-22.06-0.4c-5.71-0.02-11.43,0.41-17.14,0.39
			c-6.68-0.02-13.36-0.4-20.02-0.48c-7.76-0.09-15.53-0.02-23.29-0.01c-1.07,0-2.14,0.12-3.22,0.13c-3.74,0.05-7.49,0.09-11.24,0.1
			c-3.85,0.01-7.7-0.06-11.55-0.02c-6.02,0.08-12.02,0.26-18.03,0.32c-4.25,0.05-8.5,0.02-12.75-0.04
			c-4.41-0.06-8.83-0.21-13.26-0.29c-3.45-0.07-6.92-0.16-10.38-0.1c-3.72,0.07-7.44,0.43-11.16,0.41c-5.33-0.03-10.67-0.43-16-0.41
			c-8.31,0.02-16.61,0.38-24.91,0.4c-10.58,0.03-21.15-0.16-31.72-0.22C1018.27,14.31,1002,15,1002,15
			c-25.68,0.02-207.62,0.17-211.81,0.2c-4.93,0.02-9.86,0.12-14.8,0.12c-3.05-0.01-6.11-0.15-9.16-0.22
			c-5.73-0.12-11.45-0.35-17.17-0.32c-6.14,0.04-12.28,0.45-18.42,0.5c-3.75,0.02-7.5-0.48-11.25-0.48
			c-7.73,0.02-15.46,0.24-23.2,0.34c-5.75,0.08-11.51,0.16-17.26,0.17c-6.15,0.01-12.31-0.01-18.47-0.1
			c-5.73-0.09-11.46-0.42-17.2-0.4c-8.41,0.03-16.82,0.35-25.24,0.42c-8.7,0.08-17.4,0.07-26.1,0c-5.73-0.04-11.45-0.3-17.19-0.35
			c-5.59-0.05-11.19-0.04-16.78,0.09c-1.84,0.05-3.69,0.47-5.5,0.83c-1.43,0.27-2.84,0.7-4.66,1.16v4.64
			c-1.52,0.21-2.37,1.16-2.07,2.94c0.25,1.56-0.03,2.88-1.64,3.58c-3.17-0.42-4.74-2.56-5.53-4.04v-8.94H290.74L275,15v19
			l15.32-0.15c0,0,4.4,0.4,6.39,0.4c4.92,0,9.85-0.13,14.78-0.19c10.12-0.11,20.26-0.24,30.38-0.28c2.68-0.02,5.35,0.4,8.01,0.36
			c7.06-0.09,14.11-0.36,21.16-0.48c4.4-0.07,8.81,0.03,13.21,0.05c2.28,0.01,4.55-0.04,6.83,0.03c4.51,0.14,9.03,0.48,13.54,0.48
			c8.4,0.01,16.8-0.22,25.2-0.26c3.74-0.02,7.48,0.29,11.22,0.23c7.21-0.11,14.41-0.51,21.61-0.52c9.92-0.03,19.84,0.24,29.75,0.29
			c9.08,0.05,18.17-0.08,27.24-0.05c6.91,0.02,13.83,0.23,20.74,0.27c2.06,0.01,4.11-0.28,6.17-0.44c-0.24-1.58-0.43-2.82-0.63-4.06
			c2.98-0.33,2.98-0.33,6.19,4.15c23.09,0,46.3,0.16,69.5-0.05c23.1-0.23,46.21,0.76,69.42-0.66c-1.15-0.66-2.3-1.32-3.68-2.11
			c3.53-1.36,4.01-1.12,5.95,2.67c5.35,0.17,10.8,0.42,16.25,0.48c3.99,0.05,8-0.24,12-0.24c4.01,0,8.01,0.3,12.01,0.26
			c4.28-0.05,8.54-0.49,12.81-0.5c8.27-0.02,16.55,0.12,24.83,0.22c2,0.02,3.99,0.28,5.99,0.28c4.26,0.02,8.53-0.04,12.8-0.11
			c2.77-0.05,5.55-0.02,8.31-0.31c4.05-0.43,178.57,0.15,203.7,0.23h0.06c0,0,0.01,0,0.02,0c0.19-0.03,0.85-0.08,2.92-0.06
			c0.78,0.01,1.77,0.03,3,0.07c0.53,0.02,7.5,0.1,8,0c3.04-0.59,2.19,0.58,4.88-2.28c1.25,3.2,3.82,2.2,5.94,2.16
			c6.41-0.12,12.81-0.55,19.23-0.57c10.2-0.02,20.39,0.22,30.58,0.29c2.54,0.02,5.08-0.28,7.61-0.26c4.68,0.04,9.35,0.22,14.03,0.32
			c3.48,0.08,6.97,0.2,10.45,0.17c3.85-0.03,7.7-0.32,11.55-0.31c4.13,0.01,8.28,0.34,12.42,0.34c2.74,0,5.48-0.34,8.02-0.51
			c0.93-2.28-0.74-5.33,2.99-5.89v5.77c5.58,0.2,11.05,0.5,16.52,0.57c4,0.05,8.01-0.3,12.01-0.27c5.75,0.04,11.49,0.4,17.24,0.38
			c4.15-0.02,8.29-0.48,12.45-0.67c2.38-0.11,4.7,0.22,6.68-1.92c1.24-1.35,2.5-0.44,3.08,2.22c5.95,0,11.96,0.02,17.97-0.01
			c4.96-0.03,9.91-0.2,14.85-0.17c6.42,0.03,12.84,0.23,19.26,0.27c3.35,0.02,6.71-0.22,10.06-0.21c6.95,0.03,13.91,0.18,20.86,0.22
			c8.7,0.04,17.42-0.01,26.13,0.03c7.07,0.04,14.15,0.27,21.22,0.21c8.44-0.07,16.86-0.49,25.3-0.52
			c9.67-0.03,19.35,0.19,29.02,0.31c1.87,0.03,3.75,0.2,5.63,0.18c7.32-0.08,14.64-0.23,21.96-0.29c5.99-0.06,11.98-0.03,17.96-0.03
			c3.19,0,6.38-0.02,9.56,0.04c4.28,0.08,8.57,0.37,12.85,0.31c6.16-0.08,12.31-0.52,18.47-0.57c9.6-0.08,19.22,0.01,28.83,0.12
			c2.64,0.03,7.53,0.59,7.53,0.59L1725,34V15C1725,15,1517.59,14.9,1515.38,14.74z M562.7,24.98c-0.27,0.45-1.68,0.82-2,0.55
			c-1.95-1.66-3.79-3.46-5.52-5.34c-0.22-0.23,0.43-1.23,0.65-1.81c1.89,1.34,3.22,2.31,4.58,3.23c0.64,0.45,1.55,0.69,1.98,1.28
			C562.78,23.43,563,24.5,562.7,24.98z M655.74,27.59v-7.47c0.28-0.02,0.56-0.03,0.84-0.04C657.82,22.62,657.48,25.12,655.74,27.59z
			 M767.85,20.66c0.32-2.17,1.4-2.92,3.91-2.88C770.9,19.76,769.95,20.71,767.85,20.66z M789.57,31.08c-0.1-0.88-0.2-1.78-0.33-2.9
			C791.13,28.93,791.37,29.82,789.57,31.08z M1111.76,29.61c-1.13-1.19-2-2.12-2.9-3.07c1.35-2.6,3.15-3.88,6.63-2.92
			C1114.18,25.71,1113.05,27.54,1111.76,29.61z M1152.69,28.92c-0.97-0.87-1.75-1.56-3.09-2.76h4.51
			C1153.59,27.17,1153.25,27.84,1152.69,28.92z M1176.79,23.6c-0.18-1.42,0.66-1.5,2.75,0.16
			C1178.61,23.7,1177.67,23.65,1176.79,23.6z M1182.08,21.34c1.55-0.55,2.51-0.88,4.14-1.45
			C1185.23,22.41,1184.13,22.28,1182.08,21.34z M1217.24,30.24c-0.1-0.3-0.17-0.61-0.26-0.91c1.31-0.43,2.63-0.86,3.94-1.29
			c0.06,0.38,0.12,0.76,0.17,1.15C1219.81,29.54,1218.53,29.89,1217.24,30.24z M1330.56,22.49c0.23-1.47,0.37-2.4,0.52-3.33
			c0.3,0.03,0.6,0.06,0.91,0.09C1332.39,20.35,1332.83,21.45,1330.56,22.49z M1346.25,28.85c-0.46,0.06-1.01-0.61-1.52-0.96
			c0.4-0.59,0.83-1.18,1.46-2.08c0.57,0.77,1.2,1.27,1.16,1.68C1347.29,28.01,1346.7,28.79,1346.25,28.85z M1359.76,27.48
			c-1.67-3.97-1.09-5.16,2.34-4.81C1361.35,24.21,1360.65,25.65,1359.76,27.48z M1402.36,30.9c0.93-0.55,1.85-1.1,2.77-1.65
			C1405.03,31.18,1404.19,31.87,1402.36,30.9z"/>
	</g>
	<g id="CORNER_TR">
		<path fill="#968C6A" d="M1925.74,21.28c-0.29,0.58-0.63,1.24-1.06,2.12c-0.47-1.56-0.37-2.46,0.33-2.94
			c-1.57-1.81-3.91-3.32-5.01-5.46c-5.33,0.03-9.65-0.09-14.98-0.09c-5.88,0.01-19.19-0.3-25.08-0.29
			c-9.65,0.01-11.88,0.03-21.53-0.03c-8.58-0.04-17.16-0.31-25.74-0.31c-7.64,0-15.28,0.27-22.91,0.33
			c-9.51,0.06-19.03-0.14-28.53,0.09c-5.17,0.13-10.39-1.25-15.52,0.43c-5.23-1.02-15.32-0.49-15.58-0.49
			c-1.15,4.41-1.15,4.41-3.65,4.14v-4.06c-0.08-0.01-2.97,0.03-6.6,0.08L1725,15v19l15,0.14v-0.55c2.84-0.08,5.01-0.14,5.19-0.13
			c8.69,0.18,17.38,0.45,26.07,0.51c4.4,0.03,8.82-0.49,13.22-0.46c5.48,0.04,10.96,0.54,16.44,0.57
			c11.23,0.06,22.46-0.03,33.69-0.1c2.8-0.02,5.6-0.19,8.39-0.33c0.35-0.02,0.68-0.34,1.02-0.52c-0.49-1.02-0.95-1.98-1.55-3.22
			c6.64,1.79,9,2.34,12.21-5.47c2.01,4.76,2.01,4.76,1.38,8.03c-3.04-0.36-6.18-1.37-9.59,0.8c1.2,0.08,1.93,0.17,2.66,0.18
			c4.96,0.09,9.91,0.18,14.86,0.26c6.14,0.1,12.28,0.24,18.42,0.27c7.5,0.04,15.01-0.57,22.52,0.09c0.13,0.01,0.26,0.03,0.4,0.03
			c6.69-0.04,13.39,0.02,20.09-0.15c2.22-0.05,3.78,0.68,5.28,2.25c4.24,4.47,16.46,17.02,20.78,21.42
			c1.75,1.78,3.54,3.54,5.63,5.63c0.31-2.42,0.55-4.3,0.89-6.99c2.09,1.97,3.51,3.32,4.93,4.66c0.2-0.21,0.39-0.42,0.59-0.63
			c-9.07-9.26-26.02-26.68-35.21-36.04 M1876.88,25.92c-1.09-1.67-2.04-3.45-3.31-4.96c-1.26-1.5-2.84-2.71-4.28-4.04
			c0.25-0.36,0.49-0.71,0.73-1.06c1.92,1.12,4.3,1.85,5.61,3.47c1.29,1.6,1.48,4.08,2.15,6.18
			C1877.48,25.65,1877.18,25.78,1876.88,25.92z M1985.42,104.16c0.01,3.66-0.12,1.41-1.7,4.89c0.17,0.11,0.45,0.4,0.61,0.34
			c5.85-2.05,9.33,3.33,14.33,3.87c0.02,0.39,0.05,0.79,0.07,1.18l-1.58,0.85c-3.7,2-7.46,4.01-11.68,6.28v0.08L1976,130
			l-10.59-8.67c-0.01-0.15-0.02-0.29-0.02-0.44c-0.03-0.98,0.69-1.97,1.06-2.96c-0.24-0.07-0.64-0.28-0.71-0.2
			c-1.53,1.68-3.12,1.84-4.81,1.2l-3.17-1.7l-0.08-0.04c-1.18-0.66-2.43-1.31-3.82-2.05l-2.21-1.17c5.05-2.49,9.42-4.66,14-6.92
			c0.08-0.31,0.31-2.81,0.32-3.33c0.17-9.84,0.36-11.68,0.45-21.54c0.03-2.82-0.08-5.67-0.44-8.46c-0.15-1.19-3.62-4.17-0.91-5.97
			c-2.12-0.53-3.46-0.87-5.5-1.39c5.73-2.78,7.27-2.63,10.95,0.97l14.4,14.67L1985.42,104.16z"/>
		<path fill="#28251B" stroke="#605A44" stroke-miterlimit="10" d="M1948.62,52.15c-1.38,0-2.51-1.13-2.51-2.51
			c0-1.38,1.13-2.51,2.51-2.51s2.51,1.13,2.51,2.51C1951.13,51.03,1950,52.15,1948.62,52.15z"/>
		<path fill="#605A44" d="M1942.61,31.2c-0.06-0.7-0.11-1.32,0-1.95c0.05-0.3,0.13-0.6,0.26-0.91c1.7-4.13,7.69-4.87,10.62-1.45
			c0.06,0.08,0.13,0.2,0.19,0.28c0.2,0.31,0.84,0.96,0.9,1.38c-0.28-1.73-0.63-3.65-1.65-5.14c-2.98-4.35-9.08-1.9-12.91-0.44
			c-1.28,0.49-2.59,0.93-3.92,1.29c-0.37,0.08-2.99,0.5-3.05,0.89l-0.18,0.96L1942.61,31.2z M1892.68,33.49l-30.95,0.18l13.73,2.38
			l16.23,0.12h21.99v0.02c0.06,0,0.16-0.02,0.22-0.02h44.35c-0.22,0.39-0.46,0.78-0.67,1.2c-0.38,0.71-5.16,6.11-5.16,6.11
			l-3.78,6.16l7.18-2.65c0,0,6.28-5.19,7.77-5.79v60.05l1.22,6.22l0.86-0.42c0.59-0.94,0.51-11.6,0.51-11.6
			c2.37-4.04,4.45-5.42,6.36-7.15l12.75,15.91c0,0,0.51,1.84-0.77,3.32c0,0-0.84,1.33-0.78,1.53c0.02,0.07,0.41,0.35,0.57,0.34
			c0.9-0.01,2.49-0.46,2.49-0.46l0.93-6.88l-0.2-87.35v-1.45l-111.94-0.9l-14.02,2.2l28.91,1.09l16.06,12.6
			C1904.86,30.21,1901.1,32.46,1892.68,33.49z M1939.61,15.65l-8.83,1.71h-32.74l9.81,7.57c0,0.43-0.07,0.93-0.25,1.46l-13.9-10.73
			H1939.61z M1905.65,19.76h12.68l-10.16,1.96L1905.65,19.76z M1984.78,46.35l-0.42-0.24c-0.28-0.55-0.56-1.06-0.89-1.55V17.18
			h-27.33c-0.68-0.42-1.4-0.79-2.17-1.14l-0.1-0.17h9.74l21.16,0.2V46.35z M1974.63,50.05c0,0-0.11,1.44-1.22,2.73
			c-1.11,1.29-3.51,0.68-4.97-0.83c-0.46-0.47-0.79-1.29-0.98-2.18v-9.55l2.68-4.04c0.16,0.42,0.34,0.85,0.53,1.29
			c1.01,2.23,2.66,3.89,4.25,5.48c0.66,0.65,1.33,1.33,1.96,2.03l0.3,0.33c1.89,2.13,3.38,3.82,3.62,6.73
			c0.5,6.39-3.2,16.1-4.05,17.58c-1.33,0.15-2.26,0.28-2.92,0.39c-0.08-2.24-1.11-4.28-2.05-6.16c-0.08-0.18-0.18-0.34-0.26-0.52
			c-0.93-1.86-1.92-3.71-2.87-5.53c1.44,0,3.48-0.83,4.87-2.16C1975.51,53.74,1974.63,50.05,1974.63,50.05z M1977.57,73.31
			c-1.07,0.17-3.05,0.63-5.16,1.74c0.31-0.63,0.63-1.3,0.9-2c0.23-0.57,0.36-1.11,0.42-1.66c0.87-0.13,2.18-0.31,3.38-0.46h0.08
			l0.06-0.02c0.22-0.12,0.41-0.18,1.26-2.25c0.55-1.38,1.14-3.01,1.62-4.63c1.01-3.3,2.11-8.05,1.81-11.94
			c-0.26-3.3-1.95-5.22-3.92-7.45l-0.3-0.33c-0.65-0.75-1.33-1.42-2-2.1c-1.59-1.6-3.1-3.11-4.01-5.11
			c-0.26-0.59-0.57-1.34-0.77-2.1l1.72-2.6c-0.24,2.27,0.91,4.91,3.46,7.82c0.48,0.55,0.96,1.07,1.44,1.59
			c2.61,2.86,5.09,5.56,5.7,10.11C1983.95,57.1,1982.09,64.08,1977.57,73.31z M1981.16,89.44l-2.02-2.65l2.02-10.75V89.44z
			 M1980.87,30.6v10.6c-0.43-0.5-0.87-0.97-1.31-1.45c-0.46-0.51-0.93-1.03-1.39-1.55c-2.49-2.85-2.9-4.65-2.81-5.68
			c0.07-0.78,0.47-1.19,0.56-1.27l-0.89-1.28L1980.87,30.6z M1973.56,27.15l-0.78-7.34h8.08v8.12L1973.56,27.15z M1962.71,22.65
			c-0.53-0.46-1.04-0.94-1.54-1.4c-0.53-0.49-1.05-0.97-1.59-1.45h10.59l0.62,5.89l-1.14-0.79c-0.08,0.09-0.48,0.49-1.26,0.57
			C1967.39,25.57,1965.58,25.15,1962.71,22.65z M1974.31,87.16c0.52-0.2,0.99-0.3,1.41-0.32l7.84,10.21V69.92l0.91-9.27l0.78,40.61
			L1974.31,87.16z M1971.25,79.26c2.19-3.22,8.6-4.55,8.69-4.73l-3.05,9.54c-1.17-0.13-2.87-0.01-4.68,1.03
			c-1.92,1.11-4.01,2.66-5.26,5.41C1966.94,90.52,1966.61,85.4,1971.25,79.26z M1966.48,61.85c1.3,1.12,5.08,3.75,4.96,8.9
			c0,3.36-3.9,8.34-4.96,9.85V61.85z M1965.43,29.8c-0.54-0.18-1.07-0.38-1.5-0.58c-2-0.93-3.5-2.43-5.09-4.02
			c-0.68-0.68-1.35-1.35-2.1-2l-0.32-0.31c-2.22-1.96-4.13-3.67-7.42-3.93c-3.88-0.31-8.62,0.81-11.92,1.81
			c-1.63,0.47-3.26,1.07-4.61,1.61c-2.06,0.83-2.16,1.06-2.24,1.27l-0.02,0.07v0.08c-0.13,1.2-0.3,2.49-0.46,3.38
			c-0.56,0.08-1.11,0.21-1.65,0.42c-0.69,0.26-1.37,0.58-2,0.91c1.1-2.11,1.56-4.1,1.74-5.17c9.16-4.55,16.13-6.42,21.32-5.72
			c4.53,0.6,7.23,3.1,10.08,5.72c0.53,0.49,1.05,0.96,1.59,1.45c2.55,2.25,4.9,3.43,6.97,3.5C1967,28.8,1966.2,29.31,1965.43,29.8z
			 M1943.23,32.37c-1.81-0.96-3.65-1.95-5.51-2.88c-0.18-0.08-0.35-0.18-0.53-0.26c-1.94-0.98-3.93-1.98-6.14-2.05
			c0.1-0.66,0.22-1.6,0.4-2.93c1.48-0.84,11.15-4.55,17.53-4.06c2.9,0.23,4.6,1.73,6.73,3.63l0.32,0.31
			c0.69,0.64,1.37,1.32,2.02,1.97c1.6,1.61,3.25,3.27,5.46,4.28c0.24,0.11,0.46,0.23,0.69,0.31c-2.22,1.44-3.89,2.53-3.92,2.55
			l-0.26,0.18l-0.11,0.15h-8.68c-0.9-0.23-1.7-0.52-2.18-0.98c-1.5-1.47-2.11-3.87-0.83-4.98c1.26-1.11,2.72-1.22,2.72-1.22
			s-3.68-0.89-5.57,1.11C1944.05,28.88,1943.23,30.92,1943.23,32.37z M1922.16,33.55c1.44-1.02,2.85-2.03,2.85-2.03
			c0.3-0.21,0.67-0.39,1.02-0.52c0.13-0.07,0.26-0.11,0.37-0.18c0.19-0.11,0.37-0.2,0.56-0.28c0.63-0.33,1.28-0.64,1.92-0.88
			c0.61-0.24,1.23-0.34,1.89-0.34c1.83,0,3.59,0.9,5.45,1.84c0.19,0.08,0.36,0.18,0.54,0.26c1.37,0.68,2.75,1.41,4.13,2.14H1922.16z
			 M1903.68,33.55c2.72-1.25,4.63-2.83,5.77-4.74c1.04-1.81,1.15-3.52,1.02-4.7l16.02-3.06c-0.18,0.06-0.32,0.15-0.5,0.24
			l-0.67,0.34l-0.06,0.76c-0.02,0.38-0.79,8.43-8.51,10.62c1.51-3.01,0.05-8.62,0.05-8.62s-0.31,3.4-2.57,5.89
			c-1.31,1.44-4.89,2.55-7.82,3.27H1903.68z M1973.63,47.24c-0.3-0.24-0.9-0.78-1.28-0.83c1.74,0.26,3.64,0.62,5.11,1.66
			c4.34,2.99,1.92,9.11,0.43,12.93c-0.5,1.29-0.91,2.6-1.28,3.93c-0.11,0.37-0.5,2.97-0.9,3.06l-0.96,0.18l-5.05-9.76
			c0.71,0.07,1.32,0.12,1.95,0c0.3-0.05,0.59-0.13,0.91-0.26c3.77-1.55,4.71-6.7,2.22-9.81
			C1974.46,47.92,1974.04,47.57,1973.63,47.24z M1983.72,109.05c0.02,0.07,0.41,0.35,0.57,0.34c0.88-0.05,2.49-0.46,2.49-0.46"/>
	</g>
	<g id="CORNER_TL">
		<path fill="#968C6A" d="M74.25,34.05c-1.56,0.01-3.37,0.31-4.51,1.49c-4.28,4.44-8.72,8.72-13.1,13.07
			c-1.89,1.88-3.79,3.76-5.68,5.64c-5.12,5.12-10.2,10.27-15.37,15.33c-2.61,2.56-2.29,5.73-2.26,8.92
			c0.05,6.22,0.58,17.28,0.58,17.28l0.01,0.12c0.08,4.86-0.01,0.82,0.07,5.68c0.01,0.51-0.12,6.17-0.04,6.48
			c4.58,2.25,8.95,4.41,14,6.89l-2.21,1.17c-1.39,0.73-2.64,1.39-3.82,2.04l-0.08,0.04l-3.17,1.7l-4.48,2.39L30,124.95L24,130
			l-6.42-5.05L0.92,114.72l12.84-6.15l0.61-0.34l0.17-8.56l0.04-20.39L80.78,15l17.55-0.26c0,0,12.14,0.01,14.82-0.02
			c7.63-0.07,15.26-0.21,22.89-0.24c2.67-0.01,5.34,0.35,8.01,0.33c7.46-0.04,14.93-0.23,22.4-0.26c3.6-0.02,7.21,0.29,10.81,0.26
			c5.58-0.05,11.16-0.35,16.74-0.37c3.74-0.02,7.48,0.41,11.22,0.37c6.43-0.06,12.85-0.48,19.28-0.47
			c7.35,0.01,14.7,0.39,22.06,0.47c2.4,0.03,13.48,0.2,13.48,0.2l15-0.06v19l-15,0.14c0,0-15.94,0.09-18.37,0.07
			c-4.67-0.05-9.33-0.29-13.99-0.3c-4.55,0-9.1,0.19-13.66,0.28c-2.28,0.04-4.59,0.29-6.84,0.03c-4.16-0.47-8.25-0.62-12.43-0.01
			c-2.33,0.34-4.8-0.37-7.2-0.38c-6.44-0.02-12.88,0.1-19.32,0.15c-3.87,0.03-7.73,0.05-11.6,0.03
			c-10.03-0.04-20.06-0.11-30.09-0.14L74.25,34.05"/>
		<path fill="#28251B" stroke="#605A44" stroke-miterlimit="10" d="M50.25,52.15c-1.38,0-2.51-1.13-2.51-2.51
			c0-1.38,1.13-2.51,2.51-2.51c1.38,0,2.51,1.13,2.51,2.51C52.76,51.03,51.63,52.15,50.25,52.15z"/>
		<path fill="#605A44" d="M57.16,31.2c0.06-0.7,0.11-1.32,0-1.95c-0.05-0.3-0.13-0.6-0.26-0.91c-1.7-4.13-7.69-4.87-10.62-1.45
			c-0.06,0.08-0.13,0.2-0.19,0.28c-0.2,0.31-0.84,0.96-0.9,1.38c0.28-1.73,0.63-3.65,1.65-5.14c2.98-4.35,9.08-1.9,12.91-0.44
			c1.28,0.49,2.59,0.93,3.92,1.29c0.37,0.08,2.99,0.5,3.05,0.89l0.18,0.96L57.16,31.2z M107.1,33.49l30.88,0.37l-13.66,2.18
			l-16.23,0.12H86.1v0.02c-0.06,0-0.16-0.02-0.22-0.02H41.54c0.22,0.39,0.46,0.78,0.67,1.2c0.38,0.71,5.16,6.11,5.16,6.11l2.87,6.16
			l-6.28-2.65c0,0-6.28-5.19-7.77-5.79v60.05l-1.41,7.22l-0.84-0.41l-0.04-12.28c-2.37-4.04-4.74-5.75-6.65-7.48L14.51,104.2
			l-0.14,4.03l-1.37,0.7l-0.93-6.88l0.2-87.35v-1.45l111.94-0.9l13.77,2.17l-28.67,1.13l-16.06,12.6
			C94.92,30.21,98.68,32.46,107.1,33.49z M60.16,15.65l8.83,1.71h32.74l-9.81,7.57c0,0.43,0.07,0.93,0.25,1.46l13.9-10.73H60.16z
			 M94.13,19.76H81.45l10.16,1.96L94.13,19.76z M14.99,46.35l0.42-0.24c0.28-0.55,0.56-1.06,0.89-1.55V17.18h27.33
			c0.68-0.42,1.4-0.79,2.17-1.14l0.1-0.17h-9.74l-21.16,0.2V46.35z M25.15,50.05c0,0,0.11,1.44,1.22,2.73
			c1.11,1.29,3.51,0.68,4.97-0.83c0.46-0.47,0.79-1.29,0.98-2.18v-9.55l-2.68-4.04c-0.16,0.42-0.34,0.85-0.53,1.29
			c-1.01,2.23-2.66,3.89-4.25,5.48c-0.66,0.65-1.33,1.33-1.96,2.03l-0.3,0.33c-1.89,2.13-3.38,3.82-3.62,6.73
			c-0.5,6.39,3.2,16.1,4.05,17.58c1.33,0.15,2.26,0.28,2.92,0.39c0.08-2.24,1.11-4.28,2.05-6.16c0.08-0.18,0.18-0.34,0.26-0.52
			c0.93-1.86,1.92-3.71,2.87-5.53c-1.44,0-3.48-0.83-4.87-2.16C24.26,53.74,25.15,50.05,25.15,50.05z M22.2,73.31
			c1.07,0.17,3.05,0.63,5.16,1.74c-0.31-0.63-0.63-1.3-0.9-2c-0.23-0.57-0.36-1.11-0.42-1.66c-0.87-0.13-2.18-0.31-3.38-0.46h-0.08
			l-0.06-0.02c-0.22-0.12-0.41-0.18-1.26-2.25c-0.55-1.38-1.14-3.01-1.62-4.63c-1.01-3.3-2.11-8.05-1.81-11.94
			c0.26-3.3,1.95-5.22,3.92-7.45l0.3-0.33c0.65-0.75,1.33-1.42,2-2.1c1.59-1.6,3.1-3.11,4.01-5.11c0.26-0.59,0.57-1.34,0.77-2.1
			l-1.72-2.6c0.24,2.27-0.91,4.91-3.46,7.82c-0.48,0.55-0.96,1.07-1.44,1.59c-2.61,2.86-5.09,5.56-5.7,10.11
			C15.82,57.1,17.69,64.08,22.2,73.31z M18.61,89.44l2.02-2.65l-2.02-10.75V89.44z M18.91,30.6v10.6c0.43-0.5,0.87-0.97,1.31-1.45
			c0.46-0.51,0.93-1.03,1.39-1.55c2.49-2.85,2.9-4.65,2.81-5.68c-0.07-0.78-0.47-1.19-0.56-1.27l0.89-1.28L18.91,30.6z M26.21,27.15
			l0.78-7.34h-8.08v8.12L26.21,27.15z M37.06,22.65c0.53-0.46,1.04-0.94,1.54-1.4c0.53-0.49,1.05-0.97,1.59-1.45H29.61l-0.62,5.89
			l1.14-0.79c0.08,0.09,0.48,0.49,1.26,0.57C32.38,25.57,34.19,25.15,37.06,22.65z M25.46,87.16c-0.51-0.2-0.99-0.3-1.41-0.32
			L16.2,97.05V69.92l-1.53-9.22l-0.16,40.55L25.46,87.16z M28.53,79.26c-2.19-3.22-8.6-4.55-8.69-4.73l3.05,9.54
			c1.17-0.13,2.87-0.01,4.68,1.03c1.92,1.11,4.01,2.66,5.26,5.41C32.84,90.52,33.16,85.4,28.53,79.26z M33.29,61.85
			c-1.3,1.12-5.08,3.75-4.96,8.9c0,3.36,3.9,8.34,4.96,9.85V61.85z M34.34,29.8c0.54-0.18,1.07-0.38,1.5-0.58
			c2-0.93,3.5-2.43,5.09-4.02c0.68-0.68,1.35-1.35,2.1-2l0.32-0.31c2.22-1.96,4.13-3.67,7.42-3.93c3.88-0.31,8.62,0.81,11.92,1.81
			c1.63,0.47,3.26,1.07,4.61,1.61c2.06,0.83,2.16,1.06,2.24,1.27l0.02,0.07v0.08c0.13,1.2,0.3,2.49,0.46,3.38
			c0.56,0.08,1.11,0.21,1.65,0.42c0.69,0.26,1.37,0.58,2,0.91c-1.1-2.11-1.56-4.1-1.74-5.17c-9.16-4.55-16.13-6.42-21.32-5.72
			c-4.53,0.6-7.23,3.1-10.08,5.72c-0.53,0.49-1.05,0.96-1.59,1.45c-2.55,2.25-4.9,3.43-6.97,3.5C32.78,28.8,33.58,29.31,34.34,29.8z
			 M56.55,32.37c1.81-0.96,3.65-1.95,5.51-2.88c0.18-0.08,0.35-0.18,0.53-0.26c1.94-0.98,3.93-1.98,6.14-2.05
			c-0.1-0.66-0.22-1.6-0.4-2.93c-1.48-0.84-11.15-4.55-17.53-4.06c-2.9,0.23-4.6,1.73-6.73,3.63l-0.32,0.31
			c-0.69,0.64-1.37,1.32-2.02,1.97c-1.6,1.61-3.25,3.27-5.46,4.28c-0.24,0.11-0.46,0.23-0.69,0.31c2.22,1.44,3.89,2.53,3.92,2.55
			l0.26,0.18l0.11,0.15h8.68c0.9-0.23,1.7-0.52,2.18-0.98c1.5-1.47,2.11-3.87,0.83-4.98c-1.26-1.11-2.72-1.22-2.72-1.22
			s3.68-0.89,5.57,1.11C55.72,28.88,56.55,30.92,56.55,32.37z M77.61,33.55c-1.44-1.02-2.85-2.03-2.85-2.03
			c-0.3-0.21-0.67-0.39-1.02-0.52c-0.13-0.07-0.26-0.11-0.37-0.18c-0.19-0.11-0.37-0.2-0.56-0.28c-0.63-0.33-1.28-0.64-1.92-0.88
			c-0.61-0.24-1.23-0.34-1.89-0.34c-1.83,0-3.59,0.9-5.45,1.84c-0.19,0.08-0.36,0.18-0.54,0.26c-1.37,0.68-2.75,1.41-4.13,2.14
			H77.61z M96.09,33.55c-2.72-1.25-4.63-2.83-5.77-4.74c-1.04-1.81-1.15-3.52-1.02-4.7l-16.02-3.06c0.18,0.06,0.32,0.15,0.5,0.24
			l0.67,0.34l0.06,0.76c0.02,0.38,0.79,8.43,8.51,10.62c-1.51-3.01-0.05-8.62-0.05-8.62s0.31,3.4,2.57,5.89
			c1.31,1.44,4.89,2.55,7.82,3.27H96.09z M26.14,47.24c0.3-0.24,0.9-0.78,1.28-0.83c-1.74,0.26-3.64,0.62-5.11,1.66
			c-4.34,2.99-1.92,9.11-0.43,12.93c0.5,1.29,0.91,2.6,1.28,3.93c0.11,0.37,0.5,2.97,0.9,3.06l0.96,0.18l5.05-9.76
			c-0.71,0.07-1.32,0.12-1.95,0c-0.3-0.05-0.59-0.13-0.91-0.26c-3.77-1.55-4.71-6.7-2.22-9.81C25.32,47.92,25.73,47.57,26.14,47.24z
			"/>
	</g>
</svg>
