<?xml version="1.0" encoding="utf-8"?>
<!-- Generator: Adobe Illustrator 24.3.0, SVG Export Plug-In . SVG Version: 6.00 Build 0)  -->
<svg version="1.0" xmlns="http://www.w3.org/2000/svg" xmlns:xlink="http://www.w3.org/1999/xlink" x="0px" y="0px"
	 viewBox="0 0 512 512" style="enable-background:new 0 0 512 512;" xml:space="preserve">
<style type="text/css">
	.st0{fill:#00AEEF;}
	.st1{display:none;}
	.st2{display:inline;}
</style>
<g id="HAREB-SERAP">
	<g id="inner-spikes">
	</g>
	<g id="inner-spikes-initial">
	</g>
</g>
<g id="SPOKES">
	<g>
		<path d="M250.07,507.38c-8.04-3.78-16.18-7.35-24.08-11.4c-11.74-6.02-23.45-12.13-34.82-18.79c-2.73-1.6-5.33-5.31-5.86-8.41
			c-1.17-6.82-1.29-13.86-1.23-20.81c0.04-5.58,10.7-13.05,16.25-11.9c11.54,2.39,12.26,1.8,12.26-9.95
			c0-13.97,0.14-46.16-0.03-60.13c-0.41-33.08-1.11-66.15-1.32-99.22c-0.03-4.8-2.49-6.26-5.87-8.15
			c-14.05-7.85-28.76-14.81-41.73-24.17c-14.22-10.27-23.54-25.34-31.99-40.63c-0.58-1.05-0.72-2.4-1.42-3.34
			c-8.98-11.97-6.6-27.29-11.89-40.4c-1.43-3.53-0.62-7.2,4.84-9.05c2.26-0.77,3.25-6.91,3.63-10.72c0.15-1.48-2.76-4.26-4.69-4.74
			c-5.25-1.29-4.55-5.06-3.64-8.19c4.2-14.44,7.93-29.12,13.56-43.02c3.22-7.95,10.22-14.28,14.67-21.84
			c6.88-11.67,17.48-18.92,28.45-25.98c5.13-3.31,9.75-7.52,15.11-10.35C208.97,6.3,228.8,2.35,249.97,5.89
			c5.62,0.94,11.63,1.63,17.15,0.67c13.15-2.29,23.89,2.54,34.44,9.24c3.25,2.06,6.93,3.5,10.55,4.9c7.85,3.04,16.34,4.59,21.16,13
			c1.51,2.63,5.34,5.07,8.4,5.49c14.59,2,21.57,13.49,28.84,23.59c6.33,8.8,10.39,19.31,14.75,29.37c1.09,2.51,0.26,6.64-1.14,9.26
			c-2.14,4-2.33,7.24,0.43,10.77c0.9,1.15,1.58,2.46,2.39,3.68c10.2,15.47,9.72,26.4-1.11,41.23c-1.37,1.88-0.56,5.49-0.45,8.28
			c0.13,3.36,2.02,7.47,0.69,9.95c-8.82,16.57-17.57,33.25-27.9,48.88c-4.07,6.17-12.4,9.4-18.31,14.52
			c-10.52,9.12-22.33,15.9-35.44,20.34c-12.29,4.17-12.37,3.95-12.37,17.48c0,41.4,0,101.03,0,142.43
			c0,19.31,0.01,19.24,19.16,21.12c3.53,0.35,6.98,1.54,12.27,2.75c-5.05,6.37-8.72,11.88-13.27,16.55
			c-12.17,12.5-24.32,25.09-37.31,36.71c-5.54,4.96-13.17,7.59-19.84,11.28C252.07,507.38,251.07,507.38,250.07,507.38z
			 M279.03,213.72c0.52-0.04,3.03,0.4,4.94-0.47c14.35-6.45,27.25-15.25,36.39-28.09c7.44-10.46,13.43-21.98,19.74-33.21
			c4.03-7.17,1.27-17.41-6.03-21.94c-4.4-2.73-5.16-5.24-2.07-9.3c4.86-6.39,4.93-13.43,0.66-19.8
			c-6.09-9.08-11.69-19.19-19.89-25.99c-10.2-8.46-22.67-14.3-34.5-20.63c-3.47-1.86-8.48-2.95-12.13-1.97
			c-10.22,2.75-19.86,4.73-30.63,1.49c-9.31-2.8-16.5,4.61-22.87,9.78c-12.22,9.93-26.53,18.28-32.11,34.52
			c-2.88,8.39-10.36,15.21-8.46,25.24c1.74,9.21,5.87,18.45,0.06,27.7c-0.11,0.18-0.02,0.49,0.01,0.74
			c2.31,18.73,13.56,32.35,27.15,43.72c10.7,8.96,23.1,15.91,34.87,23.57c1.28,0.83,3.46,0.81,5.07,0.48
			c5.46-1.11,16.08-14.03,16.95-19.76c0.29-1.88,1.79-3.57,2.73-5.35c1.05,1.67,2.8,3.25,3.04,5.03
			C263.28,209.21,267.9,213.66,279.03,213.72z"/>
		<path d="M367.29,471.33c0.77,16.61,1.5,14.09-10.04,27.03c-1.72,1.93-5.2,9.4-7.46,9.01c-42.3-7.23-84.5-2.17-126.82-9.31
			c-8.67-1.46-14.65-5.41-19.11-12.56c-3.56-5.71-7.27-11.34-11.03-16.93c-2.26-3.36-2.53-5.36,1.44-8.38
			c21.77-16.55,32.41-105.11,33.84-132.13c0.75-14.11,1.45-28.25,1.39-42.37c-0.02-3.68-2.92-7.37-4.62-10.99
			c-0.27-0.58-1.59-0.72-1.77-1.27c-3.62-11.07-12.41-8.87-20.57-7.94c-16.06,1.83-23.39-9.06-29.9-20.68
			c-2.13-3.8-3.57-6.49-8.73-6.09c-2.57,0.2-6.52-1.52-7.85-3.63c-10.15-16.06-20.57-32.05-29.24-48.91
			c-3.37-6.55-2.3-15.32-3.56-23.03c-2.21-13.52-2.53-26.98-0.15-40.53c4.3-24.46,15.98-45.88,29.94-65.57
			c11.09-15.65,26.57-27.6,44.02-36.58c13.7-7.05,27.52-14.12,42.99-15.31c12.26-0.94,24.88-0.75,37,1.12
			c12.23,1.88,24.09,6.31,35.98,10.03c1.4,0.44,3.17,3.88,2.72,5.27c-1.69,5.16,1.1,7.34,4.85,9.45c3.57,2,6.76,4.49,10-0.92
			c0.57-0.95,6.06-0.61,7.52,0.87c10.3,10.46,21.66,20.34,29.76,32.37c10.9,16.19,20.58,33.53,20.87,54.23
			c0.18,12.72,2.45,25.53,1.48,38.12c-1.54,19.96-6.02,39.41-18.7,55.91c-2.36,3.08-4.08,5.39-9.02,3.91
			c-4.51-1.35-7.89,0.92-7.36,7c0.22,2.51-1.38,6.23-3.39,7.71c-8.49,6.25-17.62,11.63-26.18,17.81
			c-4.31,3.11-8.35,6.86-11.64,11.01c-2.14,2.7-3.85,6.67-3.8,10.03c0.37,23.88,0.87,47.77,2.09,71.62
			c0.88,17.19,3.76,100.25,17.17,112.75C339.86,463.17,352.14,469.96,367.29,471.33z M325.54,184.45
			c11.2,5.25,21.28,3.25,30.43-4.22c4.21-3.43,6.54-12.9,3.26-14.11c-3.44-1.26-8.35-0.22-12.04,1.25
			c-6.92,2.76-13.42,6.56-21.16,10.47c0.67-2.05,0.72-2.78,1.09-3.25c0.76-0.96,1.59-1.91,2.56-2.64
			c7.93-5.98,11.54-14.16,10.36-23.73c-1.48-11.95-2.77-24.19-6.52-35.52c-3.15-9.54-9.67-17.98-14.74-26.88
			c-5.1-8.95-13.09-12.91-23.12-13.97c-2.56-0.27-4.99-2.32-7.34-3.78c-4.53-2.81-8.6-6.75-13.49-8.5
			c-17.18-6.14-33.53-0.57-49.32,5.61c-11.4,4.46-22.26,10.37-33.07,16.17c-1.69,0.91-2.78,4.77-2.54,7.1
			c1,9.62,2.95,19.04,11.19,25.94c-2.93,0.14-5.12-0.07-7.27-0.5c-10.68-2.15-18.34,1.9-20.34,12.55c-3,15.96-0.14,31.75,6.22,46.41
			c4.57,10.56,11.45,20.11,17.17,30.18c5.96,10.52,14.17,13.4,25.19,8.54c3.63-1.6,5.76-1.81,8.17,2.7
			c2.05,3.82,6.44,7.45,10.59,8.9c12.08,4.24,24.58,0.98,36.1-2.14c10.12-2.74,18.98-9.85,28.65-14.5
			C315.15,201.93,322.17,195.28,325.54,184.45z"/>
		<path d="M324.98,461.65c-7.91,11.9-16.72,25.17-25.56,38.42c-4.91,7.36-10.31,9.24-18.16,5.75
			c-25.02-11.15-51.45-17.28-78.22-22.34c-14.54-2.75-19.86-8.51-20.53-21.95c-0.1-1.93,1.29-4.75,2.88-5.82
			c18.25-12.19,28.62-29.66,30.86-50.83c2.54-24.08,2.78-85.88,3.96-110.11c0.33-6.72,0.66-13.47,0.46-20.19
			c-0.05-1.8-2.81-5.2-3.11-5.07c-9.33,4.03-15.74-3.2-22.6-6.49c-9.49-4.55-17.76-11.56-26.91-16.91
			c-11.55-6.76-16.66-18.56-24.02-28.68c-18.16-25-23.13-52.94-21.84-83.32c0.96-22.56,5.75-43.48,17.04-62.78
			c5.7-9.74,11.68-19.78,19.56-27.67c12.17-12.17,26.62-21.53,42.35-29.27c14.95-7.36,30.54-7.12,46.25-8.94
			c20.13-2.34,39.75-0.65,58.14,6.88c10.96,4.49,20.31,12.94,30.3,19.73c22.17,15.07,34.81,37.39,44.9,61.12
			c14.69,34.53,12.14,67.86-9.85,99.03c-1.97,2.79-3.89,5.75-5.08,8.92c-3.28,8.71-5.91,17.55-15.01,22.61
			c-2.51,1.39-4.58,4.9-5.35,7.84c-4,15.26-16.18,22.84-28.63,29.17c-9.19,4.67-13.96,9.54-14.01,20.6
			c-0.09,17.82-2.94,35.62-3.45,53.46c-0.59,20.65-0.53,79.09,7.9,98.42C311.6,443.13,318.74,451.81,324.98,461.65z M192.14,142.32
			c-2.06,0.63-4.12,1.28-6.19,1.88c-10.22,2.95-13.93,9.14-12.24,19.75c1.97,12.4,10.46,21.03,17.67,30.21
			c10.6,13.5,24.99,22.06,40.46,29.17c9.96,4.57,16.89,3.83,23.2-4.64c2.81-3.77,4.88-3.7,9.1-1.49c4.36,2.28,10.82,4.44,14.79,2.82
			c9.87-4.03,18.87-10.2,28.17-15.6c10.5-6.09,13.73-17.77,20.44-26.77c8.17-10.96,11.44-22.57,5.55-35.84
			c-0.91-2.05,0.05-5.33,0.97-7.72c3.18-8.29,3.69-16.55-1.45-23.96c-7.72-11.13-14.72-23.34-24.62-32.2
			c-9.43-8.43-21.56-16.04-33.66-18.65c-11.85-2.56-25.05,0.27-37.85-0.37c-17.74-0.88-30.38,11.73-41.35,23.97
			c-9.8,10.93-17.66,23.6-26.72,35.96C174.22,127.74,179.41,138.14,192.14,142.32z"/>
		<path d="M339.96,31.28c3.56,3.77,7.15,7.57,10.74,11.36c3.52,3.72,6.85,7.65,10.61,11.11c4.01,3.69,7.57,6.5,3.03,12.81
			c-1.47,2.05,1.02,7.57,2.76,10.96c0.65,1.27,4.5,1.77,6.57,1.29c5.05-1.18,6.32,2.29,7.18,5.5c3.85,14.4,8.31,28.73,10.66,43.39
			c1.41,8.78-0.86,18.12-1.16,27.22c-0.37,11.25-3.08,21.66-8.65,31.58c-4.94,8.81-8.05,18.69-13.37,27.22
			c-6.26,10.02-12.55,20.96-21.54,28.09c-10.63,8.43-23.84,13.99-36.58,19.23c-6.29,2.58-9.01,5.09-9.3,11.88
			c-0.96,22.38-2.81,44.84,4.3,66.55c2.79,8.53,7.92,91.88,11.43,100.21c1.21,2.86,1.97,6.98,0.81,9.57
			c-5.67,12.7-11.59,25.35-18.36,37.49c-4.69,8.41-10.58,16.38-20.75,19.23c-2.6,0.73-5.33,1.41-8,1.42
			c-8.99,0.04-17.99-0.44-26.98-0.29c-5.54,0.1-9.39-1.67-12.3-6.59c-6.19-10.48-17.24-14.68-27.3-20.08
			c-1.31-0.7-2.76-1.16-4.18-1.64c-13.24-4.47-24.13-11.08-24.18-28.38c2.08-0.82,5.2-1.97,8.26-3.26
			c17.99-7.6,31.17-106.76,29.59-126.26c-0.94-11.55,0.12-23.26,0-34.89c-0.05-5.15-0.1-10.51-1.56-15.36
			c-0.67-2.23-4.61-3.64-7.25-5.1c-13.33-7.36-26.82-14.46-39.98-22.11c-1.66-0.97-2.39-4.67-2.39-7.11c0-4.65-1.11-8.06-5.94-9.56
			c-1.64-0.51-3.17-1.4-4.72-2.17c-16.4-8.14-21.32-17.65-19.47-36.05c0.21-2.12-2.36-4.62-3.87-6.78c-1.93-2.78-5.72-5.29-5.9-8.1
			c-1.22-18.58-2.75-37.25-1.93-55.79c0.37-8.35,5.75-16.54,9.14-24.69c2.63-6.34,5.32-12.71,8.61-18.72
			c15.35-28.11,41.71-43.68,68.54-58.24c7.73-4.19,17.14-6.05,26.01-7.26c19.9-2.7,39.62-6.81,60.14-2.31
			c11.71,2.57,19.57,8.27,25.71,17.67c1.23,1.88,2.35,3.82,3.53,5.74C327.23,38.69,331.26,39.25,339.96,31.28z M221.86,65.06
			c-1.39,4.87-3.22,8.81-3.48,12.85c-0.24,3.91,1.13,7.93,1.99,13.06c-2.8-2.06-4.68-3.14-6.17-4.6
			c-7.31-7.18-19.05-7.58-26.36,3.54c-8.11,12.33-13.6,26.03-14.77,40.68c-1.03,12.93-0.1,26.04,0.34,39.06
			c0.27,7.97,8.34,15.76,16.61,15.62c6-0.1,6.37,2.47,6.88,7.5c0.47,4.62,2.52,10.12,5.81,13.15c4.09,3.77,10.45,4.94,15.34,8.02
			c18.46,11.64,38.7,8.42,58.53,6.79c5.18-0.43,10.28-4.55,14.97-7.65c4.59-3.03,8.14-8.84,12.98-10.02
			c10.71-2.6,17.86-8.22,21.6-18.18c3.8-10.11,6.86-20.5,10.7-30.59c3.89-10.21,0.29-20.28,0.23-30.42
			c-0.06-10.64-3.96-19-13.05-24.94c-1.8-1.18-3.74-3.6-3.91-5.6c-1.23-14.09-11.99-21.03-22.35-25.95
			c-16.05-7.62-33.85-9.85-51.8-8.97c-4.2,0.21-9.47,1.86-12.3-0.04c-2.9-1.94-2.96-7.72-5.12-11.29c-2.1-3.46-4.82-7.67-8.2-8.8
			c-1.87-0.62-5.84,4.2-8.46,6.94c-1.86,1.94-2.84,4.72-4.61,6.77c-5.35,6.2-2.97,10.36,6.57,11.81
			C216.38,64.2,218.95,64.61,221.86,65.06z M154.12,76.85c-7.33,0.14-12.86,4.33-12.29,10.1c0.38,3.86,0.98,8.55,6.95,8.25
			c5.72-0.28,14.43-7.2,14.46-11.51C163.28,77.2,158.77,76.94,154.12,76.85z M192.05,59.88c0.26-1.22,0.53-2.45,0.79-3.67
			c-2.8-1.2-5.61-2.4-8.41-3.6c0.13,1.99-0.46,5.04,0.55,5.73C186.83,59.59,189.64,59.44,192.05,59.88z"/>
	</g>
</g>
<g id="BINAH" class="st1">
</g>
<g id="GEBURAH" class="st1">
</g>
<g id="GUIDES">
</g>
</svg>
