<?xml version="1.0" encoding="utf-8"?>
<!-- Generator: Adobe Illustrator 23.0.1, SVG Export Plug-In . SVG Version: 6.00 Build 0)  -->
<svg id="icon" version="1.1" xmlns="http://www.w3.org/2000/svg" xmlns:xlink="http://www.w3.org/1999/xlink" x="0px" y="0px"
	 viewBox="0 0 512 512" style="enable-background:new 0 0 512 512;" xml:space="preserve">
<style type="text/css">
	.st0{clip-path:url(#SVGID_1_);fill:url(#SVGID_2_);}
	.st1{fill:#FFFFFF;}
	.st2{fill:#460E0E;}
</style>
<g>
	<clipPath >
		<use xlink:href="#SVGID_4_"  style="overflow:visible;"/>
	</clipPath>
	
		<linearGradient gradientUnits="userSpaceOnUse" x1="-48.896" y1="651.7702" x2="-47.93" y2="652.7362" gradientTransform="matrix(398.2426 398.2426 398.2426 -398.2426 -240218.8594 279291.0938)">
		<stop  offset="0.4" style="stop-color:#C80000"/>
		<stop  offset="1" style="stop-color:#6D1616"/>
	</linearGradient>
	<path class="st0" d="M256-128.7L640.7,256L256,640.7L-128.7,256L256-128.7z"/>
</g>
<g>
	<path class="st1" d="M100.9,491c-2.7,0-5.2-1-7.1-2.9l-42.7-42.7c-4.9-4.9-5.1-12.7-0.4-17.8l63.4-69.7c0.1-0.1,0.1-0.1,0.2-0.2
		l0.4-0.4c1.8-1.8,4.1-3.2,6.6-4l3.6-1.1c1.3-0.4,2.5-1.3,3.3-2.4l11.7-17.4c0.8-1.2,2.2-2,3.7-2.2c0.2,0,0.3,0,0.5,0
		c1.3,0,2.6,0.5,3.5,1.5l23.4,23.4c1.5,1.5,1.9,3.8,1,5.7l-55.7,118c-0.7,1.6-1.7,3-2.9,4.2l-5.2,5.2C106.1,490,103.6,491,100.9,491
		z M205.6,394.6c-6.9,0-12.8-4.9-14.2-11.6l-6.4-30.5c-1.2-5.6-3.3-7.8-3.9-7.9c0,0-0.2,0.1-0.3,0.1c-1.1,0.4-2.2,0.6-3.3,0.6
		c-2.6,0-5.2-1.1-7-3l-18.6-18.6c-1.7-1.7-2.7-4-2.6-6.5c0,0,0-0.1,0-0.1c0.2-4.9,0.4-19.6,0.4-19.8c0-1.3,0.5-2.6,1.5-3.5
		l67.1-67.1l-0.4-0.4c-2-2-2-5.1,0-7.1l33.2-33.2c0.9-0.9,2.2-1.5,3.5-1.5s2.6,0.5,3.5,1.5l32.3,32.3c2,2,2,5.1,0,7.1l-47.4,47.4
		l7.5,7.5c3.3,3.3,5.1,7.6,5.1,12.3s-1.8,9-5.1,12.3l-27.2,27.2c-1.2,1.3-1.8,3.1-1.4,4.8c0,0,6.8,32.3,6.8,32.4
		c2.3,11-4.8,21.8-15.8,24.1c0,0-4.2,0.9-4.2,0.9C207.6,394.5,206.6,394.6,205.6,394.6z M229.6,293.2c-1.2,0-2.4,0.5-3.3,1.4
		l-10.7,10.7c-1.8,1.8-1.8,4.8,0,6.6l1.6,1.6c0.9,0.9,2.1,1.4,3.3,1.4c1.2,0,2.4-0.5,3.3-1.4l10.7-10.7c1.8-1.8,1.8-4.8,0-6.6
		l-1.6-1.6C232.1,293.7,230.9,293.2,229.6,293.2z M353.7,303.2c-33,0-65.1-9.4-92.9-27.2c-1.3-0.8-2.1-2.2-2.3-3.7s0.4-3,1.4-4.1
		l30.1-30.1c1-1,2.2-1.5,3.5-1.5c0.8,0,1.6,0.2,2.4,0.6c17.7,9.6,37.7,14.7,57.8,14.7c8,0,15.9-0.8,23.7-2.3c0.3-0.1,0.7-0.1,1-0.1
		c1,0,1.9,0.3,2.8,0.8c1.1,0.7,1.9,1.9,2.1,3.2l8,40.4c0.5,2.7-1.2,5.3-3.9,5.9C376.4,302,365,303.2,353.7,303.2z M305.4,216
		c-2.9,0-5.6-1-7.8-2.9c-0.3-0.2-0.5-0.5-0.8-0.7l-23.5-23.5c-4.8-4.8-4.8-12.5,0-17.2l56.8-56.8c2.3-2.3,5.4-3.6,8.6-3.6
		s6.3,1.3,8.6,3.6c0,0,18.6,18.6,18.6,18.6c4.5,4.5,4.8,11.6,0.7,16.5l-51.9,61.7C312.4,214.5,309,216,305.4,216z M380.3,133.4
		c-1.3,0-2.6-0.5-3.5-1.5l-12-12c-0.9-0.9-1.5-2.2-1.5-3.5c0-0.7,0.2-1.5,0.5-2.1c-0.7,0.3-1.4,0.5-2.1,0.5l0,0
		c-1.3,0-2.6-0.5-3.5-1.5l-4.4-4.4c-2-2-2-5.1,0-7.1l20.9-20.9c1-1,2.2-1.5,3.5-1.5c0.4,0,0.9,0.1,1.3,0.2l8.8,2.5
		c0.9,0.2,1.8,0.4,2.7,0.4c2.7,0,5.3-1.1,7.2-3l23.9-23.9l-7.7-16.9c-2-4.5-1.1-9.8,2.4-13.2l0.8-0.8c2.3-2.3,5.6-3.7,9-3.7
		c3.2,0,6.1,1.2,8.3,3.3l11.8,11.8l3-3c0.9-0.9,2.2-1.5,3.5-1.5l0,0c1.3,0,2.6,0.5,3.5,1.5l6.4,6.4c2,2,2,5.1,0,7.1l-3.1,3.1
		c1.4,2,1.3,4.7-0.5,6.5l-75.8,75.8C382.9,132.9,381.6,133.4,380.3,133.4z"/>
	<path class="st2" d="M426.6,26c1.7,0,3.5,0.6,4.7,1.9l15.3,15.3l6.6-6.6l6.4,6.4l-6.6,6.6l3,3l-75.8,75.8l-12-12l15.7-15.7
		c1.8-1.8,1.8-4.8,0-6.6c-0.9-0.9-2.1-1.4-3.3-1.4c-1.2,0-2.4,0.5-3.3,1.4l-15.7,15.7l-4.4-4.4l20.9-20.9l8.9,2.5
		c1.3,0.4,2.7,0.5,4,0.5c4,0,7.9-1.6,10.7-4.5l26.3-26.3l-9.1-20c-1.2-2.6-0.6-5.6,1.4-7.6l0.8-0.8C422.6,26.8,424.7,26,426.6,26
		 M338.7,116.3c1.8,0,3.7,0.7,5.1,2.1c0,0,0,0,0,0l0,0l18.6,18.6c2.6,2.6,2.8,6.9,0.4,9.7l-51.9,61.7c-1.4,1.7-3.5,2.6-5.5,2.6
		c-1.6,0-3.3-0.6-4.6-1.7c-0.2-0.1-0.3-0.3-0.5-0.4l-23.5-23.5c-2.8-2.8-2.8-7.4,0-10.2l56.8-56.8C335,117,336.9,116.3,338.7,116.3
		 M254.4,189.7l32.3,32.3l-50.9,50.9l11.1,11.1c4.8,4.8,4.8,12.7,0,17.5l-27.2,27.2c-2.4,2.5-3.5,6-2.7,9.4l6.8,32.3c0,0,0,0,0,0
		c1.7,8.3-3.6,16.5-11.9,18.2l-4.2,0.9c0,0,0,0,0,0c-0.7,0.1-1.3,0.2-2,0.2c-4.4,0-8.4-3.1-9.3-7.6l-6.4-30.5
		c-1.5-7.2-4.9-11.9-8.8-11.9c-0.6,0-1.3,0.1-2,0.4c-0.5,0.2-1.1,0.3-1.6,0.3c-1.3,0-2.5-0.5-3.5-1.5l-18.7-18.7
		c-0.7-0.7-1.2-1.7-1.1-2.8v0c0.2-5.1,0.4-20,0.4-20l70.6-70.6l-4-4L254.4,189.7 M220.5,319.8c2.5,0,4.9-0.9,6.8-2.8l10.7-10.7
		c0,0,0,0,0,0c3.8-3.8,3.8-9.9,0-13.7l-1.6-1.6c0,0,0,0,0,0c-1.9-1.9-4.4-2.8-6.8-2.8s-5,0.9-6.8,2.8l-10.7,10.7c0,0,0,0,0,0
		c-3.8,3.8-3.8,9.9,0,13.7l1.6,1.6C215.6,318.9,218.1,319.8,220.5,319.8 M293.6,241.7c18.6,10.1,39.3,15.3,60.2,15.3
		c8.2,0,16.5-0.8,24.7-2.4l8,40.4c-10.9,2.2-21.8,3.2-32.8,3.2c-31.8,0-63.1-9-90.2-26.4L293.6,241.7 M143.8,335.2l23.4,23.4
		l-55.7,118c-0.5,1-1.1,2-2,2.8l-5.1,5.1c-1,1-2.3,1.5-3.5,1.5c-1.3,0-2.6-0.5-3.5-1.5l-42.7-42.7c-3-3-3.1-7.8-0.3-10.9l63.4-69.7
		l0.4-0.4c1.3-1.3,2.8-2.2,4.5-2.7l3.6-1.1c2.4-0.7,4.5-2.3,5.9-4.4L143.8,335.2 M426.6,16c-4.7,0-9.2,1.9-12.5,5.1l-0.8,0.8
		c-4.9,4.9-6.3,12.5-3.4,18.8l6.2,13.7l-21.4,21.4c-1,1-2.3,1.5-3.7,1.5c-0.5,0-0.9-0.1-1.4-0.2l-8.8-2.5c-0.9-0.2-1.8-0.4-2.7-0.4
		c-2.6,0-5.2,1-7.1,2.9l-20.9,20.9c-2.9,2.9-3.7,7.2-2.2,10.8c-2.7-1.8-5.9-2.7-9.3-2.7c0,0,0,0,0,0c-4.6,0-8.9,1.8-12.2,5
		l-56.8,56.8c-5.1,5.1-6.3,12.8-3.6,19.1l-4.6-4.6c-1.9-1.9-4.4-2.9-7.1-2.9s-5.2,1.1-7.1,2.9l-33.2,33.2c-2.8,2.8-3.6,6.8-2.4,10.3
		l-64.3,64.3c-1.9,1.9-2.9,4.4-2.9,7c0,0.1-0.1,14.8-0.3,19.6c0,0.1,0,0.1,0,0.2c-0.1,3.1,0.9,6.2,2.7,8.6c-1-0.3-2.1-0.5-3.2-0.5
		c-0.3,0-0.6,0-1,0c-3,0.3-5.7,1.9-7.3,4.4L123.8,347c-0.1,0.2-0.3,0.4-0.6,0.4l-3.6,1.1c-3.2,1-6.2,2.8-8.6,5.2l-0.4,0.4
		c-0.1,0.1-0.2,0.2-0.3,0.3L47,424.2c-6.4,7.1-6.2,17.9,0.6,24.7l42.7,42.7c2.8,2.8,6.6,4.4,10.6,4.4c4,0,7.8-1.6,10.6-4.4l5.1-5.1
		c1.6-1.6,3-3.5,3.9-5.6l55.7-118c1.8-3.8,1-8.4-2-11.3l-2.3-2.3c1.7,0.7,3.6,1.1,5.5,1.1c0.5,0,1,0,1.6-0.1c0.3,0.8,0.7,1.9,1,3.3
		l6.4,30.5c1.9,9,9.9,15.6,19.1,15.6c1.3,0,2.7-0.1,4-0.4c0,0,0,0,0.1,0l4.2-0.9c6.6-1.4,12.3-5.3,16-10.9c3.7-5.7,5-12.4,3.6-19.1
		c0,0,0,0,0-0.1l-6.8-32.3c0,0,0,0,0-0.1c0-0.1,0-0.2,0.1-0.2l27.2-27.2c8.7-8.7,8.7-22.9,0-31.6l-4-4l4-4c-0.4,1.3-0.5,2.6-0.4,4
		c0.3,3,2,5.7,4.6,7.3c28.6,18.3,61.7,28,95.6,28c11.6,0,23.3-1.2,34.7-3.4c5.4-1.1,8.9-6.3,7.8-11.8l-8-40.4
		c-0.5-2.6-2-4.9-4.3-6.4c-1.7-1.1-3.6-1.7-5.6-1.7c-0.7,0-1.3,0.1-2,0.2c-7.5,1.5-15.1,2.3-22.8,2.3c-19.3,0-38.5-4.9-55.4-14.1
		c-1.5-0.8-3.1-1.2-4.8-1.2c-1,0-1.9,0.1-2.9,0.4l3.1-3.1c2.9-2.9,3.7-7.2,2.2-10.8c2.8,1.8,6.1,2.8,9.4,2.8c5.1,0,9.9-2.2,13.2-6.1
		l51.9-61.7c4.3-5.2,5.2-12.1,2.6-17.9l0.1,0.1c1.9,1.9,4.4,2.9,7.1,2.9s5.2-1.1,7.1-2.9l75.8-75.8c2.4-2.4,3.3-5.7,2.8-8.8l0.8-0.8
		c1.9-1.9,2.9-4.4,2.9-7.1c0-2.7-1.1-5.2-2.9-7.1l-6.4-6.4c-2-2-4.5-2.9-7.1-2.9c-2.3,0-4.7,0.8-6.6,2.5l-8.3-8.3
		C435.3,17.7,431.1,16,426.6,16L426.6,16z M219.4,308.6l10.2-10.2l1.1,1.1l-10.2,10.2L219.4,308.6L219.4,308.6z"/>
</g>
</svg>
