<?xml version="1.0" encoding="utf-8"?>
<!-- Generator: Adobe Illustrator 23.0.1, SVG Export Plug-In . SVG Version: 6.00 Build 0)  -->
<svg id="icon" version="1.1" xmlns="http://www.w3.org/2000/svg" xmlns:xlink="http://www.w3.org/1999/xlink" x="0px" y="0px"
	 viewBox="0 0 512 512" style="enable-background:new 0 0 512 512;" xml:space="preserve">
<style type="text/css">
	.st0{clip-path:url(#SVGID_2_);fill:url(#SVGID_3_);}
	.st1{fill:#FFFFFF;}
	.st2{fill:#460E0E;}
</style>
<g>
	<clipPath >
		<use xlink:href="#SVGID_1_"  style="overflow:visible;"/>
	</clipPath>
	
		<linearGradient gradientUnits="userSpaceOnUse" x1="-48.896" y1="651.7702" x2="-47.93" y2="652.7362" gradientTransform="matrix(398.2426 398.2426 398.2426 -398.2426 -240218.8594 279291.0938)">
		<stop  offset="0.4" style="stop-color:#C80000"/>
		<stop  offset="1" style="stop-color:#6D1616"/>
	</linearGradient>
	<path class="st0" d="M256-128.7L640.7,256L256,640.7L-128.7,256L256-128.7z"/>
</g>
<g transform="">
	<g>
		<path class="st1" d="M77.8,492.8c-1.3,0-3.9-0.1-7.2-1c-7-1.9-16.1-6.2-24.4-11.5c-8.3-5.3-15.9-11.9-20.4-17.6
			c-2-2.4-3.6-5.2-4.3-7.3l-0.4-0.9l0-1.3v-1.5l0.8-1.2c31.4-49.2,59.2-96,86.1-141.2c43.4-73.1,84.4-142.1,135.7-212.9l2.8-3.8
			l44.1,28.5l-3.1,4.3c-44.5,60.6-71,107.5-99.1,157.2c-16.5,29.2-33.6,59.4-55.6,95l-0.1,0.2l-0.3,0.4l-0.1,0.5
			C115.8,440.5,105.7,456,83.6,490l-1.8,2.7h-2.1l-0.2,0l-0.4,0C78.7,492.8,78.3,492.8,77.8,492.8z M322.4,132.3l-82.9-53.6
			l40.1-61.4l82,53.3l129.1,59.7l0.3,2.9c1,11-2.3,23.6-9.6,37.6c-7.3,13.7-18.9,28.9-33.6,44c-12.2,12.6-26.8,25.1-41,35
			c-10.3,7.1-18.5,11.3-22.6,13.1l-4.7,2.2L322.4,132.3z"/>
		<path class="st2" d="M281,24.1L359.1,75l126.8,58.6c0.9,10.3-2.4,22.2-9,34.8c-7.6,14.4-19.5,29.3-32.7,42.8
			c-13.1,13.5-27.6,25.5-40.3,34.4c-8.4,5.8-16.2,10.1-21.8,12.7l-55.7-129.4l-80-51.7L281,24.1 M247.6,99.4l35.7,23.1
			c-70.1,95.5-94.5,154.8-155,252.5l-0.8,1.1l-0.3,1.3c-16.1,61.3-26.1,76.5-48.1,110.3c-0.1,0-0.1,0-0.5,0.1c-0.2,0-0.5,0-0.9,0
			c-1.4,0-3.5-0.2-6-0.8c-6.3-1.7-15-5.8-22.9-10.9s-15.2-11.4-19.2-16.5c-2-2.5-3.2-4.8-3.5-5.9c-0.1-0.4-0.1-0.3-0.1-0.4
			C107.9,325.2,164.4,214.2,247.6,99.4 M278.1,10.3l-5.5,8.4l-34.6,53l-5.5,8.4l8.4,5.5l2.9,1.9l-4.4,6.1
			c-51.5,71-92.5,140.1-136,213.3c-26.8,45.2-54.6,91.9-86,141.1l-1.6,2.5v2.9c0,1.4,0.3,2.7,0.8,3.9c0.9,2.6,2.7,5.8,5.1,8.7
			c4.8,6.1,12.9,13,21.6,18.6c8.7,5.6,18.3,10.2,25.7,12.2l0.1,0l0.1,0c2.9,0.7,5.9,1.1,8.5,1.1c0.6,0,1.2,0,1.7-0.1l0.7-0.1l4.3,0
			l3-4.5l0.3-0.5c21.7-33.3,32.6-50.1,49-112.4l0,0c22.1-35.6,39.2-65.9,55.7-95.1c28-49.6,54.5-96.4,98.8-156.7l5.1-7l22,14.2
			l54.5,126.6l4.1,9.4l9.3-4.3c4.2-1.9,12.7-6.3,23.3-13.5l0,0l0,0c14.4-10.1,29.3-22.8,41.7-35.6c15-15.4,26.9-31,34.4-45.1
			c7.8-14.8,11.2-28.4,10.1-40.3l-0.5-5.8l-5.3-2.4L364,66.2l-77.5-50.4L278.1,10.3L278.1,10.3z"/>
	</g>
</g>
</svg>
