<?xml version="1.0" encoding="utf-8"?>
<!-- Generator: Adobe Illustrator 23.0.1, SVG Export Plug-In . SVG Version: 6.00 Build 0)  -->
<svg id="icon" version="1.1" xmlns="http://www.w3.org/2000/svg" xmlns:xlink="http://www.w3.org/1999/xlink" x="0px" y="0px"
	 viewBox="0 0 512 512" style="enable-background:new 0 0 512 512;" xml:space="preserve">
<style type="text/css">
	.st0{clip-path:url(#SVGID_1_);fill:url(#SVGID_2_);}
	.st1{fill:#FFFFFF;}
	.st2{fill:#460E0E;}
</style>
<g>
	<clipPath >
		<use xlink:href="#SVGID_4_"  style="overflow:visible;"/>
	</clipPath>
	
		<linearGradient gradientUnits="userSpaceOnUse" x1="-48.896" y1="651.7702" x2="-47.93" y2="652.7362" gradientTransform="matrix(398.2426 398.2426 398.2426 -398.2426 -240218.8594 279291.0938)">
		<stop  offset="0.4" style="stop-color:#C80000"/>
		<stop  offset="1" style="stop-color:#6D1616"/>
	</linearGradient>
	<path class="st0" d="M256-128.7L640.7,256L256,640.7L-128.7,256L256-128.7z"/>
</g>
<g>
	<path class="st1" d="M52.2,497.2c-2.3,0-4.4-0.4-6.3-1.3c-4.8-2.1-8.4-6.7-10.9-14.1c-0.2-0.6-0.3-1.2-0.3-1.9
		c0.6-10.6,0.9-21.6,1.2-32.2c1.1-40.2,2.3-81.8,17.2-117.2c8.9-21,34-50.2,44.4-61.8c7.7-8.6,15.1-16.4,22.5-23.8
		c0.9-1,2.2-1.5,3.5-1.5c0.3,0,0.7,0,1,0.1c1.7,0.4,3,1.5,3.6,3.1c5.6,14.8,16.1,20.7,30.6,29c3.8,2.1,7.7,4.3,11.8,6.9
		c1.5,0.9,2.4,2.6,2.4,4.5s-1.1,3.4-2.7,4.3c-3.4,1.8-7.5,3.9-12.2,6.6c-13.7,7.8-30.7,18.2-40.6,29.7
		c-17.7,20.8-25.1,48.1-29.2,66.9c-2.9,13.4-2.8,32.2-2.5,45.1c0.3,12.5,1,21.9,1.2,25.4c0,0.6,0,1.1-0.2,1.7
		c-3,11.2-14.3,24.1-25.2,28.6C58.2,496.5,55.1,497.2,52.2,497.2L52.2,497.2z M144.4,358.8c-0.4,0-0.8,0-1.2,0
		c-9.3-0.2-18.6-3.7-26-9.8c-2-1.6-2.4-4.4-1-6.6c2.3-3.5,4.7-6.8,7.2-9.7c1.3-1.6,3.1-3.3,5.1-5.1c1-0.9,2.1-1.3,3.3-1.3
		c1.2,0,2.3,0.4,3.3,1.2c2.5,2.2,5.3,3.2,8.9,3.3c0.1,0,0.3,0,0.4,0c4.7,0,9.8-2,14.1-5.6c3.9-3.2,10.5-10.3,10.8-21.7
		c0-1.8,1.1-3.5,2.7-4.3c9.3-4.9,16.1-8,16.3-8.2l1.2-0.5c0.7-0.3,1.4-0.5,2.1-0.5c1.3,0,2.7,0.5,3.6,1.5c0.8,0.8,1.2,1.9,1.4,2.9
		c2.5,20-5.2,40.1-20.3,52.4C166.9,354.6,155.6,358.8,144.4,358.8C144.4,358.8,144.4,358.8,144.4,358.8z M43.6,325
		c-1.7,0-3.3-0.9-4.2-2.3l-15.6-24.2c-0.9-1.4-1-3-0.5-4.5c0.6-1.5,1.9-2.6,3.4-3l37.6-9.6c0.4-0.1,0.8-0.2,1.2-0.2l0,0
		c2.5,0,4.6,1.9,5,4.4c0.2,1.4-0.3,2.8-1.1,3.8c-9.5,12.2-16.7,23.3-21.4,32.8c-0.8,1.6-2.4,2.7-4.2,2.8C43.8,325,43.7,325,43.6,325
		z M186.3,281.7c-0.9,0-1.8-0.2-2.5-0.7l-20.5-12.1c-1.5-0.9-2.4-2.5-2.5-4.2c0-1.7,0.8-3.4,2.3-4.3l100.1-64.5
		c0.8-0.5,1.8-0.8,2.7-0.8c0.9,0,1.9,0.3,2.7,0.8l17.1,10.9c1.4,0.9,2.3,2.4,2.3,4.1s-0.8,3.2-2.1,4.2
		c-26.5,18.6-58.2,40.2-96.9,65.8C188.2,281.5,187.3,281.7,186.3,281.7z M148.7,259.2c-1.1,0-2.3-0.4-3.2-1.1
		c-9.3-7.6-17.4-25.1-9.4-49.3c0.4-1.1,1.1-2,2-2.6l6.2-4c0.8-0.5,1.8-0.8,2.7-0.8c1.6,0,3.3,0.8,4.2,2.3l22.3,34.5
		c0.7,1.1,1,2.5,0.7,3.8c-0.3,1.3-1.1,2.4-2.2,3.1l-20.7,13.3C150.6,259,149.6,259.2,148.7,259.2z M184.5,236.2
		c-0.4,0-0.7,0-1.1-0.1c-1.3-0.3-2.4-1.1-3.1-2.2l-22-34.1c-0.7-1.2-1-2.6-0.7-3.9c0.3-1.3,1.2-2.5,2.4-3.2L469.6,15.5
		c0.8-0.4,1.6-0.7,2.5-0.7c1.6,0,3.3,0.8,4.2,2.3l11.8,18.4c1.5,2.3,0.8,5.4-1.5,6.9l-299.5,193
		C186.4,235.9,185.5,236.2,184.5,236.2z M299,204.8c-0.9,0-1.9-0.3-2.7-0.8l-16.3-10.4c-1.4-0.9-2.3-2.5-2.3-4.2s0.9-3.3,2.3-4.2
		l117.6-75.8c0.8-0.5,1.8-0.8,2.7-0.8c1,0,2,0.3,2.8,0.9c1.7,1.2,2.5,3.2,2,5.2l-0.8,3.7c-0.2,0.8-0.6,1.6-1.1,2.2
		c-16.5,19.1-49.7,46.4-101.4,83.3C301,204.5,300,204.8,299,204.8z"/>
	<path class="st2" d="M472.1,19.8L472.1,19.8L484,38.2l-299.5,193l-22-34.1L472.1,19.8 M400.2,113.6L400.2,113.6L400.2,113.6
		L400.2,113.6 M400.2,113.6l-0.8,3.7c-17.9,20.7-54.5,49.7-100.5,82.5l-16.4-10.4L400.2,113.6 M266,200.1l17.1,10.9
		c-29.8,20.9-62.8,43.2-96.8,65.7l-20.5-12.1L266,200.1 M147.1,206.4L147.1,206.4l22.3,34.5l-20.7,13.3c-9.2-7.5-14.4-23.9-7.8-43.9
		L147.1,206.4 M123.4,248.4L123.4,248.4c7.8,20.6,24.6,26,44.4,38.3c-3.8,1.9-7.7,4-12.4,6.6c-14.8,8.4-31.7,18.9-41.9,30.8
		c-16.9,19.9-25.1,45.2-30.3,69.1c-2.9,13.3-3,31.2-2.6,46.3c0.3,13.5,1.1,23.4,1.2,25.6c-2.6,9.7-12.9,21.4-22.3,25.3
		c-2.8,1.2-5.2,1.7-7.4,1.7c-1.6,0-3.1-0.3-4.3-0.9c-2.8-1.2-5.8-4.1-8.2-11.1c2.7-49.7-0.5-103.8,18-147.7
		c7.1-16.9,26.2-41.2,43.5-60.4C110.5,261.6,117.9,253.9,123.4,248.4 M65.7,286.2L65.7,286.2L65.7,286.2 M65.7,286.2
		C56.9,297.4,49,309,43.6,320L28,295.8L65.7,286.2 M191.5,295L191.5,295c2.5,19.8-5.7,37.5-18.5,48c-8.2,6.7-18.3,10.8-28.7,10.8
		c-0.3,0-0.7,0-1,0c-8-0.2-16.1-3.1-22.9-8.7c2.1-3.2,4.3-6.3,6.8-9.2c1.2-1.5,2.8-3,4.6-4.6c3.7,3.2,7.7,4.4,12,4.5
		c0.2,0,0.3,0,0.5,0c5.7,0,12-2.3,17.3-6.7c7-5.8,12.4-14.5,12.6-25.5c9.3-4.9,16.1-8,16.1-8L191.5,295 M472.1,9.8
		c-1.7,0-3.4,0.4-5,1.3L157.6,188.4c-2.4,1.4-4.1,3.6-4.7,6.3c-0.3,1.1-0.3,2.2-0.2,3.3c-1.6-1.1-3.5-1.6-5.4-1.6
		c-1.9,0-3.7,0.5-5.4,1.6l-6.2,4c-1.9,1.2-3.4,3.1-4.1,5.3c-3.8,11.6-4.4,23.2-2,33.1c-1.1-0.8-2.4-1.4-3.9-1.8
		c-0.7-0.1-1.4-0.2-2.1-0.2c-2.6,0-5.2,1-7.1,2.9c-7.5,7.5-14.9,15.4-22.7,24c-4.3,4.7-11,12.4-18,21.3c0-0.2,0-0.3,0-0.5
		c0-5.2-3.9-9.4-8.9-9.9c-0.4,0-0.7-0.1-1.1-0.1c-0.1,0-0.2,0-0.3,0c-0.8,0-1.7,0.2-2.4,0.4l-37.4,9.6c-3.1,0.8-5.7,3-6.8,6
		c-1.2,3-0.8,6.4,0.9,9.1l15.6,24.2c1.8,2.9,5,4.6,8.4,4.6c0.2,0,0.4,0,0.6,0c1.5-0.1,2.9-0.5,4.2-1.2C33.1,365,32,407,30.8,447.6
		c-0.3,10.6-0.6,21.6-1.2,32.1c-0.1,1.3,0.1,2.5,0.5,3.8c3,8.8,7.5,14.4,13.7,17.1c2.6,1.1,5.4,1.7,8.3,1.7c3.6,0,7.3-0.8,11.2-2.4
		c12.4-5.1,24.7-19.2,28.1-32c0.3-1.1,0.4-2.2,0.3-3.3c-0.3-3.4-0.9-12.7-1.2-25.1c-0.3-12.7-0.4-31.1,2.4-43.9
		c3-13.8,7.9-32.5,17.5-49.4c0.2,2.6,1.5,5,3.6,6.8c8.3,6.8,18.6,10.7,29,11c0.4,0,0.9,0,1.3,0c12.3,0,24.7-4.6,35-13.1
		c7.8-6.4,14-14.9,17.9-24.5c4.1-10.1,5.6-21.4,4.2-32.4c-0.3-2.2-1.2-4.2-2.8-5.8c-1.8-1.9-4.3-2.9-6.8-3
		c38.7-25.7,70.4-47.2,96.9-65.8c2.7-1.9,4.3-5.1,4.2-8.4c0-1.1-0.2-2.3-0.6-3.3l1.1,0.7c1.6,1,3.5,1.6,5.4,1.6c2,0,4.1-0.6,5.8-1.9
		c52-37.2,85.5-64.7,102.2-84.1c1.1-1.3,1.9-2.8,2.2-4.4l0.8-3.6c0.2-0.7,0.2-1.5,0.2-2.2c0-1.8-0.5-3.5-1.4-5.2
		c-0.2-0.3-0.3-0.5-0.5-0.8c-1.3-1.7-3-3-5-3.6c-0.5-0.2-0.9-0.3-1.4-0.3c-0.3-0.1-0.6-0.1-1-0.1l88.4-57c4.6-3,6-9.2,3-13.8
		l-11.8-18.4C478.6,11.4,475.4,9.8,472.1,9.8L472.1,9.8z M266.7,190.1l6.6-4.2c-0.4,1.1-0.6,2.3-0.6,3.5c0,1.2,0.2,2.4,0.6,3.5
		l-1.9-1.2C269.9,190.7,268.3,190.2,266.7,190.1L266.7,190.1z M178.8,244.4c0.2-0.4,0.3-0.9,0.4-1.4c0.2-1.1,0.3-2.2,0.2-3.3
		c0.9,0.6,2,1,3.1,1.2c0.5,0.1,0.9,0.2,1.4,0.2L178.8,244.4L178.8,244.4z M149.3,264.2c1.7-0.1,3.3-0.6,4.8-1.6l2.3-1.5
		c-0.4,1.2-0.6,2.4-0.6,3.7c0,1.4,0.3,2.7,0.9,3.9C154,267.2,151.6,265.7,149.3,264.2L149.3,264.2z M176.9,291
		c0.6-1.2,0.9-2.5,0.9-3.9c0.1-1.5-0.2-2.9-0.8-4.2l4.1,2.4c1.4,0.8,2.9,1.3,4.4,1.4C184.5,287.3,181.3,288.8,176.9,291L176.9,291z
		 M131,321.3c8.9-7.3,19.9-13.9,29.4-19.2c1.7-1,3.3-1.8,4.8-2.7c-0.6,1.2-0.9,2.6-0.9,4c-0.2,9.4-5.7,15.3-9,18
		c-3.4,2.8-7.5,4.4-10.9,4.4c-0.1,0-0.2,0-0.3,0c-2.4-0.1-4.1-0.7-5.7-2.1c-1.9-1.6-4.2-2.4-6.6-2.4
		C131.6,321.3,131.3,321.3,131,321.3L131,321.3z"/>
</g>
</svg>
