<?xml version="1.0" encoding="utf-8"?>
<!-- Generator: Adobe Illustrator 23.0.1, SVG Export Plug-In . SVG Version: 6.00 Build 0)  -->
<svg id="icon" version="1.1" xmlns="http://www.w3.org/2000/svg" xmlns:xlink="http://www.w3.org/1999/xlink" x="0px" y="0px"
	 viewBox="0 0 512 512" style="enable-background:new 0 0 512 512;" xml:space="preserve">
<style type="text/css">
	.st0{clip-path:url(#SVGID_1_);fill:url(#SVGID_2_);}
	.st1{fill:#FFFFFF;}
	.st2{fill:#460E0E;}
</style>
<g>
	<clipPath >
		<use xlink:href="#SVGID_4_"  style="overflow:visible;"/>
	</clipPath>
	
		<linearGradient gradientUnits="userSpaceOnUse" x1="-48.896" y1="651.7702" x2="-47.93" y2="652.7362" gradientTransform="matrix(398.2426 398.2426 398.2426 -398.2426 -240218.8594 279291.0938)">
		<stop  offset="0.4" style="stop-color:#C80000"/>
		<stop  offset="1" style="stop-color:#6D1616"/>
	</linearGradient>
	<path class="st0" d="M256-128.7L640.7,256L256,640.7L-128.7,256L256-128.7z"/>
</g>
<g>
	<path class="st1" d="M70.3,494.6c-8.5,0-17.5-3.3-25.3-9.2c-7.4-5.6-12.8-13-15.3-20.7c-2.7-8.4-1.7-16.3,2.9-22.2
		c4-5.3,10.4-8.4,18-8.7c0.5,0,1,0,1.5,0c0.2,0,0.5,0,0.7,0c8.3,0.2,17,3.4,24.5,9.2c16,12.2,21.5,31,12.4,43l-0.2,0.3
		C85.3,491.6,78.4,494.6,70.3,494.6z M54.7,458.8c-0.8,0-2.3,0.3-3,1.3l0,0c-1.5,2,0.1,6.9,4.5,10.2c2.4,1.8,5.2,2.9,7.6,2.9
		c0.9,0,2.6-0.2,3.4-1.3c0.9-1.2,0.5-3.2,0.2-3.9c-0.7-2.3-2.5-4.5-4.8-6.3c-2.4-1.8-5.2-2.9-7.6-2.9
		C55,458.8,54.8,458.8,54.7,458.8L54.7,458.8z M95.9,463.5c-1-8.9-7-18.3-16.1-25.2c-7.6-5.7-16.5-9-24.4-9c-0.8,0-1.6,0-2.4,0.1
		l-11.2,1l100.6-132.6l14-4.8c-0.3-2.5-0.7-6-1.2-9.6l-0.3-2L282,113.7l149.9-94.6l0.5-0.2c2.5-0.9,5.3-1.4,8.3-1.5l0.5,0
		c8.1,0,17.3,3.2,25.1,8.9c4,2.9,7.4,6.2,10.2,10l2,2.7l-4.9,7.9l7.9-2.7l1.3,5.4c1.7,7.2,1.8,18.5-8,30.9l-0.5,0.7l-145.8,92
		l-3.8-7.4l0.6,9.7L97.3,475.9L95.9,463.5z"/>
	<path class="st2" d="M441.2,22.4c7.1,0,15.2,2.9,22.1,7.9c3.5,2.5,6.6,5.5,9.1,8.9l-10.5,17l16-5.5c1.9,8,0.3,17.2-7,26.6
		L330.4,166l-12.2-23.6l1.9,31.5L100.9,462.9c-1.2-10.2-7.9-20.9-18-28.6c-8.5-6.4-18.4-10-27.5-10c-1,0-1.9,0-2.8,0.1L145.4,302
		l16.3-5.7c0,0-0.7-6.4-1.7-13.7l125.3-165.1l148.7-93.9c2-0.8,4.3-1.1,6.6-1.2C440.9,22.4,441.1,22.4,441.2,22.4 M52.1,438.7
		c0.2,0,0.4,0,0.6,0v0c7.2,0.2,15,3.1,21.6,8.1c13.6,10.3,18.7,26.4,11.5,36c0,0,0,0,0,0c-3.4,4.5-9.1,6.8-15.5,6.8
		c-7.1,0-15.1-2.7-22.2-8.1c0,0,0,0,0,0c-13.6-10.3-18.7-26.4-11.5-36c3.1-4.1,8.1-6.5,14.2-6.8C51.3,438.7,51.7,438.7,52.1,438.7
		 M54.5,453.8L54.5,453.8c-2.9,0.1-5.3,1.3-6.8,3.2c0,0,0,0,0,0c-3.5,4.6-1,12.3,5.5,17.2c3.4,2.6,7.3,3.9,10.7,3.9
		c3.1,0,5.8-1.1,7.4-3.3c0,0,0,0,0,0c3.5-4.6,1-12.3-5.5-17.2c-3.3-2.5-7.2-3.9-10.7-3.9C54.9,453.8,54.7,453.8,54.5,453.8
		C54.5,453.8,54.5,453.8,54.5,453.8 M441.2,12.4c-0.2,0-0.4,0-0.6,0c-3.6,0.1-7,0.7-10,1.8l-1,0.4l-0.9,0.5L280.1,109l-1.5,1
		l-1.1,1.4L152.2,276.6l-2.5,3.3l0.5,4.1c0.3,1.9,0.5,3.8,0.7,5.6l-8.8,3l-2.9,1l-1.8,2.4L44.6,418.4l-13.6,18l0.4,0
		c-1,0.9-1.9,2-2.8,3.1c-5.5,7.2-6.8,16.9-3.6,26.8c2.8,8.7,8.8,17,17,23.2l0,0l0,0c8.7,6.6,18.7,10.2,28.3,10.2
		c9.8,0,18.1-3.8,23.4-10.7l0,0l0.1-0.1c0-0.1,0.1-0.1,0.1-0.2l14.9-19.7l219.3-289.1l0.9-1.2l6.7-4.2l140.5-88.7l1.5-0.9l1.1-1.4
		c10.9-14,10.9-26.8,8.9-35.1l-2.6-10.7L484,38l-3.5-4.7c-3.1-4.2-6.9-7.9-11.3-11.1C460.5,16,450.3,12.4,441.2,12.4L441.2,12.4z
		 M61.8,467.8c-0.8-0.3-1.7-0.8-2.6-1.5c-0.9-0.7-1.6-1.4-2.1-2.1c0.8,0.3,1.7,0.8,2.6,1.4C60.6,466.4,61.3,467.1,61.8,467.8
		L61.8,467.8z"/>
</g>
</svg>
