<?xml version="1.0" encoding="utf-8"?>
<!-- Generator: Adobe Illustrator 23.0.1, SVG Export Plug-In . SVG Version: 6.00 Build 0)  -->
<svg id="icon" version="1.1" xmlns="http://www.w3.org/2000/svg" xmlns:xlink="http://www.w3.org/1999/xlink" x="0px" y="0px"
	 viewBox="0 0 512 512" style="enable-background:new 0 0 512 512;" xml:space="preserve">
<style type="text/css">
	.st0{clip-path:url(#SVGID_2_);fill:url(#SVGID_3_);}
	.st1{fill:#FFFFFF;}
	.st2{fill:#460E0E;}
</style>
<g>
	<clipPath >
		<use xlink:href="#SVGID_1_"  style="overflow:visible;"/>
	</clipPath>
	
		<linearGradient gradientUnits="userSpaceOnUse" x1="-48.896" y1="651.7702" x2="-47.93" y2="652.7362" gradientTransform="matrix(398.2426 398.2426 398.2426 -398.2426 -240218.8594 279291.0938)">
		<stop  offset="0.4" style="stop-color:#C80000"/>
		<stop  offset="1" style="stop-color:#6D1616"/>
	</linearGradient>
	<path class="st0" d="M256-128.7L640.7,256L256,640.7L-128.7,256L256-128.7z"/>
</g>
<g>
	<path class="st1" d="M68.4,455.8l220.4-226.2l30.2,28.6L105.8,491.1L68.4,455.8z M134.7,420.7c-0.4,0-1.1,0.1-1.8,0.8
		c-0.9,1-0.9,2.5,0.1,3.4c0.4,0.4,1,0.7,1.7,0.7c0.4,0,1.1-0.1,1.8-0.8l0,0c0.9-1,0.8-2.5-0.1-3.4
		C135.9,420.9,135.3,420.7,134.7,420.7z M158.4,395.5c-0.4,0-1.1,0.1-1.8,0.8c-0.6,0.6-0.7,1.4-0.7,1.7c0,0.4,0.1,1.1,0.8,1.7
		c0.5,0.4,1,0.7,1.7,0.7c0.4,0,1-0.1,1.6-0.6l0.3-0.4l0.1,0c0.6-1,0.5-2.3-0.4-3.1l-0.2-0.2C159.5,395.7,159,395.5,158.4,395.5z
		 M182.2,370.4c-0.4,0-1.1,0.1-1.8,0.8c-0.9,1-0.9,2.5,0.1,3.4c0.4,0.4,1,0.7,1.7,0.7c0.4,0,1.1-0.1,1.8-0.8l0,0
		c0.9-1,0.8-2.5-0.1-3.4C183.4,370.7,182.8,370.4,182.2,370.4z M205.9,345.3c-0.4,0-1.1,0.1-1.8,0.8c-0.9,1-0.9,2.5,0.1,3.4
		c0.4,0.4,1,0.7,1.7,0.7c0.4,0,1.1-0.1,1.7-0.7l0,0c0.9-1,0.9-2.5-0.1-3.4C207.1,345.5,206.5,345.3,205.9,345.3z M229.7,320.1
		c-0.4,0-1.1,0.1-1.8,0.8c-0.9,1-0.9,2.5,0.1,3.4c0.4,0.4,1,0.7,1.7,0.7l0,0c0.4,0,1.1-0.1,1.8-0.8l0,0c0.9-1,0.8-2.5-0.1-3.4
		C230.9,320.4,230.3,320.1,229.7,320.1z M253.4,295c-0.4,0-1.1,0.1-1.8,0.8c-0.6,0.6-0.7,1.4-0.7,1.7c0,0.4,0.1,1.1,0.8,1.7
		c0.5,0.4,1,0.7,1.7,0.7c0.4,0,1.1-0.1,1.8-0.8l0,0c0.9-1,0.8-2.5-0.1-3.4l-0.1-0.1C254.5,295.2,254,295,253.4,295z M277.2,269.9
		c-0.4,0-1.1,0.1-1.8,0.8c-0.9,1-0.9,2.5,0.1,3.4c0.4,0.4,1,0.7,1.7,0.7h0c0.4,0,1.1-0.1,1.7-0.7l0,0c0.9-1,0.9-2.5-0.1-3.4
		C278.4,270.1,277.8,269.9,277.2,269.9z M17.3,402.9l233.2-212.7l28.5,30.2L52.5,440.3L17.3,402.9z M84.2,372.7
		c-0.6,0-1.2,0.2-1.6,0.7c-0.6,0.6-0.7,1.3-0.8,1.7c0,0.4,0.1,1.1,0.7,1.7c0.6,0.7,1.4,0.8,1.8,0.8c0.6,0,1.2-0.2,1.6-0.6l0,0
		c0.9-0.9,1-2.3,0.2-3.3l-0.1-0.1C85.3,372.8,84.6,372.7,84.2,372.7z M109.4,349c-0.6,0-1.2,0.2-1.6,0.7c-0.6,0.6-0.7,1.3-0.8,1.7
		c0,0.4,0.1,1.1,0.7,1.7c0.6,0.7,1.4,0.8,1.8,0.8c0.6,0,1.1-0.2,1.5-0.5l0.1-0.1c1-1,1-2.4,0.1-3.4C110.5,349.1,109.8,349,109.4,349
		z M134.5,325.4c-0.6,0-1.2,0.2-1.6,0.7c-0.6,0.6-0.7,1.3-0.8,1.7s0.1,1.1,0.7,1.7c0.6,0.7,1.4,0.8,1.8,0.8c0,0,0,0,0,0
		c0.6,0,1.2-0.2,1.6-0.7l0,0c0.9-0.9,1-2.4,0.1-3.4C135.7,325.5,134.9,325.4,134.5,325.4z M159.7,301.7c-0.6,0-1.2,0.2-1.7,0.7
		c-0.6,0.6-0.7,1.3-0.8,1.7c0,0.4,0.1,1.1,0.7,1.7c0.6,0.7,1.4,0.8,1.8,0.8c0.6,0,1.2-0.2,1.6-0.6l0.1-0.1c0.6-0.6,0.7-1.3,0.8-1.7
		c0-0.3,0-0.9-0.4-1.5l-0.2-0.2C160.9,301.8,160.1,301.7,159.7,301.7z M184.9,278c-0.6,0-1.2,0.2-1.6,0.7c-0.6,0.6-0.7,1.3-0.8,1.7
		c0,0.4,0.1,1.1,0.7,1.7c0.6,0.7,1.4,0.8,1.8,0.8c0.6,0,1.2-0.2,1.6-0.6l0.1-0.1c0.9-0.8,1-2.2,0.3-3.2l-0.2-0.2
		C186,278.1,185.3,278,184.9,278z M210.1,254.3c-0.4,0-1.1,0.1-1.6,0.7c-1,0.9-1,2.4-0.1,3.4c0.6,0.7,1.4,0.8,1.8,0.8
		c0.6,0,1.2-0.2,1.6-0.7l0.1-0.1c0.8-0.8,1-2.1,0.3-3.1l-0.2-0.3C211.2,254.4,210.5,254.3,210.1,254.3z M235.3,230.6
		c-0.4,0-1.1,0.1-1.6,0.7c-0.6,0.6-0.7,1.3-0.8,1.7c0,0.4,0.1,1.1,0.7,1.7c0.6,0.7,1.4,0.8,1.8,0.8c0.4,0,1.1-0.1,1.6-0.6
		c0.7-0.6,0.8-1.3,0.8-1.7c0-0.3,0-0.9-0.4-1.5l-0.2-0.3C236.4,230.7,235.6,230.6,235.3,230.6z M273.8,206.2l118.3-124l1.3-0.4
		c21.6-6,62.6-34.8,91-57.7l10.7-8.6L492.5,29c-12.3,61.4-63.2,103.6-147.7,173.6l-1.5,1.3c-11.4,9.4-23.2,19.2-35.5,29.6l-3.5,2.9
		L273.8,206.2z"/>
	<path class="st2" d="M487.6,28c-11.9,59.6-62.5,101.6-146,170.7c-11.9,9.9-24.1,20-37,30.8L280.8,206l114-119.5
		C424.1,78.4,479.2,34.7,487.6,28 M250.3,197.1l21.7,23l-219.3,213l-28.3-30L250.3,197.1 M235.3,240.4c1.8,0,3.6-0.7,5.1-2
		c0,0,0,0,0,0c3-2.8,3.1-7.5,0.4-10.5c0,0,0,0,0,0v0c-1.5-1.6-3.4-2.3-5.4-2.3c-1.8,0-3.6,0.7-5.1,2c-3,2.8-3.1,7.5-0.3,10.5
		C231.3,239.6,233.3,240.4,235.3,240.4 M210.1,264.1c1.8,0,3.6-0.7,5.1-2c0,0,0,0,0,0c3-2.8,3.1-7.5,0.4-10.5c0,0,0,0,0,0v0
		c-1.5-1.6-3.4-2.3-5.4-2.3c-1.8,0-3.6,0.7-5.1,2c-3,2.8-3.1,7.5-0.3,10.5C206.1,263.3,208.1,264.1,210.1,264.1 M184.9,287.8
		c1.8,0,3.6-0.7,5.1-2c0,0,0,0,0,0c3-2.8,3.1-7.5,0.3-10.5c0,0,0,0,0,0v0c-1.5-1.6-3.4-2.3-5.4-2.3c-1.8,0-3.6,0.7-5.1,2
		c-3,2.8-3.1,7.5-0.3,10.5C181,287,182.9,287.8,184.9,287.8 M159.7,311.5c1.8,0,3.6-0.7,5.1-2c0,0,0,0,0,0c3-2.8,3.1-7.5,0.3-10.5
		c0,0,0,0,0,0v0c-1.5-1.6-3.4-2.3-5.4-2.3c-1.8,0-3.6,0.7-5.1,2c-3,2.8-3.1,7.5-0.3,10.5C155.8,310.7,157.7,311.5,159.7,311.5
		 M134.5,335.2c1.8,0,3.6-0.7,5.1-2c0,0,0,0,0,0c3-2.8,3.1-7.5,0.3-10.5c-1.5-1.6-3.4-2.3-5.4-2.3c-1.8,0-3.6,0.7-5.1,2
		c-3,2.8-3.1,7.5-0.3,10.5C130.6,334.4,132.6,335.2,134.5,335.2 M109.4,358.9c1.8,0,3.6-0.7,5.1-2c0,0,0,0,0,0
		c3-2.8,3.1-7.5,0.3-10.5c-1.5-1.6-3.4-2.3-5.4-2.3c-1.8,0-3.6,0.7-5.1,2c-3,2.8-3.1,7.5-0.3,10.5
		C105.4,358.1,107.4,358.9,109.4,358.9 M84.2,382.6c1.8,0,3.6-0.7,5.1-2c0,0,0,0,0,0c3-2.8,3.1-7.5,0.3-10.5h0
		c-1.5-1.6-3.4-2.3-5.4-2.3c-1.8,0-3.6,0.7-5.1,2c-3,2.8-3.1,7.5-0.3,10.5C80.2,381.8,82.2,382.6,84.2,382.6 M288.9,236.7l23,21.8
		L105.6,484l-30-28.3L288.9,236.7 M277.2,279.7c2,0,3.9-0.8,5.4-2.3c0,0,0,0,0,0c2.8-3,2.7-7.7-0.3-10.5c-1.4-1.4-3.3-2-5.1-2
		c-2,0-3.9,0.8-5.4,2.3c-2.8,3-2.7,7.7,0.3,10.5C273.5,279,275.3,279.7,277.2,279.7 M253.4,304.8c2,0,3.9-0.8,5.4-2.3c0,0,0,0,0,0
		c2.8-3,2.7-7.7-0.3-10.5h0c-1.4-1.4-3.3-2-5.1-2c-2,0-3.9,0.8-5.4,2.3c-2.8,3-2.7,7.7,0.3,10.5
		C249.8,304.1,251.6,304.8,253.4,304.8 M229.7,330c2,0,3.9-0.8,5.4-2.3c0,0,0,0,0,0c2.8-3,2.7-7.7-0.3-10.5c-1.4-1.4-3.3-2-5.1-2
		c-2,0-3.9,0.8-5.4,2.3c-2.8,3-2.7,7.7,0.3,10.5C226,329.3,227.9,330,229.7,330 M205.9,355.1c2,0,3.9-0.8,5.4-2.3c0,0,0,0,0,0
		c2.8-3,2.7-7.7-0.3-10.5c-1.4-1.4-3.3-2-5.1-2c-2,0-3.9,0.8-5.4,2.3c-2.8,3-2.7,7.7,0.3,10.5C202.3,354.4,204.1,355.1,205.9,355.1
		 M182.2,380.2c2,0,3.9-0.8,5.4-2.3c0,0,0,0,0,0c2.8-3,2.7-7.7-0.3-10.5c-1.4-1.4-3.3-2-5.1-2c-2,0-3.9,0.8-5.4,2.3
		c-2.8,3-2.7,7.7,0.3,10.5C178.5,379.6,180.4,380.2,182.2,380.2 M158.4,405.4c2,0,3.9-0.8,5.4-2.3c0,0,0,0,0,0
		c2.8-3,2.7-7.6-0.3-10.4l0,0c-1.4-1.4-3.3-2-5.1-2c-2,0-3.9,0.8-5.4,2.3c-2.8,3-2.7,7.7,0.3,10.5
		C154.8,404.7,156.6,405.4,158.4,405.4 M134.7,430.5c2,0,3.9-0.8,5.4-2.3c0,0,0,0,0,0c2.8-3,2.7-7.7-0.3-10.5c-1.4-1.4-3.3-2-5.1-2
		c-2,0-3.9,0.8-5.4,2.3c-2.8,3-2.7,7.7,0.3,10.5C131,429.8,132.9,430.5,134.7,430.5 M502.8,3l-21.4,17.2
		c-28.1,22.5-68.4,50.9-89.3,56.8l-2.6,0.7l-1.9,2l-114,119.5l-3.8,4l-12.2-12.9l-6.7-7.2l-7.3,6.6l-225.9,206l-7.5,6.8l7,7.4
		l28.3,30l7,7.4l7.3-7.1l219.3-213l4.6-4.5l2.5,2.5l-4.3,4.4l-213.4,219l-7.1,7.3l7.4,7l30,28.3l7.4,7l6.9-7.5l206.4-225.5l6.6-7.3
		l-7.1-6.8l-11.6-10.9l3.7-3.1c12.2-10.3,24-20,35.3-29.4l1.7-1.4l0.1-0.1c42.3-35.1,75.8-62.8,100.8-89.8
		C476.4,86.7,491.4,60,497.4,30L502.8,3L502.8,3z"/>
</g>
</svg>
