<?xml version="1.0" encoding="utf-8"?>
<!-- Generator: Adobe Illustrator 23.0.1, SVG Export Plug-In . SVG Version: 6.00 Build 0)  -->
<svg id="icon" version="1.1" xmlns="http://www.w3.org/2000/svg" xmlns:xlink="http://www.w3.org/1999/xlink" x="0px" y="0px"
	 viewBox="0 0 512 512" style="enable-background:new 0 0 512 512;" xml:space="preserve">
<style type="text/css">
	.st0{clip-path:url(#SVGID_1_);fill:url(#SVGID_2_);}
	.st1{fill:#FFFFFF;}
	.st2{fill:#460E0E;}
</style>
<g>
	<clipPath >
		<use xlink:href="#SVGID_4_"  style="overflow:visible;"/>
	</clipPath>
	
		<linearGradient gradientUnits="userSpaceOnUse" x1="-48.896" y1="651.7702" x2="-47.93" y2="652.7362" gradientTransform="matrix(398.2426 398.2426 398.2426 -398.2426 -240218.8594 279291.0938)">
		<stop  offset="0.4" style="stop-color:#C80000"/>
		<stop  offset="1" style="stop-color:#6D1616"/>
	</linearGradient>
	<path class="st0" d="M256-128.7L640.7,256L256,640.7L-128.7,256L256-128.7z"/>
</g>
<g>
	<path class="st1" d="M183.6,500c-4,0-8.5-0.9-13.4-2.6c-11.8-4.1-25.3-13.1-36.8-24.7c-11.4-11.7-20.1-25.3-24-37.4
		c-3.6-11.1-2.8-20.2,2-25.1c14.9-15,23.1-23.3,35.9-35.2l6-5.6l2.2,7.9c9.5,34.1,33.3,60.5,71,78.7l6.4,3.1l-5.1,5
		c-3.6,3.5-7.1,7-10.7,10.6c-7,7-14.2,14.2-21.8,21.3C193.6,497.8,190,500,183.6,500C183.6,500,183.6,500,183.6,500z M434.5,478.1
		c-14.1,0-28-5-39-14c-13.7-11-23.5-27.7-26.9-45.9c-3.1-17.2,2.2-34.2,15.8-50.5c11.1-13.2,25.7-24.3,39.9-35l0.3-0.2
		c14.2-10.8,27.6-21,36.7-31.3c9.2-10.5,12.6-19.1,11.6-28.5c-0.7-6.9-8.9-18.9-19.7-29.1c-2.1,1.6-5.4,3.1-10.8,3.1
		c-3.9,0-8.4-0.8-13.3-2.5c-12.2-4.3-25.6-13.3-36.9-24.8c-11.4-11.7-20.1-25.3-24-37.4c-3.6-11.1-2.9-20.2,1.9-25.1
		c2.7-2.7,6.8-4.1,12-4.1c3.7,0,8.2,0.8,13.2,2.4l0.1,0c12.1,4.3,25.5,13.3,36.8,24.8c8.1,8.3,14.8,17.5,19.6,26.9
		c3.9,2.5,7.7,5.2,11.4,8.2c23.2,18.4,35.5,36.1,37.4,54.4c1.9,17.1-4.3,33.9-18.4,49.9c-11.1,12.7-25.5,23.6-39.3,34.1l-1.4,1.1
		c-14.6,11.1-27.3,21.1-35.6,31c-8.5,10.1-11.3,18.1-9.6,27.5c1.9,11,8.6,22.5,16.8,29.2c6.5,5.3,13.2,7.8,20.7,7.8
		c4,0,8.3-0.7,12.8-2.2l13.3-4.3l8.7,26.6l-13.4,4.4C448.4,476.9,441.4,478.1,434.5,478.1z M250.2,438.4
		c-18.3-6.6-32.6-15-43.9-25.4c-16.2-14.9-26.1-34-30-58.6l-1.1-6.5l126.1-123.4l2.2,8.2c9.3,34.2,33.1,60.8,70.7,79l6.4,3.1
		L253.1,439.5L250.2,438.4z M90,407.2c-3.9,0-8.4-0.8-13.3-2.5c-12-4.1-25.4-13.2-36.8-24.8c-11.4-11.5-20.1-25.1-24-37.3
		c-3.6-11.1-2.9-20.3,2-25.1c1.6-1.7,3.2-3.4,4.9-5.2c9.2-9.8,19.7-20.9,29.9-28.8l5-3.9l2.6,5.8c17.1,38.3,42.7,63,76.3,73.6
		l7.9,2.5L133.8,372c-9.8,9.7-21,20.6-31.9,31.2C100,405,96.4,407.2,90,407.2C90,407.2,90,407.2,90,407.2z M159,339.7
		c-24.6-4.7-43.5-14.9-58-31.3C91,297.1,83,282.5,76.6,264l-1-3l128.2-125.5l2.9,6.5c17.2,38.1,43,62.7,76.7,73.1l8,2.5L165.6,340.9
		L159,339.7z M398,293.6c-19.4-6.9-34.4-15.4-46-26.1c-16.1-14.9-26-34.1-30-58.7l-0.6-4.1l35.4-34.8l2.1,8.6c0.5,2.1,1,4,1.6,6
		c4.4,13.5,13.6,27.9,25.9,40.4c12.4,12.7,26.6,22.2,39.9,26.8c1.9,0.6,3.9,1.2,5.8,1.7l8.8,2.1l-40,39.1L398,293.6z M307.5,197
		c-24.5-4.7-43.4-14.9-57.9-31.3c-10.4-11.6-18.6-26.9-25.2-46.5l-1-3l39.6-38.9l2.2,8.3c0.1,0.6,0.3,1.2,0.4,1.8
		c0.4,1.4,0.7,2.9,1.2,4.3c4.4,13.6,13.6,28,25.9,40.5c12.3,12.6,26.5,22.1,39.9,26.7l0.2,0.1c1.7,0.6,3.5,1.2,5.7,1.7l8.8,2.1
		l-35.8,35L307.5,197z M429.2,154.7c-3.9,0-8.4-0.8-13.3-2.5c-12-4.1-25.5-13.1-36.9-24.8c-11.3-11.5-20.1-25.1-24-37.3
		c-3.6-11.2-2.9-20.3,1.9-25.1c2.7-2.7,6.9-4.1,12-4.1c4,0,8.4,0.9,13.2,2.5c11.9,4.1,25.4,13.1,36.8,24.8
		c11.4,11.6,20.1,25.2,24,37.3c3.6,11.2,2.8,20.4-2.1,25.1C439.3,152.5,435.7,154.7,429.2,154.7
		C429.2,154.7,429.2,154.7,429.2,154.7z M348.6,154c-4,0-8.5-0.9-13.3-2.6c-11.9-4-25.4-13.1-36.8-24.7
		c-11.4-11.7-20.1-25.3-24-37.4c-3.6-11.2-2.9-20.3,1.9-25.1l0.1-0.1c2.8-2.6,6.6-4,11.1-4c4.1,0,8.3,1.1,11.7,1.9
		c0.7,0.2,1.3,0.3,1.9,0.5l0.2,0.1l0.2,0.1c11.9,4.1,25.4,13.2,36.8,24.8c11.4,11.6,20.1,25.2,24,37.3c3.6,11.1,2.8,20.3-2,25.2
		C358.6,151.8,355,154,348.6,154L348.6,154z"/>
	<path class="st2" d="M287.7,65.1c4.2,0,8.7,1.4,12.4,2.3C310.6,71,323.4,79.2,335,91c11.5,11.7,19.4,24.7,22.8,35.3
		s2,17.3-0.8,20.1c-1.6,1.5-4.4,2.6-8.4,2.6c-3.1,0-7-0.7-11.6-2.3c-10.6-3.6-23.4-11.8-34.9-23.5c-11.5-11.8-19.4-24.8-22.8-35.4
		c-3.4-10.6-2.1-17.3,0.7-20C282.1,65.8,284.8,65.1,287.7,65.1 M369.1,65.9c3.1,0,7,0.7,11.6,2.3c10.5,3.6,23.3,11.8,34.9,23.6
		c11.5,11.8,19.4,24.8,22.8,35.4c3.4,10.6,2,17.3-0.8,20c-1.6,1.6-4.4,2.6-8.4,2.6c-3.1,0-7-0.7-11.6-2.2
		c-10.6-3.6-23.4-11.8-34.9-23.6c-11.5-11.7-19.4-24.7-22.8-35.3c-3.4-10.6-2.1-17.3,0.7-20C362.2,67,365.1,65.9,369.1,65.9
		 M260.4,87c0.5,1.9,1,4.2,1.7,6.4c4.6,14.1,13.9,29,27.1,42.5s27.9,23.1,41.9,27.9c2.1,0.8,4.2,1.4,6.3,1.9L310,192.4l-1.5-0.3
		c-25.2-4.8-42.3-15.2-55.1-29.7c-10.8-12.1-18.4-27.4-24.2-44.8L260.4,87 M202.1,144.1c16.8,37.2,42.8,64.4,79.8,75.8l-118,115.6
		l-4-0.7c-25.2-4.8-42.3-15.2-55.1-29.7c-10.3-11.6-17.8-26.2-23.5-42.7L202.1,144.1 M382.1,157.9c3.1,0,7,0.7,11.6,2.2
		c10.5,3.7,23.3,11.8,34.9,23.6c8.6,8.8,15.1,18.3,19.3,26.9c4,2.5,8.1,5.4,12.1,8.6c16.7,13.2,33.4,30.6,35.6,51
		c2,17.8-6,33.4-17.2,46.1c-11.2,12.8-25.9,23.8-40,34.5c-14,10.7-27.5,21.2-36.4,31.7c-8.8,10.5-12.8,20-10.7,31.6
		c2,11.3,8.8,24.2,18.6,32.2c6.7,5.5,14.4,9,23.8,9c4.4,0,9.2-0.8,14.4-2.5l8.6-2.8l5.6,17.1l-8.6,2.8c-6.6,2.2-13.1,3.2-19.2,3.2
		c-14,0-26.4-5.1-35.9-12.9c-13.8-11.1-22.2-27.3-25.1-42.9c-3.2-17.7,4-33.5,14.7-46.4c10.8-12.8,25.2-23.7,39.3-34.4
		c14.2-10.8,28-21.3,37.4-32c9.3-10.7,14.1-20.7,12.8-32.4c-1-9.6-12.1-24.5-25.3-35.8c-0.5,1.2-1.1,2.1-1.8,2.8
		c-1.6,1.6-4.4,2.6-8.4,2.6c-3.1,0-7-0.7-11.6-2.2c-10.6-3.7-23.4-11.8-34.9-23.6c-11.5-11.8-19.4-24.8-22.8-35.4
		c-3.4-10.5-2.1-17.2,0.7-20C375.2,158.9,378.1,157.9,382.1,157.9L382.1,157.9 M354,179.7c0.5,2.1,1,4.2,1.7,6.4
		c4.6,14,13.9,28.9,27.1,42.4c13.2,13.5,27.9,23.2,41.9,28c2.1,0.7,4.2,1.3,6.3,1.8l-31.3,30.6c-17.2-6.1-32.4-14.1-44.3-25.1
		c-14.2-13.1-24.3-30.5-28.5-55.8l-0.2-1.5L354,179.7 M298.6,234c10.2,37.6,36.5,64.4,73.3,82.2l-120,117.5
		c-16.5-6-30.8-13.8-42.2-24.4c-14.3-13.1-24.4-30.4-28.5-55.7l-0.7-4L298.6,234 M55.7,287.5c16.7,37.4,42.4,64.7,79.3,76.3
		c-10.9,10.7-23.9,23.5-36.6,35.8c-1.6,1.6-4.4,2.6-8.4,2.6c-3.1,0-7-0.7-11.6-2.2c-10.5-3.6-23.3-11.8-34.9-23.6
		C32,364.7,24,351.7,20.6,341.1c-3.4-10.6-2-17.3,0.8-20.1C32,309.9,44,296.5,55.7,287.5 M150.8,378.7
		c10.4,37.4,36.8,64.1,73.6,81.9c-10.8,10.6-21.1,21.2-32.4,31.8c-1.6,1.6-4.4,2.6-8.4,2.6c-3.2,0-7.1-0.7-11.7-2.3
		c-10.5-3.6-23.3-11.8-34.9-23.5c-11.5-11.8-19.4-24.8-22.8-35.4s-2-17.2,0.8-20C130.6,398,138.6,390.1,150.8,378.7 M287.7,55.1
		c-5.9,0-10.8,1.8-14.5,5.4l-0.1,0.1l-0.1,0.1c-2.2,2.2-5.1,6.3-5.6,13.3l-1.6-6.2l-12.3,12.1l-31.2,30.6l-4.5,4.4l2,5.9
		c6.8,20.3,15.3,36.1,26.2,48.3c15.2,17.2,35.1,28,60.7,32.9l1.5,0.3l5.2,1l3.8-3.7l27.4-26.8l13-12.7l-5.3-1.3
		c6-0.7,9.8-3.1,11.9-5.2l0.1-0.1l0.1-0.1c6.2-6.2,7.4-17.2,3.3-30.2c-0.3-0.9-0.6-1.9-1-2.9c2.8,3.6,5.9,7.2,9.2,10.5
		c11.9,12.2,26.1,21.7,38.8,26.1c5.3,1.8,10.4,2.8,14.8,2.8c8.1,0,12.8-3,15.4-5.5c6.3-6.1,7.5-17.1,3.3-30.2
		c-4.1-12.8-13.3-27.1-25.2-39.3c-12-12.2-26.2-21.7-38.8-26c-5.3-1.8-10.3-2.8-14.8-2.8l0,0h0c-6.5,0-11.8,1.9-15.5,5.5l0,0l0,0
		c-3.6,3.6-8.9,12.4-3.2,30.2c0.3,0.9,0.6,1.9,1,2.9c-2.8-3.6-5.9-7.2-9.2-10.5c-12-12.2-26.1-21.6-38.8-26l-0.5-0.2l-0.5-0.1
		c-0.6-0.1-1.2-0.3-1.9-0.5C296.9,56.3,292.4,55.1,287.7,55.1L287.7,55.1z M205.3,126.9l-10.2,10L74.3,255.3l-4.5,4.4l2.1,6
		c6.6,19.1,14.9,34.2,25.5,46.1c15.2,17.2,35.1,28,60.7,32.9l0.1,0l0.1,0l4,0.7l5.1,0.9l3.7-3.6l118-115.6l12-11.8l-16.1-4.9
		c-32.3-9.9-57-33.6-73.6-70.4L205.3,126.9L205.3,126.9z M382.1,147.9L382.1,147.9c-8.3,0-13,3-15.6,5.5c-3.1,3.1-5,7.5-5.5,12.7
		l-1.4-6L347,172.6l-27.3,26.8l-3.6,3.5l0.7,5l0.2,1.5l0,0.2l0,0.2c4.3,25.7,14.6,45.8,31.6,61.5c12.1,11.2,27.7,20.1,47.7,27.2
		l5.9,2.1l4.5-4.4l31.3-30.6l13-12.7l-5.2-1.2c2.6-0.3,4.7-0.9,6.5-1.7c9.2,9.3,15,18.7,15.5,23.3l0,0l0,0
		c0.9,7.9-2.2,15.3-10.4,24.7c-8.7,10-21.9,20-35.9,30.6l-0.2,0.2c-14.4,10.9-29.2,22.2-40.6,35.7l0,0l0,0
		c-14.3,17.3-20.2,36.2-16.8,54.6c3.6,19.3,14,37.1,28.6,48.9c11.9,9.7,26.9,15.1,42.2,15.1c7.4,0,14.9-1.2,22.3-3.6l8.6-2.8
		l9.5-3.1l-3.1-9.5l-5.6-17.1l-3.1-9.5l-9.5,3.1l-8.6,2.8c-4,1.3-7.8,2-11.3,2c-6.4,0-11.9-2.1-17.5-6.7c-7.3-6-13.4-16.5-15.1-26.2
		c-1.4-7.9,1-14.4,8.5-23.4c8-9.4,20.5-19.2,34.8-30.2l1.4-1.1c14-10.7,28.6-21.7,40.1-34.8c15.1-17.1,21.7-35.2,19.6-53.8
		c-2.1-19.6-15-38.5-39.3-57.7c-3.5-2.8-7-5.4-10.6-7.7c-5-9.4-11.8-18.7-19.8-26.9c-11.9-12.1-26-21.5-38.7-26l-0.1,0l-0.1,0
		C391.3,148.8,386.4,147.9,382.1,147.9L382.1,147.9z M303.8,214.9l-12.2,11.9L173.5,342.5l-3.8,3.7l0.9,5.2l0.7,3.9
		c4.2,25.6,14.5,45.7,31.6,61.4c11.8,10.9,26.7,19.6,45.6,26.4l5.9,2.2l4.5-4.4l120-117.5l10.2-10l-12.8-6.2
		c-36.2-17.5-59.1-43-68-75.8L303.8,214.9L303.8,214.9z M59.6,271.8l-10.1,7.8c-10.5,8.1-21.1,19.4-30.5,29.3
		c-1.6,1.7-3.3,3.5-4.8,5.1c-6.2,6.2-7.3,17.2-3.2,30.1c4.1,12.9,13.3,27.2,25.2,39.3c11.9,12.2,26,21.7,38.8,26
		c5.4,1.8,10.4,2.8,14.9,2.8c8.1,0,12.8-3,15.4-5.5c10.9-10.6,22-21.5,31.9-31.1l4.8-4.7l11.9-11.7l-15.9-5
		c-32.1-10.1-56.7-33.9-73.2-70.8L59.6,271.8L59.6,271.8z M156,360.1l-12,11.3c-12.9,12-21.2,20.3-36.1,35.4
		c-3.7,3.7-8.9,12.4-3.2,30.1c4.1,12.8,13.3,27.1,25.2,39.3l0,0l0,0c12,12.1,26.2,21.6,38.7,25.9c5.4,1.9,10.5,2.9,15,2.9
		c7.9,0,12.7-2.9,15.2-5.4c7.6-7.2,14.9-14.4,21.9-21.4c3.5-3.5,7.1-7,10.6-10.5l10.1-10l-12.8-6.2c-36.3-17.5-59.3-43-68.3-75.6
		L156,360.1L156,360.1z"/>
</g>
</svg>
