<?xml version="1.0" encoding="utf-8"?>
<!-- Generator: Adobe Illustrator 23.0.1, SVG Export Plug-In . SVG Version: 6.00 Build 0)  -->
<svg id="icon" version="1.1" xmlns="http://www.w3.org/2000/svg" xmlns:xlink="http://www.w3.org/1999/xlink" x="0px" y="0px"
	 viewBox="0 0 512 512" style="enable-background:new 0 0 512 512;" xml:space="preserve">
<style type="text/css">
	.st0{clip-path:url(#SVGID_1_);fill:url(#SVGID_2_);}
	.st1{fill:#FFFFFF;}
	.st2{fill:#460E0E;}
</style>
<g>
	<clipPath >
		<use xlink:href="#SVGID_4_"  style="overflow:visible;"/>
	</clipPath>
	
		<linearGradient gradientUnits="userSpaceOnUse" x1="-48.896" y1="651.7702" x2="-47.93" y2="652.7362" gradientTransform="matrix(398.2426 398.2426 398.2426 -398.2426 -240218.8594 279291.0938)">
		<stop  offset="0.4" style="stop-color:#C80000"/>
		<stop  offset="1" style="stop-color:#6D1616"/>
	</linearGradient>
	<path class="st0" d="M256-128.7L640.7,256L256,640.7L-128.7,256L256-128.7z"/>
</g>
<g>
	<path class="st1" d="M130.6,418.7c-0.1,0-0.2,0-0.4,0l-101.7-7.2c-1.5-0.1-2.9-0.9-3.7-2.1s-1.1-2.8-0.7-4.2l47.8-173.7l-19.4-30.1
		c-1-1.5-1.1-3.5-0.2-5.1s2.6-2.6,4.4-2.6l400.2,0c2.8,0,5,2.2,5,5l0.1,32.9c0,2.7-2.2,5-4.9,5l-170.5,3.8l-13.9,76.2
		c-0.4,2.4-2.5,4.1-4.9,4.1H156.1l-20.7,94.1C135,417.1,132.9,418.7,130.6,418.7z M248.1,292l9.3-51l-36.4,0.8l-21.3,14l-0.9,31.1
		c-0.1,2-1.3,3.7-3.1,4.5c-0.6,0.3-1.3,0.4-1.9,0.4c-1.3,0-2.5-0.5-3.4-1.4l-14.3-13.6c-1.1-1-1.6-2.5-1.5-3.9l1.9-30.1l-3.2,0.1
		L162.4,292H248.1z M50.7,188.6c-1.7,0-3.2-0.8-4.2-2.2s-1.1-3.2-0.4-4.7l28.5-67.9c0.8-1.9,2.6-3.1,4.6-3.1l34.4,0c2.8,0,5,2.2,5,5
		v50.6h5v-50.6c0-2.8,2.2-5,5-5h17.4c2.8,0,5,2.2,5,5v50.6h5v-50.6c0-2.8,2.2-5,5-5h16.7c2.8,0,5,2.2,5,5v50.6h5v-50.6
		c0-2.8,2.2-5,5-5h263.8c2.8,0,5,2.2,5,5l0.3,67.9c0,1.3-0.5,2.6-1.5,3.5c-0.9,0.9-2.2,1.5-3.5,1.5H50.7z M467.1,177.4
		c-2.8,0-5-2.2-5-5v-40.7c0-2.8,2.2-5,5-5h18.7c2.8,0,5,2.2,5,5v40.7c0,2.8-2.2,5-5,5H467.1z"/>
	<path class="st2" d="M79.2,115.8L79.2,115.8l34.4,0v55.6h15v-55.6h17.4v55.6h15v-55.6h16.7v55.6h15v-55.6h263.8l0.3,67.9H50.7
		L79.2,115.8 M485.8,131.7v40.7h-18.7v-40.7H485.8 M56.8,198.6L56.8,198.6L56.8,198.6 M456.9,198.6l0.1,32.9l-174.5,3.9l-14.7,80.3
		H152.1l-21.5,98l-101.7-7.2l48.4-175.9l-20.6-32H456.9 M263.4,235.9L263.4,235.9L263.4,235.9l-44,1l-24.7,16.3l-1,33.6l-14.3-13.6
		l2.2-35.5l-12.5,0.3l-13,59h96L263.4,235.9 M456.6,105.8H192.8c-3,0-5.7,1.3-7.5,3.4c-1.8-2.1-4.5-3.4-7.5-3.4h-16.7
		c-3,0-5.7,1.3-7.5,3.4c-1.8-2.1-4.5-3.4-7.5-3.4h-17.4c-3,0-5.7,1.3-7.5,3.4c-1.8-2.1-4.5-3.4-7.5-3.4H79.2c-4,0-7.7,2.4-9.2,6.1
		l-28.5,67.9c-1.3,3.1-1,6.6,0.9,9.4c1.4,2.1,3.5,3.6,5.9,4.2c-2.1,3.3-2,7.6,0.2,10.9l18,28.1L19.3,403.8c-0.8,2.9-0.3,6,1.5,8.4
		c1.7,2.4,4.5,4,7.5,4.2l101.7,7.2c0.2,0,0.5,0,0.7,0c4.7,0,8.7-3.2,9.8-7.9l19.8-90.1h107.7c4.8,0,9-3.5,9.8-8.2l13.2-72.2
		l166.4-3.7c5.5-0.1,9.8-4.6,9.8-10l-0.1-32.9c0-3-1.3-5.7-3.4-7.5c0.2-0.1,0.3-0.3,0.4-0.4c1.9-1.9,2.9-4.4,2.9-7.1l0-1.2
		c0.1,0,0.1,0,0.2,0h18.7c5.5,0,10-4.5,10-10v-40.7c0-5.5-4.5-10-10-10h-18.7c-0.1,0-0.3,0-0.4,0l0-6
		C466.6,110.2,462.1,105.8,456.6,105.8L456.6,105.8z M222.6,246.8l28.8-0.6l-7.5,40.9h-40.2l0.8-28.4L222.6,246.8L222.6,246.8z
		 M168.7,287l2-9.1c0.5,0.9,1.2,1.8,1.9,2.6l6.9,6.6H168.7L168.7,287z"/>
</g>
</svg>
