<?xml version="1.0" encoding="utf-8"?>
<!-- Generator: Adobe Illustrator 23.0.1, SVG Export Plug-In . SVG Version: 6.00 Build 0)  -->
<svg id="icon" version="1.1" xmlns="http://www.w3.org/2000/svg" xmlns:xlink="http://www.w3.org/1999/xlink" x="0px" y="0px"
	 viewBox="0 0 512 512" style="enable-background:new 0 0 512 512;" xml:space="preserve">
<style type="text/css">
	.st0{clip-path:url(#SVGID_1_);fill:url(#SVGID_2_);}
	.st1{fill:#FFFFFF;}
	.st2{fill:#460E0E;}
</style>
<g>
	<clipPath >
		<use xlink:href="#SVGID_4_"  style="overflow:visible;"/>
	</clipPath>
	
		<linearGradient gradientUnits="userSpaceOnUse" x1="-48.896" y1="651.7702" x2="-47.93" y2="652.7362" gradientTransform="matrix(398.2426 398.2426 398.2426 -398.2426 -240218.8594 279291.0938)">
		<stop  offset="0.4" style="stop-color:#C80000"/>
		<stop  offset="1" style="stop-color:#6D1616"/>
	</linearGradient>
	<path class="st0" d="M256-128.7L640.7,256L256,640.7L-128.7,256L256-128.7z"/>
</g>
<g>
	<path class="st1" d="M476.9,490.8c-1.5,0-3-0.2-4.6-0.5c-0.3-0.1-0.5-0.1-0.8-0.2c-3-1.2-6-2.4-9-3.6c-3-1.2-6.1-2.4-9.2-3.6
		c-1.6-0.6-2.8-2.1-3.1-3.8c-0.3-1.7,0.3-3.5,1.6-4.6c3.3-2.9,6.5-9.2,6.2-14.9c-0.1-1.8,0.7-3.5,2.2-4.4c0.8-0.6,1.8-0.8,2.8-0.8
		c0.8,0,1.5,0.2,2.2,0.5c6,2.9,12.1,5.9,17.5,8.5c0.1,0.1,0.2,0.1,0.4,0.2c5.7,3.4,8.7,9.1,8.3,16.1c0,0.3-0.1,0.6-0.1,0.9
		C489.7,486.8,484.2,490.8,476.9,490.8C476.9,490.8,476.9,490.8,476.9,490.8z M439.5,476.1c-3.6,0-7.2-1.2-10.3-3.4
		c0,0-0.1,0-0.1-0.1c-5.5-4.1-8-10.7-6.7-17.1c0.9-4.3,3.6-7.9,7.3-10c2.6-1.4,5.3-2.1,8.1-2.1c6.2,0,12,3.5,15.7,9.5
		c0.1,0.2,0.3,0.5,0.4,0.7c3.2,7.9,0.8,16.1-6.1,20.3c-0.1,0-0.1,0.1-0.2,0.1C445.1,475.4,442.4,476.1,439.5,476.1z M348.6,470.8
		c-1.8,0-3.6-1-4.5-2.8L262,302.9c-0.4-0.9-0.6-1.9-0.5-2.9c1.4-10.2,18.4-13.7,23-13.8c0,0,0.1,0,0.1,0c1.9,0,3.6,1.1,4.5,2.8
		c8.4,16.7,25,50.2,41.1,82.6c16.1,32.4,32.7,65.9,41.1,82.5c1.1,2.3,0.4,5.1-1.8,6.4c-4.3,2.8-9.7,5.4-14.9,7.9
		c-1.3,0.6-2.6,1.3-3.9,1.9C350.1,470.6,349.3,470.8,348.6,470.8z M144.1,468.9c-0.8,0-1.7-0.2-2.5-0.6l-3.3-1.9
		c-4.8-2.7-10.1-5.7-14.8-8.5c-1.1-0.7-2-1.8-2.3-3.1s-0.1-2.7,0.6-3.8l97.6-163.1c0.5-0.9,1.4-1.6,2.3-2c1.2-0.5,2.6-0.8,4.1-0.8
		c7.9,0,19.2,8.7,20.6,14.4c0.3,1.3,0.1,2.7-0.5,3.8c-8.2,13.8-23.2,38.9-39.1,65.4c-22,36.8-47,78.5-58.4,97.7
		C147.5,468,145.8,468.9,144.1,468.9z M467.2,452c-0.7,0-1.5-0.2-2.2-0.5c-8.3-4.1-16.3-7.5-24.4-10.9c-2.3-1-3.5-3.5-2.9-5.9
		c0.4-1.7,0.6-3.8,0.5-6.2c-0.1-1.8,0.8-3.4,2.3-4.4c0.8-0.5,1.8-0.8,2.7-0.8c0.7,0,1.5,0.2,2.2,0.5l17.7,8.5
		c0.1,0.1,0.2,0.1,0.3,0.2c5.9,3.4,9.2,8.9,8.8,14.8c-0.1,1.7-1,3.2-2.5,4C468.9,451.8,468.1,452,467.2,452z M419.6,445.4
		c-1.9,0-3.8-0.3-5.6-1c-2.9-1-5.5-2.7-7.6-5.1c-0.1-0.1-0.1-0.1-0.2-0.2c-3.3-4.2-4.6-9-3.8-14.1c0-0.1,0-0.2,0.1-0.3
		c0.7-3.3,2.6-6.3,5.1-8.4c0,0,0.1-0.1,0.1-0.1c2.8-2.1,6.8-3.4,10.7-3.4c2.6,0,5.1,0.5,7.2,1.6c0.1,0,0.2,0.1,0.3,0.2
		c5.6,3.2,11,10.4,9.3,18.5c-0.9,4.3-3.4,7.8-7.2,10.1c-0.1,0-0.1,0.1-0.2,0.1C425.3,444.7,422.5,445.4,419.6,445.4L419.6,445.4z
		 M446.8,421c-0.8,0-1.5-0.2-2.2-0.5c-6.1-3-15.2-7.4-24.6-10.7c-2.5-0.9-3.9-3.5-3.2-6c0.7-2.4,0.9-4.7,0.6-6.9
		c-0.2-1.8,0.5-3.6,1.9-4.6c0.9-0.7,2-1,3-1c0.7,0,1.3,0.1,2,0.4l18.1,7.7c0.2,0.1,0.3,0.1,0.4,0.2c6.6,3.6,9.9,9.5,9.2,16.2
		c0,0.2-0.1,0.5-0.1,0.7c-0.1,0.3-0.1,0.7-0.3,1.2c-0.5,1.4-1.5,2.5-2.8,3C448.1,420.9,447.5,421,446.8,421z M398.6,413.9
		c-5.1,0-9.9-2-12.8-5.4c-3.1-3.3-4.6-8.2-4.1-13c0.5-4.8,2.9-8.9,6.6-11.4c0.1-0.1,0.2-0.1,0.3-0.2c2.5-1.4,5.6-2.2,8.9-2.2
		c2.3,0,4.5,0.4,6.5,1.2c0,0,0.1,0,0.1,0.1c7.3,3.1,11.7,10.9,10.4,18.5C413.2,408.9,406.8,413.9,398.6,413.9
		C398.6,413.9,398.6,413.9,398.6,413.9z M274.9,402.4c-2.2,0-4.2-1.4-4.8-3.6l-22.7-78.3c-0.4-1.3-0.2-2.8,0.5-4l1.5-2.5
		c0.9-1.5,2.5-2.4,4.3-2.4c0.1,0,0.1,0,0.2,0c1.8,0.1,3.5,1.1,4.3,2.8l37.8,76.1c0.7,1.3,0.7,2.9,0.1,4.3c-0.6,1.4-1.8,2.4-3.2,2.8
		c-1.9,0.5-4,1.1-6,1.8c-3.5,1-7.1,2.1-10.7,3C275.7,402.4,275.3,402.4,274.9,402.4z M428.8,390.1c-0.7,0-1.4-0.1-2-0.4
		c-2.2-0.9-4.4-1.9-6.6-2.9c-6-2.7-12.2-5.4-17.9-7.4c-1.3-0.4-2.3-1.4-2.9-2.6s-0.6-2.6-0.1-3.9c0.9-2.4,1.3-4.9,1.2-7.5
		c-0.1-1.8,0.7-3.5,2.2-4.5c0.8-0.6,1.8-0.8,2.8-0.8c0.7,0,1.5,0.2,2.2,0.5c5.7,2.8,11.6,5.6,17.5,8.5c0.1,0,0.2,0.1,0.2,0.1
		c1.7,1,3.6,2.2,5.2,4.1c0.1,0.1,0.2,0.3,0.3,0.4c2.6,3.9,3.6,7.7,3,11.7c-0.1,1.6-0.9,3-2.3,3.9
		C430.7,389.8,429.8,390.1,428.8,390.1z M381.5,382.1c-5.3,0-10.3-2.5-13.2-6.6c-2.9-3.5-4.1-8.1-3.5-13.7c0-0.2,0.1-0.5,0.1-0.7
		c1-4.1,3.8-7.7,7.4-9.8c2.3-1.4,5.1-2.1,8-2.1c1.5,0,3.1,0.2,4.6,0.6c4.1,1,7.6,3.6,10,7.4c2.4,3.9,3.2,8.6,2.3,12.7
		C395.5,377.2,389.2,382.1,381.5,382.1C381.5,382.1,381.5,382.1,381.5,382.1z M412.7,359.4c-0.7,0-1.5-0.2-2.2-0.5
		c-2.1-1-4.3-2.2-6.7-3.4c-5.4-2.7-11.4-5.8-17-8.2c-1.3-0.5-2.2-1.6-2.7-2.9s-0.4-2.7,0.2-3.9c1.4-2.8,2-5.7,1.8-8.8
		c-0.1-1.4,0.4-2.7,1.3-3.7c-2-1-3.9-2.1-5.8-3.1c2.7,5.7,2.2,12.2-1.5,17.2c-3.1,4.1-7.7,6.4-12.7,6.4c0,0,0,0,0,0
		c-5.1,0-10.2-2.4-13.5-6.5c-0.1-0.1-0.1-0.1-0.2-0.2c-1.8-2.5-2.8-4.7-3.3-7.7c0-0.1,0-0.1,0-0.2c-0.6-4.3,0.7-8.8,3.4-12.3
		c2.7-3.4,6.5-5.6,10.9-6.2c0.2,0,0.3,0,0.5,0c0.1,0,0.3,0,0.4,0c0.5,0,1,0,1.5,0.1c-0.2-1.3,0.2-2.6,1-3.7
		c2.7-3.6,4.1-7.8,4.1-12.2c0-1.8,0.9-3.4,2.4-4.3c0.8-0.5,1.7-0.7,2.6-0.7c0.8,0,1.6,0.2,2.4,0.6c3.7,2,7.3,3.9,11,5.8
		c1.7,0.9,3.5,1.8,5.2,2.8c0.1,0.1,0.2,0.1,0.3,0.2c6.3,3.9,9.1,10.5,7.4,17.1c-0.8,3.3-2.9,6.2-5.7,8.2l12.5,6.3
		c6.2,3,9.5,9.8,8.4,16.8c0,0.1,0,0.1,0,0.2c-0.3,1.4-0.8,2.7-1.6,4.2C416.2,358.5,414.5,359.4,412.7,359.4z M352.7,316.8
		c-6.5,0-12.1-3.5-14.4-9.1c-1.8-3.9-2.1-8.5-0.8-12.6c0.5-1.4,1.3-2.9,2.3-4.3c-2.7,0-5.3,0-8-0.1c-9.6-0.1-19.6-0.2-29.4-0.2
		c-1.9,0-3.6-1-4.4-2.7l-0.6-1.1c-1.2-2.4-2.2-4.3-3.7-5.4c-0.1-0.1-0.1-0.1-0.2-0.2c-2.6-2.2-7.1-3.7-11.3-3.7c-0.1,0-0.3,0-0.4,0
		c-6.3,0.8-16.8,5.9-24,11.8c-0.9,0.7-2,1.1-3.1,1.1h-1.1c-1.3,0-2.6-0.5-3.5-1.5c-0.7-0.7-1.4-1.3-2.1-2c-4.7-4-10.8-7.3-17.7-9.5
		c-1.6-0.5-3.7-0.8-5.5-0.8c-0.5,0-0.9,0-1.3,0.1c-0.1,0-0.1,0-0.2,0c-4,0.2-7.8,2.2-10.4,5.4c-1,1.2-2.4,1.9-3.9,1.9
		c-0.3,0-0.6,0-0.8-0.1l-3.5-0.6l-48.5-9.1c-2.5-0.5-4.3-2.8-4.1-5.4c0.2-2.6,2.4-4.5,5-4.5c48.3-0.2,98.2-0.4,147.5-0.4
		c0.6,0,1.3,0.1,1.8,0.4c8.6,3.4,17.3,6.9,25.9,10.4c-3.5-4.4-4.4-10.6-2.3-16.4c0-0.1,0.1-0.3,0.2-0.4c2.3-5,7.9-10.7,14.8-11.3
		c0.5,0,0.9,0,1.3,0c4.8,0,9,2.1,11.7,5.8c3.2,4.3,4.1,10.4,2.4,16c0,0,0,0.1,0,0.1c-0.7,2-1.7,3.8-3.2,5.6c-2.9,3.4-7,5.6-11.2,6.1
		c0.9,0.4,1.8,0.7,2.7,1.1c1.2,0.5,2.1,1.3,2.6,2.4c0.9-0.2,1.9-0.3,2.9-0.3c1.4,0,2.9,0.2,4.2,0.6c0.1,0,0.1,0,0.2,0.1
		c8.1,3,11.9,10.3,10.5,20c-0.4,2.7-1.9,4.7-3,6.2l-0.1,0.1C362.8,314.5,358,316.8,352.7,316.8C352.7,316.8,352.7,316.8,352.7,316.8
		z M384.8,294.3c-0.8,0-1.6-0.2-2.3-0.6c-2.6-1.4-5.4-2.9-8.2-4.5c-4.1-2.3-8.4-4.6-12.6-6.8c-1.3-0.7-2.2-1.9-2.6-3.3
		c-0.3-1.4,0-2.9,0.9-4.1c2.5-3.3,3.9-7.4,4.1-11.8c0.1-1.7,1-3.3,2.6-4.2c0.8-0.4,1.6-0.6,2.4-0.6c0.9,0,1.7,0.2,2.5,0.7l15.3,8.7
		c1.1,0.6,1.9,1.3,2.6,1.9c0.1,0.1,0.3,0.2,0.4,0.4c3.1,3.2,4.7,8.2,4.1,13.1c-0.5,4.5-2.8,8.2-6.4,10.5
		C386.6,294,385.7,294.3,384.8,294.3z M322.5,261.2c-0.6,0-1.3-0.1-1.9-0.4c-1.4-0.5-2.7-1.1-4-1.7c-4.2-1.8-8.2-3.5-12.2-3.8
		c-2.7-0.2-4.7-2.4-4.7-5l1.4-126c0-2.2,1.5-4.1,3.6-4.7c0.5-0.1,0.9-0.2,1.4-0.2c1.7,0,3.2,0.8,4.2,2.3l1.6,2.4
		c8.4,12.9,15.1,23.1,23.7,36.2c1,1.5,1.1,3.5,0.2,5.1c-0.9,1.6-2.6,2.6-4.4,2.6h-0.3c-2.4,0.3-4.7,1.1-7,2.3
		c-2.1,1.2-4.1,2.6-5.9,4.4c-1.7,1.7-3.1,3.6-4.3,5.9c-1.3,2.3-2.1,4.7-2.5,7.2c0,0,0,0.1,0,0.1c-0.5,2.5-0.4,5,0.2,7.7
		c0.6,2.5,1.8,4.8,3.4,6.8c1.4,1.6,2.9,2.8,4.5,3.7l2.8,1.5c1.4,0.7,2.3,2,2.6,3.5c0.3,1.5-0.2,3.1-1.2,4.2
		c-1.4,1.6-2.7,3.5-3.6,5.4c-1.1,2.4-1.7,4.8-2,7.5c-0.2,2.6,0.1,5.1,0.9,7.6c0.9,2.5,2.2,4.7,4,6.5c1.3,1.3,2.9,2.5,4.6,3.4
		c1.3,0.6,2.2,1.8,2.6,3.2c0.4,1.4,0.1,2.9-0.7,4.1c-0.8,1.2-1.8,3.1-2.4,4.8c-0.5,1.3-1.4,2.3-2.7,2.8
		C323.9,261.1,323.2,261.2,322.5,261.2z M376,257.8c-0.8,0-1.7-0.2-2.5-0.7c-7.1-4-15.5-9.1-19.9-11.8c-1.2-0.7-2-1.9-2.3-3.3
		c-0.3-1.4,0-2.8,0.8-3.9c2.1-3,3.4-6.6,3.9-11c0.2-1.7,1.3-3.2,2.8-3.9c0.7-0.3,1.4-0.5,2.1-0.5c0.9,0,1.9,0.3,2.7,0.8
		c4.5,2.9,9.3,5.8,14,8.6c0.1,0.1,0.3,0.2,0.4,0.3c1.4,1,3.1,2.5,4.4,4.8c0.1,0.1,0.2,0.3,0.2,0.4c2.7,6,1.9,12.4-2.1,17.3
		c-0.3,0.4-0.6,0.7-0.7,0.8C379,257.1,377.5,257.8,376,257.8z M158.2,255.8c-1.4,0-2.7-0.6-3.6-1.6c-0.9-1-1.4-2.3-1.4-3.7l1.3-23.4
		c0.1-1.5,0.8-2.8,1.9-3.7c0.9-0.7,2-1,3-1c0.3,0,0.7,0,1,0.1c0,0,55.8,11.5,55.8,11.5c2.9,0.7,5.9,1,9.4,1c1.6,0,3.2-0.1,5-0.2
		c5.1-0.4,10.3-1.7,15.3-3.7c22.5-9.5,35.2-33,30.9-57.1c-1.6-8.5-5.1-16.2-10.6-22.9l-16.1-19.6c-1.2-1.4-1.5-3.4-0.7-5.1
		c0.7-1.7,2.4-2.9,4.2-3l33.6-2.5c0.1,0,0.2,0,0.4,0c1.3,0,2.5,0.5,3.4,1.4c1,1,1.6,2.3,1.6,3.7l-1.3,124.6c0,2.7-2.2,4.9-5,4.9
		C286.3,255.4,158.2,255.8,158.2,255.8z M335.1,244.7c-2.1,0-4.1-0.4-5.9-1.3c-1.6-0.8-2.9-1.7-4.1-2.9c-4.4-4.5-5.3-11.6-2.5-18.4
		c0-0.1,0.1-0.2,0.1-0.3c2.7-5.5,9.6-11.3,16.9-11.3c1.5,0,3,0.2,4.4,0.7c1,0.3,2,0.8,3,1.5c0.1,0.1,0.2,0.1,0.3,0.2
		c3.8,2.9,6.2,8.6,5.9,13.7c-0.3,3.7-2,7.9-4.7,11.6c-0.1,0.1-0.2,0.3-0.3,0.4C344.8,242.4,339.8,244.7,335.1,244.7
		C335.1,244.7,335.1,244.7,335.1,244.7z M226.6,226.4c-2.7,0-5.4-0.3-8.4-0.8c0,0-83.8-17.1-83.8-17.1c-2-0.4-3.6-2-3.9-4.1
		s0.6-4.1,2.4-5.1l0.5-0.3c0.2-0.1,0.3-0.2,0.5-0.3c12.1-5.6,22.9-13.2,32-22.7c9.5-9.9,16.9-21.1,22.1-33.2
		c5.6-12.9,8.5-26.3,8.8-39.9c0.1-2.7,0-5.6-0.2-8.8c-0.1-2.2,1.1-4.2,3.1-5c0.6-0.2,1.2-0.4,1.8-0.4c1.5,0,2.9,0.6,3.9,1.8
		c0,0,54.4,66,54.4,66c4.5,5.9,7.4,12.1,8.8,18.9c1.5,8.3,0.6,16.7-2.6,24.4c-2.1,5-5.2,9.8-9.3,14c-0.2,0.2-0.3,0.3-0.5,0.4
		C245.2,222.9,236.6,226.4,226.6,226.4z M364.3,219.9c-0.9,0-1.9-0.3-2.7-0.8c-1.3-0.9-2.7-1.8-4.1-2.8c-4.2-2.9-8.6-5.8-13.1-7.9
		c-1.4-0.7-2.5-2-2.8-3.5s0.1-3.2,1.2-4.4c3-3.3,5.1-7.6,6-12.6c0.2-1.7,1.2-3.2,2.7-3.9c0.7-0.4,1.5-0.6,2.3-0.6c1,0,2,0.3,2.9,0.9
		c1.3,1,2.8,2,4.4,3c3.2,2.2,6.9,4.7,10.1,7.3c0.4,0.3,0.7,0.7,1,1c4.2,6.1,2.9,17.8-4.9,23.2C366.3,219.6,365.3,219.9,364.3,219.9z
		 M327.4,205.2c-3.9,0-7.5-1.6-10.1-4.4c-0.1-0.1-0.2-0.2-0.3-0.3c-3.9-4.9-4.1-12-0.7-18.6c0.1-0.1,0.1-0.2,0.2-0.3
		c3-4.8,9-10.6,15.8-11c0,0,0.1,0,0.1,0c0.2,0,0.4,0,0.6,0c4.3,0,8.2,2.1,10.5,5.8c3.1,4.8,3.3,11.6,0.6,17.4c0,0.1-0.1,0.2-0.1,0.2
		c-2.2,4.1-5.2,7.3-8.8,9.2C332.7,204.5,330,205.2,327.4,205.2L327.4,205.2z M95.2,198.8c-11,0-22-2.5-31.9-7.2
		c-9.5-4.5-18-11.1-24.6-19.2c-6.7-8.2-11.6-17.4-14.5-27.5c-3.1-10.7-4.3-21.8-3.3-32.9c0.9-11.3,3.7-22.3,8.4-32.7
		c4.5-10.1,10.6-19.3,18.1-27.4c7.4-8.1,16-14.8,25.6-20c9.7-5.3,20.3-8.7,31.3-10.1c0.1,0,2.4-0.2,2.4-0.2c2.2-0.2,4.5-0.3,6.7-0.3
		c7.9,0,15.7,1.2,23.1,3.6c10.1,3.2,19.2,8.6,27,15.9c8,7.4,14.2,16.4,18.4,26.8c4.6,11.5,6.7,23.3,6.3,35.2
		c-0.3,12.7-3,25.1-8.1,36.7c-5,11.4-11.9,21.7-20.5,30.7c-8.4,8.8-18.2,15.9-29.3,21c-8.9,4.1-18.4,6.6-28.1,7.4
		c-2,0.2-4.2,0.3-6.4,0.3L95.2,198.8z M89.7,95.2c1.9,0.6,3.9,0.9,5.9,0.9c0.6,0,1.1,0,1.7-0.1c6.6-0.6,12.4-4.5,15.6-10.3
		c5-8.8,2.9-20-4.9-25.6c-0.1-0.1-0.3-0.2-0.4-0.3l-9.7-8.6c-0.3-0.2-0.5-0.4-0.7-0.6c-0.1-0.1-0.2-0.2-0.3-0.3
		c-3.5-2.9-8.1-4.6-12.8-4.6c-2.2,0-4.3,0.3-6.3,1c-5.7,1.8-10.5,5.6-13.4,10.8c-3,5.2-3.9,11.3-2.5,17.1c1.6,6.9,6.4,12.4,13,14.8
		l14.3,5.5c0.1,0,0.2,0.1,0.4,0.2C89.6,95.1,89.7,95.1,89.7,95.2z M82.1,86.9c-7.9,0-14.8-5.6-16.4-13.3c-1.1-4.8-0.4-9.8,2.1-14.1
		c2.4-4.3,6.3-7.5,11-9c1.2-0.4,2.5-0.7,3.7-0.8c0.6-0.1,1.1-0.1,1.6-0.1c2.9,0,5.8,0.8,8.3,2.2c4.1,2.4,7.1,6.4,8.1,11.1
		c2.3,10-3.4,19.9-13.1,23.1C85.7,86.6,83.9,86.9,82.1,86.9C82.1,86.9,82.1,86.9,82.1,86.9z"/>
	<path class="st2" d="M113.4,26.2c7.3,0,14.6,1.1,21.6,3.4c9.4,3,17.9,8.1,25.1,14.8c7.5,7,13.3,15.5,17.2,25
		c4.2,10.5,6.3,21.8,5.9,33.1c-0.3,12-2.9,23.9-7.7,34.9c-4.7,10.8-11.3,20.7-19.5,29.2c-7.9,8.3-17.4,15.1-27.8,19.9
		c-8.3,3.8-17.3,6.2-26.4,7c-2,0.2-3.9,0.3-5.9,0.3c-0.2,0-0.4,0-0.6,0c-10.3,0-20.5-2.3-29.8-6.7c-8.9-4.2-16.7-10.3-22.9-17.9
		c-6.2-7.6-10.8-16.3-13.6-25.7c-3-10.1-4-20.6-3.1-31.1c0.9-10.8,3.6-21.3,8-31.1c4.3-9.6,10.1-18.4,17.2-26.1
		c7-7.6,15.2-14.1,24.3-19c9.2-5,19.2-8.2,29.5-9.5l2.2-0.2C109.2,26.3,111.3,26.2,113.4,26.2 M95.6,101.1c0.7,0,1.4,0,2.1-0.1
		c8.2-0.8,15.5-5.6,19.5-12.8c6.3-11,3.5-25-6.3-32.1l-9.8-8.7c-0.4-0.3-0.6-0.6-1-0.9c-4.6-3.8-10.3-5.8-16.1-5.8
		c-2.6,0-5.3,0.4-7.9,1.3c-6.9,2.1-12.7,6.8-16.2,13.1c-3.6,6.3-4.7,13.7-3,20.7c1.9,8.4,8,15.3,16.1,18.3l14.2,5.5
		c0.2,0.1,0.5,0.2,0.7,0.3C90.5,100.7,93.1,101.1,95.6,101.1 M84.1,54.6c2,0,4,0.5,5.8,1.5c2.9,1.7,5,4.5,5.7,7.8
		c1.7,7.4-2.6,14.9-9.8,17.3c-1.2,0.4-2.5,0.6-3.8,0.6c-5.4,0-10.3-3.7-11.5-9.3c-0.8-3.6-0.3-7.4,1.6-10.6c1.8-3.2,4.7-5.6,8.2-6.7
		c0.9-0.3,1.8-0.5,2.7-0.6C83.4,54.6,83.8,54.6,84.1,54.6 M201.5,93.8l54.3,65.9c4.1,5.3,6.6,10.7,7.8,16.8
		c1.3,7.2,0.5,14.7-2.3,21.5c-1.9,4.6-4.8,8.8-8.3,12.4c-9.3,7.3-17,11-26.4,11c-2.4,0-4.9-0.2-7.6-0.7l-83.6-17.1l0.5-0.3
		c12.6-5.8,23.9-13.8,33.5-23.8c9.7-10.1,17.6-21.8,23.1-34.7c5.7-13.2,8.9-27.4,9.2-41.8C201.8,99.9,201.7,96.8,201.5,93.8
		 M306.2,124.4c9,13.8,16.1,24.7,25.3,38.6h-0.6c-3.2,0.4-6.2,1.4-9,2.9c-2.6,1.4-5,3.2-7.1,5.3c-2.1,2.1-3.8,4.5-5.2,7.1
		c-1.5,2.8-2.5,5.7-3,8.8c-0.6,3.2-0.5,6.5,0.2,9.7c0.8,3.3,2.3,6.3,4.4,8.9c1.7,2,3.7,3.7,6,4.9l2.8,1.5c-1.8,2-3.3,4.3-4.4,6.7
		c-1.3,2.9-2.1,5.9-2.4,9.1c-0.3,3.3,0.1,6.6,1.2,9.7c1.1,3.1,2.8,5.9,5.1,8.3c1.7,1.8,3.8,3.3,6,4.4h0c-1.1,1.6-2.2,3.8-3,5.9
		c-6-2.4-11.5-5.4-17.7-5.8L306.2,124.4 M287.6,125.8L287.6,125.8 M287.6,125.8l-1.3,124.6l-128.1,0.4l1.3-23.4l55.7,11.5
		c3.5,0.8,7,1.1,10.5,1.1c1.8,0,3.6-0.1,5.4-0.2c5.8-0.5,11.4-1.9,16.8-4.1c24.6-10.4,38.6-36.4,33.9-62.6
		c-1.7-9.3-5.7-17.9-11.7-25.2L254,128.3L287.6,125.8 M333,175.5c7.1,0,9.9,9,6.5,16.1c-1.5,2.8-3.7,5.5-6.8,7.2
		c-1.7,0.9-3.5,1.4-5.3,1.4c-2.4,0-4.7-0.9-6.5-2.8c-3-3.8-2.4-9-0.2-13.2c2.2-3.5,7-8.4,11.9-8.7
		C332.7,175.5,332.8,175.5,333,175.5 M353.7,188.5c4.2,3,9.7,6.4,14.2,10.1c2.8,4.1,1.7,12.6-3.6,16.3c-5.4-3.5-11.4-8-17.9-11
		c3.7-4.1,6.2-9.4,7.3-15.3V188.5 M339.6,215.5c0.9,0,1.9,0.1,2.8,0.5c0.6,0.2,1.2,0.5,1.8,0.9c2.3,1.8,4.2,5.8,4,9.5
		c-0.2,2.9-1.7,6.2-3.7,8.9c-2.2,2.4-5.8,4.4-9.4,4.4c-1.3,0-2.6-0.3-3.8-0.8c-1-0.5-1.9-1.1-2.7-1.9c-3.3-3.4-3.2-8.6-1.4-12.9
		C329.2,220.2,334.3,215.5,339.6,215.5 M361,227.8c4.6,2.9,9.3,5.8,14.1,8.7c1.2,0.9,2.3,1.9,3.1,3.3c1.8,4,1.5,8.6-1.5,12.2
		c-0.2,0.3-0.5,0.5-0.7,0.8c-5.8-3.3-13.2-7.7-19.8-11.7C358.9,237.3,360.4,232.8,361,227.8 M325.5,250.3L325.5,250.3 M346.2,251.6
		c8.2,0,11.5,8.4,9.3,15.3c-0.5,1.5-1.3,2.8-2.3,4c-2.3,2.8-5.8,4.4-9.2,4.4c-2.4,0-4.8-0.8-6.8-2.6c-3.5-3.2-4.2-8.3-2.6-12.7
		c1.7-3.7,5.9-8,10.7-8.4C345.6,251.6,345.9,251.6,346.2,251.6 M369,263.4l15.3,8.7c0.7,0.4,1.3,0.9,1.9,1.4
		c3.7,3.8,4.2,12.3-1.4,15.8c-6.2-3.3-13.6-7.5-20.9-11.3C367.1,273.8,368.8,268.7,369,263.4 M304.5,268.9
		c14.1,5.6,28.1,11.3,42.1,17c-14.7-0.1-29.4-0.3-44.1-0.3c-1.6-3.1-2.9-6.1-5.6-8.2c-3.4-3-9.1-4.9-14.6-4.9c-0.3,0-0.5,0-0.8,0
		c-7.9,0.9-19.5,7-26.8,12.9h-1.1c-0.8-0.8-1.6-1.5-2.4-2.2c-5.5-4.7-12.3-8.2-19.4-10.5c-2-0.6-4.6-1.1-7.1-1.1
		c-0.6,0-1.2,0-1.8,0.1c-5.5,0.3-10.6,3-14,7.3l-3.5-0.6l-48.4-9.1C206.2,269.1,255.3,268.9,304.5,268.9 M354,288.4
		c0.9,0,1.8,0.1,2.7,0.4h0c6.3,2.3,8.3,7.7,7.3,14.6c-0.2,1.5-1.2,2.8-2.1,4c-2.3,2.9-5.8,4.4-9.2,4.4c-4.2,0-8.2-2.1-9.8-6.1
		c-1.3-2.7-1.6-6-0.6-9C343.7,292.6,348.8,288.4,354,288.4 M225.8,290.1c5.9,0,15,7.5,15.8,10.6c-19.6,33-78,130.1-97.5,163.2
		c-5.3-3-12.3-6.9-18-10.3l97.6-163.1C224.3,290.2,225.1,290.1,225.8,290.1 M284.7,291.2c16.7,33.3,65.5,131.8,82.2,165.1
		c-5.1,3.3-12.2,6.5-18.3,9.5l-82.1-165.1C267.3,294.9,280,291.3,284.7,291.2 M377.2,299.7c5.4,2.9,10.8,5.7,16.3,8.6
		c4,2.5,6.5,6.7,5.2,11.6c-0.6,2.5-2.3,4.6-4.5,5.8l-0.2,0.2c-7.4-3.9-13.9-7.5-21.9-11C375.4,310.5,377.2,305.2,377.2,299.7
		 M253.7,316.6l37.8,76.1c-5.1,1.4-10.9,3.3-16.6,4.7l-22.7-78.3L253.7,316.6 M365.7,320.5c3.1,0,6.7,1.7,9.6,3.8
		c3.4,4.2,4.3,10.2,0.8,14.9c-2.3,3-5.5,4.4-8.7,4.4c-3.5,0-7.1-1.6-9.6-4.7c-1.3-1.8-2-3.3-2.4-5.6c-0.4-3,0.5-6.1,2.4-8.5
		c1.9-2.4,4.6-3.9,7.6-4.3C365.5,320.5,365.6,320.5,365.7,320.5 M391.1,331.5l17,8.6c4.3,2.1,6.5,6.7,5.7,11.5
		c-0.2,1-0.6,1.9-1.1,2.8c-6.9-3.4-15.8-8.2-23.9-11.7C390.5,339.2,391.3,335.4,391.1,331.5 M380.3,354c1.1,0,2.3,0.2,3.4,0.5
		c6.1,1.4,10,8.4,8.6,14.2c-1.2,5.5-6,8.4-10.8,8.4c-3.5,0-7.1-1.5-9.3-4.7c-2.3-2.7-2.9-6.2-2.5-10.2c0.7-2.8,2.6-5.3,5.1-6.7
		C376.4,354.5,378.3,354,380.3,354 M405.4,365c5.8,2.8,11.6,5.6,17.4,8.5c1.4,0.8,2.8,1.7,3.9,3c1.7,2.5,2.7,5.2,2.1,8.4v0.2
		c-8.3-3.6-16.9-7.7-24.9-10.5C405.1,371.5,405.6,368.3,405.4,365 M397.5,386.7c1.6,0,3.2,0.3,4.7,0.8c-1.6,3.6-2.4,5.4-2.4,5.4
		s0.8-1.8,2.4-5.4c5.2,2.2,8.3,7.8,7.4,13.1c-1,5.7-6,8.3-11,8.3c-3.5,0-7.1-1.3-9.1-3.8c-4.4-4.6-3.8-13.3,1.6-16.9
		C392.8,387.2,395.1,386.7,397.5,386.7 M422.3,396.2l18.1,7.7c4.2,2.3,7.2,6,6.6,11.2c-0.1,0.3-0.1,0.6-0.2,0.9
		c-7.3-3.6-16.1-7.7-25.2-10.9C422.4,402.2,422.7,399.2,422.3,396.2 M418.4,417.8c1.7,0,3.5,0.3,5,1.1c4.2,2.4,8,7.7,6.9,13.2
		c-0.6,2.9-2.4,5.3-4.9,6.8c-1.8,1-3.8,1.5-5.8,1.5c-1.3,0-2.7-0.2-4-0.7c-2.1-0.7-4-2-5.5-3.7c-2.3-2.9-3.4-6.4-2.8-10.2
		c0.5-2.2,1.7-4.2,3.4-5.6C412.6,418.8,415.5,417.8,418.4,417.8 M443.2,428.4l17.7,8.5c3.5,2,6.6,5.6,6.3,10.1
		c-8.2-4-15.9-7.3-24.7-11C443.1,433.7,443.3,431.1,443.2,428.4 M437.9,448.3c4.5,0,8.7,2.7,11.4,7.1c2.1,5.1,1.2,10.9-4.1,14.2
		c-1.8,1-3.8,1.5-5.7,1.5c-2.6,0-5.2-0.9-7.4-2.5c-3.7-2.8-5.8-7.4-4.8-12.1c0.6-2.8,2.4-5.3,4.9-6.7
		C434.1,448.8,436,448.3,437.9,448.3 M463.1,459.2c5.9,2.9,11.7,5.7,17.5,8.5c3.9,2.3,6.1,6.2,5.8,11.5c-1.1,4.5-4.9,6.6-9.5,6.6
		c-1.1,0-2.3-0.1-3.5-0.4c-6.1-2.4-12.1-4.8-18.2-7.2C459.8,474.2,463.5,466.3,463.1,459.2 M113.4,16.2
		C113.4,16.2,113.4,16.2,113.4,16.2c-2.4,0-4.8,0.1-7.2,0.3l-2.2,0.2c-0.1,0-0.2,0-0.3,0c-11.7,1.4-22.8,5-33.1,10.7
		c-10.1,5.5-19.1,12.5-26.9,21c-7.8,8.5-14.2,18.2-18.9,28.7c-4.9,10.9-7.9,22.5-8.8,34.4c-1,11.7,0.1,23.4,3.5,34.7
		c3.1,10.7,8.3,20.5,15.4,29.2c7.1,8.7,16.2,15.8,26.4,20.6c10.6,5,22.4,7.7,34.1,7.7c0.2,0,0.5,0,0.7,0c2.3,0,4.6-0.1,6.8-0.3
		c8.4-0.7,16.7-2.7,24.6-5.7c-1.5,2.1-2.2,4.8-1.8,7.6c0.7,4.1,3.8,7.3,7.9,8.1L156,218c-0.9,0.3-1.8,0.8-2.6,1.4
		c-2.3,1.8-3.7,4.5-3.9,7.4l-1.3,23.4c-0.2,2.7,0.8,5.4,2.7,7.4c0.8,0.9,1.8,1.6,2.9,2.1c-3.7,1.2-6.4,4.5-6.8,8.6
		c-0.5,5.1,3,9.8,8.1,10.7l48.4,9.1c0.1,0,0.1,0,0.2,0l3.5,0.6c0.6,0.1,1.1,0.1,1.7,0.1c1.7,0,3.3-0.4,4.8-1.2l-96.1,160.7
		c-1.4,2.3-1.8,5-1.1,7.6c0.6,2.6,2.3,4.8,4.6,6.1c4.7,2.8,10.1,5.8,14.8,8.5c1.2,0.7,2.3,1.3,3.4,1.9c1.6,0.9,3.2,1.3,4.9,1.3
		c3.4,0,6.8-1.8,8.6-4.9c11.3-19.3,36.3-60.9,58.3-97.7c11.6-19.4,22.8-38.1,31.2-52.1c0,0.9,0.1,1.8,0.4,2.7l22.7,78.3
		c1.3,4.4,5.2,7.2,9.6,7.2c0.8,0,1.6-0.1,2.4-0.3c3.7-0.9,7.4-2,10.9-3c2.1-0.6,4.1-1.2,5.9-1.7c2.9-0.8,5.3-2.8,6.5-5.6
		c0.5-1.1,0.8-2.2,0.8-3.3l38.2,76.8c1.7,3.5,5.3,5.5,9,5.5c1.5,0,3-0.3,4.4-1c1.3-0.6,2.6-1.2,3.9-1.9c5.4-2.6,10.9-5.3,15.5-8.2
		c4.3-2.8,5.8-8.3,3.5-12.9c-8.3-16.6-25-50.1-41.1-82.5c-14-28.1-28.4-57.1-37.4-75.1c1.5,0.9,3.3,1.4,5.1,1.4
		c9.8,0,19.7,0.1,29.3,0.2c0.1,0,0.3,0,0.4,0c-1,4.6-0.5,9.6,1.5,13.9c2.5,6,7.9,10.2,14.4,11.6c-2.3,4-3.3,8.7-2.6,13.3
		c0,0.1,0,0.3,0.1,0.4c0.6,3.7,1.9,6.6,4.1,9.7c0.1,0.2,0.2,0.3,0.3,0.4c3.4,4.1,7.9,6.9,13,7.9c-1.4,2-2.4,4.3-3,6.7
		c-0.1,0.5-0.2,0.9-0.2,1.4c-0.7,6.9,0.8,12.7,4.5,17.3c3.5,4.8,8.9,7.8,14.9,8.5c-1.3,2.4-2.1,5.1-2.4,7.9
		c-0.7,6.3,1.2,12.5,5.3,16.9c3.9,4.5,10,7.1,16.6,7.1c0.2,0,0.4,0,0.7,0c-0.8,1.5-1.3,3.1-1.7,4.7c0,0.2-0.1,0.4-0.1,0.7
		c-1,6.4,0.7,12.8,4.8,18c0.1,0.1,0.2,0.3,0.3,0.4c2.7,3,6,5.3,9.7,6.5c2.1,0.7,4.3,1.2,6.5,1.2c-0.6,1.3-1,2.6-1.3,4
		c-1.8,8.3,1.5,16.8,8.5,22.2c0.1,0.1,0.1,0.1,0.2,0.1c4,2.9,8.6,4.4,13.3,4.4c2,0,4-0.3,5.9-0.8c0.7,3.3,3,6,6.1,7.2
		c3,1.2,6.1,2.4,9.1,3.6c3,1.2,6.1,2.4,9.1,3.6c0.5,0.2,1,0.4,1.5,0.5c1.9,0.4,3.8,0.6,5.6,0.6c9.5,0,17-5.6,19.2-14.2
		c0.2-0.6,0.2-1.2,0.3-1.9c0.5-8.8-3.4-16.4-10.7-20.7c-0.2-0.1-0.5-0.3-0.7-0.4c-3.4-1.6-6.8-3.3-10.3-5c1.5-1.6,2.4-3.8,2.6-6
		c0.5-7.7-3.8-15.2-11.3-19.4c-0.2-0.1-0.4-0.2-0.6-0.3l-10.9-5.3c0.9-1,1.6-2.2,2-3.5c0.2-0.7,0.4-1.3,0.4-1.7
		c0.1-0.4,0.2-0.8,0.2-1.2c1-8.7-3.4-16.5-11.7-21.1c-0.3-0.2-0.6-0.3-0.9-0.4l-7.7-3.3c1.3-1.6,2-3.5,2.2-5.5
		c0.8-5.2-0.5-10.2-3.8-15c-0.2-0.3-0.4-0.6-0.6-0.8c-2.1-2.5-4.5-4-6.6-5.2c-0.2-0.1-0.3-0.2-0.5-0.3c-2.4-1.2-4.7-2.4-7.1-3.5
		c0.5-0.5,0.9-1.1,1.3-1.8c1.1-2,1.8-3.8,2.2-5.7c0-0.1,0-0.2,0.1-0.3c1.5-9.2-2.9-18.1-11.1-22.1l-6.5-3.3c1.1-1.7,1.9-3.5,2.3-5.5
		c2.2-8.6-1.5-17.5-9.6-22.5c-0.2-0.1-0.4-0.3-0.6-0.4c-1.8-0.9-3.5-1.9-5.3-2.8c-0.2-0.1-0.5-0.2-0.7-0.4c3.7-3.1,6.1-7.6,6.7-12.6
		c0.8-6.3-1.3-12.9-5.5-17.2c-0.2-0.2-0.5-0.5-0.8-0.7c-0.8-0.7-1.9-1.6-3.3-2.4l-6.2-3.5c0.2-0.2,0.4-0.4,0.6-0.7
		c0.2-0.3,0.6-0.6,0.9-1.1c5.1-6.3,6.1-14.9,2.7-22.4c-0.1-0.3-0.3-0.6-0.4-0.9c-1.8-3.1-4.2-5.1-5.8-6.3c-0.3-0.2-0.5-0.4-0.8-0.6
		c-3.1-1.9-6.2-3.8-9.2-5.6c8.5-6.8,11-20.7,5.1-29.3c-0.5-0.8-1.2-1.5-1.9-2.1c-3.4-2.8-7.1-5.3-10.5-7.6c-1.5-1-3-2-4.3-2.9
		c-1.7-1.2-3.8-1.9-5.8-1.9c-1.2,0-2.4,0.2-3.6,0.7c-0.5-2-1.3-3.8-2.4-5.5c-1.8-2.9-4.3-5.1-7.1-6.4c1.5-3.1,1.2-6.8-0.7-9.7
		c-8.6-13.1-15.3-23.3-23.7-36.2l-1.5-2.4c-1.9-2.9-5.1-4.5-8.4-4.5c-0.9,0-1.9,0.1-2.8,0.4c-3.3,1-5.8,3.5-6.8,6.7
		c-1.6-3.4-5-5.7-9-5.7c0,0,0,0,0,0c0,0-0.1,0-0.1,0c0,0,0,0,0,0c0,0,0,0,0,0c-0.2,0-0.5,0-0.7,0l-33.5,2.5c-3.7,0.3-7,2.6-8.5,6
		c-0.7,1.7-1,3.6-0.7,5.4l-34.9-42.4c-1.9-2.4-4.8-3.6-7.7-3.6c-1.2,0-2.5,0.2-3.7,0.7c-2.3,0.9-4.1,2.6-5.2,4.7
		c-0.9-7.9-3-15.8-6-23.5c0,0,0-0.1,0-0.1c-4.5-11-11.1-20.6-19.6-28.5c-8.4-7.8-18.1-13.5-28.9-17
		C130.1,17.5,121.8,16.2,113.4,16.2L113.4,16.2z M90.7,90.1c10.2-4.2,16.3-14.5,15.2-25.4c5.1,4.3,6.3,12.2,2.7,18.4
		c0,0-0.1,0.1-0.1,0.1c-2.4,4.3-6.8,7.2-11.7,7.7c-0.4,0-0.8,0.1-1.2,0.1c-1.4,0-2.8-0.2-4.1-0.6c-0.2-0.1-0.4-0.2-0.6-0.2
		L90.7,90.1L90.7,90.1z M287.6,135.8L287.6,135.8L287.6,135.8L287.6,135.8z M291.6,258.9c1.8-1.1,3.2-2.7,4-4.7
		c0.8,1.9,2.2,3.6,4,4.7C296.9,258.9,294.2,258.9,291.6,258.9L291.6,258.9z M249,307.8c0.4-0.7,0.8-1.3,1.2-1.9
		c1.4-2.3,1.7-5,1.1-7.6c-0.3-1.2-0.8-2.4-1.5-3.6c1.2,0.5,2.5,0.8,3.8,0.8h1.1c1.1,0,2.2-0.2,3.3-0.6c-0.7,1.4-1.2,2.9-1.4,4.5
		c-0.3,2,0.1,4,1,5.8l1.5,3c-1.5-0.9-3.2-1.5-4.9-1.5c-0.1,0-0.3,0-0.4,0C252.1,306.6,250.5,307,249,307.8L249,307.8z"/>
</g>
</svg>
