<?xml version="1.0" encoding="utf-8"?>
<!-- Generator: Adobe Illustrator 23.0.1, SVG Export Plug-In . SVG Version: 6.00 Build 0)  -->
<svg id="icon" version="1.1" xmlns="http://www.w3.org/2000/svg" xmlns:xlink="http://www.w3.org/1999/xlink" x="0px" y="0px"
	 viewBox="0 0 512 512" style="enable-background:new 0 0 512 512;" xml:space="preserve">
<style type="text/css">
	.st0{clip-path:url(#SVGID_1_);fill:url(#SVGID_2_);}
	.st1{fill:#FFFFFF;}
	.st2{fill:#460E0E;}
</style>
<g>
	<clipPath >
		<use xlink:href="#SVGID_4_"  style="overflow:visible;"/>
	</clipPath>
	
		<linearGradient gradientUnits="userSpaceOnUse" x1="-48.896" y1="651.7702" x2="-47.93" y2="652.7362" gradientTransform="matrix(398.2426 398.2426 398.2426 -398.2426 -240218.8594 279291.0938)">
		<stop  offset="0.4" style="stop-color:#C80000"/>
		<stop  offset="1" style="stop-color:#6D1616"/>
	</linearGradient>
	<path class="st0" d="M256-128.7L640.7,256L256,640.7L-128.7,256L256-128.7z"/>
</g>
<g>
	<path class="st1" d="M54.4,401.1c-0.4,0-0.8,0-1.2,0c-10.2-0.7-17.9-9.5-17.2-19.6c2.2-33.4,11-50.1,19.4-66.3
		c8.1-15.4,15.7-29.9,16.5-59.3c0.2-6.8-1.4-11.8-4.8-15.4c-7-7.3-21.1-7.6-30.4-7.8c-3.3-0.1-6.2-0.1-8.5-0.5
		c-6.6-1-7.3-5.1-7.3-6.8c0-5.9,6-8.7,12.9-11.9c5.4-2.5,12.2-5.7,16.4-10.3c0.9-1.1,2.3-1.7,3.7-1.7h423.4c1.9,0,3.6,1.1,4.5,2.8
		c0.8,1.7,0.7,3.7-0.5,5.2c-9.1,12.2-23.6,19.4-38.7,19.4H206.1c-7.7,0-23.2,4.8-25.7,16.2c-3.4,15.6-7.2,32.2-11.2,49.8
		c-6.6,28.5-13.3,57.9-19.7,89.2c-2,9.8-10.7,17-20.7,17C128.8,401.1,54.4,401.1,54.4,401.1z M101.7,361c-3.8,0-7,3.1-7,7
		c0,3.8,3.1,7,7,7s7-3.1,7-7S105.6,361,101.7,361L101.7,361z M117.2,278.2c-3.8,0-7,3.1-7,7s3.1,7,7,7s7-3.1,7-7c0-0.1,0-0.2,0-0.3
		C124,281.2,121,278.2,117.2,278.2L117.2,278.2z M181.5,299.3c-1.5,0-3-0.7-3.9-1.9c-0.9-1.2-1.3-2.7-1-4.2l1.4-6
		c0.5-2.3,2.5-3.9,4.9-3.9h57.8c0.1,0,0.2,0,0.3,0c2.2,0,4.1-1.8,4.1-4.1v-38.6c0-2.8,2.2-5,5-5h6c2.8,0,5,2.2,5,5v44.5
		c0,7.8-6.3,14.1-14.1,14.1H181.5z M212.3,278.2c-0.3,0-0.7,0-1-0.1L211,278c-0.5-0.1-0.9-0.2-1.2-0.3l-0.1,0
		c-0.2-0.1-0.4-0.1-0.6-0.2l-0.9-0.4c-0.1,0-0.1-0.1-0.2-0.1c-0.6-0.3-1.2-0.6-1.7-1c-0.6-0.4-1.2-0.8-1.7-1.3c-1.1-1-2.2-2-3.1-3.2
		c-1-1.2-1.9-2.5-2.7-3.9c-0.9-1.5-1.7-2.9-2.4-4.4c-1.5-3.1-2.9-6.4-4.1-9.7c-0.9-2.5-1.8-5.1-2.5-7.7c-0.6-2.1,0.2-4.4,2-5.6
		c4.2-2.8,9.1-4.4,14.1-4.7c0.1,0,0.2,0,0.3,0c1.3,0,2.6,0.5,3.6,1.5c1,1,1.5,2.4,1.4,3.8c-0.2,3.4-0.3,6.4-0.3,9.3
		c0,2.9,0.1,5.8,0.4,8.6c0.2,1.3,0.3,2.5,0.6,3.6c0.2,1,0.5,2,0.8,3c0.2,0.7,0.5,1.3,0.9,1.9c0.1,0.2,0.2,0.3,0.3,0.4
		c0.1,0.1,0.2,0.2,0.2,0.3c0,0,0.1,0.1,0.1,0.1l0.3,0.2l0.7,0.4c2.1,1.3,2.9,3.8,2,6.1C216.2,276.9,214.3,278.2,212.3,278.2z
		 M60.1,194.7c-1.5,0-3-0.7-3.9-1.9c-0.9-1.2-1.3-2.8-0.9-4.3c1.9-7.5,4.1-16.9,4.9-21c3-15.9,13.6-26.2,27-26.2
		c0,0,385.5,0,385.5,0c10.1,0,18.3,8.3,18.3,18.4v20.8c0,3.5-0.4,6.9-1.1,10.3c-0.5,2.3-2.5,3.9-4.9,3.9H60.1z M47.5,170.8
		c-0.8,0-1.6-0.2-2.3-0.6c-1.5-0.8-2.5-2.3-2.7-4c-0.1-0.4-0.3-0.8-0.5-1.2c-0.5-1-1-1.8-1.6-2.6c-0.4-0.5-0.7-1-1.1-1.4
		c0,0-0.5-0.6-0.6-0.7l-0.8-0.7c-0.4-0.4-0.9-0.9-1.4-1.3c-0.1-0.1-0.1-0.1-0.2-0.2c-0.2-0.2-0.5-0.4-0.8-0.6
		c-0.3-0.2-0.5-0.3-0.8-0.5c-0.2-0.1-0.5-0.3-0.8-0.5c-0.3-0.1-0.5-0.3-0.8-0.4c-0.4-0.2-0.9-0.4-1.3-0.6c-0.3-0.1-0.5-0.2-0.8-0.3
		c-0.2-0.1-0.3-0.2-0.5-0.2c-0.1,0-1.5-0.5-1.5-0.5l-1.2-0.4c-2.1-0.6-3.5-2.6-3.5-4.8c0-2.2,1.4-4.1,3.5-4.8l1.2-0.4l1.4-0.4
		c0.6-0.2,1.2-0.3,1.7-0.4c0.2,0,0.4-0.1,0.6-0.1c1-0.2,2-0.4,3-0.5c0.3,0,0.5-0.1,0.8-0.1c0.7-0.1,1.5-0.2,2.4-0.2l0.7,0
		c0.4,0,0.8,0,1.2,0c0.5,0,0.9,0,1.4,0c1.1,0.1,2.4,0.2,3.6,0.4c0,0,1.8,0.3,1.8,0.3c0.6,0.1,1.2,0.3,1.7,0.4
		c1.2,0.3,2.3,0.6,3.2,0.9l0.2,0.1c1.1,0.4,2.1,0.8,3.3,1.3c1.2,0.6,2.2,1.7,2.6,3c0.4,1.3,0.3,2.7-0.3,3.9
		c-2.2,4.1-3.8,8.5-4.6,13.1c-0.2,1.3-1,2.4-2.1,3.2l-1.3,0.9C49.5,170.5,48.5,170.8,47.5,170.8z M440.2,134.5
		c-2.2,0-4.1-1.4-4.8-3.5c-0.7-2.1,0.1-4.4,1.9-5.6l19.8-13.7c0.8-0.6,1.8-0.9,2.8-0.9h11.8c2.8,0,5,2.2,5,5v13.7c0,2.8-2.2,5-5,5
		H440.2z"/>
	<path class="st2" d="M471.9,115.9v13.7h-31.6l19.8-13.7H471.9 M472.7,146.3c7.4,0,13.3,6,13.3,13.4v20.8c0,3.1-0.3,6.2-1,9.2H60.2
		c1.3-5.4,4-16.4,4.9-21.3c2.2-12,9.9-22.1,22.1-22.1H472.7 M87.2,146.3L87.2,146.3L87.2,146.3 M40.8,147.5c0.4,0,0.7,0,1.1,0
		c1.1,0.1,2.1,0.2,3.2,0.3l1.6,0.3c0.5,0.1,1,0.2,1.6,0.4c1,0.2,2,0.6,3,0.9s1.8,0.6,2.6,1.1c-2.4,4.6-4.2,9.5-5.1,14.6l-1.3,0.9
		v-0.1c0,0,0-0.1,0-0.1c0,0,0-0.1,0-0.1l-0.1-0.3c-0.2-0.8-0.5-1.6-0.9-2.3c-0.6-1.2-1.2-2.3-2-3.3c-0.4-0.6-0.9-1.2-1.4-1.8
		c-0.3-0.3-0.5-0.6-0.8-0.9l-0.9-0.8c-0.6-0.6-1.2-1.1-1.9-1.6c-0.6-0.5-1.3-0.9-2-1.4c-0.7-0.5-1.4-0.8-2-1.2
		c-0.6-0.3-1.3-0.7-1.9-0.9c-0.6-0.3-1.2-0.5-1.7-0.7l-1.4-0.4l-1.2-0.4l1.2-0.4l1.4-0.4c0.6-0.2,1.2-0.3,1.9-0.4
		c0.8-0.2,1.6-0.3,2.4-0.4c0.8-0.1,1.8-0.2,2.7-0.2C39.6,147.5,40.2,147.5,40.8,147.5 M477.4,206.5L477.4,206.5L477.4,206.5
		 M477.4,206.5c-8.2,11-21.1,17.4-34.7,17.4c0,0,0,0,0,0H206.1c-10.1,0-27.5,6.1-30.5,20.2c-8.7,40.2-20.6,87.9-30.9,139.1
		c-1.5,7.5-8.1,13-15.8,13H54.4c-0.3,0-0.6,0-0.9,0c-7.4-0.5-13-6.9-12.5-14.3c4.3-64.9,34.3-65,36-125.7c1.1-39-51-23.8-51-30.6
		c0-5.6,18.6-8.4,28-18.9H477.4 M117.2,297.1c6.6,0,12-5.4,12-12l0,0c0,0,0,0,0,0c0-6.6-5.4-12-12-12c0,0,0,0,0,0c0,0,0,0,0,0
		c-6.6,0-12,5.4-12,12C105.3,291.8,110.6,297.1,117.2,297.1 M101.7,379.9c6.6,0,12-5.4,12-12c0-6.6-5.4-12-12-12v0
		c-6.6,0-12,5.4-12,12C89.8,374.5,95.1,379.9,101.7,379.9 M206.1,240.7c-0.2,3.1-0.3,6.3-0.3,9.6c0,3.1,0.1,6.1,0.5,9.1h0
		c0.2,1.4,0.4,2.8,0.6,4.1c0.2,1.2,0.6,2.4,1,3.6c0.3,1,0.8,1.9,1.3,2.8c0.2,0.4,0.5,0.7,0.7,1c0.2,0.3,0.5,0.6,0.7,0.8l0.7,0.6
		c0.2,0.1,0.4,0.3,0.6,0.4l0.5,0.3l-0.6-0.1c-0.2,0-0.4-0.1-0.7-0.2l-0.9-0.4c-0.4-0.2-0.7-0.4-1.1-0.6c-0.4-0.3-0.8-0.5-1.2-0.9
		c-0.9-0.8-1.7-1.6-2.5-2.5c-0.9-1.1-1.7-2.2-2.4-3.4c-0.8-1.3-1.5-2.7-2.2-4c-1.4-3-2.7-6-3.8-9.1c-0.9-2.5-1.7-4.9-2.5-7.4
		C198,242.2,202,240.9,206.1,240.7 M255.9,240.7v44.5c0,5-4.1,9.1-9.1,9.1h-65.4l1.4-6h58.1l0,0c5,0,9.1-4.1,9.1-9.1c0,0,0,0,0,0
		v-38.6H255.9 M471.9,105.9H460c-2,0-4,0.6-5.7,1.8l-19.8,13.7c-3.6,2.5-5.2,7-3.9,11.2c0.5,1.5,1.2,2.8,2.2,3.8H87.2h0
		c0,0,0,0-0.1,0c-9.5,0-17.7,4.2-23.6,11.5c0-0.2-0.1-0.4-0.2-0.6c-0.9-2.6-2.7-4.7-5.2-5.9c-1.3-0.6-2.6-1.1-3.9-1.5l-0.2-0.1
		c-1-0.3-2.2-0.7-3.6-1c-0.5-0.1-1.2-0.3-1.9-0.4c-0.1,0-0.2,0-0.3-0.1l-1.6-0.3c0,0-0.1,0-0.1,0c-1.4-0.2-2.7-0.3-4.1-0.4
		c-0.5,0-1.1,0-1.7,0c-0.5,0-0.9,0-1.4,0c-0.2,0-0.4,0-0.6,0c-1.1,0-2.1,0.1-2.9,0.2c-0.2,0-0.4,0-0.6,0.1c-0.1,0-0.1,0-0.2,0
		c-1.2,0.1-2.4,0.3-3.5,0.6c0,0,0,0-0.1,0c-0.1,0-0.3,0.1-0.4,0.1c-0.6,0.1-1.3,0.3-2.2,0.6l-1.4,0.4c0,0-0.1,0-0.1,0l-1.2,0.4
		c-4.2,1.3-7,5.2-7,9.6s2.9,8.2,7.1,9.5l1.2,0.4l1.3,0.4c0.1,0,0.1,0.1,0.2,0.1c0.3,0.1,0.6,0.2,0.8,0.4c0,0,0.1,0,0.1,0
		c0.2,0.1,0.5,0.2,0.7,0.3c0.3,0.2,0.6,0.3,0.9,0.5c0.1,0.1,0.3,0.1,0.4,0.2c0.3,0.2,0.5,0.4,0.8,0.5c0.1,0.1,0.3,0.2,0.4,0.3
		c0.1,0.1,0.2,0.2,0.3,0.3c0.4,0.3,0.7,0.6,1,0.9l0.6,0.6c0,0.1,0.1,0.1,0.1,0.2c0.1,0.1,0.2,0.3,0.4,0.4c0.3,0.3,0.5,0.6,0.7,0.9
		c0,0,0,0,0,0.1c0.4,0.6,0.8,1.2,1.1,1.8c0,0,0,0.1,0.1,0.1c0,0,0,0.1,0.1,0.1c0.5,3,2.4,5.7,5.2,7.2c1.5,0.8,3,1.1,4.6,1.1
		c2,0,4-0.6,5.7-1.8l0.6-0.4c-1,4.2-2.2,9.3-3.3,13.7c-0.7,3-0.1,6.1,1.8,8.6c0.2,0.2,0.4,0.5,0.6,0.7c-2.4,0.3-4.7,1.4-6.3,3.2
		c-3.5,3.9-9.5,6.7-14.7,9.1c-7.4,3.5-15.8,7.4-15.8,16.5c0,1.7,0.6,10,11.6,11.7c2.6,0.4,5.6,0.5,9.1,0.5
		c8.5,0.2,21.4,0.4,26.9,6.3c2.4,2.6,3.6,6.4,3.4,11.8c-0.8,28.2-7.8,41.6-16,57.1c-8.3,15.8-17.7,33.8-20,68.3
		c-0.9,12.9,8.9,24.1,21.9,25c0.5,0,1,0.1,1.5,0.1h74.4c12.4,0,23.2-8.8,25.7-21c6-29.8,12.5-58,18.7-85.2c0.1,0.2,0.3,0.4,0.5,0.6
		c1.9,2.4,4.8,3.8,7.8,3.8h65.4c10.5,0,19.1-8.6,19.1-19.1v-44.5c0-2.6-1-5-2.7-6.8h179.4c16.7,0,32.6-7.9,42.6-21.2
		c3-3.8,2.8-9.2-0.4-12.9c0,0-0.1-0.1-0.1-0.1h0.3c4.7,0,8.8-3.3,9.8-7.9c0.8-3.7,1.2-7.5,1.2-11.3v-20.8c0-10.9-7.5-20-17.6-22.6
		c2.1-1.8,3.4-4.5,3.4-7.5v-13.7C481.9,110.3,477.4,105.9,471.9,105.9L471.9,105.9z M213.5,233.9h29.2c-1.7,1.8-2.7,4.2-2.7,6.8
		v37.6h-19.1c0.3-0.5,0.6-1,0.8-1.6c1.8-4.5,0.1-9.6-4-12.2c-0.1-0.2-0.2-0.4-0.3-0.7c-0.3-0.8-0.5-1.6-0.6-2.4
		c-0.2-0.9-0.4-2-0.5-3.2c-0.3-2.6-0.4-5.3-0.4-8c0,0,0,0,0-0.1c0-2.8,0.1-5.7,0.3-9C216.3,238.6,215.3,235.9,213.5,233.9
		L213.5,233.9z M177.8,279.7c2.6-11.1,5-21.8,7.2-32.1c0.8,2.6,1.7,5.2,2.6,7.8c1.2,3.4,2.7,6.8,4.3,10.1c0,0,0,0,0,0
		c0.8,1.6,1.7,3.2,2.6,4.8c0,0,0,0,0,0.1c0.9,1.5,2,3,3.1,4.4c1,1.3,2.2,2.5,3.5,3.6h-18.3C181,278.4,179.3,278.9,177.8,279.7
		L177.8,279.7z M117.2,287.1c-1.1,0-2-0.9-2-2s0.9-2,2-2c1,0,1.9,0.8,2,1.8c0,0.1,0,0.1,0,0.2C119.2,286.2,118.3,287.1,117.2,287.1
		L117.2,287.1z M101.7,369.9c-1.1,0-2-0.9-2-2c0-1.1,0.9-2,2-2c0,0,0,0,0,0c0.7,0,1.1,0.3,1.4,0.6c0.3,0.3,0.6,0.7,0.6,1.4
		C103.7,369,102.8,369.9,101.7,369.9L101.7,369.9z"/>
</g>
</svg>
