<?xml version="1.0" encoding="utf-8"?>
<!-- Generator: Adobe Illustrator 23.0.1, SVG Export Plug-In . SVG Version: 6.00 Build 0)  -->
<svg id="icon" version="1.1" xmlns="http://www.w3.org/2000/svg" xmlns:xlink="http://www.w3.org/1999/xlink" x="0px" y="0px"
	 viewBox="0 0 512 512" style="enable-background:new 0 0 512 512;" xml:space="preserve">
<style type="text/css">
	.st0{clip-path:url(#SVGID_1_);fill:url(#SVGID_2_);}
	.st1{fill:#FFFFFF;}
	.st2{fill:#460E0E;}
</style>
<g>
	<clipPath >
		<use xlink:href="#SVGID_4_"  style="overflow:visible;"/>
	</clipPath>
	
		<linearGradient gradientUnits="userSpaceOnUse" x1="-48.896" y1="651.7702" x2="-47.93" y2="652.7362" gradientTransform="matrix(398.2426 398.2426 398.2426 -398.2426 -240218.8594 279291.0938)">
		<stop  offset="0.4" style="stop-color:#C80000"/>
		<stop  offset="1" style="stop-color:#6D1616"/>
	</linearGradient>
	<path class="st0" d="M256-128.7L640.7,256L256,640.7L-128.7,256L256-128.7z"/>
</g>
<g>
	<path class="st1" d="M74.3,487c-0.4,0-0.7,0-1.1-0.1c-2-0.4-3.5-2-3.9-4.1c-6.1-36.4-46.9-52.9-51.5-53.7c-1.9-0.2-3.6-1.4-4.2-3.3
		c-0.7-1.9-0.2-3.9,1.2-5.3l99.1-95.3c1-0.9,2.2-1.4,3.5-1.4c0.7,0,1.5,0.2,2.2,0.5c7.2,3.5,19.3,8.4,23.7,8.4c0,0,0,0,0,0
		c0.8-0.7,3.2-3,7.8-10.6c0.9-1.5,2.6-2.4,4.3-2.4c0.7,0,1.4,0.1,2.1,0.4l1.1,0.5l19,8.8c1.3,0.6,2.3,1.8,2.7,3.2s0.1,2.9-0.7,4.1
		L78.4,484.8C77.5,486.2,75.9,487,74.3,487z M186.3,401.1c-4,0-7.9-1.1-11.3-3.2c-5-3-8.5-7.8-9.9-13.5c-1.4-5.6-0.5-11.4,2.6-16.3
		l14-23.1c3.8-6.5,11-10.5,18.6-10.5c2.1,0,4.1,0.3,6.1,0.9c4.5-2.2,7.3-5.5,8-9.6c0.5-3.3-0.1-6.7-1.8-9.8c-1.1-2-0.7-4.4,1-6
		l6.4-6.1c0.9-0.9,2.2-1.4,3.4-1.4c0.2,0,0.4,0,0.7,0c1.5,0.2,2.8,1.1,3.6,2.4c4.6,7.6,6.3,15.8,5,23.7c-1.3,7.9-5.6,14.8-12.1,19.6
		c0,0,0,0,0,0c2.4,6.2,1.8,13.3-1.6,19.1l-14,23.1C201.1,397.1,193.9,401.1,186.3,401.1C186.3,401.1,186.3,401.1,186.3,401.1z
		 M200.5,352.9c-1.1,0-2.2,0.6-2.8,1.6l-14.1,23.2c-0.5,0.7-0.6,1.6-0.4,2.4c0.2,0.8,0.7,1.5,1.5,2c0.6,0.4,1.1,0.5,1.7,0.5
		c1.1,0,2.2-0.6,2.8-1.6l14.1-23.2c0.8-1.3,0.6-3-0.5-4l-0.7-0.5C201.5,353.1,201,352.9,200.5,352.9z M185.3,324.8
		c-0.7,0-1.4-0.2-2.1-0.5l-21.5-10.1c-2.1-1-3.2-3.3-2.8-5.5l9.3-45.7c0.2-1.2,0.9-2.3,1.9-3l55.6-42.2c0.9-0.7,2-1,3-1
		c1.5,0,3,0.7,4,2l25.3,33.3c1.5,2,1.3,4.9-0.6,6.7l-68.7,64.7C187.8,324.3,186.5,324.8,185.3,324.8z M151,291.2
		c-0.7,0-1.3-0.1-2-0.4c-3.8-1.6-6.5-4.2-8.6-6.2c-2.1-2-3.4-3.2-4.5-3.2c-0.3,0-0.8,0.1-1.3,0.3c-0.6,0.2-1.1,0.3-1.7,0.3
		c-1.2,0-2.5-0.5-3.4-1.3c-1.4-1.3-1.9-3.2-1.4-5c2.7-9.8,13.9-9.8,18.7-9.8c0.7,0,1.3,0,2,0c0.6,0,1.1,0,1.6,0c1.4,0,2.3,0,2.7-0.1
		c0.4-0.1,0.7-0.1,1.1-0.1c1.3,0,2.6,0.5,3.5,1.4c1.2,1.2,1.7,2.9,1.4,4.6l-3.2,15.6c-0.3,1.5-1.2,2.7-2.6,3.4
		C152.6,291,151.8,291.2,151,291.2z M268.4,250.7c-0.3,0-0.5,0-0.8-0.1c-1.3-0.2-2.5-1-3.3-2.1l-0.6-0.9l-25.2-33.2
		c-0.8-1.1-1.2-2.4-1-3.7c0.2-1.3,0.9-2.5,1.9-3.3l67.7-51.3c0.9-0.7,1.9-1,3-1c0.2,0,0.5,0,0.7,0c1.3,0.2,2.5,0.9,3.3,1.9
		l17.1,22.6c3.1,4.1,4.5,9.2,3.9,14.3c-0.6,5.3-3.2,9.9-7.3,13l-56.4,42.8C270.5,250.3,269.5,250.7,268.4,250.7z M346.9,191.1
		c-0.6,0-1.2-0.1-1.8-0.4c-1.6-0.6-2.8-2.1-3.1-3.8c-0.4-2.4-1.2-4.8-2.4-7.4c-1-2.1-0.4-4.7,1.5-6.1L485.5,63.9c0.9-0.7,1.9-1,3-1
		c0.2,0,0.5,0,0.7,0c1.3,0.2,2.5,0.9,3.3,1.9l5.2,6.9c1.7,2.2,1.2,5.3-1,7L349.9,190.1C349,190.8,348,191.1,346.9,191.1z
		 M334.2,168.4c-0.2,0-0.5,0-0.7,0c-1.3-0.2-2.5-0.9-3.3-1.9l-10.4-13.8c-1.7-2.2-1.2-5.3,1-7L478.4,26c0.9-0.7,1.9-1,3-1
		c0.2,0,0.5,0,0.7,0c1.3,0.2,2.5,0.9,3.3,1.9l10.4,13.8c1.7,2.2,1.2,5.3-1,7L337.2,167.4C336.3,168,335.3,168.4,334.2,168.4z"/>
	<path class="st2" d="M481.4,30l10.4,13.8L334.2,163.4l-10.4-13.8L481.4,30 M488.5,67.9l5.2,6.9L346.9,186.1c-0.5-3-1.5-5.9-2.8-8.7
		L488.5,67.9 M310.1,160.1l17.1,22.6c4.7,6.3,3.9,15.5-2.4,20.2l-56.4,42.8l-0.7-1l-25.3-33.3L310.1,160.1 M228.7,221.8l25.3,33.3
		l-68.7,64.7l-21.5-10.1l9.3-45.7L228.7,221.8 M154.2,270.6l-3.2,15.6c-6.6-2.8-9.4-9.8-15.1-9.8c-0.9,0-1.9,0.2-3,0.6
		c1.6-5.6,8.2-6.2,13.9-6.2c1.3,0,2.5,0,3.6,0C151.9,270.9,153.2,270.8,154.2,270.6 M223.4,307.6c3.9,6.5,5.5,13.5,4.4,20.3
		c-1.1,6.5-4.7,12.4-10.1,16.4c-1.1,0.8-2.3,1.6-3.6,2.3c3.8,5.5,4,12.6,0.6,18.3l-14,23.1c-3.2,5.3-8.7,8.1-14.4,8.1
		c-3,0-6-0.8-8.7-2.4v0c-8-4.8-10.5-15.1-5.7-22.9l14-23.1c3.1-5.2,8.6-8.1,14.4-8.1c2.1,0,4.3,0.4,6.3,1.2
		c7-2.7,11.7-7.8,12.7-14.2c0.7-4.5-0.2-9-2.3-12.9L223.4,307.6 M186.3,387.6c2.8,0,5.5-1.4,7.1-4l14.1-23.2
		c2.1-3.4,1.4-7.9-1.7-10.5l-1.1-0.8c-1.3-0.8-2.8-1.2-4.2-1.2c-2.8,0-5.5,1.4-7.1,4l-14.1,23.2c-2.4,3.9-1.1,9,2.8,11.3
		C183.4,387.2,184.9,387.6,186.3,387.6 M155.4,324.8l1.1,0.5l19,8.8L74.3,482c-6.8-40.3-51.6-57.5-56-57.8l99.1-95.3
		c0,0,18.4,8.9,25.8,8.9c0.6,0,1.2-0.1,1.7-0.2c0.5-0.2,1-0.4,1.4-0.8C148.9,334.8,152.3,329.9,155.4,324.8 M481.4,20
		c-2.2,0-4.3,0.7-6,2L317.8,141.6c-2.9,2.2-4.3,5.8-3.9,9.2c-0.8-0.3-1.6-0.5-2.4-0.6c-0.5-0.1-0.9-0.1-1.4-0.1c-2.2,0-4.3,0.7-6,2
		l-67.7,51.3c-2.1,1.6-3.5,4-3.9,6.6c-0.1,0.8-0.1,1.7,0,2.5c-1.2-0.5-2.5-0.7-3.8-0.7c-2.1,0-4.2,0.7-6,2L167.1,256
		c-1.9,1.5-3.3,3.6-3.8,6l-0.7,3.2c-0.4-0.6-0.9-1.2-1.4-1.8c-1.9-1.9-4.4-2.9-7-2.9c-0.7,0-1.4,0.1-2,0.2c-0.2,0-0.6,0.1-1.7,0.1
		c-0.5,0-1,0-1.6,0c-0.7,0-1.3,0-2,0c-4.9,0-19.7,0-23.5,13.5c-1,3.6,0.1,7.5,2.8,10c1.9,1.7,4.3,2.7,6.8,2.7c0.8,0,1.6-0.1,2.4-0.3
		c0.5,0.4,1.1,1,1.7,1.5c2.3,2.2,5.5,5.2,10.1,7.2c1.3,0.5,2.6,0.8,3.9,0.8c1.6,0,3.2-0.4,4.6-1.1c0.4-0.2,0.7-0.4,1.1-0.6
		l-2.7,13.3c-0.5,2.5,0,5,1.2,7.1c-3.3,0.1-6.5,1.8-8.3,4.8c-2.6,4.3-4.4,6.6-5.4,7.9c-4.1-0.9-12.4-4.1-19.7-7.6
		c-1.4-0.7-2.9-1-4.4-1c-2.5,0-5,1-6.9,2.8L11.4,417c-2.9,2.7-3.8,6.9-2.5,10.6c1.3,3.5,4.4,6,8.1,6.5c2,0.5,12.6,4.4,23.8,13
		c13.4,10.4,21.3,22.6,23.7,36.5c0.7,4,3.7,7.2,7.7,8.1c0.7,0.2,1.4,0.2,2.1,0.2c3.3,0,6.4-1.6,8.3-4.4l77.3-113
		c-0.7,3.6-0.6,7.4,0.3,11.1c1.7,7,6,12.8,12.2,16.6c4.2,2.5,9,3.9,13.9,3.9c9.4,0,18.2-5,23-13l14-23.1c0,0,0,0,0-0.1
		c3.6-6.1,4.6-13.3,3.1-19.9c6-5.4,9.9-12.6,11.3-20.5c0,0,0,0,0-0.1c1.5-9-0.5-18.4-5.7-27c-1.6-2.6-4.2-4.4-7.2-4.8
		c-0.4-0.1-0.9-0.1-1.3-0.1l37.4-35.2c2.2-2.1,3.3-4.9,3.1-7.7c0.9,0.4,1.9,0.7,2.9,0.9c0.5,0.1,1,0.1,1.5,0.1c2.2,0,4.3-0.7,6-2
		l56.4-42.8c5.7-4.3,8.9-10.7,9.4-17.4c0.9,0.8,1.9,1.4,3,1.9c1.2,0.5,2.4,0.7,3.7,0.7c2.1,0,4.3-0.7,6-2L499.7,82.8
		c4.4-3.3,5.3-9.6,1.9-14l-5.2-6.9c-1.6-2.1-4-3.5-6.6-3.9c-0.1,0-0.1,0-0.2,0l8.2-6.2c4.4-3.3,5.3-9.6,1.9-14L489.4,24
		c-1.6-2.1-4-3.5-6.6-3.9C482.3,20,481.9,20,481.4,20L481.4,20z M334.3,175.5l-1.7-2.2c0.1,0,0.1,0,0.2,0c0.5,0.1,0.9,0.1,1.4,0.1
		c0.2,0,0.5,0,0.7,0C334.6,174.1,334.4,174.8,334.3,175.5L334.3,175.5z M185.3,329.8c2.5,0,5-0.9,6.9-2.7l14.9-14
		c-0.1,1.8,0.3,3.7,1.2,5.4c1.1,2.1,1.6,4.4,1.2,6.6c-0.4,2.3-2,4-3.7,5.1c-1.8-0.4-3.6-0.6-5.4-0.6c-5.3,0-10.4,1.6-14.8,4.4
		c0-0.9-0.1-1.7-0.4-2.6c-0.2-0.6-0.4-1.1-0.6-1.7C184.8,329.8,185,329.8,185.3,329.8L185.3,329.8z"/>
</g>
</svg>
