<?xml version="1.0" encoding="utf-8"?>
<!-- Generator: Adobe Illustrator 23.0.1, SVG Export Plug-In . SVG Version: 6.00 Build 0)  -->
<svg id="icon" version="1.1" xmlns="http://www.w3.org/2000/svg" xmlns:xlink="http://www.w3.org/1999/xlink" x="0px" y="0px"
	 viewBox="0 0 512 512" style="enable-background:new 0 0 512 512;" xml:space="preserve">
<style type="text/css">
	.st0{clip-path:url(#SVGID_1_);fill:url(#SVGID_2_);}
	.st1{fill:#FFFFFF;}
	.st2{fill:#460E0E;}
</style>
<g>
	<clipPath >
		<use xlink:href="#SVGID_4_"  style="overflow:visible;"/>
	</clipPath>
	
		<linearGradient gradientUnits="userSpaceOnUse" x1="-48.896" y1="651.7702" x2="-47.93" y2="652.7362" gradientTransform="matrix(398.2426 398.2426 398.2426 -398.2426 -240218.8594 279291.0938)">
		<stop  offset="0.4" style="stop-color:#C80000"/>
		<stop  offset="1" style="stop-color:#6D1616"/>
	</linearGradient>
	<path class="st0" d="M256-128.7L640.7,256L256,640.7L-128.7,256L256-128.7z"/>
</g>
<g>
	<path class="st1" d="M73.1,420c-4.6,0-9.2-1.1-13.3-3.3l-25.5-13.3c-0.4-0.2-0.9-0.5-1.3-0.7c-13.7-8-18.3-25.7-10.2-39.3
		C39,336.1,63,291.3,65.5,285.8c2.4-5.1,2.9-9.4,1.5-12.9c-2.4-6.3-10.8-9.7-15.8-11.7c-0.8-0.3-1.6-0.7-2.3-1
		c-3.5-1.6-15-2.6-22.1-2.8c-2.7-0.1-4.8-2.3-4.8-5V142c0-2.8,2.2-5,5-5h319c2.8,0,5,2.2,5,5v82c0,2.8-2.2,5-5,5h-8
		c-2.5,0-5,0.4-7.4,1.1c-7.1,2-13,6.7-16.6,13.1c-3.6,6.5-4.5,13.9-2.5,21l3.4,12.2c0.7,2.7-0.8,5.4-3.5,6.2L253,299.2
		c-0.4,0.1-0.9,0.2-1.4,0.2c0,0-111.7-3.1-111.7-3.1L100,401.5c-0.4,1.1-0.9,2.1-1.4,3.2C93.6,414.2,83.8,420,73.1,420
		C73.1,420,73.1,420,73.1,420z M138.9,252.4c-3.2,0-5.8,2.6-5.8,5.8c0,3.2,2.6,5.8,5.8,5.8s5.8-2.6,5.8-5.8
		C144.7,255,142.1,252.4,138.9,252.4z M59.5,199c-1.7,0-3,1.3-3,3s1.3,3,3,3h256.2c1.7,0,3-1.3,3-3s-1.3-3-3-3H59.5z M185.3,160
		c-3.3,0-6,2.7-6,6s2.7,6,6,6h81c1.9,0,3.6,1.1,4.5,2.8c3.1,6.2,9.4,10.1,16.3,10.1l0.3,0c10.5,0,19-8.5,19-18.9
		c0-10.4-8.5-18.8-18.8-18.8c0,0-0.4,0-0.4,0c-6.9,0-13.2,3.9-16.3,10.1c-0.8,1.7-2.6,2.8-4.5,2.8H185.3z M315,412.6
		c-0.2,0-0.4,0-0.6,0c-1.3-0.1-2.5-0.8-3.4-1.8c-24.2-30.2-42-64.4-52.9-101.6c-0.4-1.3-0.2-2.7,0.4-3.8c0.6-1.2,1.7-2,3-2.4
		l50.3-14.2c0.5-0.1,0.9-0.2,1.4-0.2c2.2,0,4.1,1.4,4.8,3.6c8.6,29.1,22.6,56,41.6,79.7c1.7,2.2,1.4,5.3-0.8,7l-40.8,32.7
		C317.2,412.2,316.1,412.6,315,412.6z M383.4,365c-2.5,0-4.6-1.8-4.9-4.2c0-0.2-3.1-20.1-4.6-41.4c-2.9-40.2,2-50.4,5.8-54.6
		c4.5-4.9,5.7-16.9,2.2-21.7c-1.1-1.5-1.3-3.5-0.4-5.2s2.6-2.7,4.5-2.7h42c1.9,0,3.7,1.1,4.5,2.8c0.8,1.7,0.6,3.8-0.6,5.3
		c-3.7,4.8-2.6,16.8,2.1,21.5c4.3,4.3,9.6,14.6,6.4,54.9c-1.7,21.3-5,41.2-5,41.4c-0.4,2.4-2.5,4.2-4.9,4.2H383.4z M134.6,346
		c-1.6,0-3.2-0.8-4.1-2.2c-0.9-1.3-1.1-3.1-0.6-4.6l3-8c0.7-2,2.6-3.2,4.7-3.2h22.3l-0.8-0.3c-1-0.3-1.8-0.9-2.4-1.7l-10.9-14.5
		c-1.6-2.2-1.2-5.2,0.9-6.9l1.1-0.9c0.9-0.7,2-1.1,3.1-1.1c0,0,9.5,0.3,9.5,0.3c2.5,0.1,4.6,2,4.8,4.5l0.8,8.6l6.8,3.1
		c2.3,1,3.4,3.6,2.7,6l-0.7,2.4c0,0.2-0.1,0.3-0.2,0.5l16.2,0c3.1,0,5.8-1.9,6.9-4.8l5.6-15.7c0.7-2,2.6-3.3,4.7-3.3
		c0.1,0,8.6,0.3,8.6,0.3c1.6,0.1,3.1,0.9,4,2.2c0.9,1.3,1.1,3,0.6,4.5l-6.5,18.1c-3.6,10-13.2,16.8-23.9,16.8
		C190.8,346,134.6,346,134.6,346z M470.1,264c-2.8,0-5-2.2-5-5v-17.4c0-6.8-5.5-12.4-12.3-12.6l-90.7,0c-2.8,0-5-2.2-5-5v-83
		c0-2.8,2.2-5,5-5h98c2.8,0,5,2.2,5,5v58h23c2.8,0,5,2.2,5,5v55c0,2.8-2.2,5-5,5H470.1z M476.1,193c-2.8,0-5-2.2-5-5v-58h-10
		c-2.8,0-5-2.2-5-5V97c0-2.8,2.2-5,5-5h27c2.8,0,5,2.2,5,5v91c0,2.8-2.2,5-5,5H476.1z M287.5,178.9c-7.1,0-12.9-5.8-12.9-12.9
		c0-7.1,5.8-12.9,12.9-12.9s12.9,5.8,12.9,12.9C300.4,173.1,294.6,178.9,287.5,178.9z M67.1,132c-1.3,0-2.6-0.5-3.5-1.5
		c-0.9-0.9-1.5-2.2-1.5-3.5v-24c0-1.7,0.9-3.3,2.3-4.2c0.8-0.5,1.8-0.8,2.7-0.8c0.7,0,1.4,0.1,2,0.4l52.9,23.6
		c2.1,1,3.3,3.3,2.9,5.6c-0.5,2.3-2.5,4-4.9,4C120.1,131.6,67.2,132,67.1,132z"/>
	<path class="st2" d="M488.1,97v91h-12v-47.4V125h-15V97H488.1 M67.1,103l52.9,23.6L67.1,127V103L67.1,103 M460.1,141v63h28v55h-18
		v-17.4c0-9.6-7.7-17.4-17.3-17.6h-90.7v-83H460.1 M346.1,142v82h-8c-3,0-5.9,0.4-8.8,1.2c-17.4,4.9-27.4,23-22.5,40.3l3.4,12.2
		l-58.7,16.6l-115.1-3.2L95.3,399.7c-0.3,0.9-0.7,1.8-1.2,2.6c-4.2,8.1-12.5,12.7-21,12.7c-3.7,0-7.5-0.9-11-2.7L36.7,399
		c-0.4-0.2-0.7-0.4-1.1-0.6c-11.3-6.6-15.1-21.2-8.5-32.5c16.1-27.2,40.1-71.9,42.9-78c10.4-22.4-11.8-29-19-32.2
		c-6-2.7-23.9-3.2-23.9-3.2V142H346.1 M185.3,177h81c3.9,7.9,12,12.9,20.8,12.9c0.1,0,0.2,0,0.3,0c13.2,0,23.9-10.7,23.9-23.9
		c0,0,0,0,0,0c0-13.2-10.7-23.8-23.8-23.8c0,0,0,0-0.1,0c-0.1,0-0.3,0-0.4,0c-8.8,0-16.8,5-20.8,12.8h-81c-6.1,0-11,4.9-11,11
		C174.3,172,179.2,177,185.3,177 M59.5,210h256.2c4.4,0,8-3.6,8-8c0-4.4-3.6-8-8-8H59.5c-4.4,0-8,3.6-8,8
		C51.5,206.4,55.1,210,59.5,210 M138.9,268.9c5.9,0,10.8-4.8,10.8-10.8s-4.8-10.8-10.8-10.8c-5.9,0-10.8,4.8-10.8,10.8
		S133,268.9,138.9,268.9 M287.5,158.1c4.4,0,7.9,3.5,7.9,7.9c0,4.4-3.5,7.9-7.9,7.9c-4.4,0-7.9-3.5-7.9-7.9
		C279.6,161.6,283.1,158.1,287.5,158.1 M428,240c-5.5,7-3.7,21.9,2.4,28.1c13.3,13.3,0,91.9,0,91.9h-47c0,0-12.1-78.8,0-91.9
		c5.9-6.4,7.7-21.1,2.6-28.1H428 M313.3,293.6c8.8,29.6,23.2,57.3,42.5,81.4L315,407.6c-23.7-29.6-41.3-63.5-52-99.9L313.3,293.6
		 M150.9,307.6l9.4,0.3l1.1,11.5l9.4,4.3l-0.7,2.5l-9.4-3.1l-10.9-14.5L150.9,307.6 M208,309.1l8.4,0.3l-6.5,18.1
		c-2.9,8.1-10.6,13.5-19.1,13.5c0,0-0.1,0-0.1,0h-56.1l3-8h53.1h0c0,0,0.1,0,0.1,0c5.2,0,9.8-3.2,11.6-8.1L208,309.1 M488.1,87h-27
		c-5.5,0-10,4.5-10,10v28c0,2.3,0.7,4.3,2,6h-91c-3.5,0-6.6,1.8-8.4,4.5c-1.8-2.2-4.6-3.5-7.6-3.5H128.5c0.6-1,1.1-2.1,1.3-3.3
		c1-4.6-1.4-9.3-5.7-11.2L71.2,93.9c-1.3-0.6-2.7-0.9-4.1-0.9c-1.9,0-3.8,0.5-5.4,1.6c-2.8,1.8-4.6,5-4.6,8.4v0v24
		c0,1.7,0.5,3.4,1.3,4.9H27.1c-5.5,0-10,4.5-10,10v110.5c0,5.4,4.3,9.8,9.7,10c8.5,0.3,17.9,1.4,20.2,2.4c0.7,0.3,1.5,0.7,2.4,1
		c4.2,1.7,11.3,4.7,13,8.9c0.8,2.1,0.4,5.1-1.4,8.9c-2.5,5.5-26.4,49.9-42.5,77.1c-9.4,16.1-4,36.8,12,46.2c0.5,0.3,1,0.6,1.5,0.9
		l25.4,13.3c4.8,2.5,10.2,3.8,15.6,3.8c12.6,0,24-6.9,29.9-18.1c0.6-1.2,1.2-2.5,1.7-3.7l21.5-56.8c0.1,0.1,0.1,0.2,0.2,0.2
		c1.9,2.7,4.9,4.3,8.2,4.3h56.1l0.1,0c12.8,0,24.2-8.1,28.6-20.1l6.5-18.1c1.1-3,0.6-6.4-1.2-9c0,0-0.1-0.1-0.1-0.1l26.7,0.7
		c0.1,0,0.2,0,0.3,0c0.7,0,1.4-0.1,2.1-0.2c-0.8,2-0.9,4.3-0.3,6.5c11.1,37.8,29.2,72.5,53.8,103.3c1.7,2.1,4.1,3.4,6.7,3.7
		c0.4,0,0.7,0.1,1.1,0.1c2.3,0,4.5-0.8,6.3-2.2l40.8-32.7c4.3-3.5,5-9.7,1.6-14.1c-18.6-23.2-32.3-49.5-40.7-78
		c-0.8-2.8-2.8-5-5.3-6.2c2.3-2.5,3.3-6.1,2.3-9.5l-3.4-12.2c-1.7-5.8-0.9-12,2-17.2c2.9-5.3,7.8-9.1,13.6-10.8c2-0.6,4-0.9,6.1-0.9
		l8,0c3.3,0,6.2-1.6,8-4c1.8,2.4,4.7,4,8,4H378c-0.3,0.5-0.7,1-0.9,1.5c-1.7,3.4-1.4,7.4,0.9,10.4c2,2.7,1.2,12-1.9,15.4
		c-4.9,5.3-10.1,16.7-7.2,58.4c1.5,21.5,4.5,41,4.6,41.8c0.8,4.9,4.9,8.5,9.9,8.5h47c4.9,0,9-3.5,9.9-8.3c0.1-0.8,3.4-20.3,5.1-41.9
		c3.3-41.9-2.5-53.4-7.9-58.8c-2.8-2.8-3.8-12.1-1.7-14.8c2.4-3,2.8-7.1,1.1-10.5c-0.3-0.6-0.6-1.1-1-1.6h16.8
		c4.1,0.1,7.4,3.5,7.4,7.6V259c0,5.5,4.5,10,10,10h18c5.5,0,10-4.5,10-10v-55c0-3.3-1.6-6.2-4-8c2.4-1.8,4-4.7,4-8V97
		C498.1,91.4,493.7,87,488.1,87L488.1,87z M185.3,167c-0.6,0-1-0.4-1-1s0.4-1,1-1h81c1.2,0,2.3-0.2,3.3-0.6c0,0.5-0.1,1-0.1,1.6
		s0,1.1,0.1,1.6c-1.1-0.4-2.2-0.6-3.3-0.6H185.3L185.3,167z M138.9,258.9c-0.4,0-0.8-0.3-0.8-0.8s0.3-0.8,0.8-0.8
		c0.4,0,0.8,0.3,0.8,0.8S139.3,258.9,138.9,258.9L138.9,258.9z M170.8,312.6l-0.6-5.8c-0.2-1.8-0.8-3.4-1.8-4.8l31.7,0.9
		c-0.7,0.8-1.2,1.8-1.6,2.8l-5.6,15.7c-0.3,0.9-1.2,1.5-2.2,1.5c0,0-0.1,0-0.1,0h-10c-0.2-3.6-2.4-6.9-5.8-8.4L170.8,312.6
		L170.8,312.6z M135,323.3l5-13.1c0.3,1.5,0.9,2.9,1.8,4.2l6.4,8.5h-10.6C136.7,323,135.8,323.1,135,323.3L135,323.3z"/>
</g>
</svg>
