<?xml version="1.0" encoding="utf-8"?>
<!-- Generator: Adobe Illustrator 23.0.1, SVG Export Plug-In . SVG Version: 6.00 Build 0)  -->
<svg id="icon" version="1.1" xmlns="http://www.w3.org/2000/svg" xmlns:xlink="http://www.w3.org/1999/xlink" x="0px" y="0px"
	 viewBox="0 0 512 512" style="enable-background:new 0 0 512 512;" xml:space="preserve">
<style type="text/css">
	.st0{clip-path:url(#SVGID_1_);fill:url(#SVGID_2_);}
	.st1{fill:#FFFFFF;}
	.st2{fill:#460E0E;}
</style>
<g>
	<clipPath >
		<use xlink:href="#SVGID_4_"  style="overflow:visible;"/>
	</clipPath>
	
		<linearGradient gradientUnits="userSpaceOnUse" x1="-48.896" y1="651.7702" x2="-47.93" y2="652.7362" gradientTransform="matrix(398.2426 398.2426 398.2426 -398.2426 -240218.8594 279291.0938)">
		<stop  offset="0.4" style="stop-color:#C80000"/>
		<stop  offset="1" style="stop-color:#6D1616"/>
	</linearGradient>
	<path class="st0" d="M256-128.7L640.7,256L256,640.7L-128.7,256L256-128.7z"/>
</g>
<g transform="">
	<g>
		<path class="st1" d="M149.1,497.3l23.3-149.5L70.4,194.1l85.2-118.7l119.2,58.1l-20.4,41.8l-40.6,3.7l-32.3-15.9l2.4,18.8
			l39.2,17.3l57.1,126.8l6.2-0.8l-58.7-130.5l-20.8-9l31.3-2.8l136.6,100.9l22.2-29.3L381,325.8l-35,48.4v123.1H149.1z M322.8,236.7
			l68.8-90.7l50.9,38.6l-68.8,90.8L322.8,236.7z M264.9,193l72.8-96l53,40.3l-72.8,96L264.9,193z M265.7,165.8l17.1-35.1l-42-20.5
			l42.9-56.5L334.2,92l-60,79L265.7,165.8z M172.4,76.8l48.7-64.1l54.6,41.4l-40.4,53.4L172.4,76.8z"/>
		<path class="st2" d="M222.1,19.7l46.6,35.4l-34.9,46.1L180.1,75L222.1,19.7 M284.7,60.7L327.2,93l-57,75l19.3-39.6l-41-20
			L284.7,60.7 M157.2,81.7l110.9,54.1l-17,34.8l-36.4,3.3l-39.4-19.4l4,30.8l40,17.7l57.8,128.5l16.5-2.2l-62.2-138.4l-4.6-2
			l9.9-0.9l139,102.7l11.3-14.9l-10.7,47.9L341,372.6v119.7H154.9l22.7-145.6L76.5,194.2L157.2,81.7 M338.7,104l45,34.2l-66.8,88
			l-45-34.2L338.7,104 M392.6,153l42.9,32.6l-62.8,82.8l-42.9-32.7L392.6,153 M220.2,5.7l-6,8l-42,55.3l-4.9,6.5l-5.6-2.7L154,69
			l-4.9,6.9L68.4,188.4l-4,5.6l3.8,5.7l99,149.3L145,490.8l-1.8,11.5h11.7H341h10v-10V375.8l33.4-46.3l1.2-1.7l0.4-2l10.7-47.9
			l7.8-35.1l38.9-51.2l6-8l-8-6L398.7,145l-4.8-3.7l3.9-5.1l-8-6l-45-34.2l-4.6-3.5l1.1-1.4l-8-6.1l-42.5-32.3l-8-6.1l-3.2,4.2
			l-4.9-3.7l-46.6-35.4L220.2,5.7L220.2,5.7z M244.4,181.2l7.6-0.7l5.6-0.5l2.5-5.1l4.5-9.3l10,6.2L263.9,186l-4.7,6.2L244.4,181.2
			L244.4,181.2z M188.5,178.4l-0.9-6.7l18.4,9l-10.2,0.9L188.5,178.4L188.5,178.4z"/>
	</g>
</g>
</svg>
