<?xml version="1.0" encoding="utf-8"?>
<!-- Generator: Adobe Illustrator 23.0.1, SVG Export Plug-In . SVG Version: 6.00 Build 0)  -->
<svg id="icon" version="1.1" xmlns="http://www.w3.org/2000/svg" xmlns:xlink="http://www.w3.org/1999/xlink" x="0px" y="0px"
	 viewBox="0 0 512 512" style="enable-background:new 0 0 512 512;" xml:space="preserve">
<style type="text/css">
	.st0{clip-path:url(#SVGID_1_);fill:url(#SVGID_2_);}
	.st1{fill:#FFFFFF;}
	.st2{fill:#460E0E;}
</style>
<g>
	<clipPath >
		<use xlink:href="#SVGID_4_"  style="overflow:visible;"/>
	</clipPath>
	
		<linearGradient gradientUnits="userSpaceOnUse" x1="-48.896" y1="651.7702" x2="-47.93" y2="652.7362" gradientTransform="matrix(398.2426 398.2426 398.2426 -398.2426 -240218.8594 279291.0938)">
		<stop  offset="0.4" style="stop-color:#C80000"/>
		<stop  offset="1" style="stop-color:#6D1616"/>
	</linearGradient>
	<path class="st0" d="M256-128.7L640.7,256L256,640.7L-128.7,256L256-128.7z"/>
</g>
<g>
	<path class="st1" d="M143.1,414.2c-0.3,0-0.5,0-0.8-0.1L35.6,397.5c-1.3-0.2-2.5-0.9-3.3-2s-1.1-2.4-0.9-3.7l2.1-13.5
		c0.2-1.3,0.9-2.5,2-3.3c0.9-0.6,1.9-1,2.9-1c0.3,0,0.5,0,0.8,0.1L145.3,391l0.6,0.1c1.3,0.2,2.5,0.9,3.3,2c0.8,1.1,1.1,2.4,0.9,3.7
		L148,410C147.6,412.5,145.5,414.2,143.1,414.2z M147,385.8c-0.3,0-0.5,0-0.8-0.1l-119.1-19c-1.5-0.2-2.7-1.1-3.5-2.3
		c-0.8-1.3-0.9-2.8-0.5-4.2c7.5-22.4,19.8-47,31.6-70.9c9.2-18.5,17.9-36.1,23.2-50.2c6.8-18.2,5.1-24.2,3.6-26.2
		C70,198.6,52.6,197,45.6,197c-1.3,0-2.6,0.1-3.9,0.3c-0.2,0-0.4,0-0.6,0c-2.1,0-4-1.3-4.7-3.3c-0.3-0.8-2.6-7.9,1.8-14.8
		c4-6.3,12-10,23.7-11.1c10.6-1,15.7-2.5,17.7-5.2c0.9-1.3,2.4-2,4-2h305.5c2.8,0,5,2.2,5,5v18c0,2.8-2.2,5-5,5l-96.1,0
		c-0.8,0-1.3,0.4-1.5,0.6s-0.6,0.7-0.6,1.4l0.2,23c0,0.1,0,0.2,0,0.3c-1.2,20-16.7,35.6-35.4,35.6h-31.3c-3.1,0-30.7,0.5-36.6,16.9
		c-10.2,28-35.8,114.6-36,115.5C151.1,384.3,149.1,385.8,147,385.8z M150.3,172.6c-13.1,0-22.8,3.5-25.5,9.2
		C109.3,215.1,66.4,313,54.1,343.1c-0.7,1.8-0.4,3.9,0.9,5.3c0,0,0.1,0.1,0.1,0.1c2,2.6,9.1,7.6,33.6,12.5
		c9.2,1.9,22.5,3.9,32.3,3.9l0.6,0c2,0,4.1-0.2,6.1-0.5c5-0.9,5.8-3,6-3.8c15.6-44.2,47-141.9,52.5-164.7c3-12.4-9.6-18.3-15.2-20.3
		C165.1,173.8,157.6,172.6,150.3,172.6z M211.1,214.7c0,17,8.6,17,11.4,17h35.3c6.2,0,13.3-7.4,13.3-17l0-15c-0.1-6-5.1-11-11.1-11
		l-37.9,0c-6.1,0.1-11.1,5.2-11,11.3c0,0.1,0,0.3,0,0.4V214.7z M121.1,359.6c-7.1,0-17.4-1.1-28-3.1c-15.3-2.9-25.6-6.4-30.2-8.7
		c-2.3-1.2-3.3-4-2.3-6.4C75,306.7,115,215.6,129.6,184.2c0.2-0.5,0.5-0.9,0.9-1.3c2.5-2.8,9.5-4.7,17.8-5c0.7,0,1.3,0,2,0
		c8.5,0,17,1.7,22.8,4.5c6.4,3.2,9,7.3,7.8,12.3c-5.3,22-35.5,116.3-51.3,161.3c-0.6,1.8-2.3,3.1-4.2,3.3
		C124.2,359.5,122.8,359.6,121.1,359.6z M100.9,325.9c-1.8,0-3.3,1.5-3.3,3.3c0,1.8,1.5,3.3,3.3,3.3c1.7,0,3.1-1.3,3.3-3
		c0-0.1,0-0.2,0-0.3C104.2,327.4,102.7,325.9,100.9,325.9z M145,205.2c0.1,1.7,1.5,3.1,3.3,3.1c1.8,0,3.3-1.5,3.3-3.3
		s-1.5-3.3-3.3-3.3c-1.8,0-3.3,1.5-3.3,3.3C145,205.1,145,205.2,145,205.2z M222.1,225.9c-2.1,0-3.9-1.3-4.7-3.2
		c-1-2.6-1.5-5.3-1.3-8.1v-14.5c0-0.1,0-0.2,0-0.3c0.2-3.3,2.8-5.9,6.1-6.1c0.1,0,0.2,0,0.3,0h17.1c1.6,0,3.1,0.7,4,2
		c0.9,1.3,1.2,2.9,0.8,4.4c-1.3,4.3-1.9,8.7-1.9,13.1c0,2.3,0.2,4.5,0.5,6.8c0.2,1.4-0.2,2.9-1.2,4c-0.9,1.1-2.3,1.7-3.8,1.7h-14.9
		C222.9,225.8,222.5,225.9,222.1,225.9z M404.2,182.8c-2.8,0-5-2.2-5-5V161c0-1.5,0.7-3,1.9-4c5.7-4.4,21.6-11.8,64.6-11.8
		c5.8,0,12,0.1,18.5,0.4h0c2.8,0,5,2.2,5,5v27.1c0,2.8-2.2,5-5,5H404.2z M86.7,154.8c-1.4,0-2.7-0.6-3.6-1.6c-0.9-1-1.4-2.3-1.4-3.7
		c2.2-39.2,20.9-50.6,21.6-51c0.8-0.4,1.6-0.7,2.5-0.7h378.3c2.8,0,5,2.2,5,5v32.5c0,1.4-0.6,2.7-1.5,3.6c-0.9,0.9-2.2,1.4-3.5,1.4
		c-0.1,0-0.1,0-0.2,0c-6.5-0.3-12.8-0.4-18.7-0.4c-46.3,0-62.1,8.5-67.3,13.5c-0.9,0.9-2.2,1.4-3.5,1.4H86.7z M73.4,136.9
		c-1.2,0-2.3-0.4-3.2-1.2c-2-1.7-3.5-3.8-4.4-6.3c0-0.1-0.1-0.2-0.1-0.3c-1.1-3-8.9-14.6-15-15.1c-2.3-0.2-4.1-1.9-4.5-4.1
		c-0.4-2.2,0.8-4.5,2.9-5.4c2.2-1,4.8-1.5,7.6-1.5c10.7,0,22.3,7.5,24.1,8.7c0.5,0.3,0.9,0.7,1.3,1.2c0.9,1.3,1.2,2.9,0.8,4.4
		l-4.6,15.9c-0.5,1.6-1.7,2.9-3.4,3.4C74.4,136.9,73.9,136.9,73.4,136.9z"/>
	<path class="st2" d="M484.2,102.8v32.5c-6.8-0.3-13.1-0.4-18.9-0.4c-45,0-63.4,7.8-70.8,14.9H86.7c2.1-37,19.2-47,19.2-47H484.2
		 M56.6,108c9.7,0,21.4,8,21.4,8h0l-4.6,15.9c-1.3-1.1-2.3-2.6-2.9-4.2c-0.7-2.4-9.6-17.8-19.4-18.6C52.7,108.4,54.6,108,56.6,108
		 M465.7,150.3c5.6,0,11.7,0.1,18.4,0.4h0h0.1v27.1h-80V161C407.7,158.3,421.3,150.3,465.7,150.3 M389.2,165.8v18h-96
		c-0.1,0-0.1,0-0.2,0c0,0,0,0,0,0c-3.9,0-7,3.1-7,7l0.2,23.1c-1,17.2-14.4,30.9-30.4,30.9h-31.3c-11.4,0-35.2,3.3-41.3,20.2
		C172.8,293.5,147,380.8,147,380.8l-119.1-19c19.3-57.3,72-133.9,57.5-152C73.3,194.7,55.2,192,45.7,192c-1.5,0-3,0.1-4.6,0.3
		c0,0-6-16.8,21.3-19.3c11.9-1.1,18.1-2.9,21.3-7.2H389.2 M121.6,370c2.3,0,4.6-0.2,6.8-0.5c5.3-0.9,8.7-3.3,10-7
		c15.7-44.3,47.1-142.4,52.6-165.2c2.7-11.4-4.1-21.1-18.4-26.1c-6.3-2.2-14.3-3.5-22.3-3.5c-13.1,0-26,3.5-30,12.1
		C104.8,212.9,61.8,311,49.4,341.2c-1.4,3.5-0.8,7.6,1.7,10.5c4.4,5.5,16.6,10.3,36.5,14.3c10,2,23.3,4,33.2,4
		C121.1,370,121.4,370,121.6,370 M222.5,236.8h35.3c9.2,0,18.3-10,18.3-22v-14.6c0-0.2,0-0.3,0-0.5c-0.1-8.8-7.3-15.9-16.1-15.9
		c-0.1,0-0.1,0-0.2,0h-37.3c-0.1,0-0.1,0-0.2,0c-0.1,0-0.1,0-0.2,0c-8.9,0.1-16.1,7.4-15.9,16.4h0v14.6
		C206.1,226.9,210.5,236.8,222.5,236.8 M150.3,183c7.7,0,15.4,1.5,20.5,4c6,3,5.4,5.5,5.2,6.6c-5.1,21.4-35.5,116.1-51.1,160.8
		c-1,0.1-2.2,0.2-3.7,0.2c-5.7,0-15.1-0.8-27.1-3c-14.6-2.7-24.5-6-28.8-8.3c14-33.6,54.1-125,69-157c0.9-1,5.6-3.1,14.3-3.4
		C149,183,149.6,183,150.3,183 M148.3,213.3C148.3,213.3,148.3,213.3,148.3,213.3c4.6,0,8.3-3.7,8.3-8.3c0-4.6-3.7-8.3-8.3-8.3
		c-4.6,0-8.3,3.7-8.3,8.3h0c0,0,0,0,0,0C140,209.6,143.7,213.3,148.3,213.3 M100.9,337.5c4.6,0,8.3-3.7,8.3-8.3h0
		c0-4.6-3.7-8.3-8.3-8.3c-4.6,0-8.3,3.7-8.3,8.3C92.6,333.8,96.3,337.5,100.9,337.5 M239.7,198.8c-1.4,4.7-2.1,9.7-2.1,14.6
		c0,2.5,0.2,4.9,0.5,7.4h-15.6c-0.1,0-0.3,0.1-0.4,0.1c-0.8-2-1.1-4.1-1-6.1v-14.6c0-0.7,0.6-1.3,1.4-1.4H239.7 M38.5,379
		l106.1,16.9l0.6,0.1l-2.1,13.2L36.4,392.5L38.5,379 M484.2,92.8H105.9c-1.8,0-3.5,0.5-5,1.4c-1.3,0.7-8.2,5.2-14.4,16.6
		c-0.2-0.2-0.3-0.5-0.5-0.7c-0.7-1-1.7-1.8-2.7-2.5c-2.5-1.7-14.9-9.5-26.7-9.5c-3.5,0-6.8,0.7-9.7,2c-4.1,1.9-6.5,6.3-5.7,10.8
		c0.8,4.5,4.5,7.9,9,8.2c2.7,0.3,9,8,10.8,12c0,0,0,0.1,0.1,0.1c1.2,3.2,3.2,6.1,5.8,8.3c1.8,1.6,4.1,2.4,6.5,2.4
		c1,0,1.9-0.1,2.9-0.4c0.4-0.1,0.8-0.3,1.2-0.4c-0.3,2.6-0.6,5.3-0.7,8.1c-0.2,2.7,0.8,5.4,2.7,7.4c0,0,0,0,0,0
		c-1.5,0.7-2.9,1.8-3.9,3.2c-0.4,0.5-2.4,2.1-14.1,3.2c-13.3,1.2-22.6,5.8-27.5,13.4c-5.7,9-2.7,18.2-2.3,19.2
		c1.4,4,5.2,6.6,9.4,6.6c0.4,0,0.8,0,1.2-0.1c1.1-0.1,2.2-0.2,3.3-0.2c6.2,0,21.8,1.4,31.9,14c0.2,0.4,2,4.9-4.9,22.9
		c-5.2,13.6-13.5,30.4-22.4,48.2c-11.9,24-24.3,48.9-31.9,71.5c-0.9,2.8-0.6,5.8,0.9,8.4c1.5,2.5,4.1,4.2,7,4.7l4.7,0.8
		c-1.3,1.4-2.1,3.2-2.4,5.1L26.5,391c-0.4,2.6,0.2,5.3,1.8,7.4c1.6,2.1,3.9,3.6,6.5,4l106.7,16.7c0.5,0.1,1,0.1,1.6,0.1
		c4.8,0,9.1-3.5,9.9-8.5l2.1-13.2c0.4-2.6-0.2-5.3-1.8-7.5c-0.2-0.3-0.5-0.6-0.8-0.9c1.9-1.3,3.4-3.2,4.1-5.5
		c0.3-0.9,25.8-87.3,35.9-115.2c3.9-10.8,22.6-13.6,31.9-13.6h31.3c21.3,0,39.1-17.7,40.4-40.3c0-0.2,0-0.4,0-0.7l-0.2-20h93.2
		c4.7,0,8.6-3.2,9.7-7.5c1.5,1,3.4,1.5,5.3,1.5h80c5.5,0,10-4.5,10-10v-27.1c0-3.1-1.4-5.9-3.6-7.7c0.2-0.2,0.4-0.3,0.5-0.5
		c2-1.9,3.1-4.5,3.1-7.2v-32.5C494.2,97.3,489.7,92.8,484.2,92.8L484.2,92.8z M248.3,193.8h11.5c0,0,0.1,0,0.1,0l0.1,0
		c3.3,0,6.1,2.7,6.1,6l0,0.2c0,0.1,0,0.1,0,0.2v14.6c0,6.9-5,12-8.3,12h-11.7c1.6-2.1,2.3-4.7,1.9-7.3c-0.3-2-0.4-4.1-0.4-6.1
		c0-4,0.5-7.9,1.7-11.6C250,199,249.7,196.2,248.3,193.8L248.3,193.8z"/>
</g>
</svg>
