<svg id="icon" xmlns="http://www.w3.org/2000/svg" viewBox="0 0 512 512" >
	<g transform-origin="center" transform="">
		<path d="M255.8,484.1c-127.7,0-232.3-104.6-232.3-232.3S128.1,21,255.8,21c127.7,0,230.8,103.1,230.8,230.8 S383.5,484.1,255.8,484.1L255.8,484.1z M254.7,402.1l117.4-118L348.2,259L282.8,297V124.5c79.3,13.1,139.8,82,139.8,165 c0,39.3-13.5,75.4-36.2,103.9c37.7-35.4,61.2-85.8,61.2-141.6C447.6,145.4,362.2,60,255.8,60S62.5,145.4,62.5,251.8 c0,55.1,23.3,105,60.6,140.3c-22-28.3-35.2-63.9-35.2-102.6c0-82.5,59.6-151,138.2-164.8v168.7l-62.5-35.6l-25.1,26.3L254.7,402.1z"></path>
	</g>
</svg>