<?xml version="1.0" encoding="UTF-8"?>
<svg id="c" data-name="CHAT CHAINS" xmlns="http://www.w3.org/2000/svg" viewBox="0 0 512 512">
  <defs>
    <style>
      .e {
        fill: #000;
        stroke-width: 0px;
      }
    </style>
  </defs>
  <path id="d" data-name="CHAINS" class="e" d="M120.13,440.66v14.71c0,1.23-.5,2.36-1.3,3.18-.82.83-1.95,1.33-3.19,1.33-2.47,0-4.51-2.02-4.51-4.5v-7.36s0,0,0,0v-7.36c0-2.48,2.04-4.5,4.5-4.5,1.24,0,2.36.5,3.18,1.33.82.81,1.32,1.94,1.32,3.2ZM132.49,496.3s-2.62,1.81-2.36,3.99v3.47c-.26,6.45-4.58,6.45-7.28,6.45-.06,0-.06-28.54.02-28.54,2.5,0,7.02-.08,6.26,6.35v3.95c.76,2.4,3.36,4.33,3.36,4.33ZM132.49,464.47s-2.62,1.81-2.36,3.99v3.47c-.26,6.45-4.58,6.45-7.28,6.45-.06,0-.06-28.54.02-28.54,2.5,0,7.02-.08,6.26,6.35v3.95c.76,2.4,3.36,4.33,3.36,4.33ZM109.15,481.7c.06-.02.06,28.54,0,28.54-2.7,0-7.02,0-7.02-6.45v-3.47c0-2.18-2.62-3.99-2.62-3.99,0,0,2.62-1.92,2.62-4.33v-3.95c0-6.43,4.52-6.35,7.02-6.35ZM109.15,449.84c.06-.02.06,28.54,0,28.54-2.7,0-7.02,0-7.02-6.45v-3.47c0-2.18-2.62-3.99-2.62-3.99,0,0,2.62-1.92,2.62-4.33v-3.95c0-6.43,4.52-6.35,7.02-6.35ZM118.81,501.46c.82.81,1.32,1.94,1.32,3.2v7.34h-9v-7.36c0-2.48,2.04-4.5,4.5-4.5,1.24,0,2.36.5,3.18,1.33ZM112.45,492.83c-.82-.81-1.32-1.94-1.32-3.2v-18.79c0-1.23.5-2.36,1.32-3.18.82-.81,1.94-1.33,3.18-1.33,2.48,0,4.5,2.02,4.5,4.5v18.79c0,2.5-2.02,4.52-4.5,4.52-1.24,0-2.36-.5-3.18-1.33ZM118.81,373.46c-.82-.83-1.94-1.33-3.18-1.33-2.46,0-4.5,2.02-4.5,4.5v14.72c.01,2.48,2.05,4.5,4.51,4.5,1.25,0,2.37-.5,3.19-1.33.8-.81,1.3-1.94,1.3-3.18v-14.71c0-1.25-.5-2.38-1.32-3.2ZM132.49,432.38s-2.62,1.81-2.36,3.99v3.47c-.26,6.45-4.58,6.45-7.28,6.45-.06,0-.06-28.54.02-28.54,2.5,0,7.02-.08,6.26,6.35v3.95c.76,2.4,3.36,4.33,3.36,4.33ZM132.49,400.54s-2.62,1.81-2.36,3.99v3.47c-.26,6.45-4.58,6.45-7.28,6.45-.06,0-.06-28.54.02-28.54,2.5,0,7.02-.08,6.26,6.35v3.95c.76,2.4,3.36,4.33,3.36,4.33ZM109.15,417.77c.06-.02.06,28.54,0,28.54-2.7,0-7.02,0-7.02-6.45v-3.47c0-2.18-2.62-3.99-2.62-3.99,0,0,2.62-1.92,2.62-4.33v-3.95c0-6.43,4.52-6.35,7.02-6.35ZM109.15,385.92c.06-.02.06,28.54,0,28.54-2.7,0-7.02,0-7.02-6.45v-3.47c0-2.18-2.62-3.99-2.62-3.99,0,0,2.62-1.92,2.62-4.33v-3.95c0-6.43,4.52-6.35,7.02-6.35ZM112.45,428.91c-.82-.81-1.32-1.94-1.32-3.2v-18.79c0-1.23.5-2.36,1.32-3.18.82-.81,1.94-1.33,3.18-1.33,2.48,0,4.5,2.02,4.5,4.5v18.79c0,2.5-2.02,4.52-4.5,4.52-1.24,0-2.36-.5-3.18-1.33ZM120.13,312.66v14.71c0,1.23-.5,2.36-1.3,3.18-.82.83-1.95,1.33-3.19,1.33-2.47,0-4.51-2.02-4.51-4.5v-7.36s0,0,0,0v-7.36c0-2.48,2.04-4.5,4.5-4.5,1.24,0,2.36.5,3.18,1.33.82.81,1.32,1.94,1.32,3.2ZM132.49,368.47s-2.62,1.81-2.36,3.99v3.47c-.26,6.45-4.58,6.45-7.28,6.45-.06,0-.06-28.54.02-28.54,2.5,0,7.02-.08,6.26,6.35v3.95c.76,2.4,3.36,4.33,3.36,4.33ZM132.49,336.63s-2.62,1.81-2.36,3.99v3.47c-.26,6.45-4.58,6.45-7.28,6.45-.06,0-.06-28.54.02-28.54,2.5,0,7.02-.08,6.26,6.35v3.95c.76,2.4,3.36,4.33,3.36,4.33ZM109.15,353.86c.06-.02.06,28.54,0,28.54-2.7,0-7.02,0-7.02-6.45v-3.47c0-2.18-2.62-3.99-2.62-3.99,0,0,2.62-1.92,2.62-4.33v-3.95c0-6.43,4.52-6.35,7.02-6.35ZM109.15,322.01c.06-.02.06,28.54,0,28.54-2.7,0-7.02,0-7.02-6.45v-3.47c0-2.18-2.62-3.99-2.62-3.99,0,0,2.62-1.92,2.62-4.33v-3.95c0-6.43,4.52-6.35,7.02-6.35ZM112.45,365c-.82-.81-1.32-1.94-1.32-3.2v-18.79c0-1.23.5-2.36,1.32-3.18.82-.81,1.94-1.33,3.18-1.33,2.48,0,4.5,2.02,4.5,4.5v18.79c0,2.5-2.02,4.52-4.5,4.52-1.24,0-2.36-.5-3.18-1.33ZM132.49,304.55s-2.62,1.81-2.36,3.99v3.47c-.26,6.45-4.58,6.45-7.28,6.45-.06,0-.06-28.54.02-28.54,2.5,0,7.02-.08,6.26,6.35v3.95c.76,2.4,3.36,4.33,3.36,4.33ZM132.49,272.71s-2.62,1.81-2.36,3.99v3.47c-.26,6.45-4.58,6.45-7.28,6.45-.06,0-.06-28.54.02-28.54,2.5,0,7.02-.08,6.26,6.35v3.95c.76,2.4,3.36,4.33,3.36,4.33ZM109.15,289.94c.06-.02.06,28.54,0,28.54-2.7,0-7.02,0-7.02-6.45v-3.47c0-2.18-2.62-3.99-2.62-3.99,0,0,2.62-1.92,2.62-4.33v-3.95c0-6.43,4.52-6.35,7.02-6.35ZM109.15,258.08c.06-.02.06,28.54,0,28.54-2.7,0-7.02,0-7.02-6.45v-3.47c0-2.18-2.62-3.99-2.62-3.99,0,0,2.62-1.92,2.62-4.33v-3.95c0-6.43,4.52-6.35,7.02-6.35ZM112.45,301.07c-.82-.81-1.32-1.94-1.32-3.2v-18.79c0-1.23.5-2.36,1.32-3.18.82-.81,1.94-1.33,3.18-1.33,2.48,0,4.5,2.02,4.5,4.5v18.79c0,2.5-2.02,4.52-4.5,4.52-1.24,0-2.36-.5-3.18-1.33ZM120.13,184.66v14.71c0,1.23-.5,2.36-1.3,3.18-.82.83-1.95,1.33-3.19,1.33-2.47,0-4.51-2.02-4.51-4.5v-7.36s0,0,0,0v-7.36c0-2.48,2.04-4.5,4.5-4.5,1.24,0,2.36.5,3.18,1.33.82.81,1.32,1.94,1.32,3.2ZM132.49,240.3s-2.62,1.81-2.36,3.99v3.47c-.26,6.45-4.58,6.45-7.28,6.45-.06,0-.06-28.54.02-28.54,2.5,0,7.02-.08,6.26,6.35v3.95c.76,2.4,3.36,4.33,3.36,4.33ZM132.49,208.47s-2.62,1.81-2.36,3.99v3.47c-.26,6.45-4.58,6.45-7.28,6.45-.06,0-.06-28.54.02-28.54,2.5,0,7.02-.08,6.26,6.35v3.95c.76,2.4,3.36,4.33,3.36,4.33ZM109.15,225.7c.06-.02.06,28.54,0,28.54-2.7,0-7.02,0-7.02-6.45v-3.47c0-2.18-2.62-3.99-2.62-3.99,0,0,2.62-1.92,2.62-4.33v-3.95c0-6.43,4.52-6.35,7.02-6.35ZM109.15,193.84c.06-.02.06,28.54,0,28.54-2.7,0-7.02,0-7.02-6.45v-3.47c0-2.18-2.62-3.99-2.62-3.99,0,0,2.62-1.92,2.62-4.33v-3.95c0-6.43,4.52-6.35,7.02-6.35ZM118.81,245.46c-.82-.83-1.94-1.33-3.18-1.33-2.46,0-3.5,4.5-3.5,4.5v7.36l-1,7.36c0,2.48,2.04,4.51,4.51,4.51,1.25,0,2.37-.5,3.19-1.33.8-.81,1.3-1.95,1.3-3.18v-14.7c0-1.25-.5-2.38-1.32-3.2ZM112.45,236.83c-.82-.81-1.32-1.94-1.32-3.2v-18.79c0-1.23.5-2.36,1.32-3.18.82-.81,1.94-1.33,3.18-1.33,2.48,0,4.5,2.02,4.5,4.5v18.79c0,2.5-2.02,4.52-4.5,4.52-1.24,0-2.36-.5-3.18-1.33ZM118.81,117.46c-.82-.83-1.94-1.33-3.18-1.33-2.46,0-4.5,2.02-4.5,4.5v14.72c.01,2.48,2.05,4.5,4.51,4.5,1.25,0,2.37-.5,3.19-1.33.8-.81,1.3-1.94,1.3-3.18v-14.71c0-1.25-.5-2.38-1.32-3.2ZM132.49,176.38s-2.62,1.81-2.36,3.99v3.47c-.26,6.45-4.58,6.45-7.28,6.45-.06,0-.06-28.54.02-28.54,2.5,0,7.02-.08,6.26,6.35v3.95c.76,2.4,3.36,4.33,3.36,4.33ZM132.49,144.54s-2.62,1.81-2.36,3.99v3.47c-.26,6.45-4.58,6.45-7.28,6.45-.06,0-.06-28.54.02-28.54,2.5,0,7.02-.08,6.26,6.35v3.95c.76,2.4,3.36,4.33,3.36,4.33ZM109.15,161.77c.06-.02.06,28.54,0,28.54-2.7,0-7.02,0-7.02-6.45v-3.47c0-2.18-2.62-3.99-2.62-3.99,0,0,2.62-1.92,2.62-4.33v-3.95c0-6.43,4.52-6.35,7.02-6.35ZM109.15,129.92c.06-.02.06,28.54,0,28.54-2.7,0-7.02,0-7.02-6.45v-3.47c0-2.18-2.62-3.99-2.62-3.99,0,0,2.62-1.92,2.62-4.33v-3.95c0-6.43,4.52-6.35,7.02-6.35ZM112.45,172.91c-.82-.81-1.32-1.94-1.32-3.2v-18.79c0-1.23.5-2.36,1.32-3.18.82-.81,1.94-1.33,3.18-1.33,2.48,0,4.5,2.02,4.5,4.5v18.79c0,2.5-2.02,4.52-4.5,4.52-1.24,0-2.36-.5-3.18-1.33ZM120.13,56.66v14.71c0,1.23-.5,2.36-1.3,3.18-.82.83-1.95,1.33-3.19,1.33-2.47,0-4.51-2.02-4.51-4.5v-7.36s0,0,0,0v-7.36c0-2.48,2.04-4.5,4.5-4.5,1.24,0,2.36.5,3.18,1.33.82.81,1.32,1.94,1.32,3.2ZM132.49,112.47s-2.62,1.81-2.36,3.99v3.47c-.26,6.45-4.58,6.45-7.28,6.45-.06,0-.06-28.54.02-28.54,2.5,0,7.02-.08,6.26,6.35v3.95c.76,2.4,3.36,4.33,3.36,4.33ZM132.49,80.63s-2.62,1.81-2.36,3.99v3.47c-.26,6.45-4.58,6.45-7.28,6.45-.06,0-.06-28.54.02-28.54,2.5,0,7.02-.08,6.26,6.35v3.95c.76,2.4,3.36,4.33,3.36,4.33ZM109.15,97.86c.06-.02.06,28.54,0,28.54-2.7,0-7.02,0-7.02-6.45v-3.47c0-2.18-2.62-3.99-2.62-3.99,0,0,2.62-1.92,2.62-4.33v-3.95c0-6.43,4.52-6.35,7.02-6.35ZM109.15,66.01c.06-.02.06,28.54,0,28.54-2.7,0-7.02,0-7.02-6.45v-3.47c0-2.18-2.62-3.99-2.62-3.99,0,0,2.62-1.92,2.62-4.33v-3.95c0-6.43,4.52-6.35,7.02-6.35ZM112.45,109c-.82-.81-1.32-1.94-1.32-3.2v-18.79c0-1.23.5-2.36,1.32-3.18.82-.81,1.94-1.33,3.18-1.33,2.48,0,4.5,2.02,4.5,4.5v18.79c0,2.5-2.02,4.52-4.5,4.52-1.24,0-2.36-.5-3.18-1.33ZM111.14,7.36c0,2.48,2.04,4.5,4.51,4.5,1.24,0,2.36-.5,3.18-1.33.8-.81,1.3-1.94,1.3-3.18V0h-9v7.36ZM132.49,48.55s-2.62,1.81-2.36,3.99v3.47c-.26,6.45-4.58,6.45-7.28,6.45-.06,0-.06-28.54.02-28.54,2.5,0,7.02-.08,6.26,6.35v3.95c.76,2.4,3.36,4.33,3.36,4.33ZM132.49,16.71s-2.62,1.81-2.36,3.99v3.47c-.26,6.45-4.58,6.45-7.28,6.45-.06,0-.06-28.54.02-28.54,2.5,0,7.02-.08,6.26,6.35v3.95c.76,2.4,3.36,4.33,3.36,4.33ZM109.15,33.94c.06-.02.06,28.54,0,28.54-2.7,0-7.02,0-7.02-6.45v-3.47c0-2.18-2.62-3.99-2.62-3.99,0,0,2.62-1.92,2.62-4.33v-3.95c0-6.43,4.52-6.35,7.02-6.35ZM109.15,2.08c.06-.02.06,28.54,0,28.54-2.7,0-7.02,0-7.02-6.45v-3.47c0-2.18-2.62-3.99-2.62-3.99,0,0,2.62-1.92,2.62-4.33v-3.95c0-6.43,4.52-6.35,7.02-6.35ZM112.45,45.07c-.82-.81-1.32-1.94-1.32-3.2v-18.79c0-1.23.5-2.36,1.32-3.18.82-.81,1.94-1.33,3.18-1.33,2.48,0,4.5,2.02,4.5,4.5v18.79c0,2.5-2.02,4.52-4.5,4.52-1.24,0-2.36-.5-3.18-1.33ZM400.13,457.66v14.71c0,1.23-.5,2.36-1.3,3.18-.82.83-1.95,1.33-3.19,1.33-2.47,0-4.51-2.02-4.51-4.5v-7.36s0,0,0,0v-7.36c0-2.48,2.04-4.5,4.5-4.5,1.24,0,2.36.5,3.18,1.33.82.81,1.32,1.94,1.32,3.2ZM412.49,480.52s-2.62,1.81-2.36,3.99v3.47c-.26,6.45-4.58,6.45-7.28,6.45-.06,0-.06-28.54.02-28.54,2.5,0,7.02-.08,6.26,6.35v3.95c.76,2.4,3.36,4.33,3.36,4.33ZM389.15,465.9c.06-.02.06,28.54,0,28.54-2.7,0-7.02,0-7.02-6.45v-3.47c0-2.18-2.62-3.99-2.62-3.99,0,0,2.62-1.92,2.62-4.33v-3.95c0-6.43,4.52-6.35,7.02-6.35ZM398.81,261.52c-.82-.83-1.94-1.33-3.18-1.33-2.46,0-4.5,2.02-4.5,4.5v14.72c.01,2.48,2.05,4.5,4.51,4.5,1.25,0,2.37-.5,3.19-1.33.8-.81,1.3-1.94,1.3-3.18v-14.71c0-1.25-.5-2.38-1.32-3.2ZM392.45,508.88c-.82-.81-1.32-1.94-1.32-3.2v-18.79c0-1.23.5-2.36,1.32-3.18.82-.81,1.94-1.33,3.18-1.33,2.48,0,4.5,2.02,4.5,4.5v18.79c0,2.5-2.02,4.52-4.5,4.52-1.24,0-2.36-.5-3.18-1.33ZM398.81,389.52c-.82-.83-1.94-1.33-3.18-1.33-2.46,0-4.5,2.02-4.5,4.5v14.72c.01,2.48,2.05,4.5,4.51,4.5,1.25,0,2.37-.5,3.19-1.33.8-.81,1.3-1.94,1.3-3.18v-14.71c0-1.25-.5-2.38-1.32-3.2ZM412.49,448.43s-2.62,1.81-2.36,3.99v3.47c-.26,6.45-4.58,6.45-7.28,6.45-.06,0-.06-28.54.02-28.54,2.5,0,7.02-.08,6.26,6.35v3.95c.76,2.4,3.36,4.33,3.36,4.33ZM412.49,416.6s-2.62,1.81-2.36,3.99v3.47c-.26,6.45-4.58,6.45-7.28,6.45-.06,0-.06-28.54.02-28.54,2.5,0,7.02-.08,6.26,6.35v3.95c.76,2.4,3.36,4.33,3.36,4.33ZM389.15,433.83c.06-.02.06,28.54,0,28.54-2.7,0-7.02,0-7.02-6.45v-3.47c0-2.18-2.62-3.99-2.62-3.99,0,0,2.62-1.92,2.62-4.33v-3.95c0-6.43,4.52-6.35,7.02-6.35ZM389.15,401.97c.06-.02.06,28.54,0,28.54-2.7,0-7.02,0-7.02-6.45v-3.47c0-2.18-2.62-3.99-2.62-3.99,0,0,2.62-1.92,2.62-4.33v-3.95c0-6.43,4.52-6.35,7.02-6.35ZM392.45,444.96c-.82-.81-1.32-1.94-1.32-3.2v-18.79c0-1.23.5-2.36,1.32-3.18.82-.81,1.94-1.33,3.18-1.33,2.48,0,4.5,2.02,4.5,4.5v18.79c0,2.5-2.02,4.52-4.5,4.52-1.24,0-2.36-.5-3.18-1.33ZM400.13,329.66v14.71c0,1.23-.5,2.36-1.3,3.18-.82.83-1.95,1.33-3.19,1.33-2.47,0-4.51-2.02-4.51-4.5v-7.36s0,0,0,0v-7.36c0-2.48,2.04-4.5,4.5-4.5,1.24,0,2.36.5,3.18,1.33.82.81,1.32,1.94,1.32,3.2ZM412.49,384.52s-2.62,1.81-2.36,3.99v3.47c-.26,6.45-4.58,6.45-7.28,6.45-.06,0-.06-28.54.02-28.54,2.5,0,7.02-.08,6.26,6.35v3.95c.76,2.4,3.36,4.33,3.36,4.33ZM412.49,352.69s-2.62,1.81-2.36,3.99v3.47c-.26,6.45-4.58,6.45-7.28,6.45-.06,0-.06-28.54.02-28.54,2.5,0,7.02-.08,6.26,6.35v3.95c.76,2.4,3.36,4.33,3.36,4.33ZM389.15,369.92c.06-.02.06,28.54,0,28.54-2.7,0-7.02,0-7.02-6.45v-3.47c0-2.18-2.62-3.99-2.62-3.99,0,0,2.62-1.92,2.62-4.33v-3.95c0-6.43,4.52-6.35,7.02-6.35ZM389.15,338.06c.06-.02.06,28.54,0,28.54-2.7,0-7.02,0-7.02-6.45v-3.47c0-2.18-2.62-3.99-2.62-3.99,0,0,2.62-1.92,2.62-4.33v-3.95c0-6.43,4.52-6.35,7.02-6.35ZM392.45,381.05c-.82-.81-1.32-1.94-1.32-3.2v-18.79c0-1.23.5-2.36,1.32-3.18.82-.81,1.94-1.33,3.18-1.33,2.48,0,4.5,2.02,4.5,4.5v18.79c0,2.5-2.02,4.52-4.5,4.52-1.24,0-2.36-.5-3.18-1.33ZM412.49,320.6s-2.62,1.81-2.36,3.99v3.47c-.26,6.45-4.58,6.45-7.28,6.45-.06,0-.06-28.54.02-28.54,2.5,0,7.02-.08,6.26,6.35v3.95c.76,2.4,3.36,4.33,3.36,4.33ZM412.49,288.77s-2.62,1.81-2.36,3.99v3.47c-.26,6.45-4.58,6.45-7.28,6.45-.06,0-.06-28.54.02-28.54,2.5,0,7.02-.08,6.26,6.35v3.95c.76,2.4,3.36,4.33,3.36,4.33ZM389.15,305.99c.06-.02.06,28.54,0,28.54-2.7,0-7.02,0-7.02-6.45v-3.47c0-2.18-2.62-3.99-2.62-3.99,0,0,2.62-1.92,2.62-4.33v-3.95c0-6.43,4.52-6.35,7.02-6.35ZM389.15,274.14c.06-.02.06,28.54,0,28.54-2.7,0-7.02,0-7.02-6.45v-3.47c0-2.18-2.62-3.99-2.62-3.99,0,0,2.62-1.92,2.62-4.33v-3.95c0-6.43,4.52-6.35,7.02-6.35ZM392.45,317.13c-.82-.81-1.32-1.94-1.32-3.2v-18.79c0-1.23.5-2.36,1.32-3.18.82-.81,1.94-1.33,3.18-1.33,2.48,0,4.5,2.02,4.5,4.5v18.79c0,2.5-2.02,4.52-4.5,4.52-1.24,0-2.36-.5-3.18-1.33ZM389.15,497.75c-2.5,0-7.02-.08-7.02,6.35v3.95c0,1.77-1.43,3.28-2.17,3.95h9.23c0-7.13-.01-14.25-.04-14.25ZM409.13,508.03v-3.95c.76-6.43-3.76-6.35-6.26-6.35-.04,0-.06,7.13-.06,14.27h9.24c-.77-.65-2.35-2.18-2.92-3.97ZM400.13,201.66v14.71c0,1.23-.5,2.36-1.3,3.18-.82.83-1.95,1.33-3.19,1.33-2.47,0-4.51-2.02-4.51-4.5v-7.36s0,0,0,0v-7.36c0-2.48,2.04-4.5,4.5-4.5,1.24,0,2.36.5,3.18,1.33.82.81,1.32,1.94,1.32,3.2ZM412.49,224.52s-2.62,1.81-2.36,3.99v3.47c-.26,6.45-4.58,6.45-7.28,6.45-.06,0-.06-28.54.02-28.54,2.5,0,7.02-.08,6.26,6.35v3.95c.76,2.4,3.36,4.33,3.36,4.33ZM389.15,209.9c.06-.02.06,28.54,0,28.54-2.7,0-7.02,0-7.02-6.45v-3.47c0-2.18-2.62-3.99-2.62-3.99,0,0,2.62-1.92,2.62-4.33v-3.95c0-6.43,4.52-6.35,7.02-6.35ZM412.49.36s-.17-.13-.44-.36h-9.24c-.01,7.13.01,14.27.04,14.27,2.7,0,7.02,0,7.28-6.45v-3.47c-.26-2.18,2.36-3.99,2.36-3.99ZM389.19,0h-9.23c-.27.25-.45.38-.45.38,0,0,2.62,1.81,2.62,3.99v3.47c0,6.45,4.32,6.45,7.02,6.45.03,0,.05-7.14.04-14.29ZM398.81,5.52c-.82-.83-1.94-1.33-3.18-1.33-2.46,0-4.5,2.02-4.5,4.5v14.72c.01,2.48,2.05,4.5,4.51,4.5,1.25,0,2.37-.5,3.19-1.33.8-.81,1.3-1.94,1.3-3.18v-14.71c0-1.25-.5-2.38-1.32-3.2ZM392.45,252.88c-.82-.81-1.32-1.94-1.32-3.2v-18.79c0-1.23.5-2.36,1.32-3.18.82-.81,1.94-1.33,3.18-1.33,2.48,0,4.5,2.02,4.5,4.5v18.79c0,2.5-2.02,4.52-4.5,4.52-1.24,0-2.36-.5-3.18-1.33ZM398.81,133.52c-.82-.83-1.94-1.33-3.18-1.33-2.46,0-4.5,2.02-4.5,4.5v14.72c.01,2.48,2.05,4.5,4.51,4.5,1.25,0,2.37-.5,3.19-1.33.8-.81,1.3-1.94,1.3-3.18v-14.71c0-1.25-.5-2.38-1.32-3.2ZM412.49,192.43s-2.62,1.81-2.36,3.99v3.47c-.26,6.45-4.58,6.45-7.28,6.45-.06,0-.06-28.54.02-28.54,2.5,0,7.02-.08,6.26,6.35v3.95c.76,2.4,3.36,4.33,3.36,4.33ZM412.49,160.6s-2.62,1.81-2.36,3.99v3.47c-.26,6.45-4.58,6.45-7.28,6.45-.06,0-.06-28.54.02-28.54,2.5,0,7.02-.08,6.26,6.35v3.95c.76,2.4,3.36,4.33,3.36,4.33ZM389.15,177.83c.06-.02.06,28.54,0,28.54-2.7,0-7.02,0-7.02-6.45v-3.47c0-2.18-2.62-3.99-2.62-3.99,0,0,2.62-1.92,2.62-4.33v-3.95c0-6.43,4.52-6.35,7.02-6.35ZM389.15,145.97c.06-.02.06,28.54,0,28.54-2.7,0-7.02,0-7.02-6.45v-3.47c0-2.18-2.62-3.99-2.62-3.99,0,0,2.62-1.92,2.62-4.33v-3.95c0-6.43,4.52-6.35,7.02-6.35ZM392.45,188.96c-.82-.81-1.32-1.94-1.32-3.2v-18.79c0-1.23.5-2.36,1.32-3.18.82-.81,1.94-1.33,3.18-1.33,2.48,0,4.5,2.02,4.5,4.5v18.79c0,2.5-2.02,4.52-4.5,4.52-1.24,0-2.36-.5-3.18-1.33ZM400.13,73.66v14.71c0,1.23-.5,2.36-1.3,3.18-.82.83-1.95,1.33-3.19,1.33-2.47,0-4.51-2.02-4.51-4.5v-7.36s0,0,0,0v-7.36c0-2.48,2.04-4.5,4.5-4.5,1.24,0,2.36.5,3.18,1.33.82.81,1.32,1.94,1.32,3.2ZM412.49,128.52s-2.62,1.81-2.36,3.99v3.47c-.26,6.45-4.58,6.45-7.28,6.45-.06,0-.06-28.54.02-28.54,2.5,0,7.02-.08,6.26,6.35v3.95c.76,2.4,3.36,4.33,3.36,4.33ZM412.49,96.69s-2.62,1.81-2.36,3.99v3.47c-.26,6.45-4.58,6.45-7.28,6.45-.06,0-.06-28.54.02-28.54,2.5,0,7.02-.08,6.26,6.35v3.95c.76,2.4,3.36,4.33,3.36,4.33ZM389.15,113.92c.06-.02.06,28.54,0,28.54-2.7,0-7.02,0-7.02-6.45v-3.47c0-2.18-2.62-3.99-2.62-3.99,0,0,2.62-1.92,2.62-4.33v-3.95c0-6.43,4.52-6.35,7.02-6.35ZM389.15,82.06c.06-.02.06,28.54,0,28.54-2.7,0-7.02,0-7.02-6.45v-3.47c0-2.18-2.62-3.99-2.62-3.99,0,0,2.62-1.92,2.62-4.33v-3.95c0-6.43,4.52-6.35,7.02-6.35ZM392.45,125.05c-.82-.81-1.32-1.94-1.32-3.2v-18.79c0-1.23.5-2.36,1.32-3.18.82-.81,1.94-1.33,3.18-1.33,2.48,0,4.5,2.02,4.5,4.5v18.79c0,2.5-2.02,4.52-4.5,4.52-1.24,0-2.36-.5-3.18-1.33ZM412.49,64.6s-2.62,1.81-2.36,3.99v3.47c-.26,6.45-4.58,6.45-7.28,6.45-.06,0-.06-28.54.02-28.54,2.5,0,7.02-.08,6.26,6.35v3.95c.76,2.4,3.36,4.33,3.36,4.33ZM412.49,32.77s-2.62,1.81-2.36,3.99v3.47c-.26,6.45-4.58,6.45-7.28,6.45-.06,0-.06-28.54.02-28.54,2.5,0,7.02-.08,6.26,6.35v3.95c.76,2.4,3.36,4.33,3.36,4.33ZM389.15,49.99c.06-.02.06,28.54,0,28.54-2.7,0-7.02,0-7.02-6.45v-3.47c0-2.18-2.62-3.99-2.62-3.99,0,0,2.62-1.92,2.62-4.33v-3.95c0-6.43,4.52-6.35,7.02-6.35ZM389.15,18.14c.06-.02.06,28.54,0,28.54-2.7,0-7.02,0-7.02-6.45v-3.47c0-2.18-2.62-3.99-2.62-3.99,0,0,2.62-1.92,2.62-4.33v-3.95c0-6.43,4.52-6.35,7.02-6.35ZM392.45,61.13c-.82-.81-1.32-1.94-1.32-3.2v-18.79c0-1.23.5-2.36,1.32-3.18.82-.81,1.94-1.33,3.18-1.33,2.48,0,4.5,2.02,4.5,4.5v18.79c0,2.5-2.02,4.52-4.5,4.52-1.24,0-2.36-.5-3.18-1.33ZM389.19,256c0-7.13-.01-14.25-.04-14.25-2.5,0-7.02-.08-7.02,6.35v3.95c0,1.77-1.43,3.29-2.17,3.95-.27.25-.45.38-.45.38,0,0,2.62,1.8,2.62,3.99v3.47c0,6.45,4.32,6.45,7.02,6.45.03,0,.05-7.15.04-14.29ZM412.49,256.36s-.17-.13-.44-.36c-.77-.65-2.35-2.18-2.92-3.97v-3.95c.76-6.43-3.76-6.35-6.26-6.35-.04,0-.06,7.14-.06,14.27-.01,7.13.01,14.27.04,14.27,2.7,0,7.02,0,7.28-6.45v-3.47c-.26-2.19,2.36-3.99,2.36-3.99Z"/>
</svg>