<?xml version="1.0" encoding="UTF-8"?>
<svg id="a" data-name="CHAT BORDER" xmlns="http://www.w3.org/2000/svg" xmlns:xlink="http://www.w3.org/1999/xlink" viewBox="0 0 512 512">
  <defs>
    <style>
      .h {
        fill: #000;
      }

      .h, .i, .j {
        stroke-width: 0px;
      }

      .i {
        fill: url(#g);
      }

      .j {
        fill: none;
      }

      .k {
        clip-path: url(#c);
      }
    </style>
    <clipPath id="c">
      <path id="d" data-name="chain-mask" class="j" d="M512,512H0V0h512v512ZM502,30H10v425h492V30Z"/>
    </clipPath>
    <linearGradient id="g" x1="12.06" y1="29.93" x2="495" y2="450.76" gradientUnits="userSpaceOnUse">
      <stop offset="0" stop-color="#fffec8"/>
      <stop offset="1" stop-color="#968c6a"/>
    </linearGradient>
  </defs>
  <g id="b" data-name="chain-clip-group">
    <g class="k">
      <path id="e" data-name="CHAINS" class="h" d="M120.13,440.66v14.71c0,1.23-.5,2.36-1.3,3.18-.82.83-1.95,1.33-3.19,1.33-2.47,0-4.51-2.02-4.51-4.5v-7.36s0,0,0,0v-7.36c0-2.48,2.04-4.5,4.5-4.5,1.24,0,2.36.5,3.18,1.33.82.81,1.32,1.94,1.32,3.2ZM132.49,496.3s-2.62,1.81-2.36,3.99v3.47c-.26,6.45-4.58,6.45-7.28,6.45-.06,0-.06-28.54.02-28.54,2.5,0,7.02-.08,6.26,6.35v3.95c.76,2.4,3.36,4.33,3.36,4.33ZM132.49,464.47s-2.62,1.81-2.36,3.99v3.47c-.26,6.45-4.58,6.45-7.28,6.45-.06,0-.06-28.54.02-28.54,2.5,0,7.02-.08,6.26,6.35v3.95c.76,2.4,3.36,4.33,3.36,4.33ZM109.15,481.7c.06-.02.06,28.54,0,28.54-2.7,0-7.02,0-7.02-6.45v-3.47c0-2.18-2.62-3.99-2.62-3.99,0,0,2.62-1.92,2.62-4.33v-3.95c0-6.43,4.52-6.35,7.02-6.35ZM109.15,449.84c.06-.02.06,28.54,0,28.54-2.7,0-7.02,0-7.02-6.45v-3.47c0-2.18-2.62-3.99-2.62-3.99,0,0,2.62-1.92,2.62-4.33v-3.95c0-6.43,4.52-6.35,7.02-6.35ZM118.81,501.46c.82.81,1.32,1.94,1.32,3.2v7.34h-9v-7.36c0-2.48,2.04-4.5,4.5-4.5,1.24,0,2.36.5,3.18,1.33ZM112.45,492.83c-.82-.81-1.32-1.94-1.32-3.2v-18.79c0-1.23.5-2.36,1.32-3.18.82-.81,1.94-1.33,3.18-1.33,2.48,0,4.5,2.02,4.5,4.5v18.79c0,2.5-2.02,4.52-4.5,4.52-1.24,0-2.36-.5-3.18-1.33ZM118.81,373.46c-.82-.83-1.94-1.33-3.18-1.33-2.46,0-4.5,2.02-4.5,4.5v14.72c.01,2.48,2.05,4.5,4.51,4.5,1.25,0,2.37-.5,3.19-1.33.8-.81,1.3-1.94,1.3-3.18v-14.71c0-1.25-.5-2.38-1.32-3.2ZM132.49,432.38s-2.62,1.81-2.36,3.99v3.47c-.26,6.45-4.58,6.45-7.28,6.45-.06,0-.06-28.54.02-28.54,2.5,0,7.02-.08,6.26,6.35v3.95c.76,2.4,3.36,4.33,3.36,4.33ZM132.49,400.54s-2.62,1.81-2.36,3.99v3.47c-.26,6.45-4.58,6.45-7.28,6.45-.06,0-.06-28.54.02-28.54,2.5,0,7.02-.08,6.26,6.35v3.95c.76,2.4,3.36,4.33,3.36,4.33ZM109.15,417.77c.06-.02.06,28.54,0,28.54-2.7,0-7.02,0-7.02-6.45v-3.47c0-2.18-2.62-3.99-2.62-3.99,0,0,2.62-1.92,2.62-4.33v-3.95c0-6.43,4.52-6.35,7.02-6.35ZM109.15,385.92c.06-.02.06,28.54,0,28.54-2.7,0-7.02,0-7.02-6.45v-3.47c0-2.18-2.62-3.99-2.62-3.99,0,0,2.62-1.92,2.62-4.33v-3.95c0-6.43,4.52-6.35,7.02-6.35ZM112.45,428.91c-.82-.81-1.32-1.94-1.32-3.2v-18.79c0-1.23.5-2.36,1.32-3.18.82-.81,1.94-1.33,3.18-1.33,2.48,0,4.5,2.02,4.5,4.5v18.79c0,2.5-2.02,4.52-4.5,4.52-1.24,0-2.36-.5-3.18-1.33ZM120.13,312.66v14.71c0,1.23-.5,2.36-1.3,3.18-.82.83-1.95,1.33-3.19,1.33-2.47,0-4.51-2.02-4.51-4.5v-7.36s0,0,0,0v-7.36c0-2.48,2.04-4.5,4.5-4.5,1.24,0,2.36.5,3.18,1.33.82.81,1.32,1.94,1.32,3.2ZM132.49,368.47s-2.62,1.81-2.36,3.99v3.47c-.26,6.45-4.58,6.45-7.28,6.45-.06,0-.06-28.54.02-28.54,2.5,0,7.02-.08,6.26,6.35v3.95c.76,2.4,3.36,4.33,3.36,4.33ZM132.49,336.63s-2.62,1.81-2.36,3.99v3.47c-.26,6.45-4.58,6.45-7.28,6.45-.06,0-.06-28.54.02-28.54,2.5,0,7.02-.08,6.26,6.35v3.95c.76,2.4,3.36,4.33,3.36,4.33ZM109.15,353.86c.06-.02.06,28.54,0,28.54-2.7,0-7.02,0-7.02-6.45v-3.47c0-2.18-2.62-3.99-2.62-3.99,0,0,2.62-1.92,2.62-4.33v-3.95c0-6.43,4.52-6.35,7.02-6.35ZM109.15,322.01c.06-.02.06,28.54,0,28.54-2.7,0-7.02,0-7.02-6.45v-3.47c0-2.18-2.62-3.99-2.62-3.99,0,0,2.62-1.92,2.62-4.33v-3.95c0-6.43,4.52-6.35,7.02-6.35ZM112.45,365c-.82-.81-1.32-1.94-1.32-3.2v-18.79c0-1.23.5-2.36,1.32-3.18.82-.81,1.94-1.33,3.18-1.33,2.48,0,4.5,2.02,4.5,4.5v18.79c0,2.5-2.02,4.52-4.5,4.52-1.24,0-2.36-.5-3.18-1.33ZM132.49,304.55s-2.62,1.81-2.36,3.99v3.47c-.26,6.45-4.58,6.45-7.28,6.45-.06,0-.06-28.54.02-28.54,2.5,0,7.02-.08,6.26,6.35v3.95c.76,2.4,3.36,4.33,3.36,4.33ZM132.49,272.71s-2.62,1.81-2.36,3.99v3.47c-.26,6.45-4.58,6.45-7.28,6.45-.06,0-.06-28.54.02-28.54,2.5,0,7.02-.08,6.26,6.35v3.95c.76,2.4,3.36,4.33,3.36,4.33ZM109.15,289.94c.06-.02.06,28.54,0,28.54-2.7,0-7.02,0-7.02-6.45v-3.47c0-2.18-2.62-3.99-2.62-3.99,0,0,2.62-1.92,2.62-4.33v-3.95c0-6.43,4.52-6.35,7.02-6.35ZM109.15,258.08c.06-.02.06,28.54,0,28.54-2.7,0-7.02,0-7.02-6.45v-3.47c0-2.18-2.62-3.99-2.62-3.99,0,0,2.62-1.92,2.62-4.33v-3.95c0-6.43,4.52-6.35,7.02-6.35ZM112.45,301.07c-.82-.81-1.32-1.94-1.32-3.2v-18.79c0-1.23.5-2.36,1.32-3.18.82-.81,1.94-1.33,3.18-1.33,2.48,0,4.5,2.02,4.5,4.5v18.79c0,2.5-2.02,4.52-4.5,4.52-1.24,0-2.36-.5-3.18-1.33ZM120.13,184.66v14.71c0,1.23-.5,2.36-1.3,3.18-.82.83-1.95,1.33-3.19,1.33-2.47,0-4.51-2.02-4.51-4.5v-7.36s0,0,0,0v-7.36c0-2.48,2.04-4.5,4.5-4.5,1.24,0,2.36.5,3.18,1.33.82.81,1.32,1.94,1.32,3.2ZM132.49,240.3s-2.62,1.81-2.36,3.99v3.47c-.26,6.45-4.58,6.45-7.28,6.45-.06,0-.06-28.54.02-28.54,2.5,0,7.02-.08,6.26,6.35v3.95c.76,2.4,3.36,4.33,3.36,4.33ZM132.49,208.47s-2.62,1.81-2.36,3.99v3.47c-.26,6.45-4.58,6.45-7.28,6.45-.06,0-.06-28.54.02-28.54,2.5,0,7.02-.08,6.26,6.35v3.95c.76,2.4,3.36,4.33,3.36,4.33ZM109.15,225.7c.06-.02.06,28.54,0,28.54-2.7,0-7.02,0-7.02-6.45v-3.47c0-2.18-2.62-3.99-2.62-3.99,0,0,2.62-1.92,2.62-4.33v-3.95c0-6.43,4.52-6.35,7.02-6.35ZM109.15,193.84c.06-.02.06,28.54,0,28.54-2.7,0-7.02,0-7.02-6.45v-3.47c0-2.18-2.62-3.99-2.62-3.99,0,0,2.62-1.92,2.62-4.33v-3.95c0-6.43,4.52-6.35,7.02-6.35ZM118.81,245.46c-.82-.83-1.94-1.33-3.18-1.33-2.46,0-3.5,4.5-3.5,4.5v7.36l-1,7.36c0,2.48,2.04,4.51,4.51,4.51,1.25,0,2.37-.5,3.19-1.33.8-.81,1.3-1.95,1.3-3.18v-14.7c0-1.25-.5-2.38-1.32-3.2ZM112.45,236.83c-.82-.81-1.32-1.94-1.32-3.2v-18.79c0-1.23.5-2.36,1.32-3.18.82-.81,1.94-1.33,3.18-1.33,2.48,0,4.5,2.02,4.5,4.5v18.79c0,2.5-2.02,4.52-4.5,4.52-1.24,0-2.36-.5-3.18-1.33ZM118.81,117.46c-.82-.83-1.94-1.33-3.18-1.33-2.46,0-4.5,2.02-4.5,4.5v14.72c.01,2.48,2.05,4.5,4.51,4.5,1.25,0,2.37-.5,3.19-1.33.8-.81,1.3-1.94,1.3-3.18v-14.71c0-1.25-.5-2.38-1.32-3.2ZM132.49,176.38s-2.62,1.81-2.36,3.99v3.47c-.26,6.45-4.58,6.45-7.28,6.45-.06,0-.06-28.54.02-28.54,2.5,0,7.02-.08,6.26,6.35v3.95c.76,2.4,3.36,4.33,3.36,4.33ZM132.49,144.54s-2.62,1.81-2.36,3.99v3.47c-.26,6.45-4.58,6.45-7.28,6.45-.06,0-.06-28.54.02-28.54,2.5,0,7.02-.08,6.26,6.35v3.95c.76,2.4,3.36,4.33,3.36,4.33ZM109.15,161.77c.06-.02.06,28.54,0,28.54-2.7,0-7.02,0-7.02-6.45v-3.47c0-2.18-2.62-3.99-2.62-3.99,0,0,2.62-1.92,2.62-4.33v-3.95c0-6.43,4.52-6.35,7.02-6.35ZM109.15,129.92c.06-.02.06,28.54,0,28.54-2.7,0-7.02,0-7.02-6.45v-3.47c0-2.18-2.62-3.99-2.62-3.99,0,0,2.62-1.92,2.62-4.33v-3.95c0-6.43,4.52-6.35,7.02-6.35ZM112.45,172.91c-.82-.81-1.32-1.94-1.32-3.2v-18.79c0-1.23.5-2.36,1.32-3.18.82-.81,1.94-1.33,3.18-1.33,2.48,0,4.5,2.02,4.5,4.5v18.79c0,2.5-2.02,4.52-4.5,4.52-1.24,0-2.36-.5-3.18-1.33ZM120.13,56.66v14.71c0,1.23-.5,2.36-1.3,3.18-.82.83-1.95,1.33-3.19,1.33-2.47,0-4.51-2.02-4.51-4.5v-7.36s0,0,0,0v-7.36c0-2.48,2.04-4.5,4.5-4.5,1.24,0,2.36.5,3.18,1.33.82.81,1.32,1.94,1.32,3.2ZM132.49,112.47s-2.62,1.81-2.36,3.99v3.47c-.26,6.45-4.58,6.45-7.28,6.45-.06,0-.06-28.54.02-28.54,2.5,0,7.02-.08,6.26,6.35v3.95c.76,2.4,3.36,4.33,3.36,4.33ZM132.49,80.63s-2.62,1.81-2.36,3.99v3.47c-.26,6.45-4.58,6.45-7.28,6.45-.06,0-.06-28.54.02-28.54,2.5,0,7.02-.08,6.26,6.35v3.95c.76,2.4,3.36,4.33,3.36,4.33ZM109.15,97.86c.06-.02.06,28.54,0,28.54-2.7,0-7.02,0-7.02-6.45v-3.47c0-2.18-2.62-3.99-2.62-3.99,0,0,2.62-1.92,2.62-4.33v-3.95c0-6.43,4.52-6.35,7.02-6.35ZM109.15,66.01c.06-.02.06,28.54,0,28.54-2.7,0-7.02,0-7.02-6.45v-3.47c0-2.18-2.62-3.99-2.62-3.99,0,0,2.62-1.92,2.62-4.33v-3.95c0-6.43,4.52-6.35,7.02-6.35ZM112.45,109c-.82-.81-1.32-1.94-1.32-3.2v-18.79c0-1.23.5-2.36,1.32-3.18.82-.81,1.94-1.33,3.18-1.33,2.48,0,4.5,2.02,4.5,4.5v18.79c0,2.5-2.02,4.52-4.5,4.52-1.24,0-2.36-.5-3.18-1.33ZM111.14,7.36c0,2.48,2.04,4.5,4.51,4.5,1.24,0,2.36-.5,3.18-1.33.8-.81,1.3-1.94,1.3-3.18V0h-9v7.36ZM132.49,48.55s-2.62,1.81-2.36,3.99v3.47c-.26,6.45-4.58,6.45-7.28,6.45-.06,0-.06-28.54.02-28.54,2.5,0,7.02-.08,6.26,6.35v3.95c.76,2.4,3.36,4.33,3.36,4.33ZM132.49,16.71s-2.62,1.81-2.36,3.99v3.47c-.26,6.45-4.58,6.45-7.28,6.45-.06,0-.06-28.54.02-28.54,2.5,0,7.02-.08,6.26,6.35v3.95c.76,2.4,3.36,4.33,3.36,4.33ZM109.15,33.94c.06-.02.06,28.54,0,28.54-2.7,0-7.02,0-7.02-6.45v-3.47c0-2.18-2.62-3.99-2.62-3.99,0,0,2.62-1.92,2.62-4.33v-3.95c0-6.43,4.52-6.35,7.02-6.35ZM109.15,2.08c.06-.02.06,28.54,0,28.54-2.7,0-7.02,0-7.02-6.45v-3.47c0-2.18-2.62-3.99-2.62-3.99,0,0,2.62-1.92,2.62-4.33v-3.95c0-6.43,4.52-6.35,7.02-6.35ZM112.45,45.07c-.82-.81-1.32-1.94-1.32-3.2v-18.79c0-1.23.5-2.36,1.32-3.18.82-.81,1.94-1.33,3.18-1.33,2.48,0,4.5,2.02,4.5,4.5v18.79c0,2.5-2.02,4.52-4.5,4.52-1.24,0-2.36-.5-3.18-1.33ZM400.13,457.66v14.71c0,1.23-.5,2.36-1.3,3.18-.82.83-1.95,1.33-3.19,1.33-2.47,0-4.51-2.02-4.51-4.5v-7.36s0,0,0,0v-7.36c0-2.48,2.04-4.5,4.5-4.5,1.24,0,2.36.5,3.18,1.33.82.81,1.32,1.94,1.32,3.2ZM412.49,480.52s-2.62,1.81-2.36,3.99v3.47c-.26,6.45-4.58,6.45-7.28,6.45-.06,0-.06-28.54.02-28.54,2.5,0,7.02-.08,6.26,6.35v3.95c.76,2.4,3.36,4.33,3.36,4.33ZM389.15,465.9c.06-.02.06,28.54,0,28.54-2.7,0-7.02,0-7.02-6.45v-3.47c0-2.18-2.62-3.99-2.62-3.99,0,0,2.62-1.92,2.62-4.33v-3.95c0-6.43,4.52-6.35,7.02-6.35ZM398.81,261.52c-.82-.83-1.94-1.33-3.18-1.33-2.46,0-4.5,2.02-4.5,4.5v14.72c.01,2.48,2.05,4.5,4.51,4.5,1.25,0,2.37-.5,3.19-1.33.8-.81,1.3-1.94,1.3-3.18v-14.71c0-1.25-.5-2.38-1.32-3.2ZM392.45,508.88c-.82-.81-1.32-1.94-1.32-3.2v-18.79c0-1.23.5-2.36,1.32-3.18.82-.81,1.94-1.33,3.18-1.33,2.48,0,4.5,2.02,4.5,4.5v18.79c0,2.5-2.02,4.52-4.5,4.52-1.24,0-2.36-.5-3.18-1.33ZM398.81,389.52c-.82-.83-1.94-1.33-3.18-1.33-2.46,0-4.5,2.02-4.5,4.5v14.72c.01,2.48,2.05,4.5,4.51,4.5,1.25,0,2.37-.5,3.19-1.33.8-.81,1.3-1.94,1.3-3.18v-14.71c0-1.25-.5-2.38-1.32-3.2ZM412.49,448.43s-2.62,1.81-2.36,3.99v3.47c-.26,6.45-4.58,6.45-7.28,6.45-.06,0-.06-28.54.02-28.54,2.5,0,7.02-.08,6.26,6.35v3.95c.76,2.4,3.36,4.33,3.36,4.33ZM412.49,416.6s-2.62,1.81-2.36,3.99v3.47c-.26,6.45-4.58,6.45-7.28,6.45-.06,0-.06-28.54.02-28.54,2.5,0,7.02-.08,6.26,6.35v3.95c.76,2.4,3.36,4.33,3.36,4.33ZM389.15,433.83c.06-.02.06,28.54,0,28.54-2.7,0-7.02,0-7.02-6.45v-3.47c0-2.18-2.62-3.99-2.62-3.99,0,0,2.62-1.92,2.62-4.33v-3.95c0-6.43,4.52-6.35,7.02-6.35ZM389.15,401.97c.06-.02.06,28.54,0,28.54-2.7,0-7.02,0-7.02-6.45v-3.47c0-2.18-2.62-3.99-2.62-3.99,0,0,2.62-1.92,2.62-4.33v-3.95c0-6.43,4.52-6.35,7.02-6.35ZM392.45,444.96c-.82-.81-1.32-1.94-1.32-3.2v-18.79c0-1.23.5-2.36,1.32-3.18.82-.81,1.94-1.33,3.18-1.33,2.48,0,4.5,2.02,4.5,4.5v18.79c0,2.5-2.02,4.52-4.5,4.52-1.24,0-2.36-.5-3.18-1.33ZM400.13,329.66v14.71c0,1.23-.5,2.36-1.3,3.18-.82.83-1.95,1.33-3.19,1.33-2.47,0-4.51-2.02-4.51-4.5v-7.36s0,0,0,0v-7.36c0-2.48,2.04-4.5,4.5-4.5,1.24,0,2.36.5,3.18,1.33.82.81,1.32,1.94,1.32,3.2ZM412.49,384.52s-2.62,1.81-2.36,3.99v3.47c-.26,6.45-4.58,6.45-7.28,6.45-.06,0-.06-28.54.02-28.54,2.5,0,7.02-.08,6.26,6.35v3.95c.76,2.4,3.36,4.33,3.36,4.33ZM412.49,352.69s-2.62,1.81-2.36,3.99v3.47c-.26,6.45-4.58,6.45-7.28,6.45-.06,0-.06-28.54.02-28.54,2.5,0,7.02-.08,6.26,6.35v3.95c.76,2.4,3.36,4.33,3.36,4.33ZM389.15,369.92c.06-.02.06,28.54,0,28.54-2.7,0-7.02,0-7.02-6.45v-3.47c0-2.18-2.62-3.99-2.62-3.99,0,0,2.62-1.92,2.62-4.33v-3.95c0-6.43,4.52-6.35,7.02-6.35ZM389.15,338.06c.06-.02.06,28.54,0,28.54-2.7,0-7.02,0-7.02-6.45v-3.47c0-2.18-2.62-3.99-2.62-3.99,0,0,2.62-1.92,2.62-4.33v-3.95c0-6.43,4.52-6.35,7.02-6.35ZM392.45,381.05c-.82-.81-1.32-1.94-1.32-3.2v-18.79c0-1.23.5-2.36,1.32-3.18.82-.81,1.94-1.33,3.18-1.33,2.48,0,4.5,2.02,4.5,4.5v18.79c0,2.5-2.02,4.52-4.5,4.52-1.24,0-2.36-.5-3.18-1.33ZM412.49,320.6s-2.62,1.81-2.36,3.99v3.47c-.26,6.45-4.58,6.45-7.28,6.45-.06,0-.06-28.54.02-28.54,2.5,0,7.02-.08,6.26,6.35v3.95c.76,2.4,3.36,4.33,3.36,4.33ZM412.49,288.77s-2.62,1.81-2.36,3.99v3.47c-.26,6.45-4.58,6.45-7.28,6.45-.06,0-.06-28.54.02-28.54,2.5,0,7.02-.08,6.26,6.35v3.95c.76,2.4,3.36,4.33,3.36,4.33ZM389.15,305.99c.06-.02.06,28.54,0,28.54-2.7,0-7.02,0-7.02-6.45v-3.47c0-2.18-2.62-3.99-2.62-3.99,0,0,2.62-1.92,2.62-4.33v-3.95c0-6.43,4.52-6.35,7.02-6.35ZM389.15,274.14c.06-.02.06,28.54,0,28.54-2.7,0-7.02,0-7.02-6.45v-3.47c0-2.18-2.62-3.99-2.62-3.99,0,0,2.62-1.92,2.62-4.33v-3.95c0-6.43,4.52-6.35,7.02-6.35ZM392.45,317.13c-.82-.81-1.32-1.94-1.32-3.2v-18.79c0-1.23.5-2.36,1.32-3.18.82-.81,1.94-1.33,3.18-1.33,2.48,0,4.5,2.02,4.5,4.5v18.79c0,2.5-2.02,4.52-4.5,4.52-1.24,0-2.36-.5-3.18-1.33ZM389.15,497.75c-2.5,0-7.02-.08-7.02,6.35v3.95c0,1.77-1.43,3.28-2.17,3.95h9.23c0-7.13-.01-14.25-.04-14.25ZM409.13,508.03v-3.95c.76-6.43-3.76-6.35-6.26-6.35-.04,0-.06,7.13-.06,14.27h9.24c-.77-.65-2.35-2.18-2.92-3.97ZM400.13,201.66v14.71c0,1.23-.5,2.36-1.3,3.18-.82.83-1.95,1.33-3.19,1.33-2.47,0-4.51-2.02-4.51-4.5v-7.36s0,0,0,0v-7.36c0-2.48,2.04-4.5,4.5-4.5,1.24,0,2.36.5,3.18,1.33.82.81,1.32,1.94,1.32,3.2ZM412.49,224.52s-2.62,1.81-2.36,3.99v3.47c-.26,6.45-4.58,6.45-7.28,6.45-.06,0-.06-28.54.02-28.54,2.5,0,7.02-.08,6.26,6.35v3.95c.76,2.4,3.36,4.33,3.36,4.33ZM389.15,209.9c.06-.02.06,28.54,0,28.54-2.7,0-7.02,0-7.02-6.45v-3.47c0-2.18-2.62-3.99-2.62-3.99,0,0,2.62-1.92,2.62-4.33v-3.95c0-6.43,4.52-6.35,7.02-6.35ZM412.49.36s-.17-.13-.44-.36h-9.24c-.01,7.13.01,14.27.04,14.27,2.7,0,7.02,0,7.28-6.45v-3.47c-.26-2.18,2.36-3.99,2.36-3.99ZM389.19,0h-9.23c-.27.25-.45.38-.45.38,0,0,2.62,1.81,2.62,3.99v3.47c0,6.45,4.32,6.45,7.02,6.45.03,0,.05-7.14.04-14.29ZM398.81,5.52c-.82-.83-1.94-1.33-3.18-1.33-2.46,0-4.5,2.02-4.5,4.5v14.72c.01,2.48,2.05,4.5,4.51,4.5,1.25,0,2.37-.5,3.19-1.33.8-.81,1.3-1.94,1.3-3.18v-14.71c0-1.25-.5-2.38-1.32-3.2ZM392.45,252.88c-.82-.81-1.32-1.94-1.32-3.2v-18.79c0-1.23.5-2.36,1.32-3.18.82-.81,1.94-1.33,3.18-1.33,2.48,0,4.5,2.02,4.5,4.5v18.79c0,2.5-2.02,4.52-4.5,4.52-1.24,0-2.36-.5-3.18-1.33ZM398.81,133.52c-.82-.83-1.94-1.33-3.18-1.33-2.46,0-4.5,2.02-4.5,4.5v14.72c.01,2.48,2.05,4.5,4.51,4.5,1.25,0,2.37-.5,3.19-1.33.8-.81,1.3-1.94,1.3-3.18v-14.71c0-1.25-.5-2.38-1.32-3.2ZM412.49,192.43s-2.62,1.81-2.36,3.99v3.47c-.26,6.45-4.58,6.45-7.28,6.45-.06,0-.06-28.54.02-28.54,2.5,0,7.02-.08,6.26,6.35v3.95c.76,2.4,3.36,4.33,3.36,4.33ZM412.49,160.6s-2.62,1.81-2.36,3.99v3.47c-.26,6.45-4.58,6.45-7.28,6.45-.06,0-.06-28.54.02-28.54,2.5,0,7.02-.08,6.26,6.35v3.95c.76,2.4,3.36,4.33,3.36,4.33ZM389.15,177.83c.06-.02.06,28.54,0,28.54-2.7,0-7.02,0-7.02-6.45v-3.47c0-2.18-2.62-3.99-2.62-3.99,0,0,2.62-1.92,2.62-4.33v-3.95c0-6.43,4.52-6.35,7.02-6.35ZM389.15,145.97c.06-.02.06,28.54,0,28.54-2.7,0-7.02,0-7.02-6.45v-3.47c0-2.18-2.62-3.99-2.62-3.99,0,0,2.62-1.92,2.62-4.33v-3.95c0-6.43,4.52-6.35,7.02-6.35ZM392.45,188.96c-.82-.81-1.32-1.94-1.32-3.2v-18.79c0-1.23.5-2.36,1.32-3.18.82-.81,1.94-1.33,3.18-1.33,2.48,0,4.5,2.02,4.5,4.5v18.79c0,2.5-2.02,4.52-4.5,4.52-1.24,0-2.36-.5-3.18-1.33ZM400.13,73.66v14.71c0,1.23-.5,2.36-1.3,3.18-.82.83-1.95,1.33-3.19,1.33-2.47,0-4.51-2.02-4.51-4.5v-7.36s0,0,0,0v-7.36c0-2.48,2.04-4.5,4.5-4.5,1.24,0,2.36.5,3.18,1.33.82.81,1.32,1.94,1.32,3.2ZM412.49,128.52s-2.62,1.81-2.36,3.99v3.47c-.26,6.45-4.58,6.45-7.28,6.45-.06,0-.06-28.54.02-28.54,2.5,0,7.02-.08,6.26,6.35v3.95c.76,2.4,3.36,4.33,3.36,4.33ZM412.49,96.69s-2.62,1.81-2.36,3.99v3.47c-.26,6.45-4.58,6.45-7.28,6.45-.06,0-.06-28.54.02-28.54,2.5,0,7.02-.08,6.26,6.35v3.95c.76,2.4,3.36,4.33,3.36,4.33ZM389.15,113.92c.06-.02.06,28.54,0,28.54-2.7,0-7.02,0-7.02-6.45v-3.47c0-2.18-2.62-3.99-2.62-3.99,0,0,2.62-1.92,2.62-4.33v-3.95c0-6.43,4.52-6.35,7.02-6.35ZM389.15,82.06c.06-.02.06,28.54,0,28.54-2.7,0-7.02,0-7.02-6.45v-3.47c0-2.18-2.62-3.99-2.62-3.99,0,0,2.62-1.92,2.62-4.33v-3.95c0-6.43,4.52-6.35,7.02-6.35ZM392.45,125.05c-.82-.81-1.32-1.94-1.32-3.2v-18.79c0-1.23.5-2.36,1.32-3.18.82-.81,1.94-1.33,3.18-1.33,2.48,0,4.5,2.02,4.5,4.5v18.79c0,2.5-2.02,4.52-4.5,4.52-1.24,0-2.36-.5-3.18-1.33ZM412.49,64.6s-2.62,1.81-2.36,3.99v3.47c-.26,6.45-4.58,6.45-7.28,6.45-.06,0-.06-28.54.02-28.54,2.5,0,7.02-.08,6.26,6.35v3.95c.76,2.4,3.36,4.33,3.36,4.33ZM412.49,32.77s-2.62,1.81-2.36,3.99v3.47c-.26,6.45-4.58,6.45-7.28,6.45-.06,0-.06-28.54.02-28.54,2.5,0,7.02-.08,6.26,6.35v3.95c.76,2.4,3.36,4.33,3.36,4.33ZM389.15,49.99c.06-.02.06,28.54,0,28.54-2.7,0-7.02,0-7.02-6.45v-3.47c0-2.18-2.62-3.99-2.62-3.99,0,0,2.62-1.92,2.62-4.33v-3.95c0-6.43,4.52-6.35,7.02-6.35ZM389.15,18.14c.06-.02.06,28.54,0,28.54-2.7,0-7.02,0-7.02-6.45v-3.47c0-2.18-2.62-3.99-2.62-3.99,0,0,2.62-1.92,2.62-4.33v-3.95c0-6.43,4.52-6.35,7.02-6.35ZM392.45,61.13c-.82-.81-1.32-1.94-1.32-3.2v-18.79c0-1.23.5-2.36,1.32-3.18.82-.81,1.94-1.33,3.18-1.33,2.48,0,4.5,2.02,4.5,4.5v18.79c0,2.5-2.02,4.52-4.5,4.52-1.24,0-2.36-.5-3.18-1.33ZM389.19,256c0-7.13-.01-14.25-.04-14.25-2.5,0-7.02-.08-7.02,6.35v3.95c0,1.77-1.43,3.29-2.17,3.95-.27.25-.45.38-.45.38,0,0,2.62,1.8,2.62,3.99v3.47c0,6.45,4.32,6.45,7.02,6.45.03,0,.05-7.15.04-14.29ZM412.49,256.36s-.17-.13-.44-.36c-.77-.65-2.35-2.18-2.92-3.97v-3.95c.76-6.43-3.76-6.35-6.26-6.35-.04,0-.06,7.14-.06,14.27-.01,7.13.01,14.27.04,14.27,2.7,0,7.02,0,7.28-6.45v-3.47c-.26-2.19,2.36-3.99,2.36-3.99Z"/>
    </g>
  </g>
  <path id="f" data-name="[mask] center bg" class="h" d="M501.5,29.9v424.2h-214.1c-10.87-6.24-20.69-13.67-29.32-22.22l-2.59-2.57-2.59,2.57c-8.62,8.54-18.44,15.96-29.31,22.22H9.5V29.9h213.91c10.95,6.26,20.83,13.73,29.5,22.32l2.59,2.57,2.59-2.57c8.68-8.6,18.56-16.06,29.51-22.32h213.9Z"/>
  <path class="i" d="M255.96,23.7c-3.45,0-6.26,2.8-6.26,6.26s2.81,6.27,6.26,6.27,6.26-2.81,6.26-6.27-2.8-6.26-6.26-6.26ZM255.96,448.3c-3.45,0-6.26,2.8-6.26,6.26s2.81,6.26,6.26,6.26,6.26-2.8,6.26-6.26-2.8-6.26-6.26-6.26ZM512,20h-198.93c-8.19,0-16.24-.87-23.41,2.89-3.8,2-7.15,3.83-9.44,5.11h-13.09c.14.65.21,1.32.21,2s-.07,1.35-.21,2h5.67c-6.15,3.61-11.49,7.58-16.84,11.89-5.35-4.31-11.54-8.26-17.67-11.89h6.5c-.14-.65-.21-1.31-.21-2s.07-1.35.21-2h-13.9c-1.98-1.13-4.35-2.46-6.83-3.84-.11-.05-.23-.11-.33-.16h.12c-.35-.19-.7-.38-1.05-.58-7.42-4.09-15.87-3.42-24.48-3.42H0v445h198.32c8.61-.27,17.06.4,24.48-3.69.35-.2,1.05-.31,1.05-.31h-.12c.1-.05.22-.11.33-.16,2.48-1.38,4.84-2.7,6.83-3.84h13.9c-.14-.65-.21-1.32-.21-2s.07-1.35.21-2h-6.5c6.13-3.63,12.32-7.58,17.67-11.89,5.35,4.31,10.69,8.28,16.84,11.89h-5.67c.14.65.21,1.31.21,2s-.07,1.35-.21,2h13.09c2.29,1.28,5.64,3.11,9.44,5.11,7.17,3.76,15.22,2.89,23.41,2.89h198.93V20ZM504,24h4v4h-4v-4ZM12,24h186.81c6.52,0,10,.79,13.19,2.31,1.15.55,2.29,1.11,3.42,1.69H12v-4ZM8,461h-4v-4h4v4ZM4,452V32h4v420s-4,0-4,0ZM8,28h-4v-4h4v4ZM212,458.69c-3.19,1.52-6.67,2.31-13.19,2.31H12v-4h203.42c-1.13.58-2.27,1.14-3.42,1.69ZM499,461h-189.81c-3.47,0-6.92-.75-10.07-2.25-1.2-.57-2.38-1.15-3.55-1.75h203.43v4ZM499,452h-211.73c-10.84-6.19-20.62-13.59-29.21-22.1l-2.56-2.54-2.56,2.54c-8.58,8.5-18.36,15.89-29.2,22.1H12V32h211.74c10.84,6.2,20.62,13.6,29.2,22.1l2.56,2.54,2.56-2.54c8.59-8.51,18.37-15.9,29.21-22.1h211.73v420ZM499,28h-203.43c1.17-.6,2.35-1.18,3.55-1.75,3.15-1.5,6.6-2.25,10.07-2.25h189.81v4ZM508,461h-4v-4h4v4ZM504,452V32s4,0,4,0v420s-4,0-4,0Z"/>
</svg>