<?xml version="1.0" encoding="utf-8"?>
<!-- Generator: Adobe Illustrator 23.0.1, SVG Export Plug-In . SVG Version: 6.00 Build 0)  -->
<svg version="1.1" id="icon" xmlns="http://www.w3.org/2000/svg" xmlns:xlink="http://www.w3.org/1999/xlink" x="0px" y="0px"
	 viewBox="0 0 512 512" style="enable-background:new 0 0 512 512;" xml:space="preserve">
	<style type="text/css">
		.st0{fill:#968C6A;stroke:none;}
		.st1{fill:#413D2E;stroke:none;}
	</style>
	<path class="st0" d="M114.4,261.4c48.3,60.4,75.3,18.2,1.7-59.6c104,65,109.7-21.9-63.6-149.4C157.7,109,372.7,201.9,215.6,99.6
		c137.2,40.4,159.1-7.1,244-47.2c-20.1,27-42.2,52.6-48,80.3c-7.2,18.9-3,40.1,32.2,65.7c-127.7-34.6-90.5,48.7,9.6,108.6
		c-170.2-63.9-103.1,22.7,6.2,152.5c-86-63.2-262.8-117.9-234.9-39.4c-32.4-25.4-140.3,20-172.3,39.4c9.3-18.6,57.6-94,64-112.1
		C121.9,332,120.3,275.3,114.4,261.4z M369.1,164.7c0,0-2.1,0.1-2.9-10.6c-0.9-11.6,2.9-15.8,2.9-15.8s-7,11.2-27.2,12.3
		c-20,1-32.9-4.6-32.9-4.6s6.9,23.5,4,32.1c-15.8,47.5-117.6-26.8-117.6-26.8s65.3,75.6,49.7,96c-12.9,16.9-50.2,9.8-50.2,9.8
		s11.7,23.3-0.9,46.5c-20.1,37-47.9,26-47.9,26s6.4,15.4,0.8,27.2c-5.6,11.8-21.5,29.6-21.5,29.6s26.1-13.5,37.1-15.2
		c11-1.6,27.9,3,27.9,3s-6.5-30.5,17.1-53.6C232,296.5,317,341.8,317,341.8s-55.6-60.9-38.2-89.3c14.1-22.9,45.9-15.2,51.8-13.9
		c-10.3-25.4-9.2-36.9-0.2-51.4C344.2,164.9,369.1,164.7,369.1,164.7z"/>
	<path class="st1" d="M435.5,72.7c-14.1,19-26.2,37.6-30.7,58c-7,18.9-2.5,37,13.7,54.8c-9.1-1.5-17.3-2.3-24.5-2.3
		c-26.8,0-35.4,10.9-37.9,20c-4.7,17.2,9.4,38,22.1,52.5c8.5,9.7,19.1,19.6,31.1,29.3c-16-4.4-28.7-6.5-38.4-6.5
		c-13.5,0-22.2,4.2-26.1,12.5c-6.1,13.1,1.6,33.5,25.7,68.1c14.4,20.7,33.9,45.2,54.6,70.3c-20.1-11.3-42.4-21.9-65-30.8
		c-39.9-15.7-76-24.3-101.6-24.3c-19.1,0-32.3,4.9-39,14.4c-3.7,5.3-5.3,11.7-4.8,19.1c-5.5-1.5-11.9-2.2-19-2.2
		c-38.1,0-92.5,20.8-125.4,36.6c3.6-6.1,7.8-13,12-19.9c17.1-28.5,36.6-60.7,40.7-72.4c4.2-11.8,3.8-38.3,3.6-46.1
		c-0.1-3.7-0.4-11.6-1.1-20.1c9.9,8.8,19.1,13.5,26.8,13.5c6.6,0,11.9-3.4,14.5-9.4c5.7-13.3-2.9-36.6-22.6-63.3
		c10.6,4.3,19.9,6.5,27.6,6.5c16,0,21.4-9.2,23.2-14.6c6.2-19-11.4-47.1-27.3-67.3c-14.7-18.8-34.3-38.9-57.9-59.6
		c21.7,10.5,44.3,21,65.3,30.2c34,14.9,77.6,32.8,92.2,32.8c7.6,0,9.8-4.5,10.4-6.5c1.3-4.5,2.7-9.2-25.7-29.9
		c19.4,4,36.8,5.9,52.6,5.9c46.7,0,75.6-17,109.1-36.7C420.9,81.1,428,76.9,435.5,72.7 M459.6,52.4c-62.1,29.3-90.5,62.5-154.8,62.5
		c-23.7,0-52.3-4.5-89.2-15.4c51,33.2,62.8,45.9,51.9,45.9c-22.8,0-143.9-54.8-215.1-93c132.7,97.7,160.5,171.5,119.5,171.5
		c-12.5,0-31.5-6.9-55.8-22.1c49.3,52.1,53.5,88.3,36.3,88.3c-8.5,0-22.1-8.8-38-28.7c5.9,13.9,7.5,70.6,2.1,86.1
		c-6.4,18.1-54.7,93.5-64,112.1c25.3-15.4,98-47,143.4-47c12,0,22.1,2.2,28.9,7.5c-9.9-27.7,5.8-38.8,34-38.8
		c51.6,0,145.3,37.4,201,78.3c-84.1-99.8-143.1-174-88.6-174c16.4,0,43.1,6.7,82.4,21.5c-83.9-50.2-123.6-116.8-59.3-116.8
		c12.5,0,28.9,2.5,49.7,8.1c-35.2-25.6-39.4-46.8-32.2-65.7C417.4,105.1,439.5,79.4,459.6,52.4L459.6,52.4z"/>
</svg>
