<?xml version="1.0" encoding="utf-8"?>
<!-- Generator: Adobe Illustrator 28.2.0, SVG Export Plug-In . SVG Version: 6.00 Build 0)  -->
<svg version="1.1" id="icon" xmlns="http://www.w3.org/2000/svg" xmlns:xlink="http://www.w3.org/1999/xlink" x="0px" y="0px"
	 viewBox="0 0 512 512" style="enable-background:new 0 0 512 512;" xml:space="preserve">
<style type="text/css">
	.st0{fill:#FF0000;stroke:none;}
	.st1{fill:#9B2020;stroke:none;}
	.st2{fill:#460E0E;stroke:none;}
</style>
<path class="st0" d="M9,502.9c6-10.5,14.9-25.3,24.1-40.6c21.4-35.6,45.7-75.9,50.7-90.1c5.7-16.2,5.6-67.6,1-96
	c15.5,16.8,30,26.2,40.9,26.2c6.2,0,10.9-3.1,13.3-8.6c6.4-14.8-4.6-48.2-41.6-91.8c21.2,11.3,39.3,17.2,52.8,17.2
	c12.5,0,21.1-5.2,24.2-14.7c5.5-16.9-6.3-45.2-33.4-79.7c-25.1-32-61.6-67.1-106.6-102.9c87.6,44.5,209.3,98.6,236,98.6
	c5.5,0,7.4-2.4,8-4.4c1.1-3.8-1.2-8.8-16.1-21c-8.6-7-20.9-15.9-36.8-26.6c35.2,9.1,65.4,13.6,91.8,13.6
	c57.3,0,93.1-21.1,134.6-45.5c15.1-8.9,30.7-18,48.5-27.1c-0.8,1-1.5,2-2.3,3c-22.3,29.3-43.4,57-49.9,87.5
	c-9.9,26.5-0.8,51,28.8,76.2c-18.4-4.2-34.3-6.3-47.4-6.3c-30.3,0-39.9,11.6-42.6,21.3c-4.2,15.1,5.3,36.8,26.7,61.1
	c16,18.2,37.8,37,62.9,54.4c-33.9-11.4-58.9-17-76.1-17c-14.7,0-24.1,4.2-28,12.6c-12.9,27.8,40.5,97,120.2,192.3
	c-72.3-46.4-175.5-84.5-233.5-84.5c-22.2,0-37.3,5.4-44.7,15.9c-5.2,7.4-6.5,17.1-3.8,28.8c-8-3.6-18.2-5.4-30.4-5.4
	C126.4,449.4,45.7,483.3,9,502.9z"/>
<path class="st1" d="M406.1,124c0.4-18.1,52.3-78.7,52.3-78.7s-60.2,56.3-89.3,62.8c-24.2,5.4-99.4-20.7-99.4-20.7
	s65.4,44.4,40.9,73c-27.6,32.2-193.9-85-193.9-85s133.8,133.3,109.5,162c-18.9,22.3-78.9,0.4-78.9,0.4s43.6,38.7,18.8,74.7
	c-33.8,49.1-60.6,2.6-60.6,2.6s13.3,44.1-5,72.9c-13.3,21-56.8,80.1-57.9,81.7c1.3-1.3,42.6-46.8,91.9-54.6
	c43.8-6.9,56.6,10.5,56.6,10.5s-15.2-42.6,11.3-75.4c28.1-34.7,210.4,80.2,210.4,80.2S274.5,290.9,299,256c18.5-26.3,86,7.1,86,7.1
	s-41.3-53.1-21.4-85.4c13.2-23,64.6-25.8,64.6-25.8C408.5,144,405.8,138.3,406.1,124z"/>
<path class="st2" d="M349.6,169.5c-11.2,18.2-12.7,32.6,0.3,64.6c-7.5-1.6-47.5-11.4-65.2,17.5c-22,35.7,48,112.3,48,112.3
	s-106.9-57-137.9-26.6c-29.6,29.1-21.4,67.4-21.4,67.4s-21.3-5.8-35.1-3.7c-13.8,2-46.6,19.1-46.6,19.1s20.1-22.4,27.1-37.3
	s-1-34.2-1-34.2s34.9,13.9,60.3-32.7c15.9-29.2,1.1-58.5,1.1-58.5s46.9,8.9,63.1-12.3c19.6-25.7-62.5-120.7-62.5-120.7
	s127.9,93.4,147.8,33.7c3.6-10.8-5-40.3-5-40.3s16.3,7.1,41.4,5.8c25.4-1.3,34.2-15.5,34.2-15.5s-4.9,5.2-3.7,19.9
	c1.1,13.4,3.7,13.3,3.7,13.3S366.9,141.5,349.6,169.5z"/>
<path class="st1" d="M460.6,189.2c-19.9,0-36.1,16.2-36,36.2s16.2,36.1,36.2,36c19.9,0,36-16.2,36-36.1
	c0.2-19.8-15.8-35.9-35.5-36.1C461.1,189.2,460.9,189.2,460.6,189.2z"/>
<path class="st1" d="M354,1.5c-17.9,0-32.4,14.5-32.4,32.5c0,17.9,14.5,32.4,32.5,32.4c17.9,0,32.4-14.5,32.4-32.4
	c0.1-17.8-14.3-32.4-32.1-32.5C354.3,1.5,354.1,1.5,354,1.5z"/>
<path class="st1" d="M41.7,278c-17.9,0-32.4,14.5-32.4,32.5c0,17.9,14.5,32.4,32.5,32.4c17.9,0,32.4-14.5,32.4-32.4
	c0.1-17.8-14.3-32.4-32.1-32.5C41.9,278,41.8,278,41.7,278z"/>
<path class="st1" d="M125.4,146c-13.2,0-24,10.7-24,24c0,13.2,10.7,24,24,24s24-10.7,24-24l0,0c0.1-13.1-10.4-23.9-23.6-24
	C125.7,146,125.5,146,125.4,146z"/>
<path class="st1" d="M406.7,301.4c-10.3,0-18.7,8.3-18.7,18.7c0,10.3,8.3,18.7,18.7,18.7c10.3,0,18.7-8.3,18.7-18.7l0,0
	c0.1-10.3-8.2-18.6-18.5-18.7C406.9,301.4,406.8,301.4,406.7,301.4z"/>
<path class="st1" d="M351.9,440.9c-14.3,0-25.9,11.6-25.9,25.9s11.6,25.9,25.9,25.9s25.9-11.6,25.9-25.9
	c0.1-14.2-11.3-25.8-25.5-25.9C352.2,440.9,352.1,440.9,351.9,440.9L351.9,440.9z"/>
<path class="st0" d="M460.6,325.2c-19.9,0-36.1,16.2-36,36.2c0,19.9,16.2,36.1,36.2,36c19.9,0,36-16.2,36-36.1
	c0.2-19.8-15.8-35.9-35.5-36.1C461.1,325.2,460.9,325.2,460.6,325.2z"/>
<path class="st0" d="M115.9,256.8c-9.4,0-16.9,7.6-16.9,17s7.6,16.9,17,16.9s16.9-7.6,16.9-16.9s-7.5-16.9-16.8-16.9
	C115.9,256.8,115.9,256.8,115.9,256.8z"/>
<path class="st0" d="M479.5,97.5c-14.3,0-25.8,11.6-25.8,25.9s11.6,25.8,25.9,25.8c14.2,0,25.8-11.6,25.8-25.8
	c0.1-14.1-11.3-25.7-25.4-25.8C479.8,97.5,479.7,97.5,479.5,97.5L479.5,97.5z"/>
<path class="st0" d="M179.1,26.4c-14.9,0-25.8,17.2-13.9,32.8c15.6,11.9,32.8,1,32.8-13.9c0.1-10.4-8.3-18.9-18.7-18.9
	C179.2,26.4,179.2,26.4,179.1,26.4z"/>
<path class="st0" d="M54.3,69.9c-20.1,0-36.3,16.2-36.4,36.3c0,20.1,16.2,36.3,36.3,36.4s36.3-16.2,36.4-36.3l0,0
	C90.7,86.3,74.5,70,54.5,70C54.4,69.9,54.3,69.9,54.3,69.9z"/>
<path class="st0" d="M270.6,423.7c-20.9,0-37.8,16.9-37.8,37.8s16.9,37.8,37.8,37.8c20.8,0,37.8-16.9,37.8-37.8
	c0.1-20.8-16.7-37.7-37.5-37.8C270.8,423.7,270.7,423.7,270.6,423.7z"/>
<path class="st0" d="M409.4,467c-7.3,0-13.3,6-13.3,13.3s6,13.3,13.3,13.3s13.3-6,13.3-13.3c0.1-7.3-5.8-13.2-13.1-13.3
	C409.5,467,409.5,467,409.4,467L409.4,467z"/>
</svg>
