<?xml version="1.0" encoding="utf-8"?>
<!-- Generator: Adobe Illustrator 28.2.0, SVG Export Plug-In . SVG Version: 6.00 Build 0)  -->
<svg version="1.1" id="icon" xmlns="http://www.w3.org/2000/svg" xmlns:xlink="http://www.w3.org/1999/xlink" x="0px" y="0px"
	 viewBox="0 0 512 512" style="enable-background:new 0 0 512 512;" xml:space="preserve">
<style type="text/css">
	.st0{fill:#9B2020; stroke:none;}
	.st1{fill:#F03232; stroke:none;}
</style>
<path class="st0" d="M455.5,448.3c-0.7-0.3-75.3-32.2-117-43.8h-0.1c-38.6-12-117.3-25.7-118-25.9l-11.2-1.9l10.3-4.7
	c0.1,0,9-4.1,13.3-6.2c12.9-6.5,27.4-13.8,37.9-28.1c2.9-3.9,5.3-9,6.5-14.2c2.5-10.2-2.1-20-6.4-26.4
	c-7.3-10.9-16.7-17.6-25.8-24.1c-1.6-1.1-3.2-2.3-4.7-3.4c-39.2-28.6-169.7-53.1-171-53.4l-16.2-3l16-3.8
	c0.3-0.1,28.3-6.8,41.6-11.7c1.5-0.5,2.9-1.1,4.4-1.6c11.9-4.3,23.1-8.3,32.4-17.4c9.2-8.9,1.8-20.8-1.7-25.5
	C129.9,132.5,50.9,65,50.1,64.3L36.3,52.4l17.2,5.8c1.2,0.4,123.3,41.5,192.2,41.5c18.8,0,56.6-4,57-4.1l19.5-2.1l-17.6,8.7
	c-0.6,0.3-56.1,27.9-64.7,48.7c-4.5,10.8-1.8,21.1,9.2,34.3c22.3,27.1,161.8,69.1,163.2,69.5l19,5.7l-19.8,1.2
	c-19.6,1.2-72.3,7.6-80.8,23.2c-10.3,18.9,18,47,31.7,60.5c1.6,1.5,3,2.9,4.1,4.1c38.7,39.6,92.2,92.5,92.8,93l13.1,13L455.5,448.3z
	"/>
<path class="st1" d="M296.2,328.1c3.3-13.5,0.2-28-9.1-41.9c-9.4-14.1-21.5-25-37.1-33.6c-16.7-9.1-36.5-19.5-56.3-27.2
	c-18.3-7.1-37.2-12.9-56.4-17.1c8.2-3.7,16.4-8.4,23.9-15.7c13.7-13.3,13.8-33.4,0.2-51.3c-12.7-16.5-26.7-28.8-40.7-40
	c40.9,11.6,81.3,17.6,120.6,18c-7.3,5.7-13.8,13.8-18.7,22.9c-9.9,18.4-5.1,39.8,12.7,57c13.8,13.3,28.8,21.4,41.7,27.6
	c16.7,8,31.6,14.2,45.6,19c5.4,1.8,10.8,3.7,16.2,5.4c-5.5,2.4-11,5.7-16.2,10.3c-6.9,6.1-21.2,23.7-6,54.7
	c10.1,20.4,23.8,34.5,36,47c14.1,14.5,28.6,28.2,43.2,41.4c-45-17.9-86.6-30.4-126.1-38.2c6-4.7,11.7-10.2,16.8-17.2
	C291,343.1,294.3,335.8,296.2,328.1z"/>
</svg>
