<?xml version="1.0" encoding="utf-8"?>
<!-- Generator: Adobe Illustrator 23.0.1, SVG Export Plug-In . SVG Version: 6.00 Build 0)  -->
<svg version="1.1" id="icon" xmlns="http://www.w3.org/2000/svg" xmlns:xlink="http://www.w3.org/1999/xlink" x="0px" y="0px"
	 viewBox="0 0 512 512" style="enable-background:new 0 0 512 512;" xml:space="preserve">
	<style type="text/css">
		.st0{fill:#968C6A;stroke:none;}
		.st1{fill:#413D2E;stroke:none;}
	</style>
	<path class="st0" d="M269.9,322.6c-8.5,11.6-19.8,17.5-31.2,23.2c-3.5,1.7-10.7,5-10.7,5s63,10.9,94.2,20.7
		c33.7,9.3,93.4,34.9,93.4,34.9s-42.7-42.1-73.8-74c-9.6-9.9-39.1-36-28.9-54.7c9-16.5,66.5-19.9,66.5-19.9S266.9,224,248.4,201.6
		c-9.2-11.1-11.8-20.3-7.7-30.1c7.3-17.7,52.8-40.2,52.8-40.2s-30.4,3.3-45.6,3.3c-55.9,0-153.7-33.2-153.7-33.2
		s63.5,54.2,76.5,71.1c6.7,8.7,7.5,17.7,1.1,23.9c-8.8,8.6-19.7,11.8-30.3,15.7c-10.9,4-33.4,9.4-33.4,9.4s105.1,19.5,137.1,42.9
		c8.3,6.1,17.9,11.9,25,22.6c4.7,7,7.5,15.1,5.5,23.2C274.5,314.9,272.4,319.3,269.9,322.6z M288,313.3c2.6-10.7,0.2-22.3-7.2-33.3
		c-7.5-11.2-17.1-19.9-29.5-26.7c-13.3-7.2-29-15.5-44.8-21.6c-14.6-5.6-29.6-10.3-44.9-13.6c6.5-2.9,13-6.7,19-12.5
		c10.9-10.6,11-26.6,0.2-40.8c-10.1-13.1-21.2-22.9-32.4-31.8c32.5,9.2,64.7,14,95.9,14.3c-5.8,4.5-11,11-14.9,18.2
		c-7.9,14.6-4.1,31.7,10.1,45.3c11,10.6,22.9,17,33.2,22c13.3,6.4,25.1,11.3,36.3,15.1c4.3,1.4,8.6,2.9,12.9,4.3
		c-4.4,1.9-8.7,4.5-12.9,8.2c-5.5,4.9-16.9,18.8-4.8,43.5c8,16.2,18.9,27.4,28.6,37.4c11.2,11.5,22.7,22.4,34.4,32.9
		c-35.8-14.2-68.9-24.2-100.3-30.4c4.8-3.7,9.3-8.1,13.4-13.7C283.8,325.3,286.5,319.5,288,313.3z"/>
	<path class="st1" d="M94.1,101.4c0,0,97.8,33.2,153.7,33.2c15.3,0,45.6-3.3,45.6-3.3s-45.5,22.5-52.8,40.2
		c-4.1,9.9-1.4,19,7.7,30.1c18.5,22.4,131.1,56.1,131.1,56.1s-57.6,3.4-66.5,19.9c-10.2,18.7,19.3,44.8,28.9,54.7
		c31.2,31.9,73.8,74,73.8,74s-59.7-25.6-93.4-34.9c-31.3-9.7-94.2-20.7-94.2-20.7s7.2-3.3,10.7-5c11.4-5.7,22.7-11.6,31.2-23.2
		c2.5-3.3,4.5-7.6,5.6-12.2c2-8.1-0.8-16.2-5.5-23.2c-7.1-10.7-16.6-16.5-25-22.6c-32-23.4-137.1-42.9-137.1-42.9s22.5-5.4,33.4-9.4
		c10.6-3.9,21.5-7.2,30.3-15.7c6.4-6.2,5.6-15.2-1.1-23.9C157.6,155.6,94.1,101.4,94.1,101.4 M61.8,83.1l27.7,23.6
		c0.6,0.5,63.1,54,75.5,70c2.7,3.5,6.5,10.1,1.8,14.7c-6.8,6.6-15.3,9.7-24.3,12.9c-1.2,0.4-2.4,0.9-3.5,1.3
		c-10.4,3.8-32.4,9.1-32.6,9.1l-32,7.7l32.3,6c1,0.2,103.9,19.5,134.3,41.7c1.2,0.9,2.5,1.8,3.8,2.7c7,4.9,14.2,10.1,19.5,18.1
		c3,4.4,6.1,11.1,4.5,17.7c-0.9,3.6-2.5,7.1-4.4,9.7l0,0l0,0c-7.7,10.6-18.4,15.9-28.7,21.1c-3.3,1.7-10.3,4.9-10.4,4.9l-20.6,9.4
		l22.3,3.9c0.6,0.1,62.9,10.9,93.3,20.4l0.1,0l0.1,0c32.9,9.1,91.9,34.4,92.5,34.6l34,14.6l-26.3-26c-0.4-0.4-43-42.5-73.7-73.9
		c-1-1-2.1-2.1-3.3-3.3c-9.3-9.2-31.1-30.9-24.4-43.1c1.9-3.6,11.3-8.8,31.8-12.6c14.9-2.8,28.9-3.6,29-3.7l39.6-2.3l-38-11.4
		c-0.3-0.1-28.4-8.5-58.3-19.5c-51.4-19-65.6-29.7-69.5-34.3c-9.5-11.5-8.8-17.8-6.7-23c4.6-11.1,32.8-28.3,49.4-36.6l35.2-17.4
		l-39.1,4.2c-0.3,0-30.2,3.2-44.9,3.2c-54.1,0-150.5-32.5-151.5-32.8L61.8,83.1L61.8,83.1z"/>
</svg>
