<?xml version="1.0" encoding="utf-8"?>
<!-- Generator: Adobe Illustrator 28.2.0, SVG Export Plug-In . SVG Version: 6.00 Build 0)  -->
<svg version="1.1" id="icon" xmlns="http://www.w3.org/2000/svg" xmlns:xlink="http://www.w3.org/1999/xlink" x="0px" y="0px"
	 viewBox="0 0 512 512" style="enable-background:new 0 0 512 512;" xml:space="preserve">
<style type="text/css">
	.st0{fill:url(#SVGID_1_);}
	.st1{fill:url(#SVGID_00000172441482929760322560000013247166138821284783_);}
	.st2{fill:url(#SVGID_00000042720537844110862160000013012853836844508065_);}
</style>
<g>
	<linearGradient id="SVGID_1_" gradientUnits="userSpaceOnUse" x1="114.0884" y1="112.8361" x2="397.8" y2="396.5478">
		<stop  offset="0" style="stop-color:#80B9FF"/>
		<stop  offset="0.1321" style="stop-color:#72A9EC"/>
		<stop  offset="0.5328" style="stop-color:#4C7CB8"/>
		<stop  offset="0.8344" style="stop-color:#346097"/>
		<stop  offset="1" style="stop-color:#2B558B"/>
	</linearGradient>
	<path class="st0" d="M255.9,18.2c-42.2,0-80.9,25.1-109.8,67.8C117.3,128.7,98.8,188.8,98.8,255c0,66.2,18.4,125.7,47.3,168.4
		c8.2,12.1,17.2,22.8,26.9,31.9V345.1c-1.8-68.6-15.3-95.3-56.4-95.3c0-33.2,45.6-52.8,82.6-52.3c25.3,0.3,46.7,10.1,46.7,31.3
		c-34.8,19.2-50.1,40.3-54.2,97.6v144.1c19.7,13.4,41.5,20.7,64.2,20.7c22.7,0,44.4-7.3,64.2-20.7V326c-4.1-57-19.5-78-54.1-97.2
		c0-21.2,21.3-31,46.7-31.3c37-0.5,82.6,19.1,82.6,52.3c-41.1,0-54.5,26.6-56.4,95.3v110.4c9.7-9.1,18.7-19.8,26.9-32
		c28.9-42.7,47.3-102.2,47.3-168.4S394.6,128.7,365.7,86C336.9,43.3,298.1,18.2,255.9,18.2L255.9,18.2z"/>
</g>
<g>
	
		<linearGradient id="SVGID_00000026156073875207414930000006448993438446029222_" gradientUnits="userSpaceOnUse" x1="161.5742" y1="219.4177" x2="193.6135" y2="251.457">
		<stop  offset="0" style="stop-color:#80B9FF"/>
		<stop  offset="0.1321" style="stop-color:#72A9EC"/>
		<stop  offset="0.5328" style="stop-color:#4C7CB8"/>
		<stop  offset="0.8344" style="stop-color:#346097"/>
		<stop  offset="1" style="stop-color:#2B558B"/>
	</linearGradient>
	<path style="fill:url(#SVGID_00000026156073875207414930000006448993438446029222_);" d="M177.6,212.8c-12.5,0-22.7,10.1-22.7,22.7
		s10.1,22.7,22.7,22.7c12.5,0,22.7-10.1,22.7-22.7C200.2,222.9,190.1,212.8,177.6,212.8L177.6,212.8z"/>
</g>
<g>
	
		<linearGradient id="SVGID_00000047019568639868481590000008508790060980963205_" gradientUnits="userSpaceOnUse" x1="318.2264" y1="219.4216" x2="350.2579" y2="251.4531">
		<stop  offset="0" style="stop-color:#80B9FF"/>
		<stop  offset="0.1321" style="stop-color:#72A9EC"/>
		<stop  offset="0.5328" style="stop-color:#4C7CB8"/>
		<stop  offset="0.8344" style="stop-color:#346097"/>
		<stop  offset="1" style="stop-color:#2B558B"/>
	</linearGradient>
	<path style="fill:url(#SVGID_00000047019568639868481590000008508790060980963205_);" d="M334.2,212.8c-12.5,0-22.7,10.1-22.7,22.7
		s10.1,22.7,22.7,22.7s22.6-10.1,22.6-22.7C356.9,222.9,346.8,212.8,334.2,212.8L334.2,212.8z"/>
</g>
</svg>
