<svg id="icon" xmlns="http://www.w3.org/2000/svg" xmlns:xlink="http://www.w3.org/1999/xlink" viewBox="0 0 512 512">
  <path class="st0" d="M156.8,1.6V512h84.9V1.6H156.8z M0,58.5v225.5h50.1V58.5H0z M172,85.8h19.6v379.9H172V85.8z M312.2,95
    l-49.3,9.6L329.8,512l49.3-9.6L312.2,95z M69.7,115.5V436h67.5V115.5H69.7z M376.1,149.6l-30,14l6,15.3l30-14L376.1,149.6z
    M389.8,184.5l-30,14l6,15.3l30-14L389.8,184.5L389.8,184.5z M403.5,219.4l-30,14L482,510.7l30-14L403.5,219.4L403.5,219.4z
    M0,305.4v35.6h50.1v-35.6H0z M206.9,313.8h19.6v151.9h-19.6V313.8z M0,362.4V512h50.1V362.4H0z M69.7,457.4V512h67.5v-54.6H69.7z"
    />
</svg>
