<?xml version="1.0" encoding="utf-8"?>
<!-- Generator: Adobe Illustrator 28.2.0, SVG Export Plug-In . SVG Version: 6.00 Build 0)  -->
<svg version="1.1" id="icon" xmlns="http://www.w3.org/2000/svg" xmlns:xlink="http://www.w3.org/1999/xlink" x="0px" y="0px"
	 viewBox="0 0 512 512" style="enable-background:new 0 0 512 512;" xml:space="preserve">
<g transform="translate(25 -25)">
	<path d="M-25,25L82.4,184.9l-1.7-27.3L-8.3,25H-25z M2.6,25l263.1,188.9l-5.5-98.8l134.7,143.5L429.7,537H487V25H2.6z M98,133.8
		l4,68.5c-5.5,8.2-26.7,36-63.1,40.8c-4.5,0.6-8,4.4-8,9.1c0,0-0.9,41.2,50.6,92.1l38.5-61.7c-7.8-8.1-15.5-18.3-23.8-31.8
		l30.6-33.4c2-2.1,2.8-4.9,2.3-7.8l-12.9-77.8C113.3,119.4,97.5,123.5,98,133.8z M20.5,163.7c-10.2,0-18.7,4.2-23.1,11.4
		c-7.9,13.1-0.1,32.2,17.5,42.8s38.2,8.2,46-5s-0.1-32.2-17.6-42.7C36.1,166.1,28.2,163.7,20.5,163.7L20.5,163.7z M193,248.2
		l-47.2,36.2l-13.4,88.8c13.7,3.4,28.1,4.4,42.4,2.4l24.9-3.4l50.9,55.9c2.1,2.2,5.1,3.3,8.1,2.9l32.1-4.4c12.4-3.7,8-18.3-1.6-18.4
		l-23.7,0.8l-33.9-73.3c-1.2-2.4-3.3-4.2-5.9-5l-42.9-12.4l25-21.5l58,20.8c5.2,1.7,10.3-1.2,12-5.9l11.6-37.7
		c1.9-12.5-13-15.1-17.2-6.6l-9,19l-59.7-38.6C200.1,245.8,196.1,246.1,193,248.2L193,248.2z M122.8,313.1l-26.9,43.1
		c5.9,4.2,12.2,7.9,18.7,10.7L122.8,313.1z M143.8,395.5l35,141.5h14.2l-34.8-141.2C153.4,395.9,148.6,395.8,143.8,395.5
		L143.8,395.5z"/>
</g>
</svg>
