<?xml version="1.0" encoding="utf-8"?>
<!-- Generator: Adobe Illustrator 28.2.0, SVG Export Plug-In . SVG Version: 6.00 Build 0)  -->
<svg version="1.1" id="icon" xmlns="http://www.w3.org/2000/svg" xmlns:xlink="http://www.w3.org/1999/xlink" x="0px" y="0px"
	 viewBox="0 0 512 512" style="enable-background:new 0 0 512 512;" xml:space="preserve">
<g transform="">
	<path d="M440.2,0l-61,45.7c-14.4-5.4-29.8-8.1-45.2-8.1c-1.9,0-3.9,0-5.7,0.1L440.2,0z M510.9,29.3l-63.4,71.6
		c-8.6-13.4-19.4-25-31.6-34.7L510.9,29.3z M334,56.2c65.7,0,119.3,56.7,119.3,127.4S399.7,311,334,311s-119.3-56.7-119.3-127.4
		S268.3,56.2,334,56.2L334,56.2z M508.3,124.2L472,183.9v-0.2c0-18.1-3.1-35.3-8.8-51.4L508.3,124.2z M174.8,155.3l14.1,15.4
		c-9.8,8.9-19,16.7-27.2,23.7c-3-6.6-7.3-12.3-12.7-16.7C156.9,171,165.5,163.8,174.8,155.3L174.8,155.3z M122.9,189.2
		c1.7,0,3.3,0.2,5.1,0.5c13,3.3,22.1,21,16.8,41.5S123,262.7,110,259.3c-13-3.3-22.1-21-16.8-41.5
		C97.7,200.1,110.9,189.3,122.9,189.2L122.9,189.2z M512,198.7l-59.5,59c7.5-13.5,12.9-28.1,16-43.3L512,198.7z M215,233l-0.3,20.9
		c-16.8-0.2-37.2,6.6-60,14.1c-5.1,1.7-10.2,3.4-15.2,5.4c10.2-6.6,18.5-17.1,23.4-29.8c20.2-5.9,41.9-10.8,59.8-10.6L215,233
		L215,233z M512,275.5v29L0,512v-29C0,483,492.5,283.6,512,275.5L512,275.5z M87.9,270.5c4.7,4.2,10.4,7.3,17,8.9
		c5.8,1.5,12,1.7,17.9,0.6c-21.9,16.4-14.1,68.5-3.4,81.9c9.4,11.8,24.8,15.7,33.3,16.8c-0.1,0.1,0.3,0.1,1.6,0.1
		c-0.5,0-1.1-0.1-1.6-0.1c0.2-0.1,1.6-0.5,3.2-1.9c2.7-2.3,6.2-5.9,9.8-10.2c7.1-8.6,14.6-19.8,18.7-27.7l7.3-13.9l10,12.1
		c5.9,7.1,11.6,11,24.9,18.2l-10,18.3c-8.4-4.6-15-8.7-20.7-13.4c-4.3,6.7-8.9,13.5-14.1,19.6c-4.1,5-8.2,9.4-12.5,12.9
		c-4.2,3.6-8.1,7.2-15.9,6.9c-25.2-1-47-21.1-65.1-34.2c-5.2-3.8-16.3-6.8-27.9-7.1c-8.5-0.2-17.3,1-24.1,2.8
		c1.3,16.7,6.1,45.4,17.4,61.8l10.6,15.4l-18.6,0.9c-18,0.9-27.8-1.6-45.6-9.3l8.2-19.2c9,3.9,14.1,5.9,19.3,6.9
		c-10-23.5-12.4-50.1-12.6-63.8l-0.1-6.9l6.2-2.8c11.4-5.2,25.7-7.3,40.1-7c6.2,0.2,12.4,0.8,18.4,2c-2.4-10.9-2.6-21.8-1.3-32.2
		C79.5,294.7,83.2,282.4,87.9,270.5L87.9,270.5z"/>
</g>
</svg>
