<?xml version="1.0" encoding="utf-8"?>
<!-- Generator: Adobe Illustrator 28.2.0, SVG Export Plug-In . SVG Version: 6.00 Build 0)  -->
<svg version="1.1" id="icon" xmlns="http://www.w3.org/2000/svg" xmlns:xlink="http://www.w3.org/1999/xlink" x="0px" y="0px"
	 viewBox="0 0 512 512" style="enable-background:new 0 0 512 512;" xml:space="preserve">
<g transform="translate(0 50) scale(1.2)">
	<path d="M213.8-41.7c-13.6,0-26.2,7.5-36,21s-16,32.7-16,54.2c0,21.4,6.3,40.6,16,54.1c9.7,13.6,22.4,21,36,21
		c13.6,0,26.2-7.5,36-21c9.7-13.5,16-32.7,16-54.1c0-21.5-6.3-40.7-16-54.2C240.1-34.1,227.4-41.7,213.8-41.7L213.8-41.7z
		 M260.6,100.5c-11.8,14.9-28.3,24.6-46.7,24.6s-34.8-9.7-46.7-24.5c-4,0.7-7.9,1.5-11.9,2.4c21.9,61.4,37.4,105.4,69,150.1
		c9.7-1.3,21.3-2.6,36.7-4.6l3.5-36.8c0.7-7.9,5.1-14.3,10.9-18.8l-5.8-26.1l16-3.6l5.1,22.9c5.7-1.4,11.8-1.7,17.9-1.5
		c9.7,0.4,19.5,2.4,28.1,6.1c-1.7-21.4-6.1-44.4-9.7-69.4c-3-2.1-8.7-5.1-16.1-7.7c-9.2-3.4-20.7-6.7-32.7-9.4
		C272.1,102.9,266.3,101.6,260.6,100.5L260.6,100.5z M139.3,106.7c-5,1.4-9.8,2.7-14.4,4.2c11.5,41.4,45.9,157.3,92.7,223.7
		c18.7-0.1,36.8-1,54.7-2.6C192.5,256.1,172.1,198.8,139.3,106.7L139.3,106.7z M109.6,116.5c-4.1,1.9-7.3,3.7-9.1,5.1
		c-22,73.2-28.4,176.7-15.2,263.4H130c-5.8-59.4-11.4-126.7,8.5-176.9C124.7,170,115,135.9,109.6,116.5z M304.9,200.8
		c-6.7,0.1-12.9,1.3-17.1,3.4c-4.8,2.4-6.8,4.7-7.3,9.1l-4.7,49.7l-6.5,0.8c-14.1,1.7-24.9,3.1-34,4.2
		c15.4,19.6,34.3,39.6,58.5,61.8c4.6-0.5,9.1-1.1,13.7-1.7c9.3-1.2,15.3-5,20.4-10.7c5.2-5.6,9-13.2,12.3-21.1
		c12.8-31.2,7.9-67.9,1.8-81.1c-1.3-2.9-5.5-6.7-11.8-9.5c-6.3-2.8-14.5-4.6-22.3-4.9L304.9,200.8L304.9,200.8z M147.8,232.8
		c-3.6,14.8-5.5,31.1-6.2,48.2c5.4-5,12.3-9.6,20.7-13.4C157.2,256.1,152.2,244.3,147.8,232.8L147.8,232.8z M169.2,282.4
		c-18.7,8.4-25.7,19.8-26.1,28.2c-0.5,10.7,7.8,21,27.3,22.4c9.3,0.6,18.4,1.1,27.3,1.4C187.5,318.6,177.9,300.8,169.2,282.4z
		 M142.7,340.3c0.9,15,2.3,30.1,3.7,44.7h147.9c3.6-13.8,7.7-27,11.7-40.2c-43.3,5.6-87.8,8.1-136.7,4.5
		C158.8,348.5,149.8,345.2,142.7,340.3z"/>
</g>
</svg>
