<?xml version="1.0" encoding="utf-8"?>
<!-- Generator: Adobe Illustrator 28.2.0, SVG Export Plug-In . SVG Version: 6.00 Build 0)  -->
<svg version="1.1" id="icon" xmlns="http://www.w3.org/2000/svg" xmlns:xlink="http://www.w3.org/1999/xlink" x="0px" y="0px"
	 viewBox="0 0 512 512" style="enable-background:new 0 0 512 512;" xml:space="preserve">
<g transform="">
	<path d="M314.2,0l-24.8,12.1l-31.8,139.5l65.6-126.9L314.2,0L314.2,0z M42.9,27.7c12.3,87.2,52.2,160.3,108,221.9
		c15.2-10.8,30.6-22,46.1-33.3c-23.9-31-40.8-63.7-47-97.8C113.1,88.4,77.1,58,42.9,27.7L42.9,27.7z M463.9,27.8
		c-33.3,29.5-68.4,59.3-104.4,88.6c-11.1,66-62.6,127-127.5,179.7C161.6,353.5,74.1,401.5,0,433.7V512
		c101-38.7,210.9-133.3,298.4-207.3C383.7,232.9,447.6,142.6,463.9,27.8L463.9,27.8z M209.3,38.3l-9.2,31.5l43.9,82.8L236.6,56
		L209.3,38.3L209.3,38.3z M332.9,137.9C219.5,228.8,99.7,314.2,0,374.4v36.4c71.1-31.6,153.7-77.7,219.8-131.4
		C273.4,235.6,315.5,186.9,332.9,137.9L332.9,137.9z M177.1,140.3c7.9,21.4,20.5,42.7,36.7,63.5c7.6-5.7,15.2-11.4,22.7-17.1
		C216.6,171.5,196.8,156,177.1,140.3L177.1,140.3z M358.8,276.7c-10.3,10.7-21.1,21-32.2,31C385.8,350,453,386.1,512,412.2V377
		C464.6,348.6,412.6,314.4,358.8,276.7z M310.4,321.8c-12.6,10.5-25.6,20.7-38.8,30.4c75.8,51.2,161,129.7,240.4,159.8v-76.9
		C448.4,407.7,374.9,368.6,310.4,321.8L310.4,321.8z M247.3,380.8l-49.8,88.7l8.4,26.7l29.9-12.8L247.3,380.8L247.3,380.8z
		 M264.2,381.7l55.4,118.6l39.3,11.7l-3.8-36.3L264.2,381.7L264.2,381.7z"/>
</g>
</svg>
