<?xml version="1.0" encoding="utf-8"?>
<!-- Generator: Adobe Illustrator 28.2.0, SVG Export Plug-In . SVG Version: 6.00 Build 0)  -->
<svg version="1.1" id="icon" xmlns="http://www.w3.org/2000/svg" xmlns:xlink="http://www.w3.org/1999/xlink" x="0px" y="0px"
	 viewBox="0 0 512 512" style="enable-background:new 0 0 512 512;" xml:space="preserve">
<g transform="">
	<path d="M312.3,28.5c-2.4,1.4-4.3,3.5-6.3,7.2c-2.3,4.4-4.3,10.8-5.9,18.3c-3.3,14.9-5.5,33.8-12.1,51.3l-0.5,1.4l-1,1.2
		c-53.3,63.6-92.1,98.4-119,148.8l-2.5,4.6l-5.2,0.1c0,0-10.6,0.3-22.6,2.5c-12,2.1-43.2,3.3-46.1,7c-13.3,17-23.5,45.8-25.1,70.5
		c-1.6,24.7,3.9,49,16.7,65.6c0.9,1.1,29.5,4.6,38.2,5.3c8.7,0.7,16.5,0.2,16.5,0.2l6.1-0.5l2.7,5.5c14.8,30.3,61.5,50.6,110.9,66.1
		c4.4,0.2,12-1.8,20.9-6.3c-19.8-7.6-35.4-14-52.5-23.1l-4.4-2.3l-0.3-5c-0.9-12.8,5.7-23.3,13.6-30.3c2.5-2.2,5.2-4.2,8-6
		c-1.5-0.7-3.1-1.4-4.6-2.1l-4.7-2l-0.6-5.1c-1.8-14,2.6-27.9,11.7-37.7c1.9-2,3.9-3.8,6.2-5.4L250,358l-0.4-5.3
		c-1.3-15.8,8.7-29.4,20.3-39c2.1-1.8,4.3-3.4,6.6-5l-0.9-2.1c-4.5-10.6-2.3-21.8,3-29.8c5.4-8,13.4-13.7,21.9-16.8l0.2-0.1l0.2-0.1
		c16.7-5.1,32.6-1,47.8,3c15.1,4,29.8,8.2,45.1,6.9c9.3,15.5,8.1,12.5,10.5,17.2l-9,0.8c-19.4,1.6-36.5-3.5-51.3-7.5
		c-14.7-3.9-26.8-6.5-37.6-3.3c-5.1,1.9-10.2,5.7-12.9,9.8c-2.1,3.2-3.1,6.2-2.3,9.8c21.8,9.3,38.4,19.3,57,24.8
		c19.7,5.7,42.5,7.1,79.3-3c5.9-2.8,11.6-7.7,15-12.9c3.5-5.4,4.6-10.6,2.9-16c-6.4-19.4-15.2-36.7-33-48.5
		c-40.2-16.7-66-16.8-101.3-13.3c-0.6-5.2-0.4-10.6,0-18.1c2.1-15.2,8.8-33.8,16.7-55.1c9.8-26.3,21.7-55.2,30.4-78.9
		c-2-19.8-7.6-30.9-15-37.3C336,31.8,325.7,29,312.3,28.5L312.3,28.5z M297.8,319.2c-4.5,1.1-11,3.8-16.5,8.4
		c-6.8,5.6-11.7,13-13.3,19c24.6,11.5,43.1,22.9,74.6,33.1l66.9-3.8c12-4.2,19.8-8.5,24.1-12.2c4.4-3.8,5.3-6.3,5.5-8.8
		c0.3-4.1-3.8-11.1-9.9-18.4c-37.5,9.8-63.9,8.6-86,2.1C326.6,333.7,312.7,326.3,297.8,319.2L297.8,319.2z M272.4,369
		c-6.4,0.2-11.3,2.9-15.2,7.1c-4.3,4.6-6.9,11.3-7.1,18.5c23.3,10.4,45.1,21.1,74.7,30.4l56.5-1.1c21.9-0.9,27.8-9.8,28.9-17.9
		c0.6-4.3-0.5-8.5-2.7-11.7l-67.3,3.8l-1.6-0.5C310.1,388.7,291.7,378.6,272.4,369L272.4,369L272.4,369z M262.5,419.6
		c-6.1,3.3-12.1,6.8-16.3,10.5c-4,3.5-6.4,6.7-7.2,10.7c17.4,8.8,33.9,15.4,57.4,24.2l46.5,1.6c8-3.4,12.8-6.7,15.1-9.1
		c2.4-2.6,2.6-3.8,2.6-5.9c0-2.1-1.3-5.4-3-9.4l-35.4,0.7l-1.4-0.4C297.9,435.2,279.6,427.3,262.5,419.6L262.5,419.6z"/>
</g>
</svg>
