<?xml version="1.0" encoding="utf-8"?>
<!-- Generator: Adobe Illustrator 28.2.0, SVG Export Plug-In . SVG Version: 6.00 Build 0)  -->
<svg version="1.1" id="icon" xmlns="http://www.w3.org/2000/svg" xmlns:xlink="http://www.w3.org/1999/xlink" x="0px" y="0px"
	 viewBox="0 0 512 512" style="enable-background:new 0 0 512 512;" xml:space="preserve">
<g transform="">
	<path d="M283.2,35.1c24.6,0.2,57.2,6.2,86.3,17.7c13.4,5.3,24.2,9.8,30.6,14.1c6.5,4.3,8.2,6.8,8.3,11.7c0.1,4-0.3,6.7-2.3,9.9
		c-2,3.2-6.1,7.2-15.4,11.7L364.2,113l29.1,4.2c28.6,4.2,33.4,21.2,33.6,23.8c0.7,9.9-2.6,16.8-15.9,22.3l-24,9.9l24.9,7.1
		c14.3,4.1,24.5,16.5,24.5,24.7c0,7.6-7,18.7-24.2,24l-27.6,8.6l27.6,8.6c10.4,3.2,18.3,5.9,22.3,8.8c4,2.8,5.3,4.5,5.1,11.6
		c-0.3,10.1-5.7,15-15.7,19.5c-10,4.5-23.7,6.7-34.9,8.3c-35.8,5-71,7-105.9,0.1l-20.3-4l10.9,17.6c25.9,41.6,54.2,90.9,59.1,130.4
		l0,0.4l0.1,0.3c5.1,25-6.4,36.2-17,37.5c-5.3,0.6-11-1-16.3-6.7c-5.3-5.7-10.1-15.7-11.4-31.5l-0.1-1.4l-0.6-1.3
		c-7.7-18.1-25.9-39.6-46.3-61.2c-20.1-21.1-42.3-41.5-58.8-55.3c-35.5-49.8-46-71.5-53.8-85.1c-4-6.8-7.8-12.2-13.5-16.9
		c-5.8-4.7-12.8-8.5-24.1-14.3l0,0l0,0c-3.5-1.8-10.9-13.6-14.7-31.1c-3.8-17.5-5.2-39.7-3.4-60.7c1.7-21,6.7-40.8,14.2-53.3
		c3.7-6.2,8-10.5,12.4-12.8c4.2-2.3,8.8-3,14.9-1.8c10.3,4.8,19.7,9.7,30.2,12.6c10.9,3.1,22.9,3.8,36.7,0.2l0.6-0.2l0.6-0.2
		C211,43.9,254,34.9,283.2,35.1L283.2,35.1z"/>
</g>
</svg>
