<?xml version="1.0" encoding="utf-8"?>
<!-- Generator: Adobe Illustrator 28.2.0, SVG Export Plug-In . SVG Version: 6.00 Build 0)  -->
<svg version="1.1" id="icon" xmlns="http://www.w3.org/2000/svg" xmlns:xlink="http://www.w3.org/1999/xlink" x="0px" y="0px"
	 viewBox="0 0 512 512" style="enable-background:new 0 0 512 512;" xml:space="preserve">
<g transform="translate(0 15) scale(1.1)">
	<path d="M0-13.6v202.5c18.8,18.5,51.8,36.4,83,46.9c27.5,9.2,45.5,12.5,65.3,5.2c15.5-5.7,33.4-10,45.3-17.7s18.9-16.6,15.5-38.5
		v-0.2v-0.2c-0.3-3.1-0.7-6.3-1.2-9.6c-0.2,0-0.3,0.1-0.5,0.1c-10.6,2.7-25.7,4.2-44.6,0.3c-1.3,0.8-2.7,1.6-4,2.4l-7.7,4.3
		l-8.5-15.4l7.7-4.3c19.1-10.6,35.2-30.8,44.9-46.4c-0.4-1.2-0.7-2.5-1.1-3.7c-12.6,8.7-30.3,12.9-50.9,4.8l-8.2-3.2l6.4-16.4
		l8.2,3.2c18.6,7.2,29.2,2.4,38.2-5.8c7.3-6.6,12.5-15.9,16-23.2c-25.8-30-50.3-57.9-74.6-85.1C129.2-13.6,0-13.6,0-13.6z M180-13.5
		c9.7,13.8,23,29,39.1,44c2.3-0.8,4.6-1.6,7.1-2.4c11.8-3.8,25.3-7.6,38-7.1c4.2,0.2,8.4,0.8,12.4,2.1l8.4,2.7l-5.4,16.7l-8.4-2.7
		c-7.5-2.4-25.1,0.3-39.6,5c-8.7,2.8-16.1,5.8-20.7,7.7c3.4,3.9,6.7,7.8,10.1,11.8l3.6,4.2l-2.2,5c-1.2,2.8-2.8,6.5-5,10.6
		c10.7,13.1,25.7,26.5,36.2,34.1c17,12.3,41.4,27.2,60.5,31.2c9.5,2,17.1,1.4,22.6-2c5.4-3.3,10.2-9.8,12.6-23.6l1.5-8.7l17.3,3
		l-1.5,8.7c0,0.2-0.1,0.4-0.1,0.6c31.2,13.5,61.2,21.9,85.5,22.3c4.7,0.1,9.2-0.1,13.5-0.6v-76c-8.2,6.5-18.5,14.3-32,23.6l-10-14.5
		c20.5-14.2,33.3-24.4,42-32.3v-63.5H180V-13.5z M42.9-12.3c10.8,0.6,116,55.8,86.6,45.6c-1.6-0.5-9.4-1.6-20.1-2.6
		c2.9,5.4,4.7,11.3,5.3,17.5c0.7,7.6-0.7,14.4-4,19.5s-9.1,8.8-16.7,7.6c-7.6-1.2-14.2-6.8-18.5-13c-4.4-6.3-7-13.6-7.7-21.3
		c-0.4-4.3-0.1-8.4,0.8-12c-22.2,0.2-43,2.8-47.2,11l20.7-52.2C42.3-12.2,42.5-12.3,42.9-12.3L42.9-12.3z M90.1,31.7
		c-0.5-0.1-1.5,0-2.8,2s-2.2,5.6-1.8,10c0.4,4.4,2,8.4,3.7,10.9c1.7,2.4,2.7,2.8,3.2,2.9c0.5,0.1,1.5,0,2.8-2s2.2-5.6,1.8-10
		c-0.4-4.4-2-8.4-3.7-10.9S90.5,31.8,90.1,31.7z M274.9,55.3c0.6,0,1.1,0,1.7,0.1c18.2,1,37,12.2,56.4,32.5L320.2,100
		c-17.6-18.4-33.2-26.4-44.6-27s-20.2,4.6-27.8,18.1l-15.3-8.7C242.1,65.4,257.4,55,274.9,55.3L274.9,55.3z M201.3,138.4
		c-5.3,7.2-11.6,14.6-18.7,21.4c8.5,0.3,15.4-0.7,20.6-2.1c0.7-0.2,1.4-0.4,2.1-0.6C204.2,151.1,202.8,144.8,201.3,138.4
		L201.3,138.4z M361,144.4c-2.4,5.2-5.4,9.5-9,13c31.1,24.2,59,53.5,76.2,89.2l0.9,1.8c29.4,38.9,38.7,91.6,31.2,137.3l-0.4,2.5
		l-1.7,1.9c-27.2,30.4-72.2,46.2-112.5,52.4c-20.2,3.1-39.2,3.7-54.7,1.9c-15.5-1.8-28.2-4.6-35.1-15.2l-1-1.6l-0.3-1.8
		c-1.8-11.2-2.6-22-3.8-32.5c-16.7,18.7-29,38-35.4,58.5h250.1V166.9c-4.5,0.4-9.1,0.6-13.8,0.5C424,166.8,392.9,158.1,361,144.4
		L361,144.4z M0,212.2v49.2c8.9,6.6,32.7,24.4,61.4,45.5c17.3,12.7,34.7,25.5,48.1,35c6,4.3,10.8,7.7,14.7,10.3
		c0.4-1.2,0.7-1.8,1.1-3.2c2.5-7.7,5.6-18.2,8.6-28.7c4.6-16.3,8.1-29.7,9.8-36.2c-1.1-6.9-1.5-14.6-1.1-23.1
		c-20.6,4.1-41.1-0.5-65-8.5C49.9,243.2,21.4,229,0,212.2L0,212.2z M399.6,243.6c-0.5,0-1.1,0-1.5,0c-4.7,0.4-6.1,2-8,4.2
		c-1.3,1.4-2.5,3.4-4.7,5.8c-2.2,2.4-6.4,5.6-11.5,5.8c-4.5,0.2-8.6-1.8-11.1-3.6s-4-3.4-5.3-4.4c-2.7-2.1-3.6-3.3-11-1.6
		c-3.1,0.7-3.9,2-5.7,5.4c-0.9,1.7-1.8,3.8-3.1,6.2c-1.3,2.4-3,5.4-6.9,7.5c-2.8,1.5-5.8,1.4-7.6,1c-1.8-0.4-2.9-0.9-3.9-1.3
		c-2-0.9-3.6-1.7-5.4-2.4c-3.6-1.3-7.8-2.2-15.4,0.8c-6.4,2.5-6.6,4-7.3,5.7c-0.3,0.9-0.5,1.9-1.2,4s-2.8,6.4-7.2,8.1
		c-3.7,1.4-7.5,1.1-10.1,0.6c-2.6-0.6-4.5-1.3-6.4-1.7c-3.8-0.9-7.5-1.6-15.2,0.9c-4.5,1.5-9.7,7.9-12.1,16.5
		c-2.3,8.5-1.5,18,1.1,22.8c29.5,33.3,27.4,68,31.5,96.6c2.2,1.6,9.7,5.3,21.4,6.6c5.5,0.6,11.7,0.9,18.4,0.8
		c1.1-33.5-7.4-75.2-19.7-102.5l16-7.2c13.6,30.1,22.4,72.3,21.4,108.8c4.6-0.4,9.2-1,14-1.7c9.2-1.4,18.5-3.4,27.8-6
		c-6.4-35.6-11.7-74.3-30.9-107.2l15.2-8.8c20.9,36,26.5,76.1,32.6,110.7c8.2-3,16.2-6.4,23.6-10.4c-1.9-41.8-6.9-77.7-23.8-103.8
		l14.8-9.5c18.4,28.5,23.9,63.9,26.1,102.8c5.5-3.9,10.5-8.2,14.8-12.8c7-47.3-6.6-103.1-42.3-136.6
		C400.7,243.6,400.1,243.6,399.6,243.6L399.6,243.6z M0,283.8v168h196.5c7.6-28.1,24.5-53.4,47.1-77.2l-62.9-38.3h-0.1
		c-9.6-6.1-19.3-13.4-26.6-24.1c-1.2,4.3-2.4,8.7-3.6,13.1c-3,10.6-6.1,21.2-8.8,29.4c-1.3,4.1-2.5,7.5-3.7,10.3
		c-0.6,1.4-1.1,2.5-1.9,3.8c-0.4,0.7-0.8,1.3-1.8,2.3c-0.9,1-2.7,2.9-6.7,2.9c-2.4,0-2.9-0.5-3.5-0.7c-0.6-0.2-0.9-0.4-1.3-0.6
		c-0.7-0.4-1.3-0.7-2.1-1.2c-1.4-0.9-3.2-2-5.3-3.5c-4.2-2.9-9.9-6.9-16.6-11.7c-13.3-9.4-30.7-22.1-48-34.9
		C30.7,306.7,13.2,293.7,0,283.8z"/>
</g>
</svg>
