<?xml version="1.0" encoding="utf-8"?>
<!-- Generator: Adobe Illustrator 28.2.0, SVG Export Plug-In . SVG Version: 6.00 Build 0)  -->
<svg version="1.1" id="icon" xmlns="http://www.w3.org/2000/svg" xmlns:xlink="http://www.w3.org/1999/xlink" x="0px" y="0px"
	 viewBox="0 0 512 512" style="enable-background:new 0 0 512 512;" xml:space="preserve">
<g transform="translate(0 15) scale(1.1)">
	<path d="M465.5-12.7v201.7c-18.8,18.5-51.9,36.5-83.1,46.8c-27.5,9.2-45.7,12.5-65.4,5.2c-15.5-5.8-33.4-10-45.4-17.7
		c-12-7.7-18.9-16.6-15.2-38.5v-0.2v-0.2c0.1-3.1,0.5-6.4,1-9.7c0.2,0,0.4,0.1,0.5,0.1c10.6,2.7,25.7,4.2,44.8,0.4
		c1.3,0.8,2.6,1.6,4,2.3l7.7,4.3l8.5-15.4l-7.7-4.3c-19.1-10.6-35.3-30.8-45.1-46.3c0.4-1.2,0.7-2.4,1.1-3.7
		c12.6,8.7,30.3,12.9,51,4.8l8.2-3.2L324,97.2l-8.2,3.2c-18.6,7.2-29.2,2.4-38.2-5.8c-7.2-6.6-12.5-15.9-15.9-23.2
		c25.7-30,50.4-57.9,74.7-85L465.5-12.7L465.5-12.7z M285.4-13.6c-9.7,14-23,29.1-39,44.2c-2.2-0.8-4.6-1.7-7-2.4
		c-11.8-3.8-25.3-7.6-38-7c-4.2,0.2-8.4,0.8-12.4,2.2l-8.4,2.7l5.5,16.7l8.4-2.7c7.5-2.4,25,0.3,39.6,5c8.7,2.7,16.1,5.8,20.7,7.7
		c-3.3,3.9-6.7,7.8-10.1,11.7l-3.5,4.2l2.2,5.1c1.2,2.7,2.8,6.5,5,10.6c-10.7,13.1-25.7,26.5-36.2,34c-17,12.3-41.5,27.2-60.5,31.2
		c-9.6,2.1-17.1,1.4-22.6-2c-5.5-3.3-10.2-9.8-12.6-23.6l-1.5-8.7l-17.3,3l1.5,8.7c0,0.2,0.1,0.4,0.1,0.7
		C68,141,38,149.3,13.6,149.8c-4.8,0.1-9.3-0.1-13.6-0.6v-76c8.2,6.5,18.6,14.3,32.1,23.6l10-14.5C21.4,68.2,8.7,57.9,0.9,50.1
		v-63.7H285.4z M422.5-12.1c-10.9,0.6-116,55.8-86.5,45.5c1.6-0.5,9.4-1.7,20.1-2.5c-2.9,5.4-4.7,11.3-5.3,17.5
		c-0.7,7.6,0.7,14.4,3.9,19.5c3.3,5.1,9.1,8.8,16.7,7.6c7.5-1.2,14.3-6.7,18.6-13c4.3-6.3,6.9-13.6,7.6-21.3c0.4-4.3,0.1-8.4-0.8-12
		c22.2,0.2,43,2.8,47.1,11L423.2-12C423.1-12.1,422.9-12.1,422.5-12.1L422.5-12.1z M375.4,31.9c0.5-0.1,1.5,0,2.7,2s2.2,5.6,1.9,10
		c-0.4,4.4-2.1,8.4-3.7,10.8c-1.7,2.4-2.7,2.8-3.2,2.9c-0.5,0.1-1.5,0-2.7-2c-1.3-2-2.2-5.6-1.9-10s2.1-8.4,3.7-10.8
		S374.9,32,375.4,31.9z M190.6,55.5c-0.6,0-1.2,0-1.7,0.1c-18.2,1.1-37.1,12.1-56.3,32.5l12.7,12.1c17.6-18.5,33.1-26.4,44.6-27.1
		c11.4-0.7,20.1,4.6,27.8,18.1l15.4-8.7C223.3,65.6,208,55.2,190.6,55.5L190.6,55.5z M264.1,138.5c5.3,7.1,11.5,14.6,18.8,21.4
		c-8.5,0.3-15.4-0.8-20.6-2.1c-0.8-0.2-1.4-0.4-2.1-0.6C261.3,151.2,262.6,144.9,264.1,138.5L264.1,138.5z M104.2,144.4
		c2.4,5.2,5.5,9.5,9,13c-31.1,24.1-59.1,53.5-76.2,89.1l-0.9,1.9C6.8,287.2-2.5,340,5,385.6l0.4,2.5l1.8,2
		c27.2,30.3,72.2,46.2,112.6,52.4c20.1,3.1,39.2,3.7,54.8,2c15.6-1.7,28.3-4.6,35.1-15.2l1-1.6l0.3-1.9c1.8-11.1,2.5-22,3.8-32.5
		c16.7,18.8,28.9,37.9,35.4,58.5H0v-285c4.5,0.4,9.1,0.6,13.8,0.5C41.3,166.8,72.4,158.1,104.2,144.4L104.2,144.4z M465.5,212.2
		v49.2c-8.9,6.6-32.8,24.3-61.4,45.5c-17.3,12.7-34.7,25.5-48,35c-6,4.3-10.9,7.6-14.7,10.4c-0.4-1.2-0.7-1.9-1.2-3.2
		c-2.5-7.7-5.6-18.2-8.5-28.7c-4.6-16.3-8.1-29.7-9.8-36.3c1.2-6.9,1.6-14.6,1.1-23.2c20.6,4.1,41.1-0.5,65-8.4
		C415.6,243.1,444,229.1,465.5,212.2L465.5,212.2z M65.9,243.6c0.6,0,1.1,0,1.5,0c4.8,0.4,6.1,2.1,8,4.2c1.3,1.5,2.5,3.4,4.7,5.9
		c2.2,2.4,6.5,5.6,11.4,5.8c4.6,0.2,8.6-1.8,11.1-3.5c2.4-1.8,4-3.3,5.4-4.4c2.6-2.1,3.6-3.3,11-1.6c3.1,0.7,3.9,2,5.7,5.5
		c0.9,1.8,1.8,3.8,3,6.2c1.3,2.3,3,5.4,6.9,7.5c2.8,1.6,5.8,1.4,7.5,1c1.7-0.4,2.8-0.9,3.9-1.4c2.1-0.9,3.6-1.8,5.4-2.3
		c3.6-1.3,7.7-2.2,15.4,0.8c6.4,2.5,6.6,3.9,7.3,5.7c0.3,0.9,0.5,2,1.2,4c0.7,2.1,2.8,6.5,7.1,8.1c3.7,1.5,7.5,1.2,10.1,0.6
		s4.5-1.3,6.5-1.8c3.8-1,7.5-1.6,15.3,1c4.5,1.5,9.7,7.8,12,16.5c2.3,8.4,1.6,18-1.2,22.8c-29.4,33.2-27.4,68-31.5,96.5
		c-2.2,1.6-9.7,5.3-21.4,6.6c-5.5,0.6-11.7,0.9-18.5,0.9c-1.1-33.4,7.4-75.2,19.8-102.4l-16-7.2c-13.6,30-22.4,72.2-21.3,108.8
		c-4.6-0.4-9.2-1-14-1.8c-9.2-1.4-18.6-3.4-27.9-6c6.4-35.6,11.7-74.2,30.9-107.2l-15.3-8.8c-20.9,36-26.5,76.1-32.6,110.6
		c-8.2-3-16.1-6.5-23.7-10.4c1.9-41.7,6.9-77.6,23.8-103.7l-14.8-9.6c-18.2,28.2-23.7,63.6-25.9,102.6c-5.5-3.9-10.5-8.2-14.9-12.8
		c-6.9-47.3,6.6-103,42.2-136.5C64.8,243.6,65.3,243.6,65.9,243.6L65.9,243.6z M465.5,283.6v168.2H268.7
		c-7.6-28.2-24.6-53.5-47.1-77.2l63.1-38.3h0.1c9.6-6.1,19.4-13.4,26.7-24.1c1.2,4.3,2.3,8.6,3.6,13.1c3,10.7,6.1,21.3,8.8,29.4
		c1.4,4.1,2.5,7.5,3.7,10.3c0.6,1.4,1.1,2.5,1.9,3.8c0.4,0.7,0.8,1.4,1.8,2.3c1,1,2.6,2.8,6.7,2.8c2.4,0,2.9-0.5,3.5-0.7
		c0.6-0.2,1-0.4,1.3-0.6c0.7-0.4,1.4-0.8,2.1-1.2c1.5-0.9,3.1-2.1,5.3-3.4c4.2-2.8,10-6.8,16.6-11.6c13.4-9.6,30.9-22.4,48.1-35.1
		C434.7,306.5,452.3,293.4,465.5,283.6z"/>
</g>
</svg>
