<?xml version="1.0" encoding="utf-8"?>
<!-- Generator: Adobe Illustrator 28.2.0, SVG Export Plug-In . SVG Version: 6.00 Build 0)  -->
<svg version="1.1" id="icon" xmlns="http://www.w3.org/2000/svg" xmlns:xlink="http://www.w3.org/1999/xlink" x="0px" y="0px"
	 viewBox="0 0 512 512" style="enable-background:new 0 0 512 512;" xml:space="preserve">
<g transform="">
	<path d="M332.9,23.1c-40,0-80,15.2-110.4,45.7c-58.7,58.7-60.8,152.7-6.4,214l-15.8,15.7l13.2,13.2l15.8-15.8
		c61.2,54.4,155.3,52.3,214-6.4c60.9-60.9,60.9-159.9,0-220.8C412.8,38.3,372.8,23.1,332.9,23.1L332.9,23.1z M332.9,41.7
		c35.1,0,70.3,13.4,97.2,40.3c53.7,53.7,53.7,140.6,0,194.3c-51.5,51.5-133.5,53.6-187.5,6.4l0.2-0.2c-2.4-2-4.7-4.2-6.9-6.4
		c-2.2-2.2-4.3-4.5-6.3-6.8l-0.2,0.2c-47.3-54-45.2-136,6.4-187.5C262.6,55.1,297.7,41.7,332.9,41.7z M332.9,60.5
		c-30.3,0-60.6,11.6-83.8,34.8c-46.4,46.4-46.4,121.2,0,167.6c10.1,10.1,21.6,18.1,33.9,23.8c-24.9-19.1-41-49.1-41-82.9
		c0-15.3,3.3-29.9,9.2-43c-4.2,20.5,0.4,40.9,14.5,54.9c24.6,24.6,68.7,20.3,98.6-9.6c29.9-29.9,34.1-74,9.6-98.6
		c-2.4-2.4-4.9-4.5-7.7-6.3c45.1,8.6,80,46.3,84.2,92.9c4.4-35.1-6.8-71.7-33.8-98.7C393.5,72.1,363.2,60.5,332.9,60.5L332.9,60.5z
		 M176,300.6L41.2,435.4L75.7,470l134.8-134.8L176,300.6L176,300.6z M39.1,459.7l-16,16l13.2,13.2l16-16L39.1,459.7L39.1,459.7z"/>
</g>
</svg>
