<?xml version="1.0" encoding="utf-8"?>
<!-- Generator: Adobe Illustrator 28.2.0, SVG Export Plug-In . SVG Version: 6.00 Build 0)  -->
<svg version="1.1" id="icon" xmlns="http://www.w3.org/2000/svg" xmlns:xlink="http://www.w3.org/1999/xlink" x="0px" y="0px"
	 viewBox="0 0 512 512" style="enable-background:new 0 0 512 512;" xml:space="preserve">
<g transform="scale(1.2)">
	<path d="M0,0v13.1l125.2,119.1L79.5,0H0z M109.6,0l60.8,111.8L167.9,0H109.6L109.6,0z M199.1,0l20.3,106.5L251,0H199.1L199.1,0z
		 M282.2,0l-14.5,117L348.3,0H282.2L282.2,0z M376.9,0l-66,142.2L426.7,53V0H376.9L376.9,0z M0,48.3v75.6l88.3,42L0,48.3L0,48.3z
		 M426.7,89.7L343.6,179l83.1-29.4V89.7L426.7,89.7z M148.9,143.3c-9.7,0.1-22.4,9.3-32.1,24.6c-5.8,9-9.5,18.7-11.1,27.3
		C62,215.6,4.2,252.6,4.2,252.6l132.1,113.2l13.3,60.9H278l10.1-58.1l0.1,0.1l135.5-116.1c0,0-58.8-37.7-102.5-58
		c-1.7-8.5-5.4-17.9-11-26.8c-9.8-15.3-22.5-24.5-32.2-24.6c-3.2,0-6.1,1-8.5,3.1c-2.2,1.9-3.7,4.6-4.6,7.9c1.1,1.4,2.2,2.9,3.3,4.4
		c10.4,14.9,17.4,33.8,20,54.8c7.7,7,15.6,10.6,22,9.7l48.6,32.3l-93.1,51.9c-3.6,4.7-7.6,9-12,12.7c-5-3.9-9.8-7.1-14.6-9.7
		c5.6-4,10.9-9.4,15.5-16.1c10.9-15.7,18-38.1,18-63s-7.1-47.3-18-63c-10.9-15.7-25.2-24.5-40.4-24.5c-15.3,0-29.5,8.8-40.4,24.5
		s-18,38.1-18,63s7.1,47.3,18,63c4,5.8,8.5,10.7,13.3,14.5c-4.9,2.4-9.9,5.4-14.9,9.2c-3.3-3.1-6.5-6.6-9.3-10.3l-93.7-52.3
		l48.4-32.2c6.7,0.5,14.9-3.7,22.7-11.3c2.7-20.4,9.7-38.7,19.8-53.3c0.7-1,1.4-2,2.2-3c-0.8-3.9-2.4-7.1-4.9-9.3
		C155,144.2,152.1,143.3,148.9,143.3L148.9,143.3z M203.2,195.7c-0.6,3.4-0.9,7.2-0.9,11.1c0,2,0.1,4,0.2,5.9
		c-10,0.8-19.7,3-28.5,6.6l-6.1-15.6C179,199.2,190.9,196.6,203.2,195.7L203.2,195.7z M228.3,196.4c10.3,1.2,20.6,3.6,30.7,7.1
		l-5.4,15.9c-8.2-2.8-16.5-4.8-24.8-6c0.2-2.2,0.3-4.4,0.3-6.7C229.1,203.2,228.8,199.7,228.3,196.4L228.3,196.4z M213.7,233.6
		c18,0,32.7,14.7,32.7,32.9c0,18.2-14.6,33-32.7,33s-32.6-14.8-32.6-33C181,248.3,195.6,233.6,213.7,233.6L213.7,233.6z"/>
</g>
</svg>
