<?xml version="1.0" encoding="utf-8"?>
<!-- Generator: Adobe Illustrator 28.2.0, SVG Export Plug-In . SVG Version: 6.00 Build 0)  -->
<svg version="1.1" id="icon" xmlns="http://www.w3.org/2000/svg" xmlns:xlink="http://www.w3.org/1999/xlink" x="0px" y="0px"
	 viewBox="0 0 512 512" style="enable-background:new 0 0 512 512;" xml:space="preserve">
<g transform="translate(0 -20)">
	<path d="M186.1,106.7c-9,0-19.1,5.9-26.7,21.1l-6.8,13.6c2.5-0.2,5-0.3,7.5-0.3c18,0,36,5.4,51.9,16v-31
		C204.4,112.2,194.8,106.7,186.1,106.7L186.1,106.7z M325.8,106.7c-8.7,0-18.3,5.5-25.8,19.4v31c18.1-12.1,38.9-17.3,59.3-15.6
		l-6.8-13.7C344.9,112.6,334.8,106.7,325.8,106.7L325.8,106.7z M160.1,158.7c-19.1,0-38.1,7.7-53.7,23L69,247.1
		c14.5-6.7,30.6-10.5,47.6-10.5c40,0,75.2,20.8,95.4,52.1V179.8C196.7,165.7,178.4,158.7,160.1,158.7z M353,158.7
		c-18.7-0.3-37.4,6.7-53,21.1v108.8c20.2-31.3,55.4-52.1,95.3-52.1c17,0,33.1,3.8,47.6,10.5l-37.4-65.4
		C390.2,166.7,371.6,159,353,158.7L353,158.7z M256,171.4c-5.1,0-12,2.8-26,9.7v134c7.3-5.3,16.3-8.6,26-8.6c9.7,0,18.6,3.2,26,8.6
		v-134C268,174.2,261.1,171.4,256,171.4L256,171.4z M116.9,254.6c-52.8,0-95.4,42.6-95.4,95.3s42.6,95.4,95.4,95.4
		s95.3-42.6,95.3-95.4S169.6,254.6,116.9,254.6L116.9,254.6z M395.1,254.6c-52.8,0-95.3,42.6-95.3,95.3s42.6,95.4,95.3,95.4
		c52.8,0,95.4-42.6,95.4-95.4S447.9,254.6,395.1,254.6L395.1,254.6z M115.3,274c1.2,0,2.4,0,3.7,0c7.3,0.2,14.7,1.5,21.8,3.8
		c36.8,11.3,59.7,51.7,50.6,89.1c-7.7,37.7-45.5,64.5-83.6,59.2c-38.7-3.9-69.4-39.6-67.2-78.5c0.2-11.4,3.1-22.3,8.2-32.1
		c3.7,10.4,13.5,17.4,24.6,17.4c14.4,0,26.1-11.7,26.1-26.1l0,0c0-11.1-7-20.9-17.4-24.6c9.1-4.7,19.1-7.6,29.6-8.1
		C112.9,274,114.1,274,115.3,274L115.3,274z M393.6,274c1.2,0,2.4,0,3.7,0c7.3,0.2,14.7,1.5,21.8,3.8c36.8,11.3,59.7,51.7,50.6,89.1
		c-7.7,37.7-45.5,64.5-83.6,59.2c-38.8-3.9-69.4-39.6-67.2-78.5c0.2-11.4,3.1-22.3,8.2-32.1c4.2,11.7,16.1,19.2,29,17
		c10.9-1.8,19.6-10.5,21.4-21.4c2.1-12.8-5.3-24.8-17-29c9.1-4.7,19.1-7.6,29.6-8.1C391.1,274,392.3,274,393.6,274L393.6,274z
		 M256,324.1c-14.3,0-25.8,11.4-25.8,25.8s11.4,25.8,25.8,25.8c14.3,0,25.8-11.4,25.8-25.8C281.8,335.6,270.3,324.1,256,324.1
		L256,324.1z"/>
</g>
</svg>
