<?xml version="1.0" encoding="utf-8"?>
<!-- Generator: Adobe Illustrator 28.2.0, SVG Export Plug-In . SVG Version: 6.00 Build 0)  -->
<svg version="1.1" id="icon" xmlns="http://www.w3.org/2000/svg" xmlns:xlink="http://www.w3.org/1999/xlink" x="0px" y="0px"
	 viewBox="0 0 512 512" style="enable-background:new 0 0 512 512;" xml:space="preserve">
<g transform="">
	<path d="M50,88c-10,0-18,8-18,18v300c0,10,8,18,18,18h412c10,0,18-8,18-18V106c0-10-8-18-18-18H50z M55,111h402v18H55V111z M55,143
		h210v258H55V143z M73,161v222h7c0.5-24.3,18.3-74.2,47.1-97.9c9.2,7.4,20.5,11.9,32.9,11.9s23.7-4.4,32.9-11.9
		c28.8,23.7,46.6,73.5,47.1,97.9h7V161H73z M295,175h146v18H295V175z M160,185c20.8,0,39,20.2,39,47s-18.2,47-39,47s-39-20.2-39-47
		S139.2,185,160,185z M295,207h114v18H295V207z M295,239h50v18h-50V239z M375,239h66v18h-66V239z M359,335h98v18h-98V335z M327,367
		h130v18H327V367z"/>
</g>
</svg>
